<svg width="78" height="78" viewBox="0 0 78 78" fill="none" xmlns="http://www.w3.org/2000/svg">
<path d="M7 0.5H6.78005L6.63142 0.662138L1.13142 6.66214L1.00141 6.80397L1.00001 6.99638L0.500013 75.9964H0.5V76V76.5V77H1H1.5H2.5H71.5H71.7071L71.8536 76.8536L77.3536 71.3536L77.5 71.2071V71V1V0.5H77H7Z" stroke="black"/>
<path d="M42.281 36.5681L42.5542 36.2451L42.281 35.9221L30.0781 21.5L41.6669 21.5L54.1056 36.2451L41.6669 50.9901L30.0781 50.9901L42.281 36.5681Z" stroke="black"/>
<line x1="7.5" y1="2.18557e-08" x2="7.5" y2="71" stroke="black"/>
<line x1="7" y1="70.5" x2="78" y2="70.5" stroke="black"/>
<line x1="7.35355" y1="70.3536" x2="0.353553" y2="77.3536" stroke="black"/>
</svg>
