<svg width="78" height="78" viewBox="0 0 78 78" fill="none" xmlns="http://www.w3.org/2000/svg">
<path d="M71 0.5H71.22L71.3686 0.662138L76.8686 6.66214L76.9986 6.80397L77 6.99638L77.5 75.9964H77.5V76V76.5V77H77H76.5H75.5H6.5H6.29289L6.14645 76.8536L0.646446 71.3536L0.5 71.2071V71V1V0.5H1H71Z" stroke="black"/>
<path d="M35.719 36.5682L35.4458 36.2452L35.719 35.9222L47.9219 21.5001L36.3331 21.5001L23.8944 36.2452L36.3331 50.9902L47.9219 50.9902L35.719 36.5682Z" stroke="black"/>
<line y1="-0.5" x2="71" y2="-0.5" transform="matrix(4.37114e-08 1 1 -4.37114e-08 71 0)" stroke="black"/>
<line y1="-0.5" x2="71" y2="-0.5" transform="matrix(-1 1.74846e-07 1.74846e-07 1 71 71)" stroke="black"/>
<line y1="-0.5" x2="9.8995" y2="-0.5" transform="matrix(0.707107 0.707107 0.707107 -0.707107 71 70)" stroke="black"/>
</svg>
