<svg width="120" height="92" viewBox="0 0 120 92" fill="none" xmlns="http://www.w3.org/2000/svg">
<path d="M-1.53509e-06 56.8612L-1.53509e-06 34.7998L60.5278 69.7381L60.5278 91.98L-1.53509e-06 56.8612Z" fill="#FF513F"/>
<path d="M-1.52891e-06 34.8323L40.2329 12.097L40.2329 34.5408L79.8826 57.859L60.6408 69.8096L-1.52891e-06 34.8323Z" fill="#001E20"/>
<path d="M79.8827 80.0182L79.8827 57.8451L60.5278 69.8069L60.5278 91.98L79.8827 80.0182Z" fill="#FFC856"/>
<path d="M120 35.6031L120 57.845L59.4722 22.7263L59.4722 0.484372L120 35.6031Z" fill="#001E20"/>
<path d="M120 57.6316L79.7671 80.3669L79.7671 57.9231L40.1174 34.6049L59.3592 22.6543L120 57.6316Z" fill="#FF513F"/>
<path d="M40.1173 12.1544L40.1173 34.6192L59.4722 22.6574L59.4722 0.484375L40.1173 12.1544Z" fill="#FFC856"/>
</svg>
