<svg width="127" height="106" viewBox="0 0 127 106" fill="none" xmlns="http://www.w3.org/2000/svg">
<path d="M0 31.3195V87.5415L65.2826 105.241L127 73.8039V55.9396L105.259 50.0602V31.3195L83.4588 25.3789V6.63821L61.7174 0.758789L0 31.3195Z" fill="#FFC856"/>
<path d="M21.3146 37.0353L83.4824 7.23145V25.5079L21.3146 55.3118V37.0353Z" fill="#001E20"/>
<path d="M43.5172 61.6248L105.685 31.271V49.9221L43.5172 80.2759V61.6248Z" fill="#001E20"/>
<path d="M65.7203 86.2614L127 55.8745V74.2907L65.3014 105.241L65.7203 86.2614Z" fill="#001E20"/>
<path d="M21.1669 36.337L0.000183105 31.8335V87.5563L65.3016 105.241L65.752 86.3264L43.6846 80.0214V61.1065L21.1669 55.2519V36.337Z" fill="#FF513F"/>
</svg>
