<svg width="88" height="117" viewBox="0 0 88 117" fill="none" xmlns="http://www.w3.org/2000/svg">
<g clip-path="url(#clip0)">
<path d="M44.0069 92.0139C17.7052 92.0139 0.0553705 81.7792 -2.06901e-06 69.3385C-2.06901e-06 69.3385 -2.06901e-06 69.3385 -9.93611e-07 93.9407C-4.4859e-07 106.409 17.6775 116.672 44.0069 116.672C70.3363 116.672 88.0138 106.409 88.0138 93.9407C88.0138 69.3385 88.0138 69.3385 88.0138 69.3385C87.9446 81.7792 70.2948 92.0139 44.0069 92.0139Z" fill="#FF513F"/>
<path d="M44.0069 70.3296C17.7052 70.3296 0.0553715 80.5642 0 93.0049C0 93.0049 0 93.0049 -1.07539e-06 68.4027C-1.62042e-06 55.9341 17.6775 45.6716 44.0069 45.6716C70.3363 45.6716 88 55.9341 88 68.4027C88 93.0049 88 93.0049 88 93.0049C87.9446 80.5642 70.2948 70.3296 44.0069 70.3296Z" fill="#001E20"/>
<path d="M44.0067 92.0139C42.8993 92.0139 41.8057 91.9999 40.726 91.958L34.1782 116.169C37.2929 116.504 40.5737 116.672 44.0068 116.672C70.3361 116.672 88.0136 106.409 88.0136 93.9407C88.0136 69.3386 88.0136 69.3386 88.0136 69.3386C87.9444 81.7793 70.2946 92.0139 44.0067 92.0139Z" fill="#FF513F"/>
</g>
<g clip-path="url(#clip1)">
<path d="M44.0053 51.9179C23.6813 51.9179 10.0428 44.1338 10 34.6719C10 34.6719 10 34.6719 10 53.3834C10 62.8666 23.6599 70.6719 44.0053 70.6719C64.3508 70.6719 78.0107 62.8666 78.0107 53.3834C78.0107 34.6719 78.0107 34.6719 78.0107 34.6719C77.9572 44.1338 64.3187 51.9179 44.0053 51.9179Z" fill="#FFC856"/>
<path d="M44.0054 35.4259C23.6813 35.4259 10.0428 43.2099 10 52.6719C10 52.6719 10 52.6719 10 33.9604C10 24.4772 23.6599 16.6719 44.0054 16.6719C64.3508 16.6719 78 24.4772 78 33.9604C78 52.6719 78 52.6719 78 52.6719C77.9572 43.2099 64.3187 35.4259 44.0054 35.4259Z" fill="#FF513F"/>
<path d="M44.0054 51.9179C43.1497 51.9179 42.3046 51.9073 41.4703 51.8754L36.4106 70.2896C38.8174 70.5444 41.3526 70.6719 44.0054 70.6719C64.3509 70.6719 78.0108 62.8666 78.0108 53.3834C78.0108 34.6719 78.0108 34.6719 78.0108 34.6719C77.9573 44.1338 64.3188 51.9179 44.0054 51.9179Z" fill="#FFC856"/>
</g>
<g clip-path="url(#clip2)">
<path d="M44.0035 23.5165C30.8526 23.5165 22.0277 18.4713 22 12.3385C22 12.3385 22 12.3385 22 24.4664C22 30.6129 30.8388 35.6719 44.0035 35.6719C57.1682 35.6719 66.0069 30.6129 66.0069 24.4664C66.0069 12.3385 66.0069 12.3385 66.0069 12.3385C65.9723 18.4713 57.1474 23.5165 44.0035 23.5165Z" fill="#001E20"/>
<path d="M44.0035 12.8274C30.8526 12.8274 22.0277 17.8726 22 24.0054C22 24.0054 22 24.0054 22 11.8775C22 5.73104 30.8388 0.672039 44.0035 0.672038C57.1682 0.672037 66 5.73103 66 11.8775C66 24.0054 66 24.0054 66 24.0054C65.9723 17.8726 57.1474 12.8274 44.0035 12.8274Z" fill="#FFC856"/>
<path d="M44.0036 23.5165C43.4499 23.5165 42.9031 23.5096 42.3632 23.489L39.0894 35.4241C40.6467 35.5893 42.2871 35.6719 44.0036 35.6719C57.1683 35.6719 66.0071 30.6129 66.0071 24.4664C66.0071 12.3385 66.0071 12.3385 66.0071 12.3385C65.9725 18.4713 57.1476 23.5165 44.0036 23.5165Z" fill="#001E20"/>
</g>
<defs>
<clipPath id="clip0">
<rect width="71" height="88" fill="white" transform="translate(0 116.672) rotate(-90)"/>
</clipPath>
<clipPath id="clip1">
<rect width="54" height="68" fill="white" transform="translate(10 70.6719) rotate(-90)"/>
</clipPath>
<clipPath id="clip2">
<rect width="35" height="44" fill="white" transform="translate(22 35.6719) rotate(-90)"/>
</clipPath>
</defs>
</svg>
