<svg width="187" height="171" viewBox="0 0 187 171" fill="none" xmlns="http://www.w3.org/2000/svg">
<path d="M103.721 65.8916L103.274 104.25L136.013 123.152L136.405 84.7616L103.721 65.8916Z" fill="#FF513F"/>
<path d="M136.333 47.0938L103.721 65.8916L136.36 84.7355L169.027 65.9697L136.333 47.0938Z" fill="#FFC856"/>
<path d="M136.397 84.7568L136.013 123.152L169.609 104.407L169.398 66.184L136.397 84.7568Z" fill="#001E20"/>
<path d="M82.3861 104.793L82.8336 66.4353L50.0942 47.5332L49.7022 85.9234L82.3861 104.793Z" fill="#FF513F"/>
<path d="M49.7743 123.591L82.3863 104.793L49.7478 85.9495L17.0804 104.715L49.7743 123.591Z" fill="#FFC856"/>
<path d="M49.7109 85.9283L50.0946 47.5332L16.4982 66.2784L16.7091 104.501L49.7109 85.9283Z" fill="#001E20"/>
</svg>
