<svg width="52" height="52" viewBox="0 0 52 52" fill="none" xmlns="http://www.w3.org/2000/svg">
<g clip-path="url(#clip0)">
<path d="M42.9227 40.1825L42.9435 40.1825L50.5006 40.186C50.8818 40.1549 51.1899 39.9104 51.3514 39.5102C51.5166 39.1006 51.5156 38.539 51.2273 37.98C50.7573 37.0722 50.1377 36.2549 49.4611 35.4393C48.3441 34.1009 47.0904 32.9134 45.8111 31.7017C45.3438 31.2591 44.873 30.8132 44.4043 30.3556C44.4042 30.3555 44.4042 30.3555 44.4041 30.3554L44.7534 29.9976C43.1982 28.4806 43.0987 27.6003 44.3508 25.8534L42.9227 40.1825ZM42.9227 40.1825L42.9019 40.1842M42.9227 40.1825L42.9019 40.1842M42.9019 40.1842C41.1312 40.3311 39.7109 39.6297 38.4771 38.372L38.4769 38.3719M42.9019 40.1842L38.4769 38.3719M38.4769 38.3719C37.7752 37.6571 37.1143 36.9176 36.4444 36.1681C36.1205 35.8056 35.7945 35.4408 35.4607 35.0753L35.4601 35.0747M38.4769 38.3719L35.4601 35.0747M35.4601 35.0747C35.037 34.6128 34.5706 34.1515 34.0006 33.7813L34.0005 33.7812M35.4601 35.0747L34.0005 33.7812M34.0005 33.7812C33.4138 33.4004 32.7898 33.2197 32.1844 33.3646C31.5759 33.5101 31.1053 33.9558 30.767 34.5732C30.1068 35.7767 29.9681 37.0901 29.9085 38.3237L29.9084 38.3251M34.0005 33.7812L29.9084 38.3251M29.9084 38.3251C29.8686 39.1992 29.7164 39.5843 29.499 39.7909C29.2741 40.0045 28.8616 40.1423 27.9729 40.1828L27.9721 40.1829M29.9084 38.3251L27.9721 40.1829M27.9721 40.1829C24.2097 40.3603 20.6764 39.7901 17.404 37.9178L17.404 37.9178M27.9721 40.1829L17.404 37.9178M17.404 37.9178C14.5084 36.2611 12.2491 33.9147 10.2642 31.2258M17.404 37.9178L10.2642 31.2258M10.2642 31.2258C6.38324 25.9673 3.40467 20.1803 0.718704 14.2073L9.8619 31.5227L10.2642 31.2258ZM46.0513 22.7219C45.3422 23.6572 44.6301 24.5998 43.944 25.5627L0.718636 14.2071C0.432243 13.5696 0.482209 13.2622 0.563688 13.1322C0.64373 13.0044 0.894648 12.8256 1.59675 12.8135L1.59783 12.8135C4.06224 12.7656 6.52717 12.769 8.9964 12.8101L8.99739 12.8101C9.39927 12.816 9.70952 12.9315 9.95773 13.1244C10.2114 13.3216 10.4286 13.6221 10.5988 14.0383C11.9478 17.3552 13.6013 20.5181 15.6807 23.4537L15.6807 23.4538C16.2214 24.2168 16.8262 25.0632 17.7048 25.6644C18.2009 26.004 18.7474 26.1939 19.2836 26.0357C19.8193 25.8777 20.1754 25.4221 20.4085 24.87C20.6996 24.1813 20.821 23.4546 20.8822 22.7662L20.8824 22.7646C21.0802 20.455 21.108 18.1305 20.7569 15.8004C20.6403 15.0144 20.3545 14.3293 19.869 13.7987C19.3844 13.269 18.7319 12.9274 17.9404 12.7745C17.9425 12.772 17.9446 12.7695 17.9467 12.767C18.2369 12.4274 18.4859 12.1918 18.7697 12.035C19.0455 11.8825 19.388 11.7864 19.8893 11.7864H28.4007C28.9814 11.9072 29.2453 12.0819 29.4033 12.2919C29.5819 12.5294 29.6916 12.8944 29.7825 13.5485L29.7898 23.0178C29.7819 23.3498 29.86 23.9296 30.065 24.4803C30.2655 25.0189 30.6415 25.6727 31.3252 25.9239L31.3337 25.927L31.3423 25.9298C31.8984 26.1116 32.3694 25.9688 32.7396 25.7268C33.0351 25.5338 33.2925 25.2579 33.4887 25.0477C33.5174 25.017 33.5447 24.9877 33.5707 24.9603L33.5715 24.9594C35.673 22.729 37.1622 20.1044 38.4762 17.4278C39.0656 16.2381 39.5704 15.0069 40.0541 13.7911L40.0542 13.7909C40.2116 13.3947 40.3928 13.1529 40.5998 13.0063C40.8027 12.8626 41.0837 12.7726 41.5153 12.7809V12.781L41.5245 12.781L49.7645 12.7883H49.7649C50.0102 12.7883 50.2187 12.7926 50.4087 12.8252L50.4091 12.8253C51.0738 12.9386 51.3237 13.1155 51.4192 13.2702C51.5136 13.4232 51.5613 13.7241 51.3565 14.3714C50.7311 16.3398 49.5321 17.9997 48.281 19.7316C48.238 19.7911 48.195 19.8507 48.1519 19.9104C47.5128 20.7947 46.8527 21.6652 46.1883 22.5413L46.0513 22.7219Z" stroke="black"/>
</g>
<defs>
<clipPath id="clip0">
<rect width="52" height="52" fill="white"/>
</clipPath>
</defs>
</svg>
