<svg width="1920" height="892" viewBox="0 0 1920 892" fill="none" xmlns="http://www.w3.org/2000/svg">
<path d="M1481 185.5H1920V371H7.5L1481 185.5Z" fill="#FFC856"/>
<g clip-path="url(#clip0)">
<path d="M1464.46 326.009L1427.45 343.84L1446.6 343.361L1487.36 342.358L1502.34 318.882L1506.88 321.041L1506.88 322.452L1511.77 323.608L1506.47 337.098L1512.1 336.2L1505.83 367.267L1547.14 344.429L1531.16 315.536L1539.56 316.336L1543.2 321.657L1545.43 319.703L1565.57 343.144L1569.82 317.264L1539.78 300.611L1545.4 299.013L1530.93 295.143L1555.65 294.947L1548.11 290.83L1589.09 278.835L1584.08 242.404L1556.3 267.038L1553.32 263.613L1543.05 275.587L1538.49 273.956L1535.56 275.918L1533.36 275.476L1551.36 253.651L1516.02 221.495L1518.22 251.428L1513.16 249.069L1513.26 249.49L1487.79 236.175L1475.22 229.592L1491.2 253.348L1486.66 252.198L1495.54 262.738L1492.29 263.193L1495.91 270.602L1493.36 269.823L1493.15 276.503C1492.78 276.42 1492.42 276.338 1492.02 276.267C1488.45 275.638 1485.18 276.2 1483.43 277.561L1464.65 272.179L1459.83 271.972L1462.08 267.248L1424.75 259.129L1419.87 259.261L1420.49 255.754L1382.63 250.608L1379.08 251.028L1379.62 248.002L1341.76 242.856L1338.21 243.276L1338.75 240.251L1300.89 235.104L1294 235.909L1292.58 243.99L1331.91 253.654L1335 252.107L1372.77 261.442L1375.87 259.895L1413.64 269.229L1416.43 267.831L1451.44 279.559L1452.39 279.232L1471.16 286.998C1471.01 287.283 1470.89 287.592 1470.83 287.912C1470.36 290.564 1474.02 293.43 1479 294.306C1480.43 294.559 1481.8 294.617 1483.06 294.508L1471.23 301.068L1473.73 301.948L1462.67 304.717L1464.1 306.731L1446.14 308.668L1450.28 310.37L1412.19 316.892L1427.72 319.443L1459.2 324.622L1458.64 324.837L1464.46 326.009ZM1524.59 304.578L1524.93 304.198L1528.06 307.135L1524.59 304.578ZM1533.42 311.108L1535.77 310.879L1538.51 314.867L1533.42 311.108ZM1516.46 262.772L1513.57 262.592L1514.23 253.587L1516.46 262.772ZM1474.92 316.455L1476.91 317.888L1464.59 322.527L1474.92 316.455Z" fill="#001E20" fill-opacity="0.1"/>
<g clip-path="url(#clip1)">
<path d="M1294.92 261.295L1355.57 267.652L1296.37 259.836L1293.29 259.855L1294.92 261.295Z" fill="#001E20" fill-opacity="0.1"/>
<path d="M1298.82 261.709L1310.08 271.112L1321.32 273.92L1302.5 262.093L1298.82 261.709Z" fill="#001E20" fill-opacity="0.1"/>
<path d="M1323.52 274.148L1334.25 275.032L1312.24 263.112L1307.56 262.623L1323.52 274.148Z" fill="#001E20" fill-opacity="0.1"/>
<path d="M1338.75 275.171L1315.98 263.506L1322.67 264.204L1348.33 274.831L1338.75 275.171Z" fill="#001E20" fill-opacity="0.1"/>
<path d="M1350.29 274.061L1359.9 273.429L1337.22 265.733L1329.93 264.963L1350.29 274.061Z" fill="#001E20" fill-opacity="0.1"/>
<path d="M1343.95 266.438L1362.84 272.272L1368.1 271.444L1350.25 267.092L1343.95 266.438Z" fill="#001E20" fill-opacity="0.1"/>
<path d="M1350.22 267.106L1368.25 269.732L1367.28 267.484L1350.22 267.106Z" fill="#001E20" fill-opacity="0.1"/>
<path d="M1366.43 266.331L1349.61 266.808C1349.61 266.808 1341.48 265.79 1341.86 265.838C1342.24 265.886 1361.18 264.234 1361.64 264.271C1362.13 264.299 1366.43 266.331 1366.43 266.331Z" fill="#001E20" fill-opacity="0.1"/>
<path d="M1336.14 265.083L1358.58 262.483L1349.71 259.754L1328.51 264.077L1336.14 265.083Z" fill="#001E20" fill-opacity="0.1"/>
<path d="M1321.82 263.191L1346.45 258.472L1338.28 256.089L1315.98 262.421L1321.82 263.191Z" fill="#001E20" fill-opacity="0.1"/>
<path d="M1312.4 261.946L1334.22 255.255L1323.91 253.855L1307.3 261.278L1312.4 261.946Z" fill="#001E20" fill-opacity="0.1"/>
<path d="M1302.05 260.585L1320.79 253.218L1310.36 253.485L1298.4 260.1L1302.05 260.585Z" fill="#001E20" fill-opacity="0.1"/>
</g>
<g clip-path="url(#clip2)">
<path d="M1289.05 261.64L1317.75 288.089L1290.48 261.464L1288.86 260.291L1289.05 261.64Z" fill="#001E20" fill-opacity="0.1"/>
<path d="M1290.89 263.345L1292.4 272.391L1296.97 278.113L1292.63 264.947L1290.89 263.345Z" fill="#001E20" fill-opacity="0.1"/>
<path d="M1298.01 279.073L1303.2 283.631L1297.24 269.196L1295.02 267.153L1298.01 279.073Z" fill="#001E20" fill-opacity="0.1"/>
<path d="M1305.48 285.424L1299.01 270.825L1302.18 273.742L1310.64 288.927L1305.48 285.424Z" fill="#001E20" fill-opacity="0.1"/>
<path d="M1312.02 289.29L1317.32 292.654L1309.06 280.089L1305.61 276.907L1312.02 289.29Z" fill="#001E20" fill-opacity="0.1"/>
<path d="M1312.25 283.024L1319.4 293.2L1322.52 294.798L1315.23 285.769L1312.25 283.024Z" fill="#001E20" fill-opacity="0.1"/>
<path d="M1315.21 285.762L1323.4 293.994L1323.93 292.493L1315.21 285.762Z" fill="#001E20" fill-opacity="0.1"/>
<path d="M1324.02 291.585L1315.03 285.38C1315.03 285.38 1311.26 281.749 1311.43 281.919C1311.61 282.088 1322.26 288.517 1322.48 288.713C1322.72 288.914 1324.02 291.585 1324.02 291.585Z" fill="#001E20" fill-opacity="0.1"/>
<path d="M1308.8 279.349L1321.72 286.643L1318.35 281.866L1305.28 275.916L1308.8 279.349Z" fill="#001E20" fill-opacity="0.1"/>
<path d="M1302.21 272.907L1317.24 279.973L1314.09 275.642L1299.51 270.28L1302.21 272.907Z" fill="#001E20" fill-opacity="0.1"/>
<path d="M1297.86 268.668L1312.35 273.665L1307.62 269.008L1295.51 266.378L1297.86 268.668Z" fill="#001E20" fill-opacity="0.1"/>
<path d="M1293.09 264.015L1306.29 267.494L1300.73 263.63L1291.42 262.375L1293.09 264.015Z" fill="#001E20" fill-opacity="0.1"/>
</g>
</g>
<path d="M440.721 186H-0.00012207V371H1920L440.721 186Z" fill="#007550"/>
<g clip-path="url(#clip3)">
<path d="M865.53 262.583L863.95 284.232L861.829 288V265.121L865.53 262.583Z" fill="#FFC856"/>
<path d="M861.829 288H853.078L850.148 265.12H861.829V288Z" fill="#FF513F"/>
<path d="M865.53 262.583L861.829 265.121H850.148L853.733 262.583H865.53Z" fill="#001E20"/>
<path d="M864.932 238.992L863.352 260.641L861.212 264.409V241.549L864.932 238.992Z" fill="#FFC856"/>
<path d="M861.212 264.409H852.461L849.55 241.549H861.212V264.409Z" fill="#FF513F"/>
<path d="M864.932 238.992L861.212 241.549H849.55L853.135 238.992H864.932Z" fill="#001E20"/>
<path d="M864.335 215.401L862.735 237.05L860.615 240.818V217.958L864.335 215.401Z" fill="#FFC856"/>
<path d="M860.615 240.818H851.863L848.953 217.958H860.615V240.818Z" fill="#FF513F"/>
<path d="M864.335 215.401L860.615 217.958H848.953L852.519 215.401H864.335Z" fill="#001E20"/>
<path d="M859.94 191.041L861.559 212.69L860.017 216.728L856.644 194.117L859.94 191.041Z" fill="#FFC856"/>
<path d="M860.017 216.728L851.362 218.016L845.097 195.829L856.644 194.118L860.017 216.728Z" fill="#FF513F"/>
<path d="M859.94 191.041L856.644 194.117L845.097 195.829L848.259 192.772L859.94 191.041Z" fill="#001E20"/>
<path d="M851.034 167.835L855.237 189.138L854.196 193.329L848.124 171.277L851.034 167.835Z" fill="#FFC856"/>
<path d="M854.196 193.329L845.753 195.636L836.867 174.353L848.124 171.277L854.196 193.329Z" fill="#FF513F"/>
<path d="M851.034 167.835L848.123 171.277L836.866 174.353L839.642 170.95L851.034 167.835Z" fill="#FFB300"/>
<path d="M842.109 172.199L827.71 166.758L829.175 169.738L814.891 171.834L817.841 174.583L799.201 186.215L798.603 214.094L812.52 193.445L813.523 195.944L818.882 186.1L820.751 187.1L825.705 181.197L826.149 182.678L842.109 172.199Z" fill="#007550"/>
<path d="M842.109 172.199L824.78 178.198L826.149 182.678L842.109 172.199Z" fill="#001E20"/>
<path d="M798.603 214.094L812.521 193.444L810.574 188.83L798.796 205.192L798.603 214.094Z" fill="#001E20"/>
<path d="M824.78 178.198L810.574 188.83L813.523 195.944L818.882 186.1L820.752 187.1L825.706 181.197L824.78 178.198Z" fill="#001E20"/>
<path d="M843.44 170.969L828.424 158.279L828.905 162.509L810.805 158.952L813.195 163.509L785.746 169.565L773.101 202.885L798.68 183.966L798.854 187.388L809.514 177.813L811.326 179.813L819.807 174.814L819.73 176.775L843.44 170.969Z" fill="#007550"/>
<path d="M843.44 170.969L820 170.815L819.73 176.775L843.44 170.969Z" fill="#001E20"/>
<path d="M773.101 202.885L798.68 183.966L798.353 177.564L777.149 192.233L773.101 202.885Z" fill="#001E20"/>
<path d="M820 170.815L798.352 177.564L798.854 187.388L809.513 177.814L811.325 179.813L819.807 174.814L820 170.815Z" fill="#001E20"/>
<path d="M844.307 171.911L853.81 160.26L854.061 163.548L867.207 158.53L866.07 162.336L887.64 163.49L901.943 187.446L879.93 176.179L880.296 178.833L870.87 172.834L869.81 174.603L862.677 171.853L863.024 173.353L844.307 171.911Z" fill="#007550"/>
<path d="M844.307 171.911L861.964 168.796L863.024 173.353L844.307 171.911Z" fill="#001E20"/>
<path d="M901.943 187.446L879.93 176.179L879.274 171.219L897.355 179.794L901.943 187.446Z" fill="#001E20"/>
<path d="M861.964 168.796L879.274 171.219L880.296 178.833L870.87 172.834L869.809 174.603L862.677 171.853L861.964 168.796Z" fill="#001E20"/>
<path d="M842.572 171.488L849.03 153.242L850.707 157.126L864.277 145.359L864.528 150.474L890.782 142.552L918 165.451L886.946 161.279L888.507 164.336L874.725 161.144L874.185 163.74L864.509 163.471L865.549 165.143L842.572 171.488Z" fill="#007550"/>
<path d="M842.572 171.488L862.369 160.087L865.55 165.143L842.572 171.488Z" fill="#001E20"/>
<path d="M918 165.451L886.946 161.279L884.055 155.55L909.287 158.126L918 165.451Z" fill="#001E20"/>
<path d="M862.369 160.087L884.055 155.55L888.508 164.336L874.725 161.144L874.185 163.74L864.509 163.471L862.369 160.087Z" fill="#001E20"/>
<path d="M843.44 172.911L838.409 152.685L836.192 156.607L822.833 142.341L822.024 147.743L794.632 135.977L763 156.818L796.811 156.376L794.825 159.433L809.976 157.799L810.265 160.625L820.694 161.586L819.402 163.221L843.44 172.911Z" fill="#007550"/>
<path d="M843.44 172.91L823.354 158.241L819.402 163.22L843.44 172.91Z" fill="#001E20"/>
<path d="M763 156.818L796.81 156.376L800.511 150.647L773.12 150.147L763 156.818Z" fill="#001E20"/>
<path d="M823.354 158.241L800.511 150.647L794.825 159.433L809.976 157.799L810.265 160.625L820.694 161.587L823.354 158.241Z" fill="#001E20"/>
<path d="M841.82 172.219L838.177 151.762L841.801 154.453L848.182 136.092L851.112 140.707L871.294 119L908.632 125.383L877.616 138.496L880.681 140.476L866.205 145.052L867.072 147.763L857.955 152.8L859.805 153.781L841.82 172.219Z" fill="#007550"/>
<path d="M841.82 172.219L854.177 150.82L859.805 153.78L841.82 172.219Z" fill="#001E20"/>
<path d="M908.632 125.383L877.616 138.496L871.911 134.746L896.7 123.345L908.632 125.383Z" fill="#001E20"/>
<path d="M854.177 150.82L871.911 134.747L880.681 140.476L866.205 145.052L867.072 147.763L857.955 152.8L854.177 150.82Z" fill="#001E20"/>
<path d="M842.071 168.566L847.314 154.127L844.326 155.626L842.013 141.418L839.295 144.398L827.363 125.979L799.394 125.806L820.308 139.361L817.822 140.418L827.787 145.629L826.804 147.494L832.799 152.339L831.334 152.819L842.071 168.566Z" fill="#007550"/>
<path d="M842.071 168.566L835.787 151.377L831.334 152.819L842.071 168.566Z" fill="#001E20"/>
<path d="M799.393 125.806L820.308 139.361L824.915 137.38L808.337 125.864L799.393 125.806Z" fill="#001E20"/>
<path d="M835.787 151.377L824.915 137.381L817.822 140.418L827.787 145.629L826.804 147.494L832.799 152.339L835.787 151.377Z" fill="#001E20"/>
<path d="M850.823 178.64C847.948 178.64 845.618 176.316 845.618 173.449C845.618 170.582 847.948 168.258 850.823 168.258C853.697 168.258 856.027 170.582 856.027 173.449C856.027 176.316 853.697 178.64 850.823 178.64Z" fill="black"/>
<path d="M839.893 184.177C837.018 184.177 834.688 181.853 834.688 178.986C834.688 176.119 837.018 173.795 839.893 173.795C842.767 173.795 845.097 176.119 845.097 178.986C845.097 181.853 842.767 184.177 839.893 184.177Z" fill="black"/>
<path d="M843.439 176.679C840.565 176.679 838.235 174.355 838.235 171.488C838.235 168.621 840.565 166.297 843.439 166.297C846.314 166.297 848.644 168.621 848.644 171.488C848.644 174.355 846.314 176.679 843.439 176.679Z" fill="black"/>
</g>
<rect y="370" width="1920" height="522" fill="#007550"/>
<path d="M1277.8 202.205L1280.02 232.693L1283 238V205.779L1277.8 202.205Z" fill="#FFC856"/>
<path d="M1283 238H1295.31L1299.43 205.779H1283V238Z" fill="#FF513F"/>
<path d="M1277.8 202.205L1283 205.779H1299.43L1294.39 202.205H1277.8Z" fill="#001E20"/>
<path d="M1278.64 168.983L1280.86 199.47L1283.87 204.777V172.584L1278.64 168.983Z" fill="#FFC856"/>
<path d="M1283.87 204.778H1296.18L1300.27 172.584H1283.87V204.778Z" fill="#FF513F"/>
<path d="M1278.64 168.983L1283.87 172.584H1300.27L1295.23 168.983H1278.64Z" fill="#001E20"/>
<path d="M1279.48 135.76L1281.73 166.248L1284.71 171.555V139.361L1279.48 135.76Z" fill="#FFC856"/>
<path d="M1284.71 171.555H1297.02L1301.11 139.361H1284.71V171.555Z" fill="#FF513F"/>
<path d="M1279.48 135.76L1284.71 139.361H1301.11L1296.1 135.76H1279.48Z" fill="#001E20"/>
<path d="M1285.66 101.455L1283.38 131.942L1285.55 137.628L1290.29 105.787L1285.66 101.455Z" fill="#FFC856"/>
<path d="M1285.55 137.628L1297.72 139.443L1306.53 108.197L1290.29 105.787L1285.55 137.628Z" fill="#FF513F"/>
<path d="M1285.66 101.455L1290.29 105.787L1306.53 108.197L1302.09 103.891L1285.66 101.455Z" fill="#001E20"/>
<path d="M1298.18 68.7737L1292.27 98.7741L1293.74 104.677L1302.28 73.6203L1298.18 68.7737Z" fill="#FFC856"/>
<path d="M1293.74 104.677L1305.61 107.926L1318.11 77.9526L1302.28 73.6204L1293.74 104.677Z" fill="#FF513F"/>
<path d="M1298.18 68.7737L1302.28 73.6203L1318.11 77.9525L1314.21 73.16L1298.18 68.7737Z" fill="#FFB300"/>
<path d="M1310.74 74.9199L1330.99 67.2573L1328.93 71.4541L1349.02 74.4054L1344.87 78.2774L1371.09 94.6585L1371.93 133.919L1352.35 104.839L1350.94 108.359L1343.41 94.496L1340.78 95.904L1333.81 87.5916L1333.18 89.6764L1310.74 74.9199Z" fill="#007550"/>
<path d="M1310.74 74.9199L1335.11 83.3677L1333.18 89.6765L1310.74 74.9199Z" fill="#001E20"/>
<path d="M1371.93 133.919L1352.35 104.839L1355.09 98.3408L1371.65 121.383L1371.93 133.919Z" fill="#001E20"/>
<path d="M1335.11 83.3677L1355.09 98.3408L1350.94 108.359L1343.4 94.496L1340.78 95.904L1333.81 87.5916L1335.11 83.3677Z" fill="#001E20"/>
<path d="M1308.87 73.187L1329.99 55.3167L1329.31 61.2734L1354.76 56.2643L1351.4 62.6814L1390.01 71.2104L1407.79 118.133L1371.82 91.4905L1371.57 96.3101L1356.58 82.8261L1354.03 85.642L1342.1 78.6022L1342.21 81.364L1308.87 73.187Z" fill="#007550"/>
<path d="M1308.87 73.1871L1341.83 72.9705L1342.21 81.3641L1308.87 73.1871Z" fill="#001E20"/>
<path d="M1407.79 118.133L1371.82 91.4905L1372.28 82.4741L1402.1 103.133L1407.79 118.133Z" fill="#001E20"/>
<path d="M1341.83 72.9705L1372.28 82.4742L1371.57 96.3102L1356.58 82.8262L1354.03 85.6421L1342.1 78.6023L1341.83 72.9705Z" fill="#001E20"/>
<path d="M1307.65 74.5137L1294.28 58.1056L1293.93 62.7356L1275.44 55.6687L1277.04 61.0298L1246.7 62.6544L1226.58 96.3913L1257.54 80.5247L1257.03 84.2612L1270.29 75.8134L1271.78 78.3044L1281.81 74.4325L1281.32 76.5445L1307.65 74.5137Z" fill="#007550"/>
<path d="M1307.65 74.5138L1282.81 70.1274L1281.32 76.5445L1307.65 74.5138Z" fill="#001E20"/>
<path d="M1226.58 96.3914L1257.54 80.5247L1258.47 73.5391L1233.04 85.6151L1226.58 96.3914Z" fill="#001E20"/>
<path d="M1282.81 70.1274L1258.47 73.539L1257.03 84.2612L1270.29 75.8134L1271.78 78.3045L1281.81 74.4326L1282.81 70.1274Z" fill="#001E20"/>
<path d="M1310.09 73.9182L1301 48.2228L1298.64 53.6922L1279.56 37.1216L1279.21 44.3239L1242.28 33.1685L1204 65.4162L1247.68 59.5407L1245.48 63.8458L1264.86 59.3512L1265.62 63.0064L1279.23 62.6274L1277.77 64.983L1310.09 73.9182Z" fill="#007550"/>
<path d="M1310.09 73.918L1282.24 57.8618L1277.77 64.9829L1310.09 73.918Z" fill="#001E20"/>
<path d="M1204 65.4162L1247.68 59.5406L1251.74 51.4719L1216.25 55.1001L1204 65.4162Z" fill="#001E20"/>
<path d="M1282.24 57.8619L1251.74 51.4719L1245.48 63.8458L1264.86 59.3511L1265.62 63.0064L1279.23 62.6273L1282.24 57.8619Z" fill="#001E20"/>
<path d="M1308.87 75.9216L1315.94 47.4375L1319.06 52.961L1337.85 32.8704L1338.99 40.4789L1377.51 23.9082L1422 53.2588L1374.45 52.6361L1377.24 56.9412L1355.93 54.6397L1355.52 58.6199L1340.86 59.9737L1342.67 62.2752L1308.87 75.9216Z" fill="#007550"/>
<path d="M1308.87 75.9216L1337.12 55.2625L1342.67 62.2752L1308.87 75.9216Z" fill="#001E20"/>
<path d="M1422 53.259L1374.45 52.6362L1369.24 44.5675L1407.77 43.8635L1422 53.259Z" fill="#001E20"/>
<path d="M1337.12 55.2625L1369.24 44.5674L1377.24 56.9412L1355.93 54.6397L1355.52 58.6199L1340.86 59.9738L1337.12 55.2625Z" fill="#001E20"/>
<path d="M1311.14 74.947L1316.27 46.1379L1311.17 49.9286L1302.2 24.0708L1298.08 30.5691L1269.69 0L1217.18 8.98931L1260.8 27.4553L1256.49 30.2441L1276.85 36.6883L1275.63 40.506L1288.45 47.6L1285.85 48.9809L1311.14 74.947Z" fill="#007550"/>
<path d="M1311.14 74.9469L1293.76 44.811L1285.85 48.9808L1311.14 74.9469Z" fill="#001E20"/>
<path d="M1217.18 8.98922L1260.8 27.4552L1268.82 22.1753L1233.96 6.11914L1217.18 8.98922Z" fill="#001E20"/>
<path d="M1293.76 44.8113L1268.82 22.1755L1256.49 30.2443L1276.85 36.6884L1275.63 40.5061L1288.45 47.6001L1293.76 44.8113Z" fill="#001E20"/>
<path d="M1310.79 69.8025L1303.42 49.4682L1307.62 51.5802L1310.87 31.5709L1314.69 35.7677L1331.48 9.82865L1370.81 9.58496L1341.4 28.6737L1344.9 30.1629L1330.88 37.5005L1332.26 40.1269L1323.83 46.9501L1325.89 47.6271L1310.79 69.8025Z" fill="#007550"/>
<path d="M1310.79 69.8026L1319.63 45.5964L1325.89 47.6272L1310.79 69.8026Z" fill="#001E20"/>
<path d="M1370.81 9.58496L1341.4 28.6737L1334.92 25.8848L1358.23 9.66619L1370.81 9.58496Z" fill="#001E20"/>
<path d="M1319.63 45.5963L1334.92 25.8848L1344.9 30.1628L1330.88 37.5005L1332.26 40.1269L1323.83 46.9501L1319.63 45.5963Z" fill="#001E20"/>
<path d="M1302.35 84.9032C1306.4 84.9032 1309.67 81.6301 1309.67 77.5926C1309.67 73.555 1306.4 70.282 1302.35 70.282C1298.31 70.282 1295.03 73.555 1295.03 77.5926C1295.03 81.6301 1298.31 84.9032 1302.35 84.9032Z" fill="black"/>
<path d="M1314.33 88.8963C1318.37 88.8963 1321.65 85.6232 1321.65 81.5857C1321.65 77.5482 1318.37 74.2751 1314.33 74.2751C1310.29 74.2751 1307.01 77.5482 1307.01 81.5857C1307.01 85.6232 1310.29 88.8963 1314.33 88.8963Z" fill="black"/>
<path d="M1311.14 76.9166C1315.18 76.9166 1318.46 73.6435 1318.46 69.606C1318.46 65.5685 1315.18 62.2954 1311.14 62.2954C1307.09 62.2954 1303.82 65.5685 1303.82 69.606C1303.82 73.6435 1307.09 76.9166 1311.14 76.9166Z" fill="black"/>
<g clip-path="url(#clip4)">
<path d="M1781 320.579L1783 325.71L1782.93 326.803L1780.43 321.561L1781 320.579Z" fill="#FFC856"/>
<path d="M1782.93 326.803L1780.93 327.751L1777.77 322.827L1780.43 321.561L1782.93 326.803Z" fill="#FFC856"/>
<path d="M1781 320.579L1780.43 321.561L1777.77 322.826L1778.31 321.857L1781 320.579Z" fill="#FFC856"/>
<path d="M1778.3 315.239L1780.29 320.37L1780.22 321.465L1777.73 316.228L1778.3 315.239Z" fill="#FFC856"/>
<path d="M1780.22 321.465L1778.22 322.413L1775.07 317.491L1777.73 316.228L1780.22 321.465Z" fill="#FFC856"/>
<path d="M1778.3 315.239L1777.73 316.228L1775.07 317.491L1775.61 316.517L1778.3 315.239Z" fill="#FFC856"/>
<path d="M1775.59 309.899L1777.58 315.032L1777.51 316.125L1775.02 310.888L1775.59 309.899Z" fill="#FFC856"/>
<path d="M1777.51 316.125L1775.52 317.073L1772.36 312.151L1775.02 310.888L1777.51 316.125Z" fill="#FFC856"/>
<path d="M1775.59 309.899L1775.02 310.888L1772.36 312.151L1772.9 311.179L1775.59 309.899Z" fill="#FFC856"/>
<path d="M1771.94 304.794L1774.66 309.579L1774.75 310.671L1771.52 305.856L1771.94 304.794Z" fill="#FFC856"/>
<path d="M1774.75 310.671L1772.92 311.903L1769.08 307.499L1771.52 305.856L1774.75 310.671Z" fill="#FFC856"/>
<path d="M1771.94 304.794L1771.52 305.856L1769.08 307.498L1769.46 306.456L1771.94 304.794Z" fill="#FFC856"/>
<path d="M1767.38 300.442L1770.66 304.867L1770.88 305.94L1767.09 301.546L1767.38 300.442Z" fill="#FFC856"/>
<path d="M1770.88 305.94L1769.2 307.383L1764.86 303.47L1767.09 301.546L1770.88 305.94Z" fill="#FFC856"/>
<path d="M1767.38 300.442L1767.09 301.546L1764.86 303.47L1765.12 302.389L1767.38 300.442Z" fill="#FFC856"/>
<path d="M1765.82 302.408L1761.95 302.722L1762.61 303.246L1759.58 305.273L1760.55 305.583L1757.57 310.267L1760.47 316.719L1761.39 310.481L1761.89 310.945L1762.04 308.109L1762.58 308.136L1763.06 306.247L1763.33 306.538L1765.82 302.408Z" fill="#FFC856"/>
<path d="M1765.82 302.408L1762.53 305.66L1763.33 306.538L1765.82 302.408Z" fill="#FFC856"/>
<path d="M1760.47 316.719L1761.39 310.481L1760.45 309.635L1759.54 314.659L1760.47 316.719Z" fill="#FFC856"/>
<path d="M1762.53 305.66L1760.45 309.635L1761.89 310.945L1762.04 308.109L1762.58 308.136L1763.06 306.247L1762.53 305.66Z" fill="#FFC856"/>
<path d="M1765.99 301.983L1761.19 300.702L1761.76 301.619L1757.24 302.765L1758.29 303.55L1752.69 307.91L1753.44 316.914L1757.21 309.809L1757.62 310.574L1759 307.226L1759.64 307.487L1761.02 305.423L1761.22 305.881L1765.99 301.983Z" fill="#FFC856"/>
<path d="M1765.99 301.983L1760.63 304.486L1761.22 305.881L1765.99 301.983Z" fill="#FFC856"/>
<path d="M1753.44 316.914L1757.21 309.809L1756.43 308.377L1753.2 314.035L1753.44 316.914Z" fill="#FFC856"/>
<path d="M1760.63 304.486L1756.43 308.377L1757.62 310.574L1759 307.226L1759.64 307.487L1761.02 305.423L1760.63 304.486Z" fill="#FFC856"/>
<path d="M1766.29 302.104L1767.19 298.406L1767.6 299.132L1770.05 296.558L1770.21 297.553L1775.25 295.481L1781.12 299.421L1774.87 299.224L1775.25 299.792L1772.44 299.439L1772.4 299.959L1770.47 300.101L1770.71 300.407L1766.29 302.104Z" fill="#FFC856"/>
<path d="M1766.29 302.105L1769.98 299.478L1770.71 300.407L1766.29 302.105Z" fill="#FFC856"/>
<path d="M1781.12 299.421L1774.87 299.224L1774.18 298.158L1779.24 298.164L1781.12 299.421Z" fill="#FFC856"/>
<path d="M1769.98 299.478L1774.18 298.158L1775.25 299.792L1772.44 299.439L1772.4 299.959L1770.47 300.101L1769.98 299.478Z" fill="#FFC856"/>
<path d="M1765.85 302.195L1765.33 297.316L1766.14 298.024L1767.95 293.858L1768.56 295.003L1773.68 290.344L1782.38 292.642L1774.85 295.05L1775.54 295.581L1772.05 296.343L1772.21 296.996L1769.98 297.983L1770.39 298.253L1765.85 302.195Z" fill="#FFC856"/>
<path d="M1765.85 302.195L1769.12 297.439L1770.39 298.253L1765.85 302.195Z" fill="#FFC856"/>
<path d="M1782.38 292.642L1774.85 295.05L1773.57 294.051L1779.6 291.908L1782.38 292.642Z" fill="#FFC856"/>
<path d="M1769.12 297.439L1773.57 294.05L1775.54 295.581L1772.05 296.343L1772.21 296.996L1769.98 297.982L1769.12 297.439Z" fill="#FFC856"/>
<path d="M1766.2 302.428L1762.85 298.339L1762.77 299.477L1758.18 297.656L1758.58 298.981L1751.06 299.253L1746.12 307.454L1753.78 303.69L1753.66 304.606L1756.93 302.59L1757.3 303.206L1759.79 302.297L1759.67 302.811L1766.2 302.428Z" fill="#FFC856"/>
<path d="M1766.2 302.428L1760.03 301.242L1759.67 302.811L1766.2 302.428Z" fill="#FFC856"/>
<path d="M1746.12 307.453L1753.78 303.69L1753.99 301.976L1747.7 304.829L1746.12 307.453Z" fill="#FFC856"/>
<path d="M1760.03 301.242L1753.99 301.976L1753.66 304.605L1756.93 302.59L1757.3 303.206L1759.79 302.297L1760.03 301.242Z" fill="#FFC856"/>
<path d="M1765.76 302.444L1762.7 298.152L1763.82 298.376L1763.27 293.478L1764.44 294.218L1766.68 287.059L1775.88 284.477L1770.24 290.841L1771.16 290.962L1768.36 293.579L1768.85 294.106L1767.32 296.248L1767.85 296.272L1765.76 302.444Z" fill="#FFC856"/>
<path d="M1765.76 302.444L1766.24 296.203L1767.85 296.272L1765.76 302.444Z" fill="#FFC856"/>
<path d="M1775.88 284.477L1770.24 290.841L1768.53 290.6L1772.94 285.303L1775.88 284.477Z" fill="#FFC856"/>
<path d="M1766.24 296.203L1768.53 290.6L1771.16 290.963L1768.36 293.579L1768.85 294.106L1767.32 296.248L1766.24 296.203Z" fill="#FFC856"/>
<path d="M1765.42 301.58L1765.04 297.704L1764.52 298.371L1762.45 295.367L1762.15 296.344L1757.43 293.416L1751.03 296.406L1757.28 297.246L1756.83 297.758L1759.66 297.872L1759.64 298.406L1761.54 298.867L1761.26 299.136L1765.42 301.58Z" fill="#FFC856"/>
<path d="M1765.42 301.58L1762.11 298.323L1761.26 299.136L1765.42 301.58Z" fill="#FFC856"/>
<path d="M1751.03 296.407L1757.28 297.247L1758.11 296.294L1753.08 295.451L1751.03 296.407Z" fill="#FFC856"/>
<path d="M1762.11 298.323L1758.11 296.294L1756.83 297.758L1759.66 297.872L1759.64 298.406L1761.54 298.867L1762.11 298.323Z" fill="#FFC856"/>
<path d="M1767.95 303.387C1767.3 303.698 1766.51 303.418 1766.2 302.761C1765.89 302.105 1766.17 301.32 1766.82 301.008C1767.48 300.697 1768.26 300.977 1768.57 301.634C1768.88 302.291 1768.61 303.076 1767.95 303.387Z" fill="#FFC856"/>
<path d="M1766.32 304.959C1765.66 305.271 1764.88 304.99 1764.57 304.334C1764.26 303.677 1764.53 302.892 1765.19 302.581C1765.84 302.269 1766.63 302.549 1766.94 303.206C1767.25 303.863 1766.97 304.648 1766.32 304.959Z" fill="#FFC856"/>
<path d="M1765.91 302.764C1765.26 303.076 1764.47 302.795 1764.16 302.139C1763.85 301.482 1764.13 300.697 1764.78 300.386C1765.44 300.074 1766.22 300.354 1766.53 301.011C1766.84 301.668 1766.57 302.453 1765.91 302.764Z" fill="#FFC856"/>
</g>
<g clip-path="url(#clip5)">
<path d="M1793.45 319.418L1793.54 322.584L1793.83 323.146L1793.97 319.811L1793.45 319.418Z" fill="#FFC856"/>
<path d="M1793.83 323.146L1795.1 323.201L1795.66 319.884L1793.97 319.811L1793.83 323.146Z" fill="#FFC856"/>
<path d="M1793.45 319.418L1793.97 319.811L1795.66 319.884L1795.16 319.492L1793.45 319.418Z" fill="#FFC856"/>
<path d="M1793.69 315.983L1793.78 319.149L1794.06 319.711L1794.21 316.379L1793.69 315.983Z" fill="#FFC856"/>
<path d="M1794.06 319.712L1795.33 319.766L1795.9 316.452L1794.21 316.379L1794.06 319.712Z" fill="#FFC856"/>
<path d="M1793.69 315.983L1794.21 316.379L1795.9 316.452L1795.4 316.057L1793.69 315.983Z" fill="#FFC856"/>
<path d="M1793.92 312.549L1794.02 315.714L1794.3 316.277L1794.44 312.945L1793.92 312.549Z" fill="#FFC856"/>
<path d="M1794.3 316.276L1795.57 316.331L1796.13 313.017L1794.44 312.944L1794.3 316.276Z" fill="#FFC856"/>
<path d="M1793.92 312.549L1794.44 312.945L1796.13 313.017L1795.63 312.622L1793.92 312.549Z" fill="#FFC856"/>
<path d="M1794.71 309.025L1794.34 312.171L1794.54 312.769L1795.17 309.494L1794.71 309.025Z" fill="#FFC856"/>
<path d="M1794.54 312.769L1795.78 313.011L1796.83 309.816L1795.17 309.494L1794.54 312.769Z" fill="#FFC856"/>
<path d="M1794.71 309.025L1795.17 309.494L1796.83 309.816L1796.39 309.351L1794.71 309.025Z" fill="#FFC856"/>
<path d="M1796.15 305.698L1795.4 308.777L1795.53 309.395L1796.55 306.218L1796.15 305.698Z" fill="#FFC856"/>
<path d="M1795.53 309.395L1796.74 309.784L1798.16 306.737L1796.55 306.218L1795.53 309.395Z" fill="#FFC856"/>
<path d="M1796.15 305.698L1796.55 306.218L1798.16 306.737L1797.78 306.223L1796.15 305.698Z" fill="#FFC856"/>
<path d="M1797.41 306.39L1799.53 305.687L1799.3 306.112L1801.36 306.507L1800.92 306.889L1803.55 308.701L1803.46 312.768L1801.57 309.671L1801.41 310.029L1800.69 308.561L1800.42 308.695L1799.74 307.804L1799.66 308.017L1797.41 306.39Z" fill="#FFC856"/>
<path d="M1797.41 306.39L1799.89 307.373L1799.66 308.017L1797.41 306.39Z" fill="#FFC856"/>
<path d="M1803.46 312.768L1801.57 309.672L1801.88 309.011L1803.49 311.47L1803.46 312.768Z" fill="#FFC856"/>
<path d="M1799.89 307.373L1801.88 309.011L1801.41 310.03L1800.69 308.561L1800.42 308.695L1799.74 307.804L1799.89 307.373Z" fill="#FFC856"/>
<path d="M1797.23 306.202L1799.48 304.446L1799.39 305.06L1802.03 304.655L1801.66 305.304L1805.6 306.358L1807.23 311.293L1803.64 308.376L1803.59 308.874L1802.1 307.412L1801.83 307.692L1800.63 306.91L1800.63 307.197L1797.23 306.202Z" fill="#FFC856"/>
<path d="M1797.23 306.202L1800.63 306.326L1800.63 307.197L1797.23 306.202Z" fill="#FFC856"/>
<path d="M1807.23 311.294L1803.64 308.376L1803.72 307.445L1806.71 309.716L1807.23 311.294Z" fill="#FFC856"/>
<path d="M1800.63 306.326L1803.72 307.445L1803.59 308.874L1802.1 307.412L1801.83 307.692L1800.63 306.911L1800.63 306.326Z" fill="#FFC856"/>
<path d="M1797.1 306.334L1795.79 304.577L1795.73 305.054L1793.86 304.241L1794 304.803L1790.87 304.836L1788.64 308.239L1791.9 306.734L1791.84 307.119L1793.24 306.303L1793.38 306.568L1794.43 306.211L1794.37 306.428L1797.1 306.334Z" fill="#FFC856"/>
<path d="M1797.1 306.334L1794.56 305.77L1794.37 306.428L1797.1 306.334Z" fill="#FFC856"/>
<path d="M1788.64 308.239L1791.9 306.734L1792.03 306.015L1789.36 307.152L1788.64 308.239Z" fill="#FFC856"/>
<path d="M1794.56 305.77L1792.03 306.015L1791.83 307.119L1793.24 306.303L1793.38 306.568L1794.43 306.211L1794.56 305.77Z" fill="#FFC856"/>
<path d="M1797.35 306.284L1796.53 303.584L1796.26 304.139L1794.37 302.34L1794.3 303.084L1790.54 301.765L1786.45 304.933L1790.98 304.519L1790.74 304.954L1792.75 304.575L1792.82 304.957L1794.22 304.978L1794.06 305.215L1797.35 306.284Z" fill="#FFC856"/>
<path d="M1797.35 306.284L1794.55 304.498L1794.06 305.215L1797.35 306.284Z" fill="#FFC856"/>
<path d="M1786.45 304.933L1790.98 304.518L1791.44 303.701L1787.76 303.919L1786.45 304.933Z" fill="#FFC856"/>
<path d="M1794.55 304.498L1791.44 303.701L1790.74 304.954L1792.75 304.575L1792.82 304.957L1794.22 304.978L1794.55 304.498Z" fill="#FFC856"/>
<path d="M1797.22 306.486L1798.07 303.569L1798.37 304.154L1800.4 302.158L1800.48 302.951L1804.52 301.407L1808.98 304.642L1804.08 304.366L1804.35 304.824L1802.16 304.492L1802.1 304.902L1800.58 304.977L1800.76 305.223L1797.22 306.486Z" fill="#FFC856"/>
<path d="M1797.22 306.486L1800.22 304.473L1800.76 305.223L1797.22 306.486Z" fill="#FFC856"/>
<path d="M1808.98 304.642L1804.08 304.366L1803.58 303.508L1807.55 303.606L1808.98 304.642Z" fill="#FFC856"/>
<path d="M1800.22 304.473L1803.58 303.508L1804.35 304.824L1802.16 304.492L1802.1 304.902L1800.58 304.977L1800.22 304.473Z" fill="#FFC856"/>
<path d="M1797.45 306.395L1798.11 303.436L1797.57 303.805L1796.76 301.089L1796.31 301.743L1793.52 298.453L1788.06 299.151L1792.48 301.256L1792.02 301.525L1794.09 302.283L1793.95 302.672L1795.24 303.463L1794.96 303.595L1797.45 306.395Z" fill="#FFC856"/>
<path d="M1797.45 306.395L1795.8 303.198L1794.96 303.595L1797.45 306.395Z" fill="#FFC856"/>
<path d="M1788.06 299.151L1792.48 301.256L1793.33 300.745L1789.8 298.928L1788.06 299.151Z" fill="#FFC856"/>
<path d="M1795.8 303.198L1793.33 300.745L1792.02 301.525L1794.09 302.283L1793.95 302.672L1795.24 303.464L1795.8 303.198Z" fill="#FFC856"/>
<path d="M1797.44 305.861L1796.77 303.723L1797.2 303.961L1797.62 301.904L1798 302.355L1799.84 299.745L1803.9 299.895L1800.78 301.74L1801.13 301.909L1799.66 302.607L1799.79 302.885L1798.89 303.553L1799.1 303.633L1797.44 305.861Z" fill="#FFC856"/>
<path d="M1797.44 305.861L1798.46 303.395L1799.1 303.633L1797.44 305.861Z" fill="#FFC856"/>
<path d="M1803.9 299.894L1800.78 301.74L1800.12 301.422L1802.6 299.847L1803.9 299.894Z" fill="#FFC856"/>
<path d="M1798.46 303.394L1800.12 301.422L1801.13 301.909L1799.66 302.606L1799.79 302.884L1798.89 303.553L1798.46 303.394Z" fill="#FFC856"/>
<path d="M1796.5 307.386C1796.92 307.404 1797.27 307.08 1797.29 306.662C1797.31 306.244 1796.99 305.891 1796.57 305.873C1796.15 305.855 1795.8 306.179 1795.78 306.597C1795.76 307.015 1796.09 307.368 1796.5 307.386Z" fill="#FFC856"/>
<path d="M1797.72 307.853C1798.14 307.871 1798.49 307.546 1798.51 307.129C1798.53 306.711 1798.2 306.357 1797.79 306.339C1797.37 306.321 1797.02 306.646 1797 307.064C1796.98 307.481 1797.3 307.835 1797.72 307.853Z" fill="#FFC856"/>
<path d="M1797.45 306.599C1797.86 306.616 1798.21 306.292 1798.23 305.874C1798.25 305.456 1797.93 305.103 1797.51 305.085C1797.09 305.067 1796.74 305.392 1796.72 305.809C1796.71 306.227 1797.03 306.581 1797.45 306.599Z" fill="#FFC856"/>
</g>
<g clip-path="url(#clip6)">
<path d="M1289.39 257.487L1318.95 208.298L1292.25 257.607L1290.29 259.832L1289.39 257.487Z" fill="#007550"/>
<path d="M1291.28 254.316L1285.78 238.556L1289.08 228.126L1293.08 251.337L1291.28 254.316Z" fill="#007550"/>
<path d="M1290.16 226.341L1295.71 217.831L1297.83 243.435L1295.54 247.235L1290.16 226.341Z" fill="#007550"/>
<path d="M1298.35 214.455L1299.65 240.404L1302.91 234.98L1304.82 207.765L1298.35 214.455Z" fill="#007550"/>
<path d="M1307.07 206.963L1313.94 200.497L1310 223.176L1306.46 229.092L1307.07 206.963Z" fill="#007550"/>
<path d="M1313.28 217.718L1317.34 199.291L1321.74 196.141L1316.36 212.612L1313.28 217.718Z" fill="#007550"/>
<path d="M1316.32 212.626L1324.13 197.412L1326.52 199.926L1316.32 212.626Z" fill="#007550"/>
<path d="M1327.53 201.478L1316.34 213.308C1316.34 213.308 1312.6 220.038 1312.77 219.724C1312.94 219.41 1327.04 206.983 1327.28 206.616C1327.54 206.241 1327.53 201.478 1327.53 201.478Z" fill="#007550"/>
<path d="M1310.19 224.482L1327.75 210.278L1325.83 218.928L1306.75 230.84L1310.19 224.482Z" fill="#007550"/>
<path d="M1303.74 236.413L1325.49 222.328L1323.55 230.185L1301.1 241.278L1303.74 236.413Z" fill="#007550"/>
<path d="M1299.48 244.263L1322.12 233.809L1317.52 242.429L1297.18 248.505L1299.48 244.263Z" fill="#007550"/>
<path d="M1294.81 252.882L1316.42 245.204L1309.52 252.566L1293.17 255.918L1294.81 252.882Z" fill="#007550"/>
</g>
<g clip-path="url(#clip7)">
<path d="M1290.37 258.062L1270.95 225.76L1288.49 258.141L1289.77 259.602L1290.37 258.062Z" fill="#001E20"/>
<path d="M1289.12 255.98L1292.74 245.631L1290.57 238.781L1287.94 254.024L1289.12 255.98Z" fill="#001E20"/>
<path d="M1289.86 237.609L1286.21 232.021L1284.82 248.834L1286.32 251.33L1289.86 237.609Z" fill="#001E20"/>
<path d="M1284.48 229.803L1283.63 246.844L1281.48 243.282L1280.24 225.411L1284.48 229.803Z" fill="#001E20"/>
<path d="M1278.75 224.884L1274.24 220.637L1276.83 235.53L1279.16 239.416L1278.75 224.884Z" fill="#001E20"/>
<path d="M1274.67 231.946L1272.01 219.846L1269.12 217.777L1272.65 228.594L1274.67 231.946Z" fill="#001E20"/>
<path d="M1272.68 228.603L1267.55 218.612L1265.98 220.263L1272.68 228.603Z" fill="#001E20"/>
<path d="M1265.32 221.282L1272.67 229.05C1272.67 229.05 1275.13 233.47 1275.01 233.264C1274.9 233.058 1265.64 224.897 1265.48 224.656C1265.31 224.41 1265.32 221.282 1265.32 221.282Z" fill="#001E20"/>
<path d="M1276.7 236.388L1265.17 227.06L1266.44 232.741L1278.97 240.564L1276.7 236.388Z" fill="#001E20"/>
<path d="M1280.94 244.223L1266.65 234.974L1267.93 240.134L1282.68 247.418L1280.94 244.223Z" fill="#001E20"/>
<path d="M1283.74 249.379L1268.87 242.513L1271.89 248.174L1285.25 252.164L1283.74 249.379Z" fill="#001E20"/>
<path d="M1286.81 255.038L1272.62 249.996L1277.15 254.831L1287.88 257.032L1286.81 255.038Z" fill="#001E20"/>
</g>
<g clip-path="url(#clip8)">
<path d="M1690.64 299.524L1691.33 224.954L1694.02 297.926L1693.27 301.677L1690.64 299.524Z" fill="#007550"/>
<path d="M1690.67 294.722L1673.65 279.909L1670.38 265.896L1690.72 290.203L1690.67 294.722Z" fill="#007550"/>
<path d="M1670.41 263.187L1671.03 250.021L1690.83 278.222L1690.78 283.985L1670.41 263.187Z" fill="#007550"/>
<path d="M1671.77 244.535L1690.87 273.629L1690.95 265.403L1674.69 232.909L1671.77 244.535Z" fill="#007550"/>
<path d="M1676.75 230.618L1680.27 219.005L1691.11 247.513L1691.04 256.476L1676.75 230.618Z" fill="#007550"/>
<path d="M1691.19 239.238L1683.36 215.56L1686.3 209.26L1691.27 231.492L1691.19 239.238Z" fill="#007550"/>
<path d="M1691.24 231.531L1689.91 209.28L1694.38 210.721L1691.24 231.531Z" fill="#007550"/>
<path d="M1696.58 211.9L1691.72 232.306C1691.72 232.306 1691.97 242.326 1691.96 241.859C1691.95 241.393 1699.75 218.538 1699.78 217.97C1699.83 217.375 1696.58 211.9 1696.58 211.9Z" fill="#007550"/>
<path d="M1692.22 248.901L1702.81 221.9L1706.46 233.028L1692.56 258.311L1692.22 248.901Z" fill="#007550"/>
<path d="M1692.87 266.555L1708.38 237.145L1711.47 247.369L1693.13 273.757L1692.87 266.555Z" fill="#007550"/>
<path d="M1693.3 278.173L1712.28 252.412L1712.83 265.128L1693.52 284.455L1693.3 278.173Z" fill="#007550"/>
<path d="M1693.76 290.933L1713.44 268.992L1710.48 281.654L1693.93 295.423L1693.76 290.933Z" fill="#007550"/>
</g>
<g clip-path="url(#clip9)">
<path d="M1693.44 300.066L1775.82 313.571L1695.55 298.328L1691.33 298.079L1693.44 300.066Z" fill="#001E20" fill-opacity="0.1"/>
<path d="M1698.74 300.942L1713.36 313.973L1728.49 318.562L1703.74 301.758L1698.74 300.942Z" fill="#001E20" fill-opacity="0.1"/>
<path d="M1731.48 319.05L1746.08 321.131L1716.97 303.926L1710.6 302.884L1731.48 319.05Z" fill="#001E20" fill-opacity="0.1"/>
<path d="M1752.21 321.707L1722.04 304.76L1731.13 306.246L1765.34 322.119L1752.21 321.707Z" fill="#001E20" fill-opacity="0.1"/>
<path d="M1768.08 321.308L1781.25 321.348L1750.89 309.491L1740.99 307.86L1768.08 321.308Z" fill="#001E20" fill-opacity="0.1"/>
<path d="M1760.04 310.989L1785.37 320.128L1792.63 319.533L1768.59 312.384L1760.04 310.989Z" fill="#001E20" fill-opacity="0.1"/>
<path d="M1768.55 312.399L1792.97 317.355L1791.84 314.392L1768.55 312.399Z" fill="#001E20" fill-opacity="0.1"/>
<path d="M1790.76 312.841L1767.74 311.963C1767.74 311.963 1756.71 309.94 1757.22 310.035C1757.73 310.131 1783.76 309.693 1784.39 309.781C1785.05 309.86 1790.76 312.841 1790.76 312.841Z" fill="#001E20" fill-opacity="0.1"/>
<path d="M1749.48 308.564L1780.36 307.222L1768.45 302.943L1739.12 306.6L1749.48 308.564Z" fill="#001E20" fill-opacity="0.1"/>
<path d="M1730.06 304.874L1764.1 301.014L1753.13 297.24L1722.13 303.372L1730.06 304.874Z" fill="#001E20" fill-opacity="0.1"/>
<path d="M1717.28 302.447L1747.65 295.813L1733.67 293.109L1710.37 301.141L1717.28 302.447Z" fill="#001E20" fill-opacity="0.1"/>
<path d="M1703.24 299.788L1729.47 292.018L1715.19 291.437L1698.3 298.845L1703.24 299.788Z" fill="#001E20" fill-opacity="0.1"/>
</g>
<g clip-path="url(#clip10)">
<path d="M1262.31 407.129L1262.93 340.558L1265.33 405.703L1264.66 409.051L1262.31 407.129Z" fill="#001E20"/>
<path d="M1262.34 402.843L1247.15 389.618L1244.22 377.108L1262.39 398.808L1262.34 402.843Z" fill="#001E20"/>
<path d="M1244.25 374.69L1244.81 362.936L1262.49 388.112L1262.44 393.257L1244.25 374.69Z" fill="#001E20"/>
<path d="M1245.47 358.039L1262.52 384.012L1262.6 376.669L1248.08 347.66L1245.47 358.039Z" fill="#001E20"/>
<path d="M1249.91 345.614L1253.06 335.247L1262.74 360.697L1262.67 368.699L1249.91 345.614Z" fill="#001E20"/>
<path d="M1262.81 353.31L1255.82 332.171L1258.44 326.547L1262.88 346.394L1262.81 353.31Z" fill="#001E20"/>
<path d="M1262.85 346.43L1261.66 326.566L1265.65 327.852L1262.85 346.43Z" fill="#001E20"/>
<path d="M1267.62 328.904L1263.28 347.121C1263.28 347.121 1263.51 356.066 1263.49 355.65C1263.48 355.233 1270.45 334.83 1270.47 334.323C1270.52 333.792 1267.62 328.904 1267.62 328.904Z" fill="#001E20"/>
<path d="M1263.73 361.936L1273.18 337.832L1276.44 347.766L1264.03 370.337L1263.73 361.936Z" fill="#001E20"/>
<path d="M1264.31 377.697L1278.15 351.441L1280.91 360.569L1264.54 384.126L1264.31 377.697Z" fill="#001E20"/>
<path d="M1264.69 388.069L1281.63 365.07L1282.12 376.423L1264.89 393.677L1264.69 388.069Z" fill="#001E20"/>
<path d="M1265.1 399.46L1282.67 379.872L1280.03 391.176L1265.25 403.468L1265.1 399.46Z" fill="#001E20"/>
</g>
<g clip-path="url(#clip11)">
<path d="M1240.31 422.257L1240.93 355.686L1243.33 420.831L1242.66 424.18L1240.31 422.257Z" fill="white"/>
<path d="M1240.34 417.971L1225.15 404.746L1222.22 392.237L1240.39 413.936L1240.34 417.971Z" fill="white"/>
<path d="M1222.25 389.818L1222.81 378.064L1240.49 403.24L1240.44 408.385L1222.25 389.818Z" fill="white"/>
<path d="M1223.47 373.167L1240.52 399.14L1240.6 391.797L1226.08 362.788L1223.47 373.167Z" fill="white"/>
<path d="M1227.91 360.742L1231.06 350.375L1240.74 375.825L1240.67 383.827L1227.91 360.742Z" fill="white"/>
<path d="M1240.81 368.438L1233.82 347.299L1236.44 341.675L1240.88 361.523L1240.81 368.438Z" fill="white"/>
<path d="M1240.85 361.558L1239.66 341.694L1243.65 342.98L1240.85 361.558Z" fill="white"/>
<path d="M1245.62 344.032L1241.28 362.249C1241.28 362.249 1241.51 371.195 1241.49 370.778C1241.48 370.362 1248.45 349.958 1248.47 349.451C1248.52 348.92 1245.62 344.032 1245.62 344.032Z" fill="white"/>
<path d="M1241.73 377.065L1251.18 352.96L1254.44 362.894L1242.03 385.465L1241.73 377.065Z" fill="white"/>
<path d="M1242.31 392.825L1256.15 366.569L1258.91 375.697L1242.54 399.254L1242.31 392.825Z" fill="white"/>
<path d="M1242.69 403.197L1259.63 380.199L1260.12 391.551L1242.89 408.805L1242.69 403.197Z" fill="white"/>
<path d="M1243.1 414.588L1260.67 395L1258.03 406.305L1243.25 418.596L1243.1 414.588Z" fill="white"/>
</g>
<g clip-path="url(#clip12)">
<path d="M400.28 372.325L400.548 343.362L401.592 371.704L401.301 373.161L400.28 372.325Z" fill="white"/>
<path d="M400.293 370.46L393.68 364.706L392.41 359.264L400.311 368.705L400.293 370.46Z" fill="white"/>
<path d="M392.421 358.211L392.664 353.098L400.355 364.051L400.333 366.29L392.421 358.211Z" fill="white"/>
<path d="M392.953 350.967L400.37 362.267L400.402 359.072L394.085 346.452L392.953 350.967Z" fill="white"/>
<path d="M394.884 345.562L396.254 341.051L400.464 352.124L400.436 355.605L394.884 345.562Z" fill="white"/>
<path d="M400.494 348.91L397.454 339.713L398.596 337.266L400.527 345.901L400.494 348.91Z" fill="white"/>
<path d="M400.513 345.916L399.996 337.274L401.731 337.834L400.513 345.916Z" fill="white"/>
<path d="M402.589 338.291L400.7 346.217C400.7 346.217 400.798 350.109 400.793 349.928C400.788 349.747 403.818 340.87 403.83 340.649C403.851 340.418 402.589 338.291 402.589 338.291Z" fill="white"/>
<path d="M400.894 352.663L405.006 342.176L406.424 346.498L401.028 356.318L400.894 352.663Z" fill="white"/>
<path d="M401.148 359.52L407.171 348.097L408.372 352.068L401.249 362.317L401.148 359.52Z" fill="white"/>
<path d="M401.314 364.032L408.685 354.026L408.897 358.965L401.4 366.472L401.314 364.032Z" fill="white"/>
<path d="M401.492 368.988L409.136 360.466L407.987 365.385L401.559 370.732L401.492 368.988Z" fill="white"/>
</g>
<g clip-path="url(#clip13)">
<path d="M573.63 193.966L573.158 203.716L573.903 205.515L575.151 195.302L573.63 193.966Z" fill="#001E20"/>
<path d="M573.903 205.515L577.826 205.994L580.387 195.941L575.151 195.302L573.903 205.515Z" fill="#001E20"/>
<path d="M573.63 193.966L575.151 195.302L580.387 195.941L578.918 194.612L573.63 193.966Z" fill="#001E20"/>
<path d="M575.184 183.468L574.712 193.218L575.466 195.018L576.712 184.813L575.184 183.468Z" fill="#001E20"/>
<path d="M575.466 195.018L579.389 195.497L581.94 185.452L576.712 184.813L575.466 195.018Z" fill="#001E20"/>
<path d="M575.184 183.468L576.712 184.813L581.94 185.452L580.472 184.114L575.184 183.468Z" fill="#001E20"/>
<path d="M576.738 172.97L576.275 182.722L577.02 184.52L578.266 174.315L576.738 172.97Z" fill="#001E20"/>
<path d="M577.02 184.52L580.943 184.999L583.494 174.954L578.266 174.315L577.02 184.52Z" fill="#001E20"/>
<path d="M576.738 172.97L578.266 174.315L583.494 174.954L582.035 173.617L576.738 172.97Z" fill="#001E20"/>
<path d="M580.036 162.337L578.13 171.912L578.601 173.799L581.346 163.891L580.036 162.337Z" fill="#001E20"/>
<path d="M578.601 173.799L582.411 174.848L586.428 165.286L581.346 163.89L578.601 173.799Z" fill="#001E20"/>
<path d="M580.036 162.337L581.346 163.891L586.429 165.287L585.178 163.749L580.036 162.337Z" fill="#001E20"/>
<path d="M585.293 152.465L582.248 161.745L582.486 163.673L586.41 154.161L585.293 152.465Z" fill="#001E20"/>
<path d="M582.486 163.673L586.145 165.165L591.289 156.15L586.41 154.161L582.486 163.673Z" fill="#001E20"/>
<path d="M585.293 152.465L586.41 154.161L591.289 156.15L590.23 154.479L585.293 152.465Z" fill="#001E20"/>
<path d="M589.056 154.902L595.808 153.262L594.989 154.512L601.277 156.229L599.805 157.295L607.527 163.508L606.276 175.985L601.162 166.006L600.577 167.066L598.711 162.379L597.818 162.723L595.919 159.817L595.64 160.453L589.056 154.902Z" fill="#001E20"/>
<path d="M589.056 154.902L596.498 158.529L595.64 160.454L589.056 154.902Z" fill="#001E20"/>
<path d="M606.275 175.985L601.162 166.006L602.286 164.052L606.674 172.001L606.275 175.985Z" fill="#001E20"/>
<path d="M596.498 158.529L602.287 164.052L600.577 167.067L598.711 162.379L597.818 162.723L595.919 159.817L596.498 158.529Z" fill="#001E20"/>
<path d="M588.527 154.28L595.95 149.438L595.504 151.3L603.812 150.703L602.492 152.606L614.467 156.812L618.319 172.378L607.883 162.532L607.619 164.05L603.362 159.193L602.441 159.986L598.911 157.29L598.839 158.17L588.527 154.28Z" fill="#001E20"/>
<path d="M588.527 154.28L599.043 155.495L598.839 158.17L588.527 154.28Z" fill="#001E20"/>
<path d="M618.319 172.378L607.883 162.532L608.379 159.692L617.085 167.401L618.319 172.378Z" fill="#001E20"/>
<path d="M599.043 155.495L608.379 159.692L607.619 164.05L603.362 159.193L602.441 159.986L598.911 157.29L599.043 155.495Z" fill="#001E20"/>
<path d="M588.087 154.653L584.462 148.932L584.17 150.386L578.55 147.426L578.853 149.188L569.12 148.522L561.403 158.432L571.885 154.608L571.576 155.773L576.129 153.611L576.508 154.458L579.855 153.622L579.617 154.272L588.087 154.653Z" fill="#001E20"/>
<path d="M588.087 154.653L580.341 152.296L579.618 154.272L588.087 154.653Z" fill="#001E20"/>
<path d="M561.403 158.433L571.885 154.608L572.449 152.43L563.877 155.268L561.403 158.433Z" fill="#001E20"/>
<path d="M580.341 152.296L572.449 152.43L571.576 155.773L576.129 153.611L576.508 154.458L579.855 153.622L580.341 152.296Z" fill="#001E20"/>
<path d="M588.887 154.559L586.987 146.061L586.024 147.703L580.582 141.708L580.191 143.977L568.853 139.003L555.404 147.735L569.552 147.573L568.685 148.852L575.038 148.182L575.138 149.37L579.491 149.779L578.933 150.469L588.887 154.559Z" fill="#001E20"/>
<path d="M588.888 154.559L580.635 148.386L578.933 150.469L588.888 154.559Z" fill="#001E20"/>
<path d="M555.404 147.735L569.552 147.573L571.16 145.174L559.709 144.942L555.404 147.735Z" fill="#001E20"/>
<path d="M580.634 148.386L571.16 145.173L568.685 148.852L575.038 148.182L575.138 149.37L579.491 149.779L580.634 148.386Z" fill="#001E20"/>
<path d="M588.421 155.147L591.779 146.394L592.559 148.266L599.325 142.629L599.393 145.085L612.314 141.332L625.358 152.367L610.226 150.319L610.949 151.792L604.246 150.233L603.962 151.479L599.235 151.337L599.725 152.137L588.421 155.147Z" fill="#001E20"/>
<path d="M588.421 155.147L598.225 149.698L599.725 152.137L588.421 155.147Z" fill="#001E20"/>
<path d="M625.358 152.367L610.226 150.319L608.879 147.559L621.185 148.835L625.358 152.367Z" fill="#001E20"/>
<path d="M598.225 149.698L608.879 147.559L610.949 151.792L604.246 150.233L603.962 151.479L599.235 151.337L598.225 149.698Z" fill="#001E20"/>
<path d="M589.185 154.927L591.933 145.994L590.162 146.998L588.302 138.452L586.737 140.351L578.873 129.557L561.788 130.362L574.976 137.913L573.494 138.63L579.735 141.465L579.198 142.627L583.011 145.375L582.128 145.712L589.185 154.927Z" fill="#001E20"/>
<path d="M589.185 154.926L584.812 144.698L582.128 145.711L589.185 154.926Z" fill="#001E20"/>
<path d="M561.787 130.362L574.976 137.914L577.738 136.552L567.247 130.106L561.787 130.362Z" fill="#001E20"/>
<path d="M584.812 144.698L577.738 136.552L573.494 138.63L579.734 141.465L579.198 142.627L583.01 145.375L584.812 144.698Z" fill="#001E20"/>
<path d="M589.271 153.282L587.708 146.55L588.966 147.383L590.777 141.167L591.833 142.646L598.186 135.077L610.734 136.531L600.619 141.437L601.676 142.045L596.925 143.825L597.264 144.712L594.312 146.546L594.943 146.841L589.271 153.282Z" fill="#001E20"/>
<path d="M589.271 153.282L593.026 145.954L594.943 146.841L589.271 153.282Z" fill="#001E20"/>
<path d="M610.734 136.531L600.619 141.437L598.662 140.301L606.721 136.067L610.734 136.531Z" fill="#001E20"/>
<path d="M593.025 145.954L598.662 140.301L601.676 142.045L596.925 143.825L597.264 144.712L594.312 146.546L593.025 145.954Z" fill="#001E20"/>
<path d="M584.799 157.3C586.088 157.458 587.259 156.548 587.415 155.268C587.572 153.988 586.654 152.823 585.365 152.666C584.077 152.508 582.905 153.418 582.749 154.698C582.593 155.978 583.511 157.143 584.799 157.3Z" fill="#001E20"/>
<path d="M589.397 160.37C590.685 160.528 591.857 159.618 592.013 158.338C592.169 157.058 591.251 155.893 589.963 155.736C588.674 155.578 587.503 156.488 587.347 157.768C587.19 159.048 588.108 160.213 589.397 160.37Z" fill="#001E20"/>
<path d="M588.216 156.829C589.504 156.986 590.675 156.077 590.832 154.797C590.988 153.517 590.07 152.352 588.782 152.195C587.493 152.037 586.322 152.947 586.165 154.227C586.009 155.507 586.927 156.672 588.216 156.829Z" fill="#001E20"/>
</g>
<g clip-path="url(#clip14)">
<path d="M563.465 198.702L562.172 205.255L561.379 206.326L562.233 199.339L563.465 198.702Z" fill="#001E20"/>
<path d="M561.379 206.327L558.689 205.998L558.642 198.9L562.233 199.339L561.379 206.327Z" fill="#001E20"/>
<path d="M563.465 198.702L562.233 199.339L558.642 198.9L559.839 198.26L563.465 198.702Z" fill="#001E20"/>
<path d="M564.161 191.475L562.868 198.028L562.07 199.098L562.922 192.116L564.161 191.475Z" fill="#001E20"/>
<path d="M562.07 199.098L559.38 198.77L559.338 191.678L562.922 192.116L562.07 199.098Z" fill="#001E20"/>
<path d="M564.161 191.475L562.922 192.116L559.338 191.678L560.535 191.032L564.161 191.475Z" fill="#001E20"/>
<path d="M564.857 184.247L563.558 190.799L562.766 191.87L563.618 184.888L564.857 184.247Z" fill="#001E20"/>
<path d="M562.766 191.871L560.076 191.542L560.034 184.451L563.619 184.889L562.766 191.871Z" fill="#001E20"/>
<path d="M564.857 184.247L563.618 184.888L560.034 184.451L561.225 183.803L564.857 184.247Z" fill="#001E20"/>
<path d="M564.415 176.642L564.105 183.315L563.481 184.49L563.287 177.458L564.415 176.642Z" fill="#001E20"/>
<path d="M563.481 184.49L560.772 184.559L559.674 177.547L563.287 177.458L563.481 184.49Z" fill="#001E20"/>
<path d="M564.415 176.642L563.287 177.458L559.674 177.547L560.76 176.732L564.415 176.642Z" fill="#001E20"/>
<path d="M562.543 169.22L563.04 175.884L562.564 177.125L561.52 170.162L562.543 169.22Z" fill="#001E20"/>
<path d="M562.564 177.125L559.883 177.513L557.945 170.679L561.52 170.162L562.564 177.125Z" fill="#001E20"/>
<path d="M562.543 169.22L561.52 170.162L557.945 170.679L558.925 169.744L562.543 169.22Z" fill="#001E20"/>
<path d="M559.637 170.218L555.414 168.016L555.753 168.981L551.284 169.085L552.088 170.035L545.924 172.888L544.701 181.381L549.749 175.596L549.964 176.397L551.978 173.592L552.516 173.967L554.259 172.351L554.34 172.819L559.637 170.218Z" fill="#001E20"/>
<path d="M559.637 170.218L554.086 171.4L554.34 172.819L559.637 170.218Z" fill="#001E20"/>
<path d="M544.701 181.38L549.749 175.596L549.323 174.114L545.092 178.669L544.701 181.38Z" fill="#001E20"/>
<path d="M554.086 171.4L549.323 174.114L549.964 176.397L551.978 173.592L552.516 173.967L554.259 172.35L554.086 171.4Z" fill="#001E20"/>
<path d="M560.092 169.892L555.949 165.453L555.939 166.763L550.508 164.997L551.073 166.478L542.409 167.298L537.279 177L545.848 172.182L545.774 173.233L549.408 170.709L549.89 171.388L552.684 170.18L552.587 170.776L560.092 169.892Z" fill="#001E20"/>
<path d="M560.092 169.892L552.892 168.965L552.587 170.776L560.092 169.892Z" fill="#001E20"/>
<path d="M537.279 177L545.848 172.182L545.986 170.214L538.921 173.898L537.279 177Z" fill="#001E20"/>
<path d="M552.892 168.965L545.986 170.214L545.774 173.233L549.408 170.709L549.89 171.388L552.684 170.18L552.892 168.965Z" fill="#001E20"/>
<path d="M560.323 170.212L563.679 167.011L563.633 168.024L567.862 166.985L567.37 168.105L573.958 169.267L577.461 177.121L571.114 172.853L571.128 173.677L568.454 171.491L568.062 171.992L565.972 170.884L566.023 171.356L560.323 170.212Z" fill="#001E20"/>
<path d="M560.323 170.213L565.867 169.924L566.023 171.356L560.323 170.213Z" fill="#001E20"/>
<path d="M577.461 177.121L571.114 172.853L571.098 171.314L576.336 174.611L577.461 177.121Z" fill="#001E20"/>
<path d="M565.867 169.924L571.098 171.314L571.128 173.678L568.454 171.492L568.062 171.992L565.972 170.885L565.867 169.924Z" fill="#001E20"/>
<path d="M559.806 170.018L562.471 164.688L562.842 165.937L567.452 162.853L567.339 164.424L575.704 162.99L583.217 171.006L573.827 168.566L574.193 169.558L570.075 168.066L569.812 168.838L566.848 168.393L567.105 168.943L559.806 170.018Z" fill="#001E20"/>
<path d="M559.806 170.018L566.316 167.279L567.105 168.943L559.806 170.018Z" fill="#001E20"/>
<path d="M583.217 171.006L573.827 168.566L573.152 166.707L580.812 168.441L583.217 171.006Z" fill="#001E20"/>
<path d="M566.316 167.279L573.151 166.707L574.193 169.558L570.075 168.066L569.812 168.838L566.848 168.393L566.316 167.279Z" fill="#001E20"/>
<path d="M560.019 170.485L559.227 164.119L558.399 165.234L554.825 160.375L554.375 161.995L546.394 157.373L535.893 162.551L546.302 163.685L545.578 164.544L550.296 164.614L550.28 165.488L553.45 166.173L552.992 166.623L560.019 170.485Z" fill="#001E20"/>
<path d="M560.019 170.485L554.392 165.251L552.992 166.623L560.019 170.485Z" fill="#001E20"/>
<path d="M535.893 162.551L546.303 163.685L547.654 162.074L539.253 160.893L535.893 162.551Z" fill="#001E20"/>
<path d="M554.392 165.251L547.654 162.074L545.578 164.544L550.297 164.613L550.28 165.487L553.45 166.173L554.392 165.251Z" fill="#001E20"/>
<path d="M559.547 170.213L559.19 163.828L560.204 164.787L562.85 159.418L563.579 160.937L570.592 155.065L581.831 158.417L571.808 161.257L572.677 161.977L568.056 162.831L568.222 163.692L565.231 164.888L565.763 165.257L559.547 170.213Z" fill="#001E20"/>
<path d="M559.547 170.213L564.144 164.141L565.763 165.257L559.547 170.213Z" fill="#001E20"/>
<path d="M581.832 158.416L571.809 161.257L570.195 159.898L578.24 157.346L581.832 158.416Z" fill="#001E20"/>
<path d="M564.144 164.141L570.195 159.898L572.677 161.977L568.056 162.831L568.222 163.692L565.231 164.888L564.144 164.141Z" fill="#001E20"/>
<path d="M559.76 169.107L561.911 164.894L560.936 165.239L560.755 160.813L559.809 161.621L556.828 155.548L548.237 154.445L554.16 159.37L553.356 159.6L556.225 161.565L555.854 162.098L557.516 163.803L557.047 163.894L559.76 169.107Z" fill="#001E20"/>
<path d="M559.761 169.107L558.47 163.621L557.048 163.894L559.761 169.107Z" fill="#001E20"/>
<path d="M548.237 154.445L554.16 159.37L555.65 158.938L550.984 154.798L548.237 154.445Z" fill="#001E20"/>
<path d="M558.47 163.621L555.65 158.938L553.356 159.6L556.226 161.565L555.854 162.098L557.516 163.803L558.47 163.621Z" fill="#001E20"/>
<path d="M562.075 172.512C561.191 172.404 560.562 171.607 560.669 170.731C560.776 169.856 561.579 169.233 562.462 169.341C563.346 169.449 563.975 170.246 563.868 171.122C563.761 171.998 562.958 172.62 562.075 172.512Z" fill="#001E20"/>
<path d="M558.509 173.793C557.625 173.685 556.996 172.888 557.103 172.012C557.209 171.137 558.012 170.514 558.896 170.622C559.78 170.73 560.409 171.527 560.302 172.403C560.195 173.279 559.392 173.901 558.509 173.793Z" fill="#001E20"/>
<path d="M559.879 171.636C558.995 171.528 558.366 170.731 558.473 169.855C558.58 168.98 559.383 168.357 560.266 168.465C561.15 168.573 561.779 169.37 561.672 170.246C561.565 171.122 560.762 171.744 559.879 171.636Z" fill="#001E20"/>
</g>
<path d="M1407.17 409L1469.44 436.732L1407.17 462.519V409Z" fill="#FF513F"/>
<ellipse cx="1378.95" cy="682.917" rx="28.2189" ry="15.0825" fill="#001E20"/>
<line x1="1407.67" y1="409" x2="1407.67" y2="683.404" stroke="white"/>
<path d="M1691 774.396L1636.98 818.763L1635.22 756.571L1691 774.396Z" fill="black" fill-opacity="0.1"/>
<line y1="-1" x2="300.249" y2="-1" transform="matrix(-0.952544 -0.3044 0.424287 -0.905528 1691 774.396)" stroke="black" stroke-opacity="0.1" stroke-width="2"/>
<ellipse cx="1353.87" cy="672.686" rx="14.9139" ry="5.5" transform="rotate(17.3003 1353.87 672.686)" fill="#001E20" fill-opacity="0.1"/>
<circle cx="1346.24" cy="662.244" r="9.24411" fill="white"/>
<g clip-path="url(#clip15)">
<path d="M1200.91 211.211L1193.36 211.695L1187.98 221.188L1194.86 213.942L1200.38 214.238L1200.91 211.211Z" fill="#FF513F"/>
<path d="M1201.31 214.779L1195.96 217.081L1193.37 227.67L1198.03 218.803L1205.07 216.13L1201.31 214.779Z" fill="#FF513F"/>
<path d="M1223.28 207.708L1229.34 203.162L1239.62 206.843L1229.66 205.854L1225.64 209.675L1223.28 207.708Z" fill="#FF513F"/>
<path d="M1224.16 211.018L1229.97 210.574L1237.15 218.808L1228.95 213.076L1221.43 213.952L1224.16 211.018Z" fill="#FF513F"/>
<path d="M1198.52 206.497L1204.19 205.399L1204.15 206.976L1197.39 208.233L1198.52 206.497Z" fill="#FF513F"/>
<path d="M1198.52 206.497L1197.38 201.157L1196.09 201.41L1197.39 208.233L1198.52 206.497Z" fill="#FF513F"/>
<path d="M1227.38 202.532L1223.24 197.044L1222.23 197.85L1225.42 202.199L1227.38 202.532Z" fill="#FF513F"/>
<path d="M1227.38 202.532L1222.21 206.774L1221.03 205.755L1225.39 202.194L1227.38 202.532Z" fill="#FF513F"/>
<path d="M1195.96 217.081L1198.03 218.803L1205.07 216.13L1201.31 214.779L1195.96 217.081Z" fill="#FF513F"/>
<path d="M1221.43 213.952L1224.16 211.018L1229.97 210.574L1228.95 213.076L1221.43 213.952Z" fill="#FF513F"/>
<path d="M1223.28 207.708L1225.64 209.675L1229.66 205.854L1229.34 203.162L1223.28 207.708Z" fill="#FF513F"/>
<path d="M1200.91 211.211L1200.38 214.238L1194.86 213.942L1193.36 211.695L1200.91 211.211Z" fill="#FF513F"/>
<path d="M1218 203.196L1203.67 204.253L1196.98 211.753L1204.7 218.203L1219.03 217.146L1225.68 209.642L1218 203.196Z" fill="#FF513F"/>
<path d="M1196.19 201.877L1187.27 198.046L1190.48 186.627L1195.33 197.461L1194.36 189.354L1200.55 195.563L1197.48 201.624L1196.19 201.877Z" fill="#FF513F"/>
<path d="M1223.18 197.626L1225.42 190.615L1217.29 186.774L1221.08 194.953L1216.92 190.347L1217.42 196.969L1222.41 198.239L1223.18 197.626Z" fill="#FF513F"/>
<path d="M1205.72 185.825L1205.26 187.665L1220.73 191.515L1221.19 189.675L1205.72 185.825Z" fill="#001E20"/>
<path d="M1209.24 182.153L1207.94 187.367L1218.47 189.988L1219.77 184.774L1209.24 182.153Z" fill="#001E20"/>
<path d="M1196.98 211.753L1225.64 209.675L1219.03 217.146L1204.7 218.203L1196.98 211.753Z" fill="#AA3528"/>
<path d="M1214.26 205.482L1215.5 199.33L1214.18 196.295L1212.85 199.151L1214.26 205.482Z" fill="#001E20"/>
<path d="M1207.59 206.084L1208.58 199.706L1207.17 196.975L1205.9 200.092L1207.59 206.084Z" fill="#001E20"/>
</g>
<defs>
<clipPath id="clip0">
<rect width="145.33" height="297.99" fill="white" transform="translate(1596.69 235.707) rotate(99.9924)"/>
</clipPath>
<clipPath id="clip1">
<rect width="49.6182" height="42.3706" fill="white" transform="matrix(0.925869 -0.363826 -0.747076 -0.673738 1324.94 288.402)"/>
</clipPath>
<clipPath id="clip2">
<rect width="32.2993" height="27.8711" fill="white" transform="matrix(1.0014 0.263958 -0.117561 -0.95076 1292.14 286.789)"/>
</clipPath>
<clipPath id="clip3">
<rect width="155" height="169" fill="white" transform="matrix(-1 0 0 1 918 119)"/>
</clipPath>
<clipPath id="clip4">
<rect width="39.1095" height="42.8701" fill="white" transform="matrix(-0.903168 0.429287 0.429287 0.903168 1777.32 282)"/>
</clipPath>
<clipPath id="clip5">
<rect width="22.4936" height="24.6564" fill="white" transform="translate(1786.74 298.162) rotate(2.46482)"/>
</clipPath>
<clipPath id="clip6">
<rect width="56.1969" height="49.5195" fill="white" transform="matrix(0.942296 -0.33478 0.369323 0.929301 1272 213.813)"/>
</clipPath>
<clipPath id="clip7">
<rect width="36.9041" height="32.5191" fill="white" transform="matrix(-0.942296 -0.33478 -0.369323 0.929301 1301.78 229.382)"/>
</clipPath>
<clipPath id="clip8">
<rect width="72.2266" height="66.9945" fill="white" transform="matrix(0.667702 -0.744429 0.780171 0.625566 1641 259.768)"/>
</clipPath>
<clipPath id="clip9">
<rect width="67.0257" height="56.7681" fill="white" transform="matrix(0.958801 -0.284078 -0.720944 -0.692994 1732.26 337.419)"/>
</clipPath>
<clipPath id="clip10">
<rect width="64.4792" height="59.8084" fill="white" transform="matrix(0.667702 -0.744429 0.780171 0.625566 1218 371.637)"/>
</clipPath>
<clipPath id="clip11">
<rect width="64.4792" height="59.8084" fill="white" transform="matrix(0.667702 -0.744429 0.780171 0.625566 1196 386.766)"/>
</clipPath>
<clipPath id="clip12">
<rect width="28.0532" height="26.021" fill="white" transform="matrix(0.667702 -0.744429 0.780171 0.625566 381 356.884)"/>
</clipPath>
<clipPath id="clip13">
<rect width="70" height="76" fill="white" transform="translate(557.936 127) rotate(6.96257)"/>
</clipPath>
<clipPath id="clip14">
<rect width="48" height="52" fill="white" transform="matrix(-0.992626 -0.121221 -0.121221 0.992626 584.949 156.819)"/>
</clipPath>
<clipPath id="clip15">
<rect width="56" height="56" fill="white" transform="translate(1187.35 171) rotate(6.50975)"/>
</clipPath>
</defs>
</svg>
