<svg width="1363" height="1151" viewBox="0 0 1363 1151" fill="none" xmlns="http://www.w3.org/2000/svg">
<path d="M1032 0L1030 296L1196.5 200L1363 296V488.5L224.5 1151H0V0H1032Z" fill="url(#paint0_radial)"/>
<g clip-path="url(#clip0)">
<path d="M415.788 890.14L403.9 914.952L431.681 919.075L441.057 883.313L415.788 890.14Z" fill="#FFC856"/>
<path d="M460.376 898.617L441.057 883.313L431.682 919.075L460.376 898.617Z" fill="white"/>
<path d="M417.674 916.998L432.582 980.291L456.745 975.586L417.674 916.998Z" fill="#001E20"/>
<path d="M504.592 948.118L474.683 972.093L456.744 975.586L417.674 916.998L431.681 919.075L444.901 942.087L504.592 948.118Z" fill="white"/>
<path d="M409.896 902.421L396.006 913.439L405.525 911.585L409.896 902.421Z" fill="#001E20"/>
<path d="M403.901 914.952L396.006 913.439L405.525 911.585L403.901 914.952Z" fill="#001E20"/>
<path d="M431.682 919.075L460.376 898.617L536.006 951.382L444.966 942.417L431.682 919.075Z" fill="#FFC856"/>
<path d="M539.583 969.75L568.871 964.048L536.006 951.382L504.629 948.302L539.583 969.75Z" fill="#001E20"/>
<path d="M432.582 980.291L417.147 996.642L429.594 994.218L445.761 977.724L432.582 980.291Z" fill="#001E20"/>
<path d="M461.321 974.695L445.886 991.046L458.333 988.622L474.5 972.128L461.321 974.695Z" fill="#001E20"/>
<rect x="422.012" y="894.183" width="6.02077" height="6.02077" transform="rotate(40.2571 422.012 894.183)" fill="#001E20"/>
</g>
<rect x="390" y="993.708" width="7" height="6" transform="rotate(-24.3308 390 993.708)" fill="#FFC856"/>
<rect x="411" y="1003.88" width="7" height="6" transform="rotate(-24.3308 411 1003.88)" fill="white"/>
<rect x="405" y="985.884" width="7" height="6" transform="rotate(-24.3308 405 985.884)" fill="#FFC856"/>
<defs>
<radialGradient id="paint0_radial" cx="0" cy="0" r="1" gradientUnits="userSpaceOnUse" gradientTransform="translate(1346 498.499) rotate(-147.174) scale(625.357 1125.74)">
<stop stop-color="white" stop-opacity="0.25"/>
<stop offset="1" stop-color="#C4C4C4" stop-opacity="0"/>
</radialGradient>
<clipPath id="clip0">
<rect width="160.005" height="106.67" fill="white" transform="translate(392 892.865) rotate(-11.0188)"/>
</clipPath>
</defs>
</svg>
