<svg width="53" height="26" viewBox="0 0 53 26" fill="none" xmlns="http://www.w3.org/2000/svg">
<path d="M0.144901 12.3621L12.811 8.2505L11.7444 12.2981L0.144901 12.3621Z" fill="#001E20"/>
<path d="M12.792 8.22314L18.3604 13.4956L17.2666 17.6468L11.742 12.2083L12.792 8.22314Z" fill="#001E20"/>
<path d="M30.3471 20.6343L23.5714 11.1684L22.5044 15.2183L30.3471 20.6343Z" fill="#001E20"/>
<path d="M23.5908 11.1814L18.342 13.4798L17.2472 17.6339L22.5398 15.1693L23.5908 11.1814Z" fill="#001E20"/>
<path d="M24.9417 5.21887L30.0101 1.01715L29.2244 3.99894L24.9417 5.21887Z" fill="#001E20"/>
<path d="M29.9983 1.00562L32.3267 4.20207L31.579 7.03902L29.2805 3.72908L29.9983 1.00562Z" fill="#001E20"/>
<path d="M38.9916 8.86398L35.3341 2.46417L34.5771 5.33762L38.9916 8.86398Z" fill="#001E20"/>
<path d="M35.3474 2.47217L32.0075 4.20806L31.2308 7.15467L34.6017 5.30091L35.3474 2.47217Z" fill="#001E20"/>
<path d="M36.946 16.5089L43.4299 15.9008L43.094 17.1745L36.946 16.5089Z" fill="#001E20"/>
<path d="M43.4219 15.8884L46.7526 18.2634L46.3261 19.8821L43.0125 17.4424L43.4219 15.8884Z" fill="#001E20"/>
<path d="M52.4117 20.7444L49.3128 17.4977L48.9766 18.7732L52.4117 20.7444Z" fill="#001E20"/>
<path d="M49.3193 17.5042L46.7449 18.2555L46.3179 19.8759L48.9095 19.0597L49.3193 17.5042Z" fill="#001E20"/>
<path d="M2.68847 23.6225L6.34811 22.4345L6.03993 23.604L2.68847 23.6225Z" fill="#001E20"/>
<path d="M6.34277 22.426L7.95164 23.9494L7.63564 25.1488L6.03941 23.5775L6.34277 22.426Z" fill="#001E20"/>
<path d="M10.7918 25.8419L9.30172 23.2345L8.9933 24.4052L10.7918 25.8419Z" fill="#001E20"/>
<path d="M9.30713 23.238L7.94643 23.9453L7.62998 25.1457L9.00334 24.3905L9.30713 23.238Z" fill="#001E20"/>
</svg>
