<svg width="180" height="148" viewBox="0 0 180 148" fill="none" xmlns="http://www.w3.org/2000/svg">
<g clip-path="url(#clip0)">
<path d="M25.7877 28.1399L13.9001 52.9519L41.6814 57.0751L51.0567 21.3129L25.7877 28.1399Z" fill="#FFC856"/>
<path d="M70.376 36.6166L51.0571 21.3129L41.6817 57.075L70.376 36.6166Z" fill="white"/>
<path d="M27.6743 54.9981L42.5823 118.291L66.7446 113.586L27.6743 54.9981Z" fill="#001E20"/>
<path d="M114.592 86.1181L84.6828 110.093L66.7441 113.586L27.6736 54.998L41.6812 57.075L54.9015 80.0866L114.592 86.1181Z" fill="white"/>
<path d="M19.8958 40.4215L6.00604 51.4387L15.5245 49.5852L19.8958 40.4215Z" fill="#001E20"/>
<path d="M13.9006 52.9518L6.00635 51.4385L15.5248 49.5851L13.9006 52.9518Z" fill="#001E20"/>
<path d="M41.6815 57.075L70.3758 36.6166L146.006 89.3815L54.9662 80.4173L41.6815 57.075Z" fill="#FFC856"/>
<path d="M149.583 107.75L178.871 102.048L146.006 89.3815L114.629 86.3019L149.583 107.75Z" fill="#001E20"/>
<path d="M42.582 118.291L27.1471 134.642L39.5943 132.218L55.7614 115.724L42.582 118.291Z" fill="#001E20"/>
<path d="M71.3208 112.695L55.8859 129.046L68.3331 126.622L84.5002 110.128L71.3208 112.695Z" fill="#001E20"/>
<rect x="32.0125" y="32.183" width="6.02077" height="6.02077" transform="rotate(40.2571 32.0125 32.183)" fill="#001E20"/>
</g>
<rect y="131.708" width="7" height="6" transform="rotate(-24.3308 0 131.708)" fill="#FFC856"/>
<rect x="21" y="141.884" width="7" height="6" transform="rotate(-24.3308 21 141.884)" fill="white"/>
<rect x="15" y="123.884" width="7" height="6" transform="rotate(-24.3308 15 123.884)" fill="#FFC856"/>
<defs>
<clipPath id="clip0">
<rect width="160.005" height="106.67" fill="white" transform="translate(2 30.8653) rotate(-11.0188)"/>
</clipPath>
</defs>
</svg>
