<svg width="546" height="383" viewBox="0 0 546 383" fill="none" xmlns="http://www.w3.org/2000/svg">
<path d="M407.727 67L546 144.695L546 301L407.727 223.04L407.727 67Z" fill="#FFC856"/>
<path d="M273.001 144.5L407.728 67L407.728 222.824L273.001 301L273.001 144.5Z" fill="white"/>
<path d="M407.727 223L546 301L409.426 382.546L273 301L407.727 223Z" fill="#001E20"/>
<path d="M138.273 378.545L0 300.85L0 144.545L138.273 222.506L138.273 378.545Z" fill="#FFC856"/>
<path d="M272.999 301L138.272 378.545L138.272 222.722L272.999 144.545L272.999 301Z" fill="white"/>
<path d="M138.273 222.545L0 144.545L136.574 63L273 144.5L138.273 222.545Z" fill="#001E20"/>
<path d="M379.085 28.4998L377.085 40.7438L389.002 39.5422L388.692 22.7384L379.085 28.4998Z" fill="#FFC856"/>
<path d="M398.429 27.3913L388.692 22.7377L389.003 39.5419L398.429 27.3913Z" fill="white"/>
<path d="M382.994 40.1484L396.511 66.4617L405.909 61.7572L382.994 40.1484Z" fill="#001E20"/>
<path d="M422.404 44.4304L412.886 58.2646L405.909 61.7573L382.993 40.1484L389.002 39.5417L397.128 48.2602L422.404 44.4304Z" fill="white"/>
<path d="M378.092 34.5612L373.658 40.9348L377.361 39.0815L378.092 34.5612Z" fill="#001E20"/>
<path d="M377.085 40.7431L373.659 40.9336L377.361 39.0801L377.085 40.7431Z" fill="#001E20"/>
<path d="M389.002 39.5418L398.429 27.3915L435.717 42.4542L397.193 48.3992L389.002 39.5418Z" fill="#FFC856"/>
<path d="M439.331 50.1729L450.723 44.4705L435.717 42.4544L422.44 44.5078L439.331 50.1729Z" fill="#001E20"/>
<path d="M396.511 66.4613L392.063 75.3574L396.905 72.9338L401.637 63.8951L396.511 66.4613Z" fill="#001E20"/>
<path d="M407.689 60.8672L403.242 69.7625L408.083 67.3391L412.816 58.3012L407.689 60.8672Z" fill="#001E20"/>
<rect width="2.64279" height="2.67341" transform="matrix(0.887447 0.460911 -0.398641 0.917107 382.119 29.6064)" fill="#001E20"/>
</svg>
