<svg width="1256" height="281" viewBox="0 0 1256 281" fill="none" xmlns="http://www.w3.org/2000/svg">
<path d="M643 198.5L1129.99 172L1256 188.5L1141.63 246L840 261L643 198.5Z" fill="#001E20" fill-opacity="0.1"/>
<path d="M643 186.59L1068.03 172L1178 181.084L1078.18 212.742L814.933 221L643 186.59Z" fill="#001E20" fill-opacity="0.1"/>
<g clip-path="url(#clip0)">
<path d="M967.86 7.3811L970.697 29.0002L980.121 29.0002L982.958 7.3811L967.86 7.3811Z" fill="#FFC856"/>
<path d="M968.245 10.4382L961.689 7.80961L961 7.40961L962.854 3.59056L966.958 1.66675L971.862 4.16199L968.245 10.4382Z" fill="#FF513F"/>
<path d="M963.361 4.1142L966.907 2.35229L971.497 4.70468L968.245 10.438L961.709 7.78087L963.361 4.1142Z" fill="#FFC856"/>
<path d="M967.86 7.3811L968.498 12.2763L982.309 12.2763L982.958 7.3811L967.86 7.3811Z" fill="#EFECDE"/>
<path d="M982.603 3.3335L975.409 28.3811L976.726 28.7621L983.819 3.71445L982.603 3.3335Z" fill="#001E20"/>
<path d="M982.603 3.3333L984.326 1.14282L985.339 1.80949L983.819 3.71425L982.603 3.3333Z" fill="#001E20"/>
<path d="M984.326 1.14286L989.696 -3.5074e-08L990 0.857143L985.339 1.80952L984.326 1.14286Z" fill="#001E20"/>
<path d="M968.245 10.4382L963.351 4.09539L966.897 2.3811L968.245 10.4382Z" fill="#FFC856"/>
</g>
<g clip-path="url(#clip1)">
<path d="M1165 111.471L1111.56 77.8442L1080 111.471L1067.13 173.92H1160.2L1165 111.471Z" fill="#FF513F"/>
<path d="M990.5 28L1042.5 47.5L1111.56 77.8442L962.049 87.4518L990.5 28Z" fill="#001E20"/>
<path d="M1067.13 173.92H983.665L972.857 130.686L962.049 87.4518L1111.56 77.8442L1079 117.5L1073.06 145.71L1067.13 173.92Z" fill="#E34737"/>
<path d="M896 95.2581L962.049 87.4519L983.665 173.92L877.386 188.932L896 95.2581Z" fill="#FF513F"/>
<path d="M990.5 28L859 30L797.767 74.8419L962.289 87.4518L990.5 28Z" fill="#001E20"/>
<path d="M990.5 28L859 30L797.767 74.8419L962.289 87.4518L990.5 28Z" fill="url(#paint0_linear)" fill-opacity="0.25"/>
<path d="M990.5 27.9998L962.049 87.4518L946.438 86.2509L983.5 27.9998H990.5Z" fill="#FF513F"/>
<path d="M859 30H866L806.053 75.4424L797.527 74.8419L859 30Z" fill="#FF513F"/>
<path d="M1145.32 67.6177L1139.35 81.3824L1117.65 82.9769L1084.4 66.1304L1145.32 67.6177Z" fill="#FF513F"/>
<path d="M996.157 70.3426L992.837 84.7967L969.762 92.662L930 86.9298L996.157 70.3426Z" fill="#FF513F"/>
<path d="M790.068 79.8655L793.388 65.4114L816.463 57.5461L822.5 62.5L790.068 79.8655Z" fill="#FF513F"/>
<path d="M1160.5 173.92L1152.5 178.5L951.842 192.535V173.92H1160.5Z" fill="#001E20"/>
<path d="M896 95.2581L877.386 188.932L751.893 203.944L627 188.932V138.252L638.409 146.899L825.748 149.661L896 95.2581Z" fill="#E34737"/>
<path d="M895.399 82.2877L797.527 74.8418L675.036 87.4518L859.373 95.258L895.399 82.2877Z" fill="#FF513F"/>
<path d="M756.696 148.58L859.373 95.2581L675.036 87.4519L638.409 146.899L756.696 148.58Z" fill="#FF513F"/>
<path d="M627 138.252L638.408 146.899L675.036 87.4519L627 138.252Z" fill="#FF513F"/>
<path d="M825.748 149.661L813.739 185.93L751 193.5L756 160.5L825.748 149.661Z" fill="#001E20"/>
<path d="M1078.51 117.573L1071.66 150.882L1057 151L1061.43 123.784L1078.51 117.573Z" fill="#001E20"/>
<path d="M1054 159.421L1057 154L1071.5 153.5L1070.3 159.514L1054 159.421Z" fill="#001E20"/>
<path d="M638.408 146.899V177.523L627 173.92V138.252L638.408 146.899Z" fill="#001E20"/>
<path d="M724.272 168.756L738.683 192.535L645.614 183.288L648.136 163.592L724.272 168.756Z" fill="#001E20"/>
<path d="M962.049 87.4519L896 95.2581L825.748 149.661L756.696 148.58L859.373 95.2581L895.4 82.2878L962.049 87.4519Z" fill="#FF513F"/>
<path d="M883.991 203.944L752.493 212.351L751.893 203.944L877.386 188.932L883.991 203.944Z" fill="#001E20"/>
<path d="M627 188.932L751.893 203.944L752.493 212.351L627 196.738V188.932Z" fill="#001E20"/>
<path d="M809.983 133.09C804.669 125.883 811.828 111.585 825.973 101.153C840.118 90.7217 855.892 88.107 861.206 95.3132C866.52 102.519 859.361 116.818 845.216 127.25C831.071 137.681 815.297 140.296 809.983 133.09Z" fill="white"/>
<path d="M650.962 119.959C647.011 115.663 652.196 104.464 662.543 94.945C672.89 85.4255 684.481 81.1904 688.432 85.4857C692.384 89.781 687.199 100.98 676.852 110.499C666.505 120.019 654.913 124.254 650.962 119.959Z" fill="white"/>
<path d="M915 224C892.356 224 874 198.704 874 167.5C874 136.296 892.356 111 915 111C937.644 111 956 136.296 956 167.5C956 198.704 937.644 224 915 224Z" fill="#001E20"/>
<path d="M896.071 225.409C873.388 225.409 863.5 207.5 861.5 195C861.5 191.5 865.317 195 888 195C910.683 195 937.141 138.163 937.141 169.204C937.141 200.245 918.753 225.409 896.071 225.409Z" fill="#001E20"/>
<path d="M1096.04 199.88C1079.61 196.99 1074.44 184.386 1074.39 176.213C1074.78 173.997 1077.15 176.7 1093.58 179.59C1110.01 182.48 1135.51 149.849 1132.05 169.512C1128.59 189.174 1112 199.88 1096.04 199.88Z" fill="#001E20"/>
<path d="M1107.12 199.346C1091.04 198.201 1079.33 178.632 1080.96 155.637C1082.6 132.641 1096.96 114.928 1113.04 116.073C1129.13 117.218 1140.84 136.787 1139.2 159.782C1137.56 182.777 1123.2 200.491 1107.12 199.346Z" fill="#001E20"/>
<path d="M925 224C902.356 224 884 198.704 884 167.5C884 136.296 902.356 111 925 111C947.644 111 966 136.296 966 167.5C966 198.704 947.644 224 925 224Z" fill="#001E20"/>
<path d="M927 209C909.879 209 896 190.42 896 167.5C896 144.58 909.879 126 927 126C944.121 126 958 144.58 958 167.5C958 190.42 944.121 209 927 209Z" fill="white"/>
<path d="M900.5 167.5C900.5 177.483 903.494 186.501 908.31 193.012C913.126 199.523 919.74 203.5 927 203.5C934.26 203.5 940.874 199.523 945.69 193.012C950.506 186.501 953.5 177.483 953.5 167.5C953.5 157.517 950.506 148.499 945.69 141.988C940.874 135.477 934.26 131.5 927 131.5C919.74 131.5 913.126 135.477 908.31 141.988C903.494 148.499 900.5 157.517 900.5 167.5Z" fill="white" stroke="black"/>
<path d="M1113 200C1093.7 198.626 1079.15 177.805 1080.79 154.809C1082.43 131.814 1096.5 113.5 1118.7 115.661C1138.01 117.035 1152.33 136.79 1150.69 159.785C1149.05 182.78 1132.3 201.374 1113 200Z" fill="#001E20"/>
<path d="M1123 189C1111.4 189 1102 175.121 1102 158C1102 140.879 1111.4 127 1123 127C1134.6 127 1144 140.879 1144 158C1144 175.121 1134.6 189 1123 189Z" fill="#C4C4C4"/>
<path d="M1105.5 158C1105.5 165.648 1107.55 172.549 1110.84 177.523C1114.12 182.502 1118.61 185.5 1123.5 185.5C1128.39 185.5 1132.88 182.502 1136.16 177.523C1139.45 172.549 1141.5 165.648 1141.5 158C1141.5 150.352 1139.45 143.451 1136.16 138.477C1132.88 133.498 1128.39 130.5 1123.5 130.5C1118.61 130.5 1114.12 133.498 1110.84 138.477C1107.55 143.451 1105.5 150.352 1105.5 158Z" stroke="black"/>
<rect x="889" y="214" width="40" height="10" fill="#001E20"/>
<rect x="1097" y="191" width="20" height="9" fill="#001E20"/>
<g filter="url(#filter0_d)">
<path d="M704.964 124.495L708.004 124.413L711.402 125.39L706.971 131.842L704 131.429L704.964 124.495Z" fill="#FFC856"/>
</g>
<rect x="914" y="111" width="12" height="9" fill="#001E20"/>
<path d="M646 178L734.5 185.5L739 192.5L645.5 183.5L646 178Z" fill="#AA3528"/>
<path d="M1067 151L1072 120L1078.5 117.5L1072 151L1067 151Z" fill="#6A1F17"/>
<path d="M1054 159.5L1066 156.5L1066.5 153.5L1071.5 153.5L1070.5 159.5L1054 159.5Z" fill="#6A1F17"/>
<path d="M627 166L638.5 171.5V177.5L627 174V166Z" fill="#AA3528"/>
<path d="M751 194V190L807.5 180L821.5 150L826 149L814.5 186L751 194Z" fill="#AA3528"/>
</g>
<g clip-path="url(#clip2)">
<path d="M917.305 77.7697L914.019 77.5213L919.186 71.298L922.467 71.5461L917.305 77.7697Z" fill="white"/>
<path d="M919.884 74.6577L916.602 74.4096L922.467 71.5461L925.753 71.7983L919.884 74.6577Z" fill="white"/>
<path d="M919.884 74.6578L916.602 74.4097L917.305 77.7697L920.586 78.0178L919.884 74.6578Z" fill="white"/>
<path d="M926.451 75.158L923.17 74.9099L923.872 78.2699L927.154 78.5181L926.451 75.158Z" fill="white"/>
<path d="M929.034 72.0465L923.17 74.9101L926.451 75.1582L932.32 72.2949L929.034 72.0465Z" fill="white"/>
<path d="M933.018 75.6585L929.737 75.4065L930.439 78.7704L933.721 79.0185L933.018 75.6585Z" fill="white"/>
<path d="M935.602 72.5468L929.737 75.4065L933.018 75.6585L938.887 72.7952L935.602 72.5468Z" fill="white"/>
<path d="M935.363 79.1446L932.078 78.8924L937.245 72.6691L940.53 72.9213L935.363 79.1446Z" fill="white"/>
<path d="M939.939 77.8351L942.871 76.4072L942.169 73.0433L938.887 72.7952L939.509 75.786L939.939 77.8351Z" fill="white"/>
<path d="M939.59 76.1554L942.871 76.4074L937.006 79.2671L933.721 79.0187L939.59 76.1554Z" fill="white"/>
</g>
<path d="M649.487 122.091L656.734 121.302L664.423 118.807L670.841 115.446L675.986 111.645L681.569 106.565L686.738 100.199L689.355 93.3823L689.398 88.6796L688.144 86.1028L686.035 83.9457L683.066 82.6359L483.406 75.2491L-45.379 61L-46.9999 237.993L649.487 122.091Z" fill="url(#paint1_radial)" fill-opacity="0.5"/>
<path d="M816.5 138L825 137L834 134L841.5 130L847.5 125.5L854 119.5L860 112L863 104L863 98.5L861.5 95.5L859 93L855.5 91.5L621 85L1.32293e-05 74L6.84541e-05 281L816.5 138Z" fill="url(#paint2_radial)" fill-opacity="0.5"/>
<defs>
<filter id="filter0_d" x="704" y="124.413" width="7.40191" height="8.42857" filterUnits="userSpaceOnUse" color-interpolation-filters="sRGB">
<feFlood flood-opacity="0" result="BackgroundImageFix"/>
<feColorMatrix in="SourceAlpha" type="matrix" values="0 0 0 0 0 0 0 0 0 0 0 0 0 0 0 0 0 0 127 0"/>
<feOffset dy="1"/>
<feColorMatrix type="matrix" values="0 0 0 0 0 0 0 0 0 0.117647 0 0 0 0 0.12549 0 0 0 1 0"/>
<feBlend mode="normal" in2="BackgroundImageFix" result="effect1_dropShadow"/>
<feBlend mode="normal" in="SourceGraphic" in2="effect1_dropShadow" result="shape"/>
</filter>
<linearGradient id="paint0_linear" x1="864.5" y1="29.5" x2="950.5" y2="84" gradientUnits="userSpaceOnUse">
<stop stop-color="white"/>
<stop offset="1" stop-color="white" stop-opacity="0"/>
</linearGradient>
<radialGradient id="paint1_radial" cx="0" cy="0" r="1" gradientUnits="userSpaceOnUse" gradientTransform="translate(670.699 79.8086) rotate(173.165) scale(558.849 280.574)">
<stop stop-color="#FFD45D"/>
<stop offset="1" stop-color="#C4C4C4" stop-opacity="0"/>
</radialGradient>
<radialGradient id="paint2_radial" cx="0" cy="0" r="1" gradientUnits="userSpaceOnUse" gradientTransform="translate(840.949 88.3261) rotate(172.669) scale(656.13 328.15)">
<stop stop-color="#FFD45D"/>
<stop offset="1" stop-color="#C4C4C4" stop-opacity="0"/>
</radialGradient>
<clipPath id="clip0">
<rect width="29" height="29" fill="white" transform="translate(961)"/>
</clipPath>
<clipPath id="clip1">
<rect width="538" height="202" fill="white" transform="matrix(-1 0 0 1 1165 22)"/>
</clipPath>
<clipPath id="clip2">
<rect width="28.726" height="6.83951" fill="white" transform="translate(914.427 71) rotate(3.58326)"/>
</clipPath>
</defs>
</svg>
