<svg width="517" height="401" viewBox="0 0 517 401" fill="none" xmlns="http://www.w3.org/2000/svg">
<g clip-path="url(#clip0)">
<path d="M268.039 75.0615H242.96V111.805H268.039V75.0615Z" fill="#001E20"/>
<path d="M238.464 0.00960732V25.0205L272.614 25.0205V0.00960732L238.464 0.00960732Z" fill="#001E20"/>
<path d="M238.456 25.0109V0L209 25.0109V50.0218L238.456 25.0109Z" fill="white"/>
<path d="M302 50.0216V25.0107L272.605 50.0216V75.0325L302 50.0216Z" fill="white"/>
<path d="M272.606 75.0329V50.022L243.149 75.0329V100.044L272.606 75.0329Z" fill="white"/>
<path d="M302 25.0109L272.605 0V25.0109L302 50.0218V25.0109Z" fill="#FF513F"/>
<path d="M267.974 121.508H243.149V137H267.974V121.508Z" fill="#001E20"/>
</g>
<path d="M0.575599 331.869L445.497 312.959L516.886 329.859L421.042 384.851L169.197 397.62L0.575599 331.869Z" fill="#001E20" fill-opacity="0.1"/>
<path d="M0.57616 331.868L360.084 312.797L447.073 315.585L421.859 333.444L368.285 352.163L148.536 358.604L0.57616 331.868Z" fill="#001E20" fill-opacity="0.1"/>
<g clip-path="url(#clip1)">
<path d="M453 260.74L408.003 232.274L381.429 260.74L370.59 313.606H448.955L453 260.74Z" fill="#FF513F"/>
<path d="M306.07 190.079L349.854 206.587L408.003 232.274L282.114 240.407L306.07 190.079Z" fill="#001E20"/>
<path d="M370.59 313.606H300.315L291.214 277.006L282.114 240.407L408.003 232.274L380.587 265.844L375.589 289.725L370.59 313.606Z" fill="#E34737"/>
<path d="M226.5 247.015L282.114 240.407L300.315 313.606L210.827 326.314L226.5 247.015Z" fill="#FF513F"/>
<path d="M306.07 190.079L195.346 191.772L143.787 229.732L282.316 240.407L306.07 190.079Z" fill="#001E20"/>
<path d="M306.07 190.079L195.346 191.772L143.787 229.732L282.316 240.407L306.07 190.079Z" fill="url(#paint0_linear)" fill-opacity="0.25"/>
<path d="M306.07 190.079L282.114 240.407L268.969 239.391L300.176 190.079H306.07Z" fill="#FF513F"/>
<path d="M195.346 191.772H201.24L150.764 230.241L143.585 229.732L195.346 191.772Z" fill="#FF513F"/>
<path d="M436.427 223.617L431.398 235.269L413.133 236.619L385.131 222.358L436.427 223.617Z" fill="#FF513F"/>
<path d="M310.833 225.924L308.037 238.159L288.608 244.818L255.128 239.965L310.833 225.924Z" fill="#FF513F"/>
<path d="M137.305 233.985L140.1 221.749L159.529 215.091L164.612 219.285L137.305 233.985Z" fill="#FF513F"/>
<path d="M449.211 313.606L442.475 317.483L273.519 329.364V313.606H449.211Z" fill="#001E20"/>
<path d="M226.5 247.016L210.827 326.314L105.161 339.022L0 326.314V283.412L9.60605 290.731L167.347 293.07L226.5 247.016Z" fill="#E34737"/>
<path d="M225.995 236.036L143.585 229.732L40.4467 240.407L195.66 247.015L225.995 236.036Z" fill="#FF513F"/>
<path d="M109.205 292.155L195.66 247.015L40.4465 240.407L9.60608 290.731L109.205 292.155Z" fill="#FF513F"/>
<path d="M-0.000152588 283.411L9.60588 290.731L40.4463 240.407L-0.000152588 283.411Z" fill="#FF513F"/>
<path d="M167.347 293.069L157.236 323.772L104.409 330.18L108.619 302.245L167.347 293.069Z" fill="#001E20"/>
<path d="M380.172 265.906L374.403 294.104L362.063 294.203L365.79 271.164L380.172 265.906Z" fill="#001E20"/>
<path d="M359.537 301.332L362.063 296.743L374.272 296.319L373.262 301.41L359.537 301.332Z" fill="#001E20"/>
<path d="M9.60596 290.731V316.656L-6.10352e-05 313.606V283.412L9.60596 290.731Z" fill="#001E20"/>
<path d="M81.9042 309.234L94.0381 329.364L15.6732 321.536L17.7966 304.863L81.9042 309.234Z" fill="#001E20"/>
<path d="M282.114 240.407L226.5 247.015L167.347 293.07L109.205 292.155L195.66 247.015L225.994 236.036L282.114 240.407Z" fill="#FF513F"/>
<path d="M216.388 339.022L105.666 346.139L105.16 339.022L210.827 326.314L216.388 339.022Z" fill="#001E20"/>
<path d="M0.000205994 326.314L105.161 339.022L105.667 346.139L0.000205994 332.922V326.314Z" fill="#001E20"/>
<path d="M154.073 279.041C149.599 272.941 155.626 260.837 167.537 252.006C179.447 243.175 192.729 240.962 197.204 247.062C201.678 253.163 195.65 265.267 183.74 274.097C171.83 282.928 158.547 285.142 154.073 279.041Z" fill="white"/>
<path d="M20.176 267.926C16.849 264.29 21.2147 254.809 29.9271 246.751C38.6395 238.692 48.3994 235.107 51.7264 238.743C55.0534 242.379 50.6877 251.859 41.9753 259.918C33.2629 267.977 23.503 271.562 20.176 267.926Z" fill="white"/>
<path d="M242.498 356C223.432 356 207.976 334.586 207.976 308.171C207.976 281.755 223.432 260.341 242.498 260.341C261.564 260.341 277.021 281.755 277.021 308.171C277.021 334.586 261.564 356 242.498 356Z" fill="#001E20"/>
<path d="M226.559 357.193C207.461 357.193 199.135 342.032 197.451 331.451C197.451 328.488 200.665 331.451 219.764 331.451C238.863 331.451 261.141 283.337 261.141 309.614C261.141 335.891 245.658 357.193 226.559 357.193Z" fill="#001E20"/>
<path d="M394.933 335.582C381.101 333.135 376.752 322.466 376.705 315.547C377.033 313.671 379.033 315.959 392.865 318.406C406.697 320.852 428.166 293.229 425.253 309.874C422.34 326.519 408.374 335.582 394.933 335.582Z" fill="#001E20"/>
<path d="M404.262 335.13C390.722 334.16 380.862 317.594 382.24 298.128C383.619 278.662 395.713 263.667 409.253 264.636C422.794 265.605 432.653 282.171 431.275 301.637C429.897 321.104 417.803 336.099 404.262 335.13Z" fill="#001E20"/>
<path d="M250.918 356C231.852 356 216.396 334.586 216.396 308.171C216.396 281.755 231.852 260.341 250.918 260.341C269.984 260.341 285.44 281.755 285.44 308.171C285.44 334.586 269.984 356 250.918 356Z" fill="#001E20"/>
<path d="M252.602 343.302C238.186 343.302 226.5 327.573 226.5 308.171C226.5 288.768 238.186 273.04 252.602 273.04C267.018 273.04 278.705 288.768 278.705 308.171C278.705 327.573 267.018 343.302 252.602 343.302Z" fill="white"/>
<path d="M230.368 308.171C230.368 316.608 232.885 324.226 236.929 329.723C240.974 335.221 246.521 338.57 252.602 338.57C258.683 338.57 264.23 335.221 268.275 329.723C272.32 324.226 274.836 316.608 274.836 308.171C274.836 299.734 272.32 292.116 268.275 286.619C264.23 281.121 258.683 277.772 252.602 277.772C246.521 277.772 240.974 281.121 236.929 286.619C232.885 292.116 230.368 299.734 230.368 308.171Z" fill="white" stroke="black"/>
<path d="M409.216 335.683C392.963 334.52 380.717 316.894 382.095 297.428C383.473 277.961 395.323 262.458 414.018 264.287C430.271 265.45 442.329 282.174 440.951 301.64C439.573 321.106 425.468 336.846 409.216 335.683Z" fill="#001E20"/>
<path d="M417.636 326.371C407.87 326.371 399.954 314.622 399.954 300.129C399.954 285.635 407.87 273.886 417.636 273.886C427.401 273.886 435.318 285.635 435.318 300.129C435.318 314.622 427.401 326.371 417.636 326.371Z" fill="#C4C4C4"/>
<path d="M402.98 300.129C402.98 306.591 404.702 312.418 407.46 316.615C410.221 320.816 413.978 323.332 418.057 323.332C422.136 323.332 425.893 320.816 428.654 316.615C431.412 312.418 433.134 306.591 433.134 300.129C433.134 293.667 431.412 287.84 428.654 283.643C425.893 279.442 422.136 276.926 418.057 276.926C413.978 276.926 410.221 279.442 407.46 283.643C404.702 287.84 402.98 293.667 402.98 300.129Z" stroke="black"/>
<rect x="220.606" y="347.535" width="33.6803" height="8.46533" fill="#001E20"/>
<rect x="395.744" y="328.064" width="16.8402" height="7.6188" fill="#001E20"/>
<g filter="url(#filter0_d)">
<path d="M65.6461 271.766L68.206 271.696L71.067 272.524L67.3365 277.985L64.8346 277.635L65.6461 271.766Z" fill="#FFC856"/>
</g>
<rect x="241.656" y="260.341" width="10.1041" height="7.61881" fill="#001E20"/>
<path d="M15.9982 317.06L90.5158 323.409L94.3048 329.334L15.5771 321.716L15.9982 317.06Z" fill="#AA3528"/>
<path d="M370.483 294.203L374.693 267.96L380.166 265.844L374.693 294.203L370.483 294.203Z" fill="#6A1F17"/>
<path d="M359.537 301.398L369.641 298.859L370.062 296.319L374.272 296.319L373.43 301.398L359.537 301.398Z" fill="#6A1F17"/>
<path d="M0 306.901L9.68311 311.557V316.636L0 313.673V306.901Z" fill="#AA3528"/>
<path d="M104.409 330.604V327.218L151.983 318.752L163.771 293.356L167.56 292.51L157.877 323.832L104.409 330.604Z" fill="#AA3528"/>
</g>
<defs>
<filter id="filter0_d" x="64.8345" y="271.696" width="6.23241" height="7.28853" filterUnits="userSpaceOnUse" color-interpolation-filters="sRGB">
<feFlood flood-opacity="0" result="BackgroundImageFix"/>
<feColorMatrix in="SourceAlpha" type="matrix" values="0 0 0 0 0 0 0 0 0 0 0 0 0 0 0 0 0 0 127 0"/>
<feOffset dy="1"/>
<feColorMatrix type="matrix" values="0 0 0 0 0 0 0 0 0 0.117647 0 0 0 0 0.12549 0 0 0 1 0"/>
<feBlend mode="normal" in2="BackgroundImageFix" result="effect1_dropShadow"/>
<feBlend mode="normal" in="SourceGraphic" in2="effect1_dropShadow" result="shape"/>
</filter>
<linearGradient id="paint0_linear" x1="199.977" y1="191.349" x2="272.612" y2="237.133" gradientUnits="userSpaceOnUse">
<stop stop-color="white"/>
<stop offset="1" stop-color="white" stop-opacity="0"/>
</linearGradient>
<clipPath id="clip0">
<rect width="93" height="137" fill="white" transform="translate(209)"/>
</clipPath>
<clipPath id="clip1">
<rect width="453" height="171" fill="white" transform="matrix(-1 0 0 1 453 185)"/>
</clipPath>
</defs>
</svg>
