<svg width="517" height="216" viewBox="0 0 517 216" fill="none" xmlns="http://www.w3.org/2000/svg">
<path d="M0.575599 146.869L445.497 127.959L516.886 144.859L421.042 199.851L169.197 212.62L0.575599 146.869Z" fill="#001E20" fill-opacity="0.1"/>
<path d="M0.57616 146.868L360.084 127.797L447.073 130.585L421.859 148.444L368.285 167.163L148.536 173.604L0.57616 146.868Z" fill="#001E20" fill-opacity="0.1"/>
<g clip-path="url(#clip0)">
<path d="M453 75.74L408.003 47.2739L381.429 75.74L370.59 128.606H448.955L453 75.74Z" fill="#FF513F"/>
<path d="M306.07 5.0791L349.854 21.5865L408.003 47.274L282.114 55.4071L306.07 5.0791Z" fill="#001E20"/>
<path d="M370.59 128.606H300.315L291.214 92.0064L282.114 55.4071L408.003 47.2739L380.587 80.8439L375.589 104.725L370.59 128.606Z" fill="#E34737"/>
<path d="M226.5 62.0154L282.114 55.4072L300.315 128.606L210.827 141.314L226.5 62.0154Z" fill="#FF513F"/>
<path d="M306.07 5.0791L195.346 6.77217L143.787 44.7324L282.316 55.4071L306.07 5.0791Z" fill="#001E20"/>
<path d="M306.07 5.0791L195.346 6.77217L143.787 44.7324L282.316 55.4071L306.07 5.0791Z" fill="url(#paint0_linear)" fill-opacity="0.25"/>
<path d="M306.07 5.0791L282.114 55.4073L268.969 54.3907L300.176 5.0791H306.07Z" fill="#FF513F"/>
<path d="M195.346 6.77197H201.24L150.764 45.2406L143.585 44.7322L195.346 6.77197Z" fill="#FF513F"/>
<path d="M436.427 38.6171L431.398 50.2694L413.133 51.6192L385.131 37.358L436.427 38.6171Z" fill="#FF513F"/>
<path d="M310.833 40.9236L308.037 53.1595L288.608 59.8177L255.128 54.9652L310.833 40.9236Z" fill="#FF513F"/>
<path d="M137.305 48.9854L140.1 36.7495L159.529 30.0912L164.612 34.2849L137.305 48.9854Z" fill="#FF513F"/>
<path d="M449.211 128.606L442.475 132.483L273.519 144.364V128.606H449.211Z" fill="#001E20"/>
<path d="M226.5 62.0156L210.827 141.314L105.161 154.022L0 141.314V98.4116L9.60605 105.731L167.347 108.07L226.5 62.0156Z" fill="#E34737"/>
<path d="M225.995 51.0356L143.585 44.7324L40.4467 55.4072L195.66 62.0154L225.995 51.0356Z" fill="#FF513F"/>
<path d="M109.205 107.155L195.66 62.0154L40.4465 55.4072L9.60608 105.731L109.205 107.155Z" fill="#FF513F"/>
<path d="M-0.000152588 98.4114L9.60588 105.731L40.4463 55.4072L-0.000152588 98.4114Z" fill="#FF513F"/>
<path d="M167.347 108.069L157.236 138.772L104.409 145.18L108.619 117.245L167.347 108.069Z" fill="#001E20"/>
<path d="M380.172 80.9062L374.403 109.104L362.063 109.203L365.79 86.1641L380.172 80.9062Z" fill="#001E20"/>
<path d="M359.537 116.332L362.063 111.743L374.272 111.319L373.262 116.41L359.537 116.332Z" fill="#001E20"/>
<path d="M9.60596 105.731V131.656L-6.10352e-05 128.606V98.4116L9.60596 105.731Z" fill="#001E20"/>
<path d="M81.9042 124.234L94.0381 144.364L15.6732 136.536L17.7966 119.863L81.9042 124.234Z" fill="#001E20"/>
<path d="M282.114 55.4072L226.5 62.0154L167.347 108.07L109.205 107.155L195.66 62.0154L225.994 51.0356L282.114 55.4072Z" fill="#FF513F"/>
<path d="M216.388 154.022L105.666 161.139L105.16 154.022L210.827 141.314L216.388 154.022Z" fill="#001E20"/>
<path d="M0.000205994 141.314L105.161 154.022L105.667 161.139L0.000205994 147.922V141.314Z" fill="#001E20"/>
<path d="M154.073 94.0414C149.599 87.941 155.626 75.837 167.537 67.0062C179.447 58.1754 192.729 55.9619 197.204 62.0622C201.678 68.1626 195.65 80.2667 183.74 89.0975C171.83 97.9283 158.547 100.142 154.073 94.0414Z" fill="white"/>
<path d="M20.176 82.9256C16.849 79.2895 21.2147 69.8091 29.9271 61.7506C38.6395 53.692 48.3994 50.1069 51.7264 53.7429C55.0534 57.379 50.6877 66.8594 41.9753 74.918C33.2629 82.9765 23.503 86.5617 20.176 82.9256Z" fill="white"/>
<path d="M242.498 171C223.432 171 207.976 149.586 207.976 123.171C207.976 96.7552 223.432 75.3413 242.498 75.3413C261.564 75.3413 277.021 96.7552 277.021 123.171C277.021 149.586 261.564 171 242.498 171Z" fill="#001E20"/>
<path d="M226.559 172.193C207.461 172.193 199.135 157.032 197.451 146.451C197.451 143.488 200.665 146.451 219.764 146.451C238.863 146.451 261.141 98.3366 261.141 124.614C261.141 150.891 245.658 172.193 226.559 172.193Z" fill="#001E20"/>
<path d="M394.933 150.582C381.101 148.135 376.752 137.466 376.705 130.547C377.033 128.671 379.033 130.959 392.865 133.406C406.697 135.852 428.166 108.229 425.253 124.874C422.34 141.519 408.374 150.582 394.933 150.582Z" fill="#001E20"/>
<path d="M404.262 150.13C390.722 149.16 380.862 132.594 382.24 113.128C383.619 93.6619 395.713 78.667 409.253 79.636C422.794 80.6051 432.653 97.1711 431.275 116.637C429.897 136.104 417.803 151.099 404.262 150.13Z" fill="#001E20"/>
<path d="M250.918 171C231.852 171 216.396 149.586 216.396 123.171C216.396 96.7552 231.852 75.3413 250.918 75.3413C269.984 75.3413 285.44 96.7552 285.44 123.171C285.44 149.586 269.984 171 250.918 171Z" fill="#001E20"/>
<path d="M252.602 158.302C238.186 158.302 226.5 142.573 226.5 123.171C226.5 103.768 238.186 88.0396 252.602 88.0396C267.018 88.0396 278.705 103.768 278.705 123.171C278.705 142.573 267.018 158.302 252.602 158.302Z" fill="white"/>
<path d="M230.368 123.171C230.368 131.608 232.885 139.226 236.929 144.723C240.974 150.221 246.521 153.57 252.602 153.57C258.683 153.57 264.23 150.221 268.275 144.723C272.32 139.226 274.836 131.608 274.836 123.171C274.836 114.734 272.32 107.116 268.275 101.619C264.23 96.1214 258.683 92.7725 252.602 92.7725C246.521 92.7725 240.974 96.1214 236.929 101.619C232.885 107.116 230.368 114.734 230.368 123.171Z" fill="white" stroke="black"/>
<path d="M409.216 150.683C392.963 149.52 380.717 131.894 382.095 112.428C383.473 92.9614 395.323 77.4578 414.018 79.287C430.271 80.4501 442.329 97.1736 440.951 116.64C439.573 136.106 425.468 151.846 409.216 150.683Z" fill="#001E20"/>
<path d="M417.636 141.371C407.87 141.371 399.954 129.622 399.954 115.129C399.954 100.635 407.87 88.8862 417.636 88.8862C427.401 88.8862 435.318 100.635 435.318 115.129C435.318 129.622 427.401 141.371 417.636 141.371Z" fill="#C4C4C4"/>
<path d="M402.98 115.129C402.98 121.591 404.702 127.418 407.46 131.615C410.221 135.816 413.978 138.332 418.057 138.332C422.136 138.332 425.893 135.816 428.654 131.615C431.412 127.418 433.134 121.591 433.134 115.129C433.134 108.667 431.412 102.84 428.654 98.6428C425.893 94.4418 422.136 91.9258 418.057 91.9258C413.978 91.9258 410.221 94.4418 407.46 98.6428C404.702 102.84 402.98 108.667 402.98 115.129Z" stroke="black"/>
<rect x="220.606" y="162.535" width="33.6803" height="8.46533" fill="#001E20"/>
<rect x="395.744" y="143.064" width="16.8402" height="7.6188" fill="#001E20"/>
<g filter="url(#filter0_d)">
<path d="M65.6461 86.7659L68.206 86.6964L71.067 87.5235L67.3365 92.9849L64.8346 92.6352L65.6461 86.7659Z" fill="#FFC856"/>
</g>
<rect x="241.656" y="75.3413" width="10.1041" height="7.61881" fill="#001E20"/>
<path d="M15.9982 132.06L90.5158 138.409L94.3048 144.334L15.5771 136.716L15.9982 132.06Z" fill="#AA3528"/>
<path d="M370.483 109.203L374.693 82.9604L380.166 80.8441L374.693 109.203L370.483 109.203Z" fill="#6A1F17"/>
<path d="M359.537 116.398L369.641 113.859L370.062 111.319L374.272 111.319L373.43 116.398L359.537 116.398Z" fill="#6A1F17"/>
<path d="M0 121.901L9.68311 126.557V131.636L0 128.673V121.901Z" fill="#AA3528"/>
<path d="M104.409 145.604V142.218L151.983 133.752L163.771 108.356L167.56 107.51L157.877 138.832L104.409 145.604Z" fill="#AA3528"/>
</g>
<defs>
<filter id="filter0_d" x="64.8345" y="86.6963" width="6.23241" height="7.28853" filterUnits="userSpaceOnUse" color-interpolation-filters="sRGB">
<feFlood flood-opacity="0" result="BackgroundImageFix"/>
<feColorMatrix in="SourceAlpha" type="matrix" values="0 0 0 0 0 0 0 0 0 0 0 0 0 0 0 0 0 0 127 0"/>
<feOffset dy="1"/>
<feColorMatrix type="matrix" values="0 0 0 0 0 0 0 0 0 0.117647 0 0 0 0 0.12549 0 0 0 1 0"/>
<feBlend mode="normal" in2="BackgroundImageFix" result="effect1_dropShadow"/>
<feBlend mode="normal" in="SourceGraphic" in2="effect1_dropShadow" result="shape"/>
</filter>
<linearGradient id="paint0_linear" x1="199.977" y1="6.3489" x2="272.612" y2="52.1328" gradientUnits="userSpaceOnUse">
<stop stop-color="white"/>
<stop offset="1" stop-color="white" stop-opacity="0"/>
</linearGradient>
<clipPath id="clip0">
<rect width="453" height="171" fill="white" transform="matrix(-1 0 0 1 453 0)"/>
</clipPath>
</defs>
</svg>
