<svg width="291" height="87" viewBox="0 0 291 87" fill="none" xmlns="http://www.w3.org/2000/svg">
<path d="M36.7657 0.84668H0.554688V86.698H36.7657V0.84668Z" fill="white"/>
<path d="M36.7657 43.7723H0.554688L36.7657 0.84668H72.9767L36.7657 43.7723Z" fill="#FF513F"/>
<path d="M36.7657 43.7725H0.554688L36.7657 86.6981H72.9767L36.7657 43.7725Z" fill="#FFD45D"/>
<path d="M109.14 43.7725H72.9766L109.14 86.6981H145.351L109.14 43.7725Z" fill="white"/>
<path d="M109.14 0.84668L72.9766 43.7723H109.14L145.351 0.84668H109.14Z" fill="white"/>
<path d="M181.562 43.7725H145.351L181.562 86.6981H217.725L181.562 43.7725Z" fill="#FF513F"/>
<path d="M181.562 0.84668L145.351 43.7723H181.562L217.725 0.84668H181.562Z" fill="#FFC856"/>
<path d="M235.853 0.84668H199.642V86.698H235.853V0.84668Z" fill="white"/>
<path d="M272.016 65.2112L290.146 43.7723L253.935 0.84668H217.724L249.954 39.0241L272.016 65.2112Z" fill="#FF513F"/>
<path d="M253.935 43.7725H290.146L253.935 86.6981H217.724L253.935 43.7725Z" fill="#FFC856"/>
</svg>
