<svg width="68" height="68" viewBox="0 0 68 68" fill="none" xmlns="http://www.w3.org/2000/svg">
<g clip-path="url(#clip0)">
<path d="M21.7691 41.6459L14.2212 41.132L7.6363 49.8344L15.4096 43.5568L20.8458 44.5764L21.7691 41.6459Z" fill="#FF513F"/>
<path d="M21.6986 45.2359L16.0908 46.8142L12.1294 56.97L17.9145 48.793L25.2399 47.0693L21.6986 45.2359Z" fill="#FF513F"/>
<path d="M44.4058 41.1165L51.0069 37.4056L60.7173 42.4083L50.9702 40.1167L46.4861 43.3758L44.4058 41.1165Z" fill="#FF513F"/>
<path d="M44.8399 44.5122L50.6566 44.8364L56.692 53.9432L49.3126 47.1822L41.7436 47.0611L44.8399 44.5122Z" fill="#FF513F"/>
<path d="M20.0145 36.6573L25.7872 36.3163L25.5395 37.8734L18.6681 38.2302L20.0145 36.6573Z" fill="#FF513F"/>
<path d="M20.0144 36.6576L19.5939 31.2151L18.2819 31.2964L18.668 38.2305L20.0144 36.6576Z" fill="#FF513F"/>
<path d="M49.148 36.5241L45.7707 30.5393L44.6586 31.2052L47.2538 35.936L49.148 36.5241Z" fill="#FF513F"/>
<path d="M49.1482 36.5245L43.4634 40.0493L42.4321 38.8841L47.2184 35.9275L49.1482 36.5245Z" fill="#FF513F"/>
<path d="M16.0908 46.8133L17.9146 48.7922L25.2399 47.0684L21.6987 45.235L16.0908 46.8133Z" fill="#FF513F"/>
<path d="M41.7437 47.0611L44.8399 44.5122L50.6566 44.8364L49.3126 47.1821L41.7437 47.0611Z" fill="#FF513F"/>
<path d="M44.4058 41.1165L46.4861 43.3758L50.9702 40.1168L51.0069 37.4056L44.4058 41.1165Z" fill="#FF513F"/>
<path d="M21.7692 41.6457L20.8459 44.5762L15.4097 43.5566L14.2212 41.1318L21.7692 41.6457Z" fill="#FF513F"/>
<path d="M39.765 35.9482L25.4189 35.1111L17.8027 41.6657L24.6037 49.0753L38.9497 49.9124L46.5304 43.3489L39.765 35.9482Z" fill="#FF513F"/>
<path d="M18.3142 31.7715L9.97268 26.8001L14.658 15.9019L18.0403 27.2799L18.1475 19.1167L23.4695 26.0863L19.6262 31.6903L18.3142 31.7715Z" fill="#FF513F"/>
<path d="M45.6284 31.1085L48.7708 24.4529L41.2217 19.5762L43.9041 28.1828L40.3842 23.069L40.0078 29.7L44.7832 31.6146L45.6284 31.1085Z" fill="#FF513F"/>
<path d="M29.8746 17.1134L29.1772 18.877L44.0021 24.728L44.6994 22.9644L29.8746 17.1134Z" fill="#FFC856"/>
<path d="M33.8499 13.9366L31.8735 18.9346L41.9659 22.9178L43.9423 17.9198L33.8499 13.9366Z" fill="#FFC856"/>
<path d="M17.8029 41.6664L46.4861 43.3762L38.9499 49.9131L24.6039 49.076L17.8029 41.6664Z" fill="#AA3528"/>
<path d="M35.755 37.7233L37.7927 31.7877L36.8831 28.6052L35.191 31.2614L35.755 37.7233Z" fill="#FFC856"/>
<path d="M29.0586 37.4411L30.8815 31.2488L29.8431 28.3566L28.1765 31.2794L29.0586 37.4411Z" fill="#FFC856"/>
</g>
<defs>
<clipPath id="clip0">
<rect width="56" height="56" fill="white" transform="translate(13.6133) rotate(14.069)"/>
</clipPath>
</defs>
</svg>
