<svg width="144" height="31" viewBox="0 0 144 31" fill="none" xmlns="http://www.w3.org/2000/svg">
<path d="M18 15.5L18 -7.86805e-07L36 15.5L36 31L18 15.5Z" fill="#007550"/>
<path d="M18 15.5L18 0L1.22982e-06 15.5L5.52296e-07 31L18 15.5Z" fill="#FFD45D"/>
<path d="M55 15.5L55 -7.43094e-07L72 15.5L72 31L55 15.5Z" fill="#007550"/>
<path d="M55 15.5L55 0L36 15.5L36 31L55 15.5Z" fill="#FFD45D"/>
<path d="M90 15.5L90 -7.86805e-07L108 15.5L108 31L90 15.5Z" fill="#007550"/>
<path d="M90 15.5L90 0L72 15.5L72 31L90 15.5Z" fill="#FFD45D"/>
<path d="M126 15.5L126 -7.86805e-07L144 15.5L144 31L126 15.5Z" fill="#007550"/>
<path d="M126 15.5L126 0L108 15.5L108 31L126 15.5Z" fill="#FFD45D"/>
</svg>
