<svg width="464" height="2857" viewBox="0 0 464 2857" fill="none" xmlns="http://www.w3.org/2000/svg">
<path d="M378.756 739.728L452.355 872.682H305.158L378.756 739.728Z" fill="#001E20"/>
<path d="M378.757 866.664L305.158 733.709L452.355 733.709L378.757 866.664Z" fill="#007550"/>
<path d="M378.756 601.85L452.355 734.804H305.158L378.756 601.85Z" fill="#001E20"/>
<path d="M378.757 728.786L305.158 595.832L452.355 595.832L378.757 728.786Z" fill="#007550"/>
<path d="M378.756 463.972L452.355 596.926H305.158L378.756 463.972Z" fill="#001E20"/>
<path d="M378.757 590.907L305.158 457.953L452.355 457.953L378.757 590.907Z" fill="#007550"/>
<path d="M378.756 326.093L452.355 459.047H305.158L378.756 326.093Z" fill="#001E20"/>
<path d="M378.757 453.029L305.158 320.075L452.355 320.075L378.757 453.029Z" fill="#007550"/>
<path d="M378.756 188.215L452.355 321.169H305.158L378.756 188.215Z" fill="#001E20"/>
<path d="M378.757 315.151L305.158 182.197L452.355 182.197L378.757 315.151Z" fill="#007550"/>
<path d="M378.756 50.3367L452.355 183.291H305.158L378.756 50.3367Z" fill="#001E20"/>
<path d="M378.757 177.272L305.158 44.3181L452.355 44.3181L378.757 177.272Z" fill="#007550"/>
<path d="M231.871 739.728L305.47 872.682H158.273L231.871 739.728Z" fill="#001E20"/>
<path d="M231.871 866.664L158.272 733.709L305.469 733.709L231.871 866.664Z" fill="#007550"/>
<path d="M84.9841 739.728L158.583 872.682H11.3857L84.9841 739.728Z" fill="#001E20"/>
<path d="M84.9846 866.664L11.3862 733.709L158.583 733.709L84.9846 866.664Z" fill="#007550"/>
<path d="M378.756 878.337L452.355 1011.29H305.158L378.756 878.337Z" fill="#001E20"/>
<path d="M378.757 1005.27L305.158 872.318L452.355 872.318L378.757 1005.27Z" fill="#007550"/>
<path d="M231.871 878.337L305.47 1011.29H158.273L231.871 878.337Z" fill="#001E20"/>
<path d="M231.871 1005.27L158.272 872.318L305.469 872.318L231.871 1005.27Z" fill="#007550"/>
<path d="M84.9841 878.337L158.583 1011.29H11.3857L84.9841 878.337Z" fill="#001E20"/>
<path d="M84.9846 1005.27L11.3862 872.318L158.583 872.318L84.9846 1005.27Z" fill="#007550"/>
<path d="M378.756 1017.34L452.355 1150.29H305.158L378.756 1017.34Z" fill="#001E20"/>
<path d="M378.757 1144.27L305.158 1011.32L452.355 1011.32L378.757 1144.27Z" fill="#007550"/>
<path d="M231.871 1017.34L305.47 1150.29H158.273L231.871 1017.34Z" fill="#001E20"/>
<path d="M231.871 1144.27L158.272 1011.32L305.469 1011.32L231.871 1144.27Z" fill="#007550"/>
<path d="M84.9841 1017.34L158.583 1150.29H11.3857L84.9841 1017.34Z" fill="#001E20"/>
<path d="M84.9846 1144.27L11.3862 1011.32L158.583 1011.32L84.9846 1144.27Z" fill="#007550"/>
<path d="M378.756 1156.34L452.355 1289.29H305.158L378.756 1156.34Z" fill="#001E20"/>
<path d="M378.757 1283.27L305.158 1150.32L452.355 1150.32L378.757 1283.27Z" fill="#007550"/>
<path d="M231.871 1156.34L305.47 1289.29H158.273L231.871 1156.34Z" fill="#001E20"/>
<path d="M231.871 1283.27L158.272 1150.32L305.469 1150.32L231.871 1283.27Z" fill="#007550"/>
<path d="M84.9841 1156.34L158.583 1289.29H11.3857L84.9841 1156.34Z" fill="#001E20"/>
<path d="M84.9846 1283.27L11.3862 1150.32L158.583 1150.32L84.9846 1283.27Z" fill="#007550"/>
<path d="M378.756 1295.34L452.355 1428.29H305.158L378.756 1295.34Z" fill="#001E20"/>
<path d="M378.757 1422.27L305.158 1289.32L452.355 1289.32L378.757 1422.27Z" fill="#007550"/>
<path d="M231.871 1295.34L305.47 1428.29H158.273L231.871 1295.34Z" fill="#001E20"/>
<path d="M231.871 1422.27L158.272 1289.32L305.469 1289.32L231.871 1422.27Z" fill="#007550"/>
<path d="M84.9841 1295.34L158.583 1428.29H11.3857L84.9841 1295.34Z" fill="#001E20"/>
<path d="M84.9846 1422.27L11.3862 1289.32L158.583 1289.32L84.9846 1422.27Z" fill="#007550"/>
<path d="M231.871 601.85L305.47 734.804H158.273L231.871 601.85Z" fill="#001E20"/>
<path d="M231.871 728.786L158.272 595.832L305.469 595.832L231.871 728.786Z" fill="#007550"/>
<path d="M84.9841 601.85L158.583 734.804H11.3857L84.9841 601.85Z" fill="#001E20"/>
<path d="M84.9846 728.786L11.3862 595.832L158.583 595.832L84.9846 728.786Z" fill="#007550"/>
<path d="M231.871 463.972L305.47 596.926H158.273L231.871 463.972Z" fill="#001E20"/>
<path d="M231.871 590.907L158.272 457.953L305.469 457.953L231.871 590.907Z" fill="#007550"/>
<path d="M84.9841 463.972L158.583 596.926H11.3857L84.9841 463.972Z" fill="#001E20"/>
<path d="M84.9846 590.907L11.3862 457.953L158.583 457.953L84.9846 590.907Z" fill="#007550"/>
<path d="M231.871 326.093L305.47 459.047H158.273L231.871 326.093Z" fill="#001E20"/>
<path d="M231.871 453.029L158.272 320.075L305.469 320.075L231.871 453.029Z" fill="#007550"/>
<path d="M84.9841 326.093L158.583 459.047H11.3857L84.9841 326.093Z" fill="#001E20"/>
<path d="M84.9846 453.029L11.3862 320.075L158.583 320.075L84.9846 453.029Z" fill="#007550"/>
<path d="M231.871 188.215L305.47 321.169H158.273L231.871 188.215Z" fill="#001E20"/>
<path d="M231.871 315.151L158.272 182.197L305.469 182.197L231.871 315.151Z" fill="#007550"/>
<path d="M84.9841 188.215L158.583 321.169H11.3857L84.9841 188.215Z" fill="#001E20"/>
<path d="M84.9846 315.151L11.3862 182.197L158.583 182.197L84.9846 315.151Z" fill="#007550"/>
<path d="M231.871 50.3367L305.47 183.291H158.273L231.871 50.3367Z" fill="#001E20"/>
<path d="M231.871 177.272L158.272 44.3181L305.469 44.3181L231.871 177.272Z" fill="#007550"/>
<path d="M84.9841 50.3367L158.583 183.291H11.3857L84.9841 50.3367Z" fill="#001E20"/>
<path d="M84.9846 177.272L11.3862 44.3181L158.583 44.3181L84.9846 177.272Z" fill="#007550"/>
<path d="M378.756 2123.73L452.355 2256.68H305.158L378.756 2123.73Z" fill="#001E20"/>
<path d="M378.757 2250.66L305.158 2117.71L452.355 2117.71L378.757 2250.66Z" fill="#007550"/>
<path d="M378.756 1985.85L452.355 2118.8H305.158L378.756 1985.85Z" fill="#001E20"/>
<path d="M378.757 2112.79L305.158 1979.83L452.355 1979.83L378.757 2112.79Z" fill="#007550"/>
<path d="M378.756 1847.97L452.355 1980.93H305.158L378.756 1847.97Z" fill="#001E20"/>
<path d="M378.757 1974.91L305.158 1841.95L452.355 1841.95L378.757 1974.91Z" fill="#007550"/>
<path d="M378.756 1710.09L452.355 1843.05H305.158L378.756 1710.09Z" fill="#001E20"/>
<path d="M378.757 1837.03L305.158 1704.07L452.355 1704.07L378.757 1837.03Z" fill="#007550"/>
<path d="M378.756 1572.21L452.355 1705.17H305.158L378.756 1572.21Z" fill="#001E20"/>
<path d="M378.757 1699.15L305.158 1566.2L452.355 1566.2L378.757 1699.15Z" fill="#007550"/>
<path d="M378.756 1434.34L452.355 1567.29H305.158L378.756 1434.34Z" fill="#001E20"/>
<path d="M378.757 1561.27L305.158 1428.32L452.355 1428.32L378.757 1561.27Z" fill="#007550"/>
<path d="M231.871 2123.73L305.47 2256.68H158.273L231.871 2123.73Z" fill="#001E20"/>
<path d="M231.871 2250.66L158.272 2117.71L305.469 2117.71L231.871 2250.66Z" fill="#007550"/>
<path d="M84.9841 2123.73L158.583 2256.68H11.3857L84.9841 2123.73Z" fill="#001E20"/>
<path d="M84.9846 2250.66L11.3862 2117.71L158.583 2117.71L84.9846 2250.66Z" fill="#007550"/>
<path d="M378.756 2262.34L452.355 2395.29H305.158L378.756 2262.34Z" fill="#001E20"/>
<path d="M378.757 2389.27L305.158 2256.32L452.355 2256.32L378.757 2389.27Z" fill="#007550"/>
<path d="M231.871 2262.34L305.47 2395.29H158.273L231.871 2262.34Z" fill="#001E20"/>
<path d="M231.871 2389.27L158.272 2256.32L305.469 2256.32L231.871 2389.27Z" fill="#007550"/>
<path d="M84.9841 2262.34L158.583 2395.29H11.3857L84.9841 2262.34Z" fill="#001E20"/>
<path d="M84.9846 2389.27L11.3862 2256.32L158.583 2256.32L84.9846 2389.27Z" fill="#007550"/>
<path d="M378.756 2401.34L452.355 2534.29H305.158L378.756 2401.34Z" fill="#001E20"/>
<path d="M378.757 2528.27L305.158 2395.32L452.355 2395.32L378.757 2528.27Z" fill="#007550"/>
<path d="M231.871 2401.34L305.47 2534.29H158.273L231.871 2401.34Z" fill="#001E20"/>
<path d="M231.871 2528.27L158.272 2395.32L305.469 2395.32L231.871 2528.27Z" fill="#007550"/>
<path d="M84.9841 2401.34L158.583 2534.29H11.3857L84.9841 2401.34Z" fill="#001E20"/>
<path d="M84.9846 2528.27L11.3862 2395.32L158.583 2395.32L84.9846 2528.27Z" fill="#007550"/>
<path d="M378.756 2540.34L452.355 2673.29H305.158L378.756 2540.34Z" fill="#001E20"/>
<path d="M378.757 2667.27L305.158 2534.32L452.355 2534.32L378.757 2667.27Z" fill="#007550"/>
<path d="M231.871 2540.34L305.47 2673.29H158.273L231.871 2540.34Z" fill="#001E20"/>
<path d="M231.871 2667.27L158.272 2534.32L305.469 2534.32L231.871 2667.27Z" fill="#007550"/>
<path d="M84.9841 2540.34L158.583 2673.29H11.3857L84.9841 2540.34Z" fill="#001E20"/>
<path d="M84.9846 2667.27L11.3862 2534.32L158.583 2534.32L84.9846 2667.27Z" fill="#007550"/>
<path d="M378.756 2679.34L452.355 2812.29H305.158L378.756 2679.34Z" fill="#001E20"/>
<path d="M378.757 2806.27L305.158 2673.32L452.355 2673.32L378.757 2806.27Z" fill="#007550"/>
<path d="M231.871 2679.34L305.47 2812.29H158.273L231.871 2679.34Z" fill="#001E20"/>
<path d="M231.871 2806.27L158.272 2673.32L305.469 2673.32L231.871 2806.27Z" fill="#007550"/>
<path d="M84.9841 2679.34L158.583 2812.29H11.3857L84.9841 2679.34Z" fill="#001E20"/>
<path d="M84.9846 2806.27L11.3862 2673.32L158.583 2673.32L84.9846 2806.27Z" fill="#007550"/>
<path d="M231.871 1985.85L305.47 2118.8H158.273L231.871 1985.85Z" fill="#001E20"/>
<path d="M231.871 2112.79L158.272 1979.83L305.469 1979.83L231.871 2112.79Z" fill="#007550"/>
<path d="M84.9841 1985.85L158.583 2118.8H11.3857L84.9841 1985.85Z" fill="#001E20"/>
<path d="M84.9846 2112.79L11.3862 1979.83L158.583 1979.83L84.9846 2112.79Z" fill="#007550"/>
<path d="M231.871 1847.97L305.47 1980.93H158.273L231.871 1847.97Z" fill="#001E20"/>
<path d="M231.871 1974.91L158.272 1841.95L305.469 1841.95L231.871 1974.91Z" fill="#007550"/>
<path d="M84.9841 1847.97L158.583 1980.93H11.3857L84.9841 1847.97Z" fill="#001E20"/>
<path d="M84.9846 1974.91L11.3862 1841.95L158.583 1841.95L84.9846 1974.91Z" fill="#007550"/>
<path d="M231.871 1710.09L305.47 1843.05H158.273L231.871 1710.09Z" fill="#001E20"/>
<path d="M231.871 1837.03L158.272 1704.07L305.469 1704.07L231.871 1837.03Z" fill="#007550"/>
<path d="M84.9841 1710.09L158.583 1843.05H11.3857L84.9841 1710.09Z" fill="#001E20"/>
<path d="M84.9846 1837.03L11.3862 1704.07L158.583 1704.07L84.9846 1837.03Z" fill="#007550"/>
<path d="M231.871 1572.21L305.47 1705.17H158.273L231.871 1572.21Z" fill="#001E20"/>
<path d="M231.871 1699.15L158.272 1566.2L305.469 1566.2L231.871 1699.15Z" fill="#007550"/>
<path d="M84.9841 1572.21L158.583 1705.17H11.3857L84.9841 1572.21Z" fill="#001E20"/>
<path d="M84.9846 1699.15L11.3862 1566.2L158.583 1566.2L84.9846 1699.15Z" fill="#007550"/>
<path d="M231.871 1434.34L305.47 1567.29H158.273L231.871 1434.34Z" fill="#001E20"/>
<path d="M231.871 1561.27L158.272 1428.32L305.469 1428.32L231.871 1561.27Z" fill="#007550"/>
<path d="M84.9841 1434.34L158.583 1567.29H11.3857L84.9841 1434.34Z" fill="#001E20"/>
<path d="M84.9846 1561.27L11.3862 1428.32L158.583 1428.32L84.9846 1561.27Z" fill="#007550"/>
</svg>
