<svg width="144" height="41" viewBox="0 0 144 41" fill="none" xmlns="http://www.w3.org/2000/svg">
<path d="M24 20.5L24 -1.04907e-06L48 20.5L48 41L24 20.5Z" fill="#001E20"/>
<path d="M24 20.5L24 0L1.01127e-06 20.5L1.15182e-07 41L24 20.5Z" fill="#FFD45D"/>
<path d="M72 20.5L72 -1.04907e-06L96 20.5L96 41L72 20.5Z" fill="#001E20"/>
<path d="M72 20.5L72 0L48 20.5L48 41L72 20.5Z" fill="#FFD45D"/>
<path d="M120 20.5L120 -1.04907e-06L144 20.5L144 41L120 20.5Z" fill="#001E20"/>
<path d="M120 20.5L120 0L96 20.5L96 41L120 20.5Z" fill="#FFD45D"/>
</svg>
