<svg width="464" height="1473" viewBox="0 0 464 1473" fill="none" xmlns="http://www.w3.org/2000/svg">
<path d="M378.851 739.728L452.449 872.682H305.252L378.851 739.728Z" fill="#001E20"/>
<path d="M378.852 866.664L305.253 733.709L452.45 733.709L378.852 866.664Z" fill="#007550"/>
<path d="M378.851 601.85L452.449 734.804H305.252L378.851 601.85Z" fill="#001E20"/>
<path d="M378.852 728.786L305.253 595.832L452.45 595.832L378.852 728.786Z" fill="#007550"/>
<path d="M378.851 463.972L452.449 596.926H305.252L378.851 463.972Z" fill="#001E20"/>
<path d="M378.852 590.907L305.253 457.953L452.45 457.953L378.852 590.907Z" fill="#007550"/>
<path d="M378.851 326.093L452.449 459.047H305.252L378.851 326.093Z" fill="#001E20"/>
<path d="M378.852 453.029L305.253 320.075L452.45 320.075L378.852 453.029Z" fill="#007550"/>
<path d="M378.851 188.215L452.449 321.169H305.252L378.851 188.215Z" fill="#001E20"/>
<path d="M378.852 315.151L305.253 182.197L452.45 182.197L378.852 315.151Z" fill="#007550"/>
<path d="M378.851 50.3367L452.449 183.291H305.252L378.851 50.3367Z" fill="#001E20"/>
<path d="M378.852 177.272L305.253 44.3181L452.45 44.3181L378.852 177.272Z" fill="#007550"/>
<path d="M231.966 739.728L305.564 872.682H158.367L231.966 739.728Z" fill="#001E20"/>
<path d="M231.966 866.664L158.367 733.709L305.564 733.709L231.966 866.664Z" fill="#007550"/>
<path d="M85.0789 739.728L158.677 872.682H11.4804L85.0789 739.728Z" fill="#001E20"/>
<path d="M85.0793 866.664L11.4809 733.709L158.678 733.709L85.0793 866.664Z" fill="#007550"/>
<path d="M378.851 878.337L452.449 1011.29H305.252L378.851 878.337Z" fill="#001E20"/>
<path d="M378.852 1005.27L305.253 872.318L452.45 872.318L378.852 1005.27Z" fill="#007550"/>
<path d="M231.966 878.337L305.564 1011.29H158.367L231.966 878.337Z" fill="#001E20"/>
<path d="M231.966 1005.27L158.367 872.318L305.564 872.318L231.966 1005.27Z" fill="#007550"/>
<path d="M85.0789 878.337L158.677 1011.29H11.4804L85.0789 878.337Z" fill="#001E20"/>
<path d="M85.0793 1005.27L11.4809 872.318L158.678 872.318L85.0793 1005.27Z" fill="#007550"/>
<path d="M378.851 1017.34L452.449 1150.29H305.252L378.851 1017.34Z" fill="#001E20"/>
<path d="M378.852 1144.27L305.253 1011.32L452.45 1011.32L378.852 1144.27Z" fill="#007550"/>
<path d="M231.966 1017.34L305.564 1150.29H158.367L231.966 1017.34Z" fill="#001E20"/>
<path d="M231.966 1144.27L158.367 1011.32L305.564 1011.32L231.966 1144.27Z" fill="#007550"/>
<path d="M85.0789 1017.34L158.677 1150.29H11.4804L85.0789 1017.34Z" fill="#001E20"/>
<path d="M85.0793 1144.27L11.4809 1011.32L158.678 1011.32L85.0793 1144.27Z" fill="#007550"/>
<path d="M378.851 1156.34L452.449 1289.29H305.252L378.851 1156.34Z" fill="#001E20"/>
<path d="M378.852 1283.27L305.253 1150.32L452.45 1150.32L378.852 1283.27Z" fill="#007550"/>
<path d="M231.966 1156.34L305.564 1289.29H158.367L231.966 1156.34Z" fill="#001E20"/>
<path d="M231.966 1283.27L158.367 1150.32L305.564 1150.32L231.966 1283.27Z" fill="#007550"/>
<path d="M85.0789 1156.34L158.677 1289.29H11.4804L85.0789 1156.34Z" fill="#001E20"/>
<path d="M85.0793 1283.27L11.4809 1150.32L158.678 1150.32L85.0793 1283.27Z" fill="#007550"/>
<path d="M378.851 1295.34L452.449 1428.29H305.252L378.851 1295.34Z" fill="#001E20"/>
<path d="M378.852 1422.27L305.253 1289.32L452.45 1289.32L378.852 1422.27Z" fill="#007550"/>
<path d="M231.966 1295.34L305.564 1428.29H158.367L231.966 1295.34Z" fill="#001E20"/>
<path d="M231.966 1422.27L158.367 1289.32L305.564 1289.32L231.966 1422.27Z" fill="#007550"/>
<path d="M85.0789 1295.34L158.677 1428.29H11.4804L85.0789 1295.34Z" fill="#001E20"/>
<path d="M85.0793 1422.27L11.4809 1289.32L158.678 1289.32L85.0793 1422.27Z" fill="#007550"/>
<path d="M231.966 601.85L305.564 734.804H158.367L231.966 601.85Z" fill="#001E20"/>
<path d="M231.966 728.786L158.367 595.832L305.564 595.832L231.966 728.786Z" fill="#007550"/>
<path d="M85.0789 601.85L158.677 734.804H11.4804L85.0789 601.85Z" fill="#001E20"/>
<path d="M85.0793 728.786L11.4809 595.832L158.678 595.832L85.0793 728.786Z" fill="#007550"/>
<path d="M231.966 463.972L305.564 596.926H158.367L231.966 463.972Z" fill="#001E20"/>
<path d="M231.966 590.907L158.367 457.953L305.564 457.953L231.966 590.907Z" fill="#007550"/>
<path d="M85.0789 463.972L158.677 596.926H11.4804L85.0789 463.972Z" fill="#001E20"/>
<path d="M85.0793 590.907L11.4809 457.953L158.678 457.953L85.0793 590.907Z" fill="#007550"/>
<path d="M231.966 326.093L305.564 459.047H158.367L231.966 326.093Z" fill="#001E20"/>
<path d="M231.966 453.029L158.367 320.075L305.564 320.075L231.966 453.029Z" fill="#007550"/>
<path d="M85.0789 326.093L158.677 459.047H11.4804L85.0789 326.093Z" fill="#001E20"/>
<path d="M85.0793 453.029L11.4809 320.075L158.678 320.075L85.0793 453.029Z" fill="#007550"/>
<path d="M231.966 188.215L305.564 321.169H158.367L231.966 188.215Z" fill="#001E20"/>
<path d="M231.966 315.151L158.367 182.197L305.564 182.197L231.966 315.151Z" fill="#007550"/>
<path d="M85.0789 188.215L158.677 321.169H11.4804L85.0789 188.215Z" fill="#001E20"/>
<path d="M85.0793 315.151L11.4809 182.197L158.678 182.197L85.0793 315.151Z" fill="#007550"/>
<path d="M231.966 50.3367L305.564 183.291H158.367L231.966 50.3367Z" fill="#001E20"/>
<path d="M231.966 177.272L158.367 44.3181L305.564 44.3181L231.966 177.272Z" fill="#007550"/>
<path d="M85.0789 50.3367L158.677 183.291H11.4804L85.0789 50.3367Z" fill="#001E20"/>
<path d="M85.0793 177.272L11.4809 44.3181L158.678 44.3181L85.0793 177.272Z" fill="#007550"/>
</svg>
