<svg width="88" height="25" viewBox="0 0 88 25" fill="none" xmlns="http://www.w3.org/2000/svg">
<path d="M14.6666 12.5L14.6666 -6.39679e-07L29.3333 12.5L29.3333 25L14.6666 12.5Z" fill="#FF513F"/>
<path d="M14.6667 12.5L14.6667 0L8.14684e-05 12.5L8.09208e-05 25L14.6667 12.5Z" fill="white"/>
<path d="M44.0001 12.5L44.0001 -6.39679e-07L58.6667 12.5L58.6667 25L44.0001 12.5Z" fill="#FF513F"/>
<path d="M44 12.5L44 0L29.3333 12.5L29.3333 25L44 12.5Z" fill="white"/>
<path d="M73.3333 12.5L73.3333 -6.39679e-07L88 12.5L88 25L73.3333 12.5Z" fill="#FF513F"/>
<path d="M73.3333 12.5L73.3333 0L58.6666 12.5L58.6666 25L73.3333 12.5Z" fill="white"/>
</svg>
