<svg width="44" height="47" viewBox="0 0 44 47" fill="none" xmlns="http://www.w3.org/2000/svg">
<g clip-path="url(#clip0)">
<path d="M9.43262 34.2096C10.8885 35.8176 12.6571 37.1309 14.6183 38.0638C16.5915 38.9967 18.7572 39.5245 20.959 39.6104C23.1608 39.6964 25.3987 39.3404 27.5043 38.5425C29.5978 37.757 31.559 36.5295 33.2314 34.946C34.9038 33.3626 36.2754 31.4477 37.2259 29.3119C38.1884 27.1761 38.7419 24.8194 38.8261 22.4381C38.9103 20.0445 38.5374 17.6264 37.7072 15.3555C36.877 13.0847 35.6016 10.9735 33.9653 9.16907C32.317 7.36468 30.3197 5.89172 28.1059 4.86064C25.892 3.82956 23.4496 3.24037 20.971 3.15445C18.4925 3.06852 15.9899 3.47359 13.6437 4.38192C11.2975 5.27798 9.10777 6.66502 7.25488 8.43259C5.402 10.2124 3.87397 12.3605 2.80314 14.7541C1.73232 17.1477 1.13073 19.7745 1.04651 22.4381C0.962291 25.1017 1.39543 27.7899 2.32188 30.3185C3.24832 32.8471 4.68009 35.1915 6.52095 37.18L9.43262 34.2096ZM6.50891 37.1923C4.55977 35.3266 2.94752 33.0557 1.84061 30.5271C0.721656 28.0108 0.0960067 25.249 0.0117847 22.4381C-0.0724373 19.6394 0.384768 16.804 1.37137 14.1526C2.35797 11.5013 3.86193 9.03405 5.78701 6.94734C7.71209 4.86064 10.0583 3.14217 12.6571 1.95152C15.256 0.760872 18.0955 0.0857605 20.971 -0.000162741C23.8466 -0.086086 26.7583 0.404904 29.4895 1.46053C32.2207 2.51616 34.7474 4.13643 36.889 6.19858C39.0307 8.26074 40.7873 10.7648 42.0145 13.5512C43.2418 16.3253 43.9155 19.3694 43.9998 22.4381C44.084 25.5068 43.5786 28.6245 42.4838 31.5337C41.4009 34.4428 39.7285 37.1432 37.6109 39.4263C35.4933 41.7094 32.9185 43.5875 30.067 44.8763C27.2155 46.1774 24.1113 46.9016 20.959 46.9876C17.8187 47.0735 14.6303 46.5334 11.6585 45.3673C8.67462 44.2135 5.91936 42.4214 3.58521 40.1751L6.50891 37.1923Z" fill="#001E20"/>
<path d="M22.0061 28.8462C24.9033 28.8462 27.2519 26.4501 27.2519 23.4944C27.2519 20.5387 24.9033 18.1426 22.0061 18.1426C19.1089 18.1426 16.7603 20.5387 16.7603 23.4944C16.7603 26.4501 19.1089 28.8462 22.0061 28.8462Z" fill="#001E20"/>
</g>
<defs>
<clipPath id="clip0">
<rect width="44" height="47" fill="white"/>
</clipPath>
</defs>
</svg>
