<svg width="33" height="32" viewBox="0 0 33 32" fill="none" xmlns="http://www.w3.org/2000/svg">
<path d="M17.1152 16.4844L20.828 8.2643L28.0421 5.88496L21.674 17.7742L31.7882 23.2512L25.8772 26.2824L18.2844 19.2229L17.1152 16.4844Z" fill="#001E20"/>
<path d="M13.1153 14.1973L12.032 10.6695L16.7852 1.88696L7.17983 11.1001L6.84106 15.9952L13.1153 14.1973Z" fill="#001E20"/>
<path d="M13.0626 25.5395L14.595 27.8394L18.8808 29.7999L11.1151 28.8769L8.57661 25.1332L13.0626 25.5395Z" fill="#001E20"/>
<path d="M19.4328 17.8098L10.6054 12.767L1.86074 20.2569L11.5687 27.3567L19.4328 17.8098Z" fill="#5B7C7D"/>
<path d="M19.4326 17.8101L11.576 22.1815L11.5685 27.3569L19.4326 17.8101Z" fill="#445D5E"/>
<path d="M1.86062 20.257L11.576 22.1814L11.5686 27.3568L1.86062 20.257Z" fill="#7C9697"/>
<path d="M10.6051 12.767L11.5759 22.1813L1.86052 20.257L10.6051 12.767Z" fill="#BDCBCB"/>
<path d="M10.1019 20.1359L12.5142 18.3293L12.8906 23.3432L10.2629 22.28L10.1019 20.1359Z" fill="#001E20"/>
</svg>
