<svg width="37" height="27" viewBox="0 0 37 27" fill="none" xmlns="http://www.w3.org/2000/svg">
<path d="M25.3674 12.0964L17.8816 7.41314L8.13402 8.12119L1.05682 16.5774L11.4354 22.8422L17.4804 21.6181L25.3674 12.0964Z" fill="#E34737"/>
<path d="M10.497 7.94974C10.3537 7.36908 13.7455 2.51419 13.7455 2.51419L18.9048 2.1394L15.42 7.59211L10.497 7.94974Z" fill="#FFC856"/>
<path d="M11.4357 22.8426L16.2484 25.3651L22.5049 23.8856L17.4806 21.6185L11.4357 22.8426Z" fill="#FF513F"/>
<path d="M11.2181 15.4059L11.4242 18.1059L16.008 21.0883L16.1846 13.0227L11.2181 15.4059Z" fill="#FFC856"/>
<path d="M22.401 10.2433L27.7545 0.563467L35.5766 7.06039L25.3674 12.0965L34.6492 16.9636L27.3264 20.9034L24.1524 13.5609L22.401 10.2433Z" fill="#FF513F"/>
<path d="M8.13428 8.12109L7.88578 15.1581L1.05705 16.5777L8.13428 8.12109Z" fill="#FFD45D"/>
<path d="M11.4352 22.8422L7.8853 15.1582L1.05665 16.5776L11.4352 22.8422Z" fill="#FFB300"/>
</svg>
