<svg width="440" height="328" viewBox="0 0 440 328" fill="none" xmlns="http://www.w3.org/2000/svg">
<g clip-path="url(#clip0)">
<path d="M385.02 2.38794L376.529 99.1473L352.244 128.195L336.16 108.334L385.02 2.38794Z" fill="#009364"/>
<path d="M427.503 142.198L376.529 99.1475L352.169 127.198L363.322 139.44L427.503 142.198Z" fill="#001E20"/>
<path d="M336.16 108.334L214.574 123.144L303.988 169.464L319.917 165.427L352.355 126.91L336.16 108.334Z" fill="#007550"/>
<path d="M363.321 139.44L352.355 126.91L319.917 165.427L329.451 175.412L363.321 139.44Z" fill="#001E20"/>
<path d="M312.507 111.246L314.897 98.5659L282.697 114.81L312.507 111.246Z" fill="#FFC856"/>
<path d="M228.767 121.415L230.125 50.4768L214.574 123.144L228.767 121.415Z" fill="#001E20"/>
<path d="M150.243 124.754L230.125 50.4768L214.574 123.144L150.243 124.754Z" fill="#FFC856"/>
<path d="M225.914 200.421C224.945 193.865 214.575 123.144 214.575 123.144L303.988 169.464L298.72 188.326L277.468 204.127L225.914 200.421Z" fill="#009364"/>
<path d="M312.977 190.002L298.72 188.326L277.467 204.127L286.713 212.808L312.977 190.002Z" fill="black"/>
<path d="M303.988 169.464L347.376 194.144L319.917 165.427L303.988 169.464Z" fill="#001E20"/>
<path d="M298.72 188.326L347.376 194.144L303.988 169.464L298.72 188.326Z" fill="#FFC856"/>
<path d="M277.468 204.127L338.558 261.096L225.914 200.421L277.468 204.127Z" fill="#001E20"/>
<path d="M182.036 213.66L225.914 200.421L338.558 261.096L182.036 213.66Z" fill="#FFC856"/>
<path d="M159.745 251.319L249.206 233.858L212.48 181.928L82.9429 213.996L159.745 251.319Z" fill="#DEAD46"/>
<path d="M186.972 315.093L189.27 245.22L148.943 246.069L186.972 315.093Z" fill="#001E20"/>
<path d="M214.574 123.144L225.914 200.421L68.172 204.677L41.3576 168.82L214.574 123.144Z" fill="#007550"/>
<path d="M7.17636 126.877L41.3578 168.821L214.575 123.144L7.17636 126.877Z" fill="#009364"/>
<path d="M82.9429 213.996L110.204 203.527L168.266 202.176L137.839 210.979L82.9429 213.996Z" fill="#FFD45D"/>
<path d="M178.458 150.567L169.5 151L162 154.94L172.007 158.14L178.458 150.567Z" fill="#001E20"/>
</g>
<defs>
<clipPath id="clip0">
<rect width="418" height="297" fill="white" transform="matrix(-0.997194 0.074866 0.074866 0.997194 416.827 0)"/>
</clipPath>
</defs>
</svg>
