<svg width="31" height="25" viewBox="0 0 31 25" fill="none" xmlns="http://www.w3.org/2000/svg">
<path d="M25.4056 5.70054L26.3517 18.3012L19.2625 21.5535L8.72782 22.3445L1.96089 16.0854L8.56679 3.84658L25.4056 5.70054Z" fill="#FFC856"/>
<path d="M8.56689 3.84644L8.8677 15.7658L1.96101 16.0853L8.56689 3.84644Z" fill="#FFDB78"/>
<path d="M8.72763 22.3443L8.8674 15.7658L1.9607 16.0853L8.72763 22.3443Z" fill="#FFC856"/>
<path d="M8.72798 22.3446L8.86774 15.766L25.9209 12.5618L26.3518 18.3013L19.2627 21.5537L8.72798 22.3446Z" fill="#DEAD46"/>
<path d="M25.7401 10.1537L26.9948 6.90817L29.082 6.75146L29.8175 16.5483L28.3238 17.2244L26.0774 14.6464L25.7401 10.1537Z" fill="#007550"/>
<path d="M29.4917 11.7695L26.0773 14.6465L28.3237 17.2245L29.8175 16.5484L29.4917 11.7695Z" fill="#001E20"/>
<path d="M17.6414 21.6751L18.8878 23.5055L12.7376 23.9672L13.165 22.0111L17.6414 21.6751Z" fill="#007550"/>
<path d="M19.409 5.04299L21.8253 2.85135L12.1941 2.04851L12.6134 4.29264L19.409 5.04299Z" fill="#007550"/>
<path d="M16.9839 13.0998L18.4999 11.4003L21.2632 11.1929L19.7176 15.2232L16.9839 13.0998Z" fill="#007550"/>
</svg>
