<svg width="557" height="328" viewBox="0 0 557 328" fill="none" xmlns="http://www.w3.org/2000/svg">
<g clip-path="url(#clip0)">
<path d="M385.02 2.38794L376.529 99.1473L352.244 128.195L336.16 108.334L385.02 2.38794Z" fill="#009364"/>
<path d="M427.503 142.198L376.529 99.1475L352.169 127.198L363.322 139.44L427.503 142.198Z" fill="#001E20"/>
<path d="M336.16 108.334L214.574 123.144L303.988 169.464L319.917 165.427L352.355 126.91L336.16 108.334Z" fill="#007550"/>
<path d="M363.321 139.44L352.355 126.91L319.917 165.427L329.451 175.412L363.321 139.44Z" fill="#001E20"/>
<path d="M312.507 111.246L314.897 98.5659L282.697 114.81L312.507 111.246Z" fill="#FFC856"/>
<path d="M228.767 121.415L230.125 50.4768L214.574 123.144L228.767 121.415Z" fill="#001E20"/>
<path d="M150.243 124.754L230.125 50.4768L214.574 123.144L150.243 124.754Z" fill="#FFC856"/>
<path d="M225.914 200.421C224.945 193.865 214.575 123.144 214.575 123.144L303.988 169.464L298.72 188.326L277.468 204.127L225.914 200.421Z" fill="#009364"/>
<path d="M312.977 190.002L298.72 188.326L277.467 204.127L286.713 212.808L312.977 190.002Z" fill="black"/>
<path d="M303.988 169.464L347.376 194.144L319.917 165.427L303.988 169.464Z" fill="#001E20"/>
<path d="M298.72 188.326L347.376 194.144L303.988 169.464L298.72 188.326Z" fill="#FFC856"/>
<path d="M277.468 204.127L338.558 261.096L225.914 200.421L277.468 204.127Z" fill="#001E20"/>
<path d="M182.036 213.66L225.914 200.421L338.558 261.096L182.036 213.66Z" fill="#FFC856"/>
<path d="M159.745 251.319L249.206 233.858L212.48 181.928L82.9429 213.996L159.745 251.319Z" fill="#DEAD46"/>
<path d="M186.972 315.093L189.27 245.22L148.943 246.069L186.972 315.093Z" fill="#001E20"/>
<path d="M214.574 123.144L225.914 200.421L68.172 204.677L41.3576 168.82L214.574 123.144Z" fill="#007550"/>
<path d="M7.17636 126.877L41.3578 168.821L214.575 123.144L7.17636 126.877Z" fill="#009364"/>
<path d="M82.9429 213.996L110.204 203.527L168.266 202.176L137.839 210.979L82.9429 213.996Z" fill="#FFD45D"/>
<path d="M178.458 150.567L169.5 151L162 154.94L172.007 158.14L178.458 150.567Z" fill="#001E20"/>
</g>
<path d="M177.406 51.7005L178.352 64.3012L171.262 67.5535L160.728 68.3445L153.961 62.0854L160.567 49.8466L177.406 51.7005Z" fill="#FFC856"/>
<path d="M160.567 49.8464L160.868 61.7658L153.961 62.0853L160.567 49.8464Z" fill="#FFDB78"/>
<path d="M160.728 68.3443L160.867 61.7658L153.961 62.0853L160.728 68.3443Z" fill="#FFC856"/>
<path d="M160.728 68.3446L160.868 61.766L177.921 58.5618L178.352 64.3013L171.263 67.5537L160.728 68.3446Z" fill="#DEAD46"/>
<path d="M177.74 56.1537L178.995 52.9082L181.082 52.7515L181.818 62.5483L180.324 63.2244L178.077 60.6464L177.74 56.1537Z" fill="#007550"/>
<path d="M181.492 57.7695L178.077 60.6465L180.324 63.2245L181.817 62.5484L181.492 57.7695Z" fill="#001E20"/>
<path d="M169.641 67.6751L170.888 69.5055L164.738 69.9672L165.165 68.0111L169.641 67.6751Z" fill="#007550"/>
<path d="M171.409 51.043L173.825 48.8513L164.194 48.0485L164.613 50.2926L171.409 51.043Z" fill="#007550"/>
<path d="M168.984 59.0998L170.5 57.4003L173.263 57.1929L171.718 61.2232L168.984 59.0998Z" fill="#007550"/>
<path d="M313.115 49.4844L316.828 41.2643L324.042 38.885L317.674 50.7742L327.788 56.2512L321.877 59.2824L314.284 52.2229L313.115 49.4844Z" fill="#001E20"/>
<path d="M309.115 47.1973L308.032 43.6695L312.785 34.887L303.18 44.1001L302.841 48.9952L309.115 47.1973Z" fill="#001E20"/>
<path d="M309.063 58.5395L310.595 60.8394L314.881 62.7999L307.115 61.8769L304.577 58.1332L309.063 58.5395Z" fill="#001E20"/>
<path d="M315.433 50.8098L306.605 45.767L297.861 53.2569L307.569 60.3567L315.433 50.8098Z" fill="#5B7C7D"/>
<path d="M315.433 50.8101L307.576 55.1815L307.569 60.3569L315.433 50.8101Z" fill="#445D5E"/>
<path d="M297.861 53.257L307.576 55.1814L307.569 60.3568L297.861 53.257Z" fill="#7C9697"/>
<path d="M306.605 45.767L307.576 55.1813L297.861 53.257L306.605 45.767Z" fill="#BDCBCB"/>
<path d="M306.102 53.1359L308.514 51.3293L308.891 56.3432L306.263 55.28L306.102 53.1359Z" fill="#001E20"/>
<g clip-path="url(#clip1)">
<path d="M481.281 200.254L487.779 185.868L500.403 181.705L489.259 202.511L506.959 212.096L496.615 217.4L483.327 205.046L481.281 200.254Z" fill="#001E20"/>
<path d="M474.281 196.251L472.385 190.077L480.703 174.708L463.894 190.831L463.301 199.397L474.281 196.251Z" fill="#001E20"/>
<path d="M474.189 216.1L476.87 220.125L484.37 223.555L470.781 221.94L466.338 215.389L474.189 216.1Z" fill="#001E20"/>
<path d="M485.336 202.573L469.888 193.748L454.585 206.856L471.574 219.28L485.336 202.573Z" fill="#5B7C7D"/>
<path d="M485.336 202.573L471.587 210.223L471.574 219.28L485.336 202.573Z" fill="#445D5E"/>
<path d="M454.585 206.855L471.587 210.223L471.574 219.28L454.585 206.855Z" fill="#7C9697"/>
<path d="M469.888 193.748L471.587 210.223L454.585 206.856L469.888 193.748Z" fill="#BDCBCB"/>
<path d="M469.008 206.643L473.229 203.482L473.888 212.256L469.29 210.396L469.008 206.643Z" fill="#001E20"/>
<path d="M430.108 203.306L417.212 197.703L400.155 198.983L387.461 209.921L405.349 217.402L415.958 215.619L430.108 203.306Z" fill="#E34737"/>
<path d="M404.289 198.673C404.062 197.947 410.176 191.695 410.176 191.695L419.205 191.017L412.904 198.026L404.289 198.673Z" fill="#FFC856"/>
<path d="M405.349 217.402L413.659 220.389L424.647 218.275L415.958 215.619L405.349 217.402Z" fill="#FF513F"/>
<path d="M405.258 208.039L405.513 211.434L413.405 215.009L414.028 204.838L405.258 208.039Z" fill="#FFC856"/>
<path d="M424.997 201.089L434.727 188.679L448.14 196.553L430.107 203.306L446.134 209.069L433.187 214.325L427.928 205.2L424.997 201.089Z" fill="#FF513F"/>
<path d="M400.155 198.983L399.447 207.86L387.461 209.921L400.155 198.983Z" fill="#FFD45D"/>
<path d="M405.349 217.402L399.446 207.86L387.461 209.921L405.349 217.402Z" fill="#FFB300"/>
<path d="M464.004 236.915L465.659 258.966L453.253 264.658L434.817 266.042L422.975 255.089L434.536 233.671L464.004 236.915Z" fill="#FFC856"/>
<path d="M434.536 233.671L435.063 254.53L422.976 255.089L434.536 233.671Z" fill="#FFDB78"/>
<path d="M434.818 266.042L435.062 254.53L422.975 255.089L434.818 266.042Z" fill="#FFC856"/>
<path d="M434.818 266.042L435.062 254.53L464.905 248.922L465.659 258.966L453.253 264.658L434.818 266.042Z" fill="#DEAD46"/>
<path d="M464.589 244.708L466.784 239.029L470.437 238.754L471.724 255.899L469.11 257.082L465.179 252.571L464.589 244.708Z" fill="#007550"/>
<path d="M471.154 247.536L465.179 252.571L469.11 257.082L471.724 255.899L471.154 247.536Z" fill="#001E20"/>
<path d="M450.416 264.871L452.597 268.074L441.834 268.882L442.582 265.459L450.416 264.871Z" fill="#007550"/>
<path d="M453.51 235.764L457.738 231.929L440.884 230.524L441.618 234.451L453.51 235.764Z" fill="#007550"/>
<path d="M449.266 249.864L451.919 246.89L456.755 246.527L454.05 253.58L449.266 249.864Z" fill="#007550"/>
</g>
<path d="M545.367 49.0964L537.882 44.4131L528.134 45.1212L521.057 53.5774L531.435 59.8422L537.48 58.6181L545.367 49.0964Z" fill="#E34737"/>
<path d="M530.497 44.9497C530.354 44.3691 533.745 39.5142 533.745 39.5142L538.905 39.1394L535.42 44.5921L530.497 44.9497Z" fill="#FFC856"/>
<path d="M531.436 59.8426L536.248 62.3651L542.505 60.8856L537.481 58.6185L531.436 59.8426Z" fill="#FF513F"/>
<path d="M531.218 52.4059L531.424 55.1059L536.008 58.0883L536.185 50.0227L531.218 52.4059Z" fill="#FFC856"/>
<path d="M542.401 47.2433L547.755 37.5635L555.577 44.0604L545.367 49.0965L554.649 53.9636L547.326 57.9034L544.152 50.5609L542.401 47.2433Z" fill="#FF513F"/>
<path d="M528.134 45.1211L527.886 52.1581L521.057 53.5777L528.134 45.1211Z" fill="#FFD45D"/>
<path d="M531.435 59.8422L527.885 52.1582L521.057 53.5776L531.435 59.8422Z" fill="#FFB300"/>
<defs>
<clipPath id="clip0">
<rect width="418" height="297" fill="white" transform="matrix(-0.997194 0.074866 0.074866 0.997194 416.827 0)"/>
</clipPath>
<clipPath id="clip1">
<rect width="119" height="91" fill="white" transform="matrix(-0.997194 0.074866 0.074866 0.997194 504.021 172.958)"/>
</clipPath>
</defs>
</svg>
