<svg width="508" height="172" viewBox="0 0 508 172" fill="none" xmlns="http://www.w3.org/2000/svg">
<g clip-path="url(#clip0)">
<path d="M84.9219 109.658L75.0974 86.4972L101.441 62.5811L92.4978 112.217L84.9219 109.658Z" fill="#001E20"/>
<path d="M107.029 97.0886L101.441 62.5812L92.4979 112.217L107.029 97.0886Z" fill="#007550"/>
<path d="M64.6135 29.8581L58.679 40.554L84.321 31.0921L78.1244 25.2492L64.6135 29.8581Z" fill="#FFC856"/>
<path d="M60.409 50.0962L86.4485 42.4552L87.8379 33.7405L61.42 42.2283L60.409 50.0962Z" fill="#FFC856"/>
<path d="M60.4091 50.0963L69.0883 77.9799L70.3399 67.6443L67.2546 65.9993L69.7784 60.3342L64.9325 58.2578L66.9252 48.1834L60.4091 50.0963Z" fill="#FFC856"/>
<path d="M70.6434 47.0881L71.4201 54.4839L76.4024 58.672L81.3009 64.1151L89.5595 73.5105L86.4484 42.4552L70.6434 47.0881Z" fill="#FFC856"/>
<path d="M64.9319 58.258L72.2021 55.1285L76.4019 58.6723L69.7778 60.3344L64.9319 58.258Z" fill="#001E20"/>
<path d="M68.369 40.01L64.9322 58.2578L72.2024 55.1283L69.9272 39.4879L68.369 40.01Z" fill="white"/>
<path d="M67.2546 65.9991L79.4947 62.1277L76.4025 58.672L69.7784 60.3341L67.2546 65.9991Z" fill="white"/>
<path d="M70.3397 67.6442L81.3009 64.1152L79.4945 62.1277L67.2544 65.9991L70.3397 67.6442Z" fill="#001E20"/>
<path d="M69.0882 77.9799L73.0189 86.7081L85.9519 85.4818L89.5595 73.5104L81.3009 64.1151L70.3398 67.6442L69.0882 77.9799Z" fill="#007550"/>
<path d="M58.6789 40.554L61.4202 42.2282L74.6292 37.9843L87.8381 33.7405L84.3209 31.0921L67.2755 33.9777L58.6789 40.554Z" fill="#001E20"/>
<path d="M78.2118 25.5052L87.7341 27.6273L101.441 62.5812L89.5598 73.5104L86.4486 42.4552L87.838 33.7405L84.3208 31.0921L78.2118 25.5052Z" fill="#007550"/>
<path d="M87.7936 30.8757L91.7239 32.0677L93.9753 40.4045L91.2177 41.5915L87.7936 30.8757Z" fill="#001E20"/>
<path d="M100.45 53.7912L93.9748 40.4048L91.2172 41.5918L95.6893 55.1567L100.45 53.7912Z" fill="#001E20"/>
<path d="M69.9274 39.4879L76.4024 58.672L72.2027 55.1282L69.9274 39.4879Z" fill="#007550"/>
</g>
<g clip-path="url(#clip1)">
<path d="M184.892 127.44L205.548 102.316L248.725 118.181L186.496 137.653L184.892 127.44Z" fill="#001E20"/>
<path d="M212.532 145.246L248.725 118.181L186.496 137.654L212.532 145.246Z" fill="#007550"/>
<path d="M264.169 56.3894L248.36 55.9938L274.556 79.7097L277.54 69.111L264.169 56.3894Z" fill="#FFC856"/>
<path d="M238.462 63.6896L262.809 88.9512L273.627 85.3252L248.083 60.137L238.462 63.6896Z" fill="#FFC856"/>
<path d="M238.462 63.6896L211.709 90.3301L224.302 85.5756L224.339 81.0554L232.342 80.5553L231.819 73.7595L244.556 70.0106L238.462 63.6896Z" fill="#FFC856"/>
<path d="M248.037 73.6154L240.028 78.9336L238.212 87.1501L234.908 96.0221L229.088 111.111L262.809 88.9512L248.037 73.6154Z" fill="#FFC856"/>
<path d="M231.819 73.7591L239.758 80.2157L238.212 87.1498L232.341 80.5549L231.819 73.7591Z" fill="#001E20"/>
<path d="M254.786 66.7711L231.819 73.7591L239.758 80.2158L256.317 68.2439L254.786 66.7711Z" fill="white"/>
<path d="M224.339 81.0553L236.104 92.7623L238.212 87.1501L232.342 80.5552L224.339 81.0553Z" fill="white"/>
<path d="M224.302 85.5755L234.909 96.0221L236.104 92.7623L224.339 81.0553L224.302 85.5755Z" fill="#001E20"/>
<path d="M211.709 90.3301L204.062 100.06L213.211 114.145L229.088 111.111L234.908 96.0222L224.302 85.5756L211.709 90.3301Z" fill="#007550"/>
<path d="M248.36 55.9938L248.083 60.1372L260.855 72.7314L273.627 85.3255L274.555 79.7097L261.043 61.9063L248.36 55.9938Z" fill="#001E20"/>
<path d="M277.299 69.3643L280.569 81.5458L248.725 118.181L229.088 111.111L262.809 88.9513L273.627 85.3253L274.555 79.7095L277.299 69.3643Z" fill="#007550"/>
<path d="M276.883 83.5592L277.87 88.7765L269.666 96.3479L266.655 93.8988L276.883 83.5592Z" fill="#001E20"/>
<path d="M258.204 111.782L269.665 96.3473L266.654 93.8983L253.789 107.145L258.204 111.782Z" fill="#001E20"/>
<path d="M256.317 68.2443L238.212 87.1503L239.758 80.2162L256.317 68.2443Z" fill="#007550"/>
</g>
<g clip-path="url(#clip2)">
<path d="M100.984 140.653L106.414 121.076L135.085 119.198L104.486 146.078L100.984 140.653Z" fill="#001E20"/>
<path d="M121.275 143.819L135.085 119.198L104.486 146.078L121.275 143.819Z" fill="#007550"/>
<path d="M128.252 80.0055L119.126 83.7838L140.089 90.69L139.109 83.8825L128.252 80.0055Z" fill="#FFC856"/>
<path d="M115.423 90.6847L135.723 98.9417L140.981 94.1315L120.017 86.2196L115.423 90.6847Z" fill="#FFC856"/>
<path d="M115.423 90.6848L106.896 112.672L112.881 106.768L111.758 104.177L116.2 101.865L114.181 98.117L120.504 92.7505L115.423 90.6848Z" fill="#FFC856"/>
<path d="M123.404 93.927L120.178 98.9922L121.223 104.143L121.583 110.046L122.082 120.135L135.723 98.9418L123.404 93.927Z" fill="#FFC856"/>
<path d="M114.18 98.1168L120.349 99.7925L121.222 104.143L116.2 101.865L114.18 98.1168Z" fill="#001E20"/>
<path d="M125.524 88.3099L114.181 98.1169L120.349 99.7926L126.771 88.763L125.524 88.3099Z" fill="white"/>
<path d="M111.758 104.177L121.44 107.882L121.223 104.143L116.2 101.865L111.758 104.177Z" fill="white"/>
<path d="M112.881 106.768L121.583 110.046L121.44 107.882L111.758 104.177L112.881 106.768Z" fill="#001E20"/>
<path d="M106.896 112.672L104.994 120.164L113.785 125.889L122.082 120.135L121.583 110.046L112.881 106.768L106.896 112.672Z" fill="#007550"/>
<path d="M119.126 83.7838L120.017 86.2197L130.499 90.1757L140.981 94.1317L140.089 90.69L127.864 83.9474L119.126 83.7838Z" fill="#001E20"/>
<path d="M139.035 84.0882L143.988 90.2152L135.085 119.198L122.082 120.135L135.723 98.9418L140.981 94.1316L140.089 90.6899L139.035 84.0882Z" fill="#007550"/>
<path d="M142.393 92.2984L144.278 95.0272L141.511 101.428L139.172 100.793L142.393 92.2984Z" fill="#001E20"/>
<path d="M138.876 113.144L141.511 101.428L139.171 100.793L135.18 111.614L138.876 113.144Z" fill="#001E20"/>
<path d="M126.772 88.7631L121.223 104.143L120.349 99.7927L126.772 88.7631Z" fill="#007550"/>
</g>
<g clip-path="url(#clip3)">
<path d="M17.0803 135.672L13.9431 115.599L39.2816 102.052L22.5101 139.167L17.0803 135.672Z" fill="#001E20"/>
<path d="M36.8683 130.178L39.2818 102.052L22.5103 139.167L36.8683 130.178Z" fill="#007550"/>
<path d="M16.8775 69.1765L10.1249 76.3857L32.0696 74.0208L28.3662 68.2253L16.8775 69.1765Z" fill="#FFC856"/>
<path d="M9.60207 84.1996L31.4997 83.339L34.3027 76.7871L11.9421 78.2363L9.60207 84.1996Z" fill="#FFC856"/>
<path d="M9.60194 84.1996L10.9127 107.746L13.9267 99.8973L11.834 98.0018L14.9254 94.0616L11.5387 91.4818L15.0818 83.9836L9.60194 84.1996Z" fill="#FFC856"/>
<path d="M18.2097 83.8576L17.3626 89.8028L20.4406 94.0633L23.206 99.2902L27.8254 108.274L31.4997 83.3391L18.2097 83.8576Z" fill="#FFC856"/>
<path d="M11.5383 91.4818L17.8482 90.4614L20.4401 94.0633L14.925 94.0616L11.5383 91.4818Z" fill="#001E20"/>
<path d="M17.821 77.8664L11.5386 91.4818L17.8484 90.4613L19.1441 77.7641L17.821 77.8664Z" fill="white"/>
<path d="M11.8342 98.0017L22.1824 97.3782L20.4406 94.0632L14.9256 94.0616L11.8342 98.0017Z" fill="white"/>
<path d="M13.9269 99.8973L23.2061 99.2903L22.1825 97.3783L11.8342 98.0018L13.9269 99.8973Z" fill="#001E20"/>
<path d="M10.9128 107.746L12.2739 115.355L22.6442 116.94L27.8254 108.274L23.206 99.2902L13.9268 99.8972L10.9128 107.746Z" fill="#007550"/>
<path d="M10.1247 76.3857L11.9423 78.2364L23.1226 77.5118L34.3029 76.7872L32.0693 74.0209L18.1516 72.9268L10.1247 76.3857Z" fill="#001E20"/>
<path d="M28.384 68.443L35.4243 71.9788L39.2816 102.052L27.8254 108.274L31.4997 83.339L34.3027 76.7871L32.0692 74.0208L28.384 68.443Z" fill="#007550"/>
<path d="M34.8317 74.5347L37.6754 76.2417L37.7983 83.214L35.4049 83.6011L34.8317 74.5347Z" fill="#001E20"/>
<path d="M40.2352 94.9726L37.7978 83.2142L35.4044 83.6012L36.2378 95.1052L40.2352 94.9726Z" fill="#001E20"/>
<path d="M19.1446 77.7641L20.4408 94.0633L17.8489 90.4613L19.1446 77.7641Z" fill="#007550"/>
</g>
<g clip-path="url(#clip4)">
<path d="M493.259 144.144L495.699 123.975L469.906 111.314L487.953 147.825L493.259 144.144Z" fill="#001E20"/>
<path d="M473.292 139.339L469.906 111.314L487.953 147.826L473.292 139.339Z" fill="#007550"/>
<path d="M491.158 77.6821L498.156 84.653L476.143 83.05L479.643 77.1296L491.158 77.6821Z" fill="#FFC856"/>
<path d="M498.949 92.4441L477.035 92.3428L474.006 85.892L496.404 86.5655L498.949 92.4441Z" fill="#FFC856"/>
<path d="M498.949 92.4442L498.455 116.022L495.171 108.282L497.197 106.315L493.971 102.485L497.266 99.7891L493.465 92.4182L498.949 92.4442Z" fill="#FFC856"/>
<path d="M490.335 92.4005L491.387 98.3128L488.459 102.677L485.876 107.997L481.571 117.135L477.035 92.3428L490.335 92.4005Z" fill="#FFC856"/>
<path d="M497.266 99.7891L490.925 98.9879L488.459 102.677L493.971 102.485L497.266 99.7891Z" fill="#001E20"/>
<path d="M490.516 86.3995L497.266 99.789L490.925 98.9879L489.19 86.3432L490.516 86.3995Z" fill="white"/>
<path d="M497.197 106.315L486.833 106.051L488.459 102.677L493.971 102.485L497.197 106.315Z" fill="white"/>
<path d="M495.171 108.282L485.876 107.997L486.833 106.051L497.197 106.315L495.171 108.282Z" fill="#001E20"/>
<path d="M498.455 116.022L497.358 123.674L487.049 125.616L481.571 117.135L485.876 107.997L495.171 108.282L498.455 116.022Z" fill="#007550"/>
<path d="M498.156 84.653L496.404 86.5655L485.205 86.2287L474.006 85.892L476.143 83.0499L490.014 81.4742L498.156 84.653Z" fill="#001E20"/>
<path d="M479.632 77.3478L472.719 81.1254L469.906 111.314L481.571 117.135L477.035 92.3429L474.006 85.892L476.143 83.05L479.632 77.3478Z" fill="#007550"/>
<path d="M473.399 83.6593L470.617 85.4638L470.736 92.4362L473.141 92.7401L473.399 83.6593Z" fill="#001E20"/>
<path d="M468.708 104.272L470.736 92.4362L473.141 92.7401L472.707 104.266L468.708 104.272Z" fill="#001E20"/>
<path d="M489.189 86.3432L488.459 102.677L490.924 98.9879L489.189 86.3432Z" fill="#007550"/>
</g>
<g clip-path="url(#clip5)">
<path d="M75.6243 2.94707L72.1883 8.42062L78.5618 10.1237L81.7035 2.0277L75.6243 2.94707Z" fill="#FFC856"/>
<path d="M85.8041 6.11441L81.7036 2.02768L78.5619 10.1237L85.8041 6.11441Z" fill="#007550"/>
<path d="M72.1882 8.42059L77.1395 24.434L82.9039 23.9804L75.3481 9.26545L72.1882 8.42059Z" fill="#001E20"/>
<path d="M94.8031 18.8461L87.1835 23.6436L82.9039 23.9804L75.3481 9.26544L78.5618 10.1237L81.0334 15.8467L94.8031 18.8461Z" fill="#007550"/>
<path d="M73.9216 5.65617L70.3862 7.85691L72.657 7.6782L73.9216 5.65617Z" fill="#FFC856"/>
<path d="M72.1882 8.42063L70.3862 7.85693L72.6571 7.67822L72.1882 8.42063Z" fill="#2D2C28"/>
<path d="M78.5617 10.1237L85.8039 6.11438L102.047 20.4455L81.0396 15.9255L78.5617 10.1237Z" fill="#FFC856"/>
<path d="M102.392 24.8278L109.379 24.2779L102.047 20.4455L94.8066 18.89L102.392 24.8278Z" fill="#001E20"/>
<path d="M77.1395 24.434L73.1013 27.8384L76.0708 27.6047L80.2837 24.1866L77.1395 24.434Z" fill="#001E20"/>
<path d="M83.9957 23.8945L79.9575 27.2989L82.927 27.0652L87.1399 23.6471L83.9957 23.8945Z" fill="#001E20"/>
<rect x="76.969" y="4.05664" width="1.41425" height="1.41425" transform="rotate(46.7761 76.969 4.05664)" fill="#001E20"/>
</g>
<defs>
<clipPath id="clip0">
<rect width="54.5873" height="91.402" fill="white" transform="translate(44 33.5828) rotate(-23.2897)"/>
</clipPath>
<clipPath id="clip1">
<rect width="70.5728" height="118.168" fill="white" transform="translate(247.559 35) rotate(39.1208)"/>
</clipPath>
<clipPath id="clip2">
<rect width="44.0814" height="73.8108" fill="white" transform="translate(113.351 72) rotate(15.1985)"/>
</clipPath>
<clipPath id="clip3">
<rect width="44.0814" height="73.8108" fill="white" transform="translate(0 68.0374) rotate(-9.18624)"/>
</clipPath>
<clipPath id="clip4">
<rect width="44.0814" height="73.8108" fill="white" transform="matrix(-0.992114 -0.125342 -0.125342 0.992114 507.985 75.9589)"/>
</clipPath>
<clipPath id="clip5">
<rect width="37.5845" height="25.0563" fill="white" transform="translate(70 2.94873) rotate(-4.49985)"/>
</clipPath>
</defs>
</svg>
