<svg width="328" height="333" viewBox="0 0 328 333" fill="none" xmlns="http://www.w3.org/2000/svg">
<path d="M81.739 71.8985L164.601 24.3562L205.055 48.291L121.503 95.9083L81.739 71.8985Z" fill="#FFC856"/>
<path d="M41.3492 190.229L41.1102 94.7824L81.7402 71.8989L82.0244 167.798L41.3492 190.229Z" fill="#001E20"/>
<path d="M121.371 95.9712L205.056 48.2909L204.543 95.9277L121.721 142.575L121.371 95.9712Z" fill="#007550"/>
<path d="M80.8186 167.721L81.7404 71.8988L122.89 95.1589L121.456 190.874L80.8186 167.721Z" fill="#FF513F"/>
<path d="M123.751 284.885L41.1467 236.895L41.6479 189.893L124.662 238.443L123.751 284.885Z" fill="#FFC856"/>
<path d="M245.862 260.657L162.763 307.46L123.75 284.884L206.659 236.689L245.862 260.657Z" fill="#001E20"/>
<path d="M124.782 238.527L41.6475 189.894L80.9288 167.608L165.152 214.91L124.782 238.527Z" fill="#007550"/>
<path d="M207.196 237.771L123.75 284.884L123.319 237.618L206.928 191.002L207.196 237.771Z" fill="#FF513F"/>
<path d="M286.774 142.227L286.516 237.759L245.561 260.826L246.099 164.659L286.774 142.227Z" fill="#FFC856"/>
<path d="M205.136 48.2509L287.272 95.5995L286.774 142.228L204.543 95.928L205.136 48.2509Z" fill="#FF513F"/>
<path d="M246.111 164.513L245.561 260.826L204.04 237.075L205.474 141.361L246.111 164.513Z" fill="#007550"/>
<path d="M204.822 95.7713L286.775 142.228L246.056 166.235L165.476 117.932L204.822 95.7713Z" fill="#001E20"/>
</svg>
