<svg width="452" height="451" viewBox="0 0 452 451" fill="none" xmlns="http://www.w3.org/2000/svg">
<path d="M143.739 130.898L226.601 83.3562L267.055 107.291L183.503 154.908L143.739 130.898Z" fill="#FFC856"/>
<path d="M103.349 249.229L103.11 153.782L143.74 130.899L144.024 226.798L103.349 249.229Z" fill="#001E20"/>
<path d="M183.371 154.971L267.056 107.291L266.543 154.928L183.721 201.575L183.371 154.971Z" fill="#007550"/>
<path d="M142.819 226.721L143.74 130.899L184.89 154.159L183.456 249.874L142.819 226.721Z" fill="#FF513F"/>
<path d="M185.751 343.885L103.147 295.895L103.648 248.893L186.662 297.443L185.751 343.885Z" fill="#FFC856"/>
<path d="M307.862 319.657L224.763 366.46L185.75 343.884L268.659 295.689L307.862 319.657Z" fill="#001E20"/>
<path d="M186.782 297.527L103.648 248.894L142.929 226.608L227.152 273.91L186.782 297.527Z" fill="#007550"/>
<path d="M269.196 296.771L185.75 343.884L185.319 296.618L268.928 250.002L269.196 296.771Z" fill="#FF513F"/>
<path d="M348.774 201.227L348.516 296.759L307.561 319.826L308.099 223.659L348.774 201.227Z" fill="#FFC856"/>
<path d="M267.136 107.251L349.272 154.6L348.774 201.228L266.543 154.928L267.136 107.251Z" fill="#FF513F"/>
<path d="M308.111 223.513L307.561 319.826L266.04 296.075L267.474 200.361L308.111 223.513Z" fill="#007550"/>
<path d="M266.822 154.771L348.775 201.228L308.056 225.235L227.476 176.932L266.822 154.771Z" fill="#001E20"/>
</svg>
