<svg width="261" height="439" viewBox="0 0 261 439" fill="none" xmlns="http://www.w3.org/2000/svg">
<path d="M1.16504 386.377L37.415 291.97L197.174 236.605L65.1204 437.694L1.16504 386.377Z" stroke="#001E20" stroke-miterlimit="10"/>
<path d="M260.094 367.183L197.174 236.605L65.1206 437.694L260.094 367.183Z" stroke="#001E20" stroke-miterlimit="10"/>
<path d="M100.464 0.652832L52.1738 59.0208L181.638 65.9413L185.91 12.9271L100.464 0.652832Z" stroke="#001E20" stroke-miterlimit="10"/>
<path d="M41.8169 104.331L169.469 120L191.995 84.2222L60.9776 71.6868L41.8169 104.331Z" stroke="#001E20" stroke-miterlimit="10"/>
<path d="M41.8168 104.331L1.16504 240.131L52.174 200.044L41.8168 186.986L63.3079 167.008L46.0891 148.727L73.665 108.248L41.8168 104.331Z" stroke="#001E20" stroke-miterlimit="10"/>
<path d="M93.732 110.729L83.6338 148.727L95.2856 172.231L106.549 205.267L166.879 275.779L169.469 120L93.732 110.729Z" stroke="#001E20" stroke-miterlimit="10"/>
<path d="M46.0894 148.727H83.634L95.2858 172.231L63.3081 167.008L46.0894 148.727Z" stroke="#001E20" stroke-miterlimit="10"/>
<path d="M95.2858 74.9512L46.0894 148.727H83.634L103.183 75.7346L95.2858 74.9512Z" stroke="#001E20" stroke-miterlimit="10"/>
<path d="M41.8169 186.986L102.406 193.123L95.2856 172.231L63.308 167.008L41.8169 186.986Z" stroke="#001E20" stroke-miterlimit="10"/>
<path d="M52.174 200.044L106.549 205.267L102.406 193.123L41.8169 186.986L52.174 200.044Z" stroke="#001E20" stroke-miterlimit="10"/>
<path d="M1.16504 240.131L27.9641 288.836L86.6115 308.031L166.879 275.779L106.549 205.267L52.174 200.044L1.16504 240.131Z" stroke="#001E20" stroke-miterlimit="10"/>
<path d="M52.1738 59.0208L60.9774 71.6867L191.995 84.2221L181.638 65.9413L52.1738 59.0208Z" stroke="#001E20" stroke-miterlimit="10"/>
<path d="M185.911 12.927L209.214 33.297L197.174 236.605L166.879 275.779L169.469 120L191.995 84.2221L181.638 65.9413L185.911 12.927Z" stroke="#001E20" stroke-miterlimit="10"/>
<path d="M197.174 71.6868L211.933 84.2222L206.237 125.223H191.996L197.174 71.6868Z" stroke="#001E20" stroke-miterlimit="10"/>
<path d="M209.214 196.127L206.237 125.223H191.995L185.911 193.123L209.214 196.127Z" stroke="#001E20" stroke-miterlimit="10"/>
<path d="M103.183 75.7346L95.2856 172.231L83.6338 148.727L103.183 75.7346Z" stroke="#001E20" stroke-miterlimit="10"/>
</svg>
