<svg width="594" height="681" viewBox="0 0 594 681" fill="none" xmlns="http://www.w3.org/2000/svg">
<path d="M315.055 344.584L292.662 263.312L213.734 242.304L236.749 323.602L315.055 344.584Z" fill="#001E20"/>
<path d="M315.055 344.584L375.683 285.768L352.586 204.517L292.663 263.312L315.055 344.584Z" fill="white"/>
<path d="M416.423 446.947L393.983 365.592L315.055 344.583L338.087 425.817L416.423 446.947Z" fill="white"/>
<path d="M453.68 306.597L393.591 365.488L314.663 344.479L375.244 285.58L453.68 306.597Z" fill="#001E20"/>
<path d="M416.393 446.798L476.629 387.877L453.549 306.561L393.953 365.444L416.393 446.798Z" fill="#FF513F"/>
<path d="M453.68 306.596L431.271 225.39L352.342 204.381L375.374 285.614L453.68 306.596Z" fill="#FF513F"/>
<path d="M491.555 166.552L431.466 225.443L352.538 204.434L413.119 145.535L491.555 166.552Z" fill="white"/>
<path d="M453.549 306.561L513.751 247.771L490.736 166.472L431.14 225.355L453.549 306.561Z" fill="#001E20"/>
<path d="M176.909 382.349L154.499 301.143L75.5711 280.134L98.6035 361.367L176.909 382.349Z" fill="white"/>
<path d="M200.077 463.351L177.668 382.144L98.7395 361.135L121.772 442.369L200.077 463.351Z" fill="#009364"/>
<path d="M200.575 463.842L222.63 544.316L145.344 523.608L122.708 442.978L200.575 463.842Z" stroke="#009364"/>
<path d="M378.308 586.015L400.364 666.49L323.077 645.781L300.441 565.151L378.308 586.015Z" stroke="#009364"/>
<path d="M301.471 565.959L279.061 484.753L200.133 463.744L223.165 544.978L301.471 565.959Z" fill="#009364"/>
<path d="M491.308 166.486L468.898 85.2792L389.97 64.2705L413.002 145.504L491.308 166.486Z" fill="#009364"/>
<path d="M352.231 204.83L329.821 123.624L250.893 102.615L273.925 183.848L352.231 204.83Z" fill="#009364"/>
<path d="M214.588 242.252L154.499 301.143L75.5708 280.135L136.152 221.235L214.588 242.252Z" fill="#001E20"/>
<path d="M176.909 382.349L237.111 323.559L214.096 242.26L154.5 301.143L176.909 382.349Z" fill="#FF513F"/>
<path d="M251.065 103.535L273.976 183.642L214.512 241.678L192.739 162.306L251.065 103.535Z" stroke="#009364"/>
<path d="M438.283 530.65L461.194 610.757L401.73 668.793L379.958 589.421L438.283 530.65Z" stroke="#009364"/>
<path d="M390.214 65.2049L413.129 145.326L352.355 204.236L330.15 123.703L390.214 65.2049Z" stroke="#009364"/>
<path d="M438.68 529.217L499.945 469.788L476.323 387.4L415.675 446.924L438.68 529.217Z" fill="#009364"/>
<path d="M378.927 586.883L356.583 505.694L277.589 484.668L300.687 565.918L378.927 586.883Z" fill="#FF513F"/>
<path d="M416.392 446.799L356.583 505.694L277.589 484.668L338.087 425.817L416.392 446.799Z" fill="#001E20"/>
<path d="M378.927 586.883L439.407 528.097L416.392 446.799L356.583 505.694L378.927 586.883Z" fill="white"/>
<path d="M277.868 484.672L255.476 403.4L176.548 382.392L199.562 463.69L277.868 484.672Z" fill="#001E20"/>
<path d="M315.055 344.584L255.476 403.401L176.547 382.392L237.111 323.559L315.055 344.584Z" fill="white"/>
<path d="M277.868 484.672L338.087 425.816L315.055 344.583L255.476 403.4L277.868 484.672Z" fill="#FF513F"/>
<path d="M352.751 204.421L292.663 263.312L213.734 242.303L274.315 183.404L352.751 204.421Z" fill="#FF513F"/>
</svg>
