<svg width="510" height="528" viewBox="0 0 510 528" fill="none" xmlns="http://www.w3.org/2000/svg">
<path d="M48.3865 266.217L387.15 106.518L467.91 163.439L129.01 323.041L48.3865 266.217Z" fill="#FFC856"/>
<path d="M40.3828 363.331L48.3868 266.217L129.152 323.141L121.285 420.352L40.3828 363.331Z" fill="white"/>
<path d="M129 323L467.195 162.935L459.561 262.76L121 420.5L129 323Z" fill="#FF513F"/>
<path d="M149.498 336.928L239.761 293.891L320.311 350.664L229.912 393.605L149.498 336.928Z" fill="#FFC856"/>
<path d="M140.714 434.658L149.498 336.928L229.801 393.526L222 492L140.714 434.658Z" fill="white"/>
<path d="M229.891 393.59L320.311 350.664L312.729 450.664L222 492L229.891 393.59Z" fill="#FF513F"/>
<path d="M357.874 192.385L267.206 234.561L187.199 177.024L278.003 134.946L357.874 192.385Z" fill="#FF513F"/>
<path d="M367.587 94.7435L357.873 192.385L278 135L286.758 36.4068L367.587 94.7435Z" fill="white"/>
<path d="M278.024 134.961L187.199 177.025L195.733 77.1007L286.758 36.4068L278.024 134.961Z" fill="#FFC856"/>
<path d="M377.981 205.094L388.355 106.225L468.513 162.722L459.64 262.649L377.981 205.094Z" fill="white"/>
</svg>
