<svg width="245" height="69" viewBox="0 0 245 69" fill="none" xmlns="http://www.w3.org/2000/svg">
<path d="M60.7471 0.5L0.5 0.5L0.5 68.5L60.7471 68.5L30.5612 34.8338L30.2619 34.5L30.5612 34.1662L60.7471 0.5Z" stroke="#FFC856"/>
<path d="M89.9601 34.8338L89.6609 34.5L89.9601 34.1662L120.146 0.5L90.5557 0.5L60.0705 34.5L90.5557 68.5L120.146 68.5L89.9601 34.8338Z" stroke="#FFC856"/>
<path d="M151.827 34.8338L151.529 34.5009L151.826 34.1673L167.249 16.8681L168.122 15.8887V17.2008V51.7009V53.0075L167.25 52.0346L151.827 34.8338ZM198.144 17.2991V15.9869L199.017 16.9664L214.44 34.2656L214.737 34.5992L214.439 34.9321L199.016 52.1329L198.144 53.1058V51.7991V17.2991ZM198.644 68.5H213.843L244.329 34.5L213.843 0.499992H198.644H183.221H167.799L152.599 0.499992L122.114 34.5L152.599 68.5L167.799 68.5H183.221H198.644Z" stroke="#FFC856"/>
</svg>
