<svg width="140" height="140" viewBox="0 0 140 140" fill="none" xmlns="http://www.w3.org/2000/svg">
<g clip-path="url(#clip0)">
<path d="M37.9219 57.2822H25.8516V85.8993H37.9219V57.2822Z" fill="#001E20"/>
<path d="M37.9219 71.5907H25.8516L37.9219 57.2822H49.9922L37.9219 71.5907Z" fill="#FF513F"/>
<path d="M37.9219 71.5907H25.8516L37.9219 85.8993H49.9922L37.9219 71.5907Z" fill="#FFD45D"/>
<path d="M62.0465 71.5907H49.9922L62.0465 85.8993H74.1169L62.0465 71.5907Z" fill="#007550"/>
<path d="M62.0465 57.2822L49.9922 71.5907H62.0465L74.1169 57.2822H62.0465Z" fill="#001E20"/>
<path d="M86.187 71.5907H74.1167L86.187 85.8993H98.2414L86.187 71.5907Z" fill="#FF513F"/>
<path d="M86.187 57.2822L74.1167 71.5907H86.187L98.2414 57.2822H86.187Z" fill="#FFC856"/>
<path d="M104.285 57.2822H92.2144V85.8993H104.285V57.2822Z" fill="#001E20"/>
<path d="M116.339 78.737L122.382 71.5907L110.312 57.2822H98.2412L108.985 70.008L116.339 78.737Z" fill="#FF513F"/>
<path d="M110.312 71.5907H122.382L110.312 85.8993H98.2412L110.312 71.5907Z" fill="#007550"/>
<path d="M127.146 45.8673C130.376 53.5092 132.023 61.6307 132.023 70.008C132.023 70.4077 132.023 70.8233 132.007 71.223H140C140 70.8233 140.016 70.4077 140.016 70.008C140.016 50.9832 132.422 33.733 120.112 21.1191L114.453 26.7786C119.856 32.3261 124.125 38.753 127.146 45.8673Z" fill="#FFC856"/>
<path d="M45.8672 127.146C38.7529 124.141 32.326 119.872 26.7625 114.452L21.103 120.112C33.7169 132.422 50.9671 140.016 69.9919 140.016V132.022C61.6306 132.006 53.5091 130.376 45.8672 127.146Z" fill="#007550"/>
<path d="M140 71.223H132.006C131.863 79.1687 130.232 86.8745 127.146 94.1487C124.029 101.535 119.552 108.169 113.861 113.861C113.653 114.069 113.445 114.261 113.253 114.468L118.913 120.128C131.655 107.658 139.664 90.3757 140 71.223Z" fill="#007550"/>
<path d="M94.1329 127.146C86.491 130.376 78.3695 132.022 69.9922 132.022V140.016C89.017 140.016 106.267 132.422 118.881 120.112L113.222 114.452C107.674 119.856 101.263 124.125 94.1329 127.146Z" fill="#FF513F"/>
<path d="M26.1552 113.845C20.4638 108.153 15.9873 101.519 12.8698 94.1327C9.7843 86.8585 8.1536 79.1687 8.00972 71.223H0.0161133C0.335857 90.3757 8.36144 107.658 21.1192 120.112L26.7787 114.452C26.5709 114.245 26.363 114.053 26.1552 113.845Z" fill="#FFD45D"/>
<path d="M70.0078 7.99361C78.3851 7.99361 86.5066 9.6243 94.1485 12.8697C101.519 15.9872 108.153 20.4636 113.845 26.1551C114.053 26.3629 114.244 26.5707 114.452 26.7626L120.112 21.1031C107.386 8.08953 89.6401 0 70.0078 0V7.99361Z" fill="#001E20"/>
<path d="M26.1553 26.1551C31.8467 20.4636 38.4814 15.9872 45.8675 12.8697C53.5094 9.64029 61.6309 7.99361 70.0082 7.99361V0C50.3599 0 32.6141 8.08953 19.9043 21.1191L25.5638 26.7786C25.7556 26.5707 25.9475 26.3629 26.1553 26.1551Z" fill="#FF513F"/>
<path d="M7.9936 70.008C7.9936 61.6307 9.6243 53.5092 12.8697 45.8673C15.8753 38.753 20.1439 32.3261 25.5635 26.7626L19.9041 21.1031C7.59392 33.733 0 50.9832 0 70.008C0 70.4077 0 70.8233 0.0159872 71.223H8.00959C7.9936 70.8073 7.9936 70.4077 7.9936 70.008Z" fill="#FFD45D"/>
</g>
<defs>
<clipPath id="clip0">
<rect width="140" height="140" fill="white"/>
</clipPath>
</defs>
</svg>
