<svg width="5000" height="773" viewBox="0 0 5000 773" fill="none" xmlns="http://www.w3.org/2000/svg">
<g clip-path="url(#clip0)">
<path d="M2405.53 143.583L2403.95 165.232L2401.83 169V146.121L2405.53 143.583Z" fill="#FFC856"/>
<path d="M2401.83 169H2393.08L2390.15 146.12H2401.83V169Z" fill="#FF513F"/>
<path d="M2405.53 143.583L2401.83 146.121H2390.15L2393.73 143.583H2405.53Z" fill="#001E20"/>
<path d="M2404.93 119.992L2403.35 141.641L2401.21 145.409V122.549L2404.93 119.992Z" fill="#FFC856"/>
<path d="M2401.21 145.409H2392.46L2389.55 122.549H2401.21V145.409Z" fill="#FF513F"/>
<path d="M2404.93 119.992L2401.21 122.549H2389.55L2393.14 119.992H2404.93Z" fill="#001E20"/>
<path d="M2404.33 96.4014L2402.74 118.05L2400.61 121.819V98.9585L2404.33 96.4014Z" fill="#FFC856"/>
<path d="M2400.61 121.818H2391.86L2388.95 98.958H2400.61V121.818Z" fill="#FF513F"/>
<path d="M2404.33 96.4014L2400.61 98.9584H2388.95L2392.52 96.4014H2404.33Z" fill="#001E20"/>
<path d="M2399.94 72.041L2401.56 93.6899L2400.02 97.7275L2396.64 75.1172L2399.94 72.041Z" fill="#FFC856"/>
<path d="M2400.02 97.7274L2391.36 99.0156L2385.1 76.8283L2396.64 75.1172L2400.02 97.7274Z" fill="#FF513F"/>
<path d="M2399.94 72.041L2396.64 75.1172L2385.1 76.8284L2388.26 73.7714L2399.94 72.041Z" fill="#001E20"/>
<path d="M2391.03 48.835L2395.24 70.1378L2394.2 74.3292L2388.12 52.2765L2391.03 48.835Z" fill="#FFC856"/>
<path d="M2394.2 74.329L2385.75 76.6362L2376.87 55.3526L2388.12 52.2764L2394.2 74.329Z" fill="#FF513F"/>
<path d="M2391.03 48.835L2388.12 52.2765L2376.87 55.3527L2379.64 51.9496L2391.03 48.835Z" fill="#FFB300"/>
<path d="M2382.11 53.1989L2367.71 47.7578L2369.18 50.7379L2354.89 52.8336L2357.84 55.583L2339.2 67.2149L2338.6 95.0932L2352.52 74.4441L2353.52 76.9435L2358.88 67.0996L2360.75 68.0993L2365.71 62.1968L2366.15 63.6773L2382.11 53.1989Z" fill="#007550"/>
<path d="M2382.11 53.1992L2364.78 59.1978L2366.15 63.6776L2382.11 53.1992Z" fill="#001E20"/>
<path d="M2338.6 95.0935L2352.52 74.4444L2350.57 69.8301L2338.8 86.1917L2338.6 95.0935Z" fill="#001E20"/>
<path d="M2364.78 59.1982L2350.57 69.8304L2353.52 76.9442L2358.88 67.1003L2360.75 68.1001L2365.71 62.1976L2364.78 59.1982Z" fill="#001E20"/>
<path d="M2383.44 51.9687L2368.42 39.2793L2368.91 43.5091L2350.81 39.9522L2353.2 44.5089L2325.75 50.5652L2313.1 83.8846L2338.68 64.9658L2338.85 68.3881L2349.51 58.8133L2351.33 60.8129L2359.81 55.814L2359.73 57.7751L2383.44 51.9687Z" fill="#007550"/>
<path d="M2383.44 51.9692L2360 51.8154L2359.73 57.7756L2383.44 51.9692Z" fill="#001E20"/>
<path d="M2313.1 83.8846L2338.68 64.9659L2338.35 58.5635L2317.15 73.2332L2313.1 83.8846Z" fill="#001E20"/>
<path d="M2360 51.8154L2338.35 58.5639L2338.85 68.3886L2349.51 58.8138L2351.33 60.8134L2359.81 55.8145L2360 51.8154Z" fill="#001E20"/>
<path d="M2384.31 52.9109L2393.81 41.2597L2394.06 44.5474L2407.21 39.5293L2406.07 43.3361L2427.64 44.4897L2441.94 68.4458L2419.93 57.1791L2420.3 59.8324L2410.87 53.8337L2409.81 55.6026L2402.68 52.8532L2403.02 54.3528L2384.31 52.9109Z" fill="#007550"/>
<path d="M2384.31 52.9106L2401.96 49.7959L2403.02 54.3526L2384.31 52.9106Z" fill="#001E20"/>
<path d="M2441.94 68.4458L2419.93 57.1792L2419.27 52.2188L2437.36 60.7937L2441.94 68.4458Z" fill="#001E20"/>
<path d="M2401.96 49.7959L2419.27 52.2184L2420.3 59.8321L2410.87 53.8334L2409.81 55.6023L2402.68 52.8529L2401.96 49.7959Z" fill="#001E20"/>
<path d="M2382.57 52.4885L2389.03 34.2426L2390.71 38.1263L2404.28 26.3598L2404.53 31.474L2430.78 23.5527L2458 46.4514L2426.95 42.2792L2428.51 45.3362L2414.72 42.1447L2414.19 44.7402L2404.51 44.471L2405.55 46.1437L2382.57 52.4885Z" fill="#007550"/>
<path d="M2382.57 52.4882L2402.37 41.0869L2405.55 46.1435L2382.57 52.4882Z" fill="#001E20"/>
<path d="M2458 46.4514L2426.95 42.2793L2424.05 36.5498L2449.29 39.1261L2458 46.4514Z" fill="#001E20"/>
<path d="M2402.37 41.0872L2424.05 36.5498L2428.51 45.3363L2414.73 42.1447L2414.19 44.7403L2404.51 44.4711L2402.37 41.0872Z" fill="#001E20"/>
<path d="M2383.44 53.9105L2378.41 33.6843L2376.19 37.6065L2362.83 23.3405L2362.02 28.7431L2334.63 16.9766L2303 37.818L2336.81 37.3758L2334.83 40.4328L2349.98 38.7985L2350.27 41.6248L2360.69 42.5861L2359.4 44.2204L2383.44 53.9105Z" fill="#007550"/>
<path d="M2383.44 53.9109L2363.35 39.2412L2359.4 44.2208L2383.44 53.9109Z" fill="#001E20"/>
<path d="M2303 37.818L2336.81 37.3758L2340.51 31.6464L2313.12 31.1465L2303 37.818Z" fill="#001E20"/>
<path d="M2363.35 39.2409L2340.51 31.6465L2334.82 40.4329L2349.98 38.7987L2350.27 41.625L2360.69 42.5863L2363.35 39.2409Z" fill="#001E20"/>
<path d="M2381.82 53.2187L2378.18 32.7618L2381.8 35.4535L2388.18 17.0923L2391.11 21.7066L2411.29 0L2448.63 6.38316L2417.62 19.4956L2420.68 21.4759L2406.2 26.0518L2407.07 28.7627L2397.95 33.8L2399.81 34.7805L2381.82 53.2187Z" fill="#007550"/>
<path d="M2381.82 53.2183L2394.18 31.8193L2399.81 34.7802L2381.82 53.2183Z" fill="#001E20"/>
<path d="M2448.63 6.3837L2417.62 19.4961L2411.91 15.747L2436.7 4.3457L2448.63 6.3837Z" fill="#001E20"/>
<path d="M2394.18 31.8194L2411.91 15.7461L2420.68 21.4756L2406.2 26.0514L2407.07 28.7624L2397.95 33.7997L2394.18 31.8194Z" fill="#001E20"/>
<path d="M2382.07 49.5661L2387.31 35.1271L2384.33 36.6268L2382.01 22.4185L2379.3 25.3986L2367.36 6.97968L2339.39 6.80664L2360.31 20.3612L2357.82 21.4187L2367.79 26.6291L2366.8 28.494L2372.8 33.3391L2371.33 33.8197L2382.07 49.5661Z" fill="#007550"/>
<path d="M2382.07 49.5653L2375.79 32.377L2371.33 33.8189L2382.07 49.5653Z" fill="#001E20"/>
<path d="M2339.39 6.80664L2360.31 20.3612L2364.92 18.3809L2348.34 6.86432L2339.39 6.80664Z" fill="#001E20"/>
<path d="M2375.79 32.3777L2364.92 18.3809L2357.82 21.4186L2367.79 26.629L2366.8 28.4939L2372.8 33.339L2375.79 32.3777Z" fill="#001E20"/>
<path d="M2390.82 59.6401C2387.95 59.6401 2385.62 57.3159 2385.62 54.4489C2385.62 51.582 2387.95 49.2578 2390.82 49.2578C2393.7 49.2578 2396.03 51.582 2396.03 54.4489C2396.03 57.3159 2393.7 59.6401 2390.82 59.6401Z" fill="black"/>
<path d="M2379.89 65.1772C2377.02 65.1772 2374.69 62.853 2374.69 59.9861C2374.69 57.1191 2377.02 54.7949 2379.89 54.7949C2382.77 54.7949 2385.1 57.1191 2385.1 59.9861C2385.1 62.853 2382.77 65.1772 2379.89 65.1772Z" fill="black"/>
<path d="M2383.44 57.6791C2380.57 57.6791 2378.23 55.355 2378.23 52.488C2378.23 49.621 2380.57 47.2969 2383.44 47.2969C2386.31 47.2969 2388.64 49.621 2388.64 52.488C2388.64 55.355 2386.31 57.6791 2383.44 57.6791Z" fill="black"/>
</g>
<g clip-path="url(#clip1)">
<path d="M3321 201.579L3323 206.71L3322.93 207.803L3320.43 202.561L3321 201.579Z" fill="#FFC856"/>
<path d="M3322.93 207.803L3320.93 208.751L3317.77 203.827L3320.43 202.562L3322.93 207.803Z" fill="#FFC856"/>
<path d="M3321 201.579L3320.43 202.561L3317.77 203.827L3318.31 202.857L3321 201.579Z" fill="#FFC856"/>
<path d="M3318.3 196.239L3320.29 201.37L3320.22 202.465L3317.73 197.228L3318.3 196.239Z" fill="#FFC856"/>
<path d="M3320.22 202.465L3318.22 203.413L3315.07 198.491L3317.73 197.228L3320.22 202.465Z" fill="#FFC856"/>
<path d="M3318.3 196.239L3317.73 197.228L3315.07 198.491L3315.61 197.517L3318.3 196.239Z" fill="#FFC856"/>
<path d="M3315.59 190.898L3317.58 196.032L3317.51 197.125L3315.02 191.887L3315.59 190.898Z" fill="#FFC856"/>
<path d="M3317.51 197.125L3315.52 198.073L3312.36 193.151L3315.02 191.888L3317.51 197.125Z" fill="#FFC856"/>
<path d="M3315.59 190.898L3315.02 191.887L3312.36 193.15L3312.9 192.178L3315.59 190.898Z" fill="#FFC856"/>
<path d="M3311.94 185.794L3314.66 190.578L3314.75 191.67L3311.52 186.855L3311.94 185.794Z" fill="#FFC856"/>
<path d="M3314.75 191.67L3312.92 192.903L3309.08 188.498L3311.52 186.856L3314.75 191.67Z" fill="#FFC856"/>
<path d="M3311.94 185.794L3311.52 186.856L3309.08 188.498L3309.46 187.456L3311.94 185.794Z" fill="#FFC856"/>
<path d="M3307.38 181.442L3310.66 185.867L3310.88 186.94L3307.09 182.545L3307.38 181.442Z" fill="#FFC856"/>
<path d="M3310.88 186.94L3309.2 188.383L3304.86 184.47L3307.09 182.545L3310.88 186.94Z" fill="#FFC856"/>
<path d="M3307.38 181.442L3307.09 182.546L3304.86 184.47L3305.12 183.39L3307.38 181.442Z" fill="#FFC856"/>
<path d="M3305.82 183.409L3301.95 183.722L3302.61 184.246L3299.58 186.273L3300.55 186.584L3297.57 191.268L3300.47 197.719L3301.39 191.481L3301.89 191.945L3302.04 189.109L3302.58 189.136L3303.06 187.247L3303.33 187.538L3305.82 183.409Z" fill="#FFC856"/>
<path d="M3305.82 183.408L3302.53 186.66L3303.33 187.538L3305.82 183.408Z" fill="#FFC856"/>
<path d="M3300.47 197.719L3301.39 191.481L3300.45 190.635L3299.54 195.659L3300.47 197.719Z" fill="#FFC856"/>
<path d="M3302.53 186.66L3300.45 190.635L3301.89 191.945L3302.04 189.109L3302.58 189.136L3303.06 187.247L3302.53 186.66Z" fill="#FFC856"/>
<path d="M3305.99 182.982L3301.19 181.702L3301.76 182.619L3297.24 183.764L3298.29 184.549L3292.69 188.91L3293.44 197.913L3297.21 190.808L3297.62 191.574L3299 188.225L3299.64 188.487L3301.02 186.423L3301.22 186.881L3305.99 182.982Z" fill="#FFC856"/>
<path d="M3305.99 182.983L3300.63 185.486L3301.22 186.881L3305.99 182.983Z" fill="#FFC856"/>
<path d="M3293.44 197.914L3297.21 190.809L3296.43 189.377L3293.2 195.035L3293.44 197.914Z" fill="#FFC856"/>
<path d="M3300.63 185.486L3296.43 189.377L3297.62 191.574L3299 188.226L3299.64 188.487L3301.02 186.423L3300.63 185.486Z" fill="#FFC856"/>
<path d="M3306.29 183.105L3307.19 179.406L3307.6 180.132L3310.05 177.558L3310.21 178.554L3315.25 176.482L3321.12 180.421L3314.87 180.224L3315.25 180.792L3312.44 180.439L3312.4 180.959L3310.47 181.102L3310.71 181.408L3306.29 183.105Z" fill="#FFC856"/>
<path d="M3306.29 183.104L3309.98 180.478L3310.71 181.407L3306.29 183.104Z" fill="#FFC856"/>
<path d="M3321.12 180.421L3314.87 180.224L3314.18 179.159L3319.24 179.165L3321.12 180.421Z" fill="#FFC856"/>
<path d="M3309.98 180.479L3314.18 179.159L3315.25 180.793L3312.44 180.439L3312.4 180.959L3310.47 181.102L3309.98 180.479Z" fill="#FFC856"/>
<path d="M3305.85 183.195L3305.33 178.315L3306.14 179.023L3307.95 174.858L3308.56 176.002L3313.68 171.344L3322.38 173.642L3314.85 176.05L3315.54 176.581L3312.05 177.342L3312.21 177.996L3309.98 178.982L3310.39 179.253L3305.85 183.195Z" fill="#FFC856"/>
<path d="M3305.85 183.196L3309.12 178.439L3310.39 179.253L3305.85 183.196Z" fill="#FFC856"/>
<path d="M3322.38 173.643L3314.85 176.05L3313.57 175.051L3319.6 172.908L3322.38 173.643Z" fill="#FFC856"/>
<path d="M3309.12 178.439L3313.57 175.051L3315.54 176.581L3312.05 177.343L3312.21 177.996L3309.98 178.983L3309.12 178.439Z" fill="#FFC856"/>
<path d="M3306.2 183.428L3302.85 179.339L3302.77 180.477L3298.18 178.656L3298.58 179.981L3291.06 180.253L3286.12 188.454L3293.78 184.69L3293.66 185.606L3296.93 183.59L3297.3 184.206L3299.79 183.297L3299.67 183.811L3306.2 183.428Z" fill="#FFC856"/>
<path d="M3306.2 183.427L3300.03 182.242L3299.67 183.811L3306.2 183.427Z" fill="#FFC856"/>
<path d="M3286.12 188.454L3293.78 184.69L3293.99 182.977L3287.7 185.829L3286.12 188.454Z" fill="#FFC856"/>
<path d="M3300.03 182.242L3293.99 182.976L3293.66 185.605L3296.93 183.59L3297.3 184.206L3299.79 183.296L3300.03 182.242Z" fill="#FFC856"/>
<path d="M3305.76 183.444L3302.7 179.152L3303.82 179.376L3303.27 174.478L3304.44 175.218L3306.68 168.059L3315.88 165.477L3310.24 171.841L3311.16 171.962L3308.36 174.579L3308.85 175.106L3307.32 177.248L3307.85 177.272L3305.76 183.444Z" fill="#FFC856"/>
<path d="M3305.76 183.444L3306.24 177.203L3307.85 177.272L3305.76 183.444Z" fill="#FFC856"/>
<path d="M3315.88 165.477L3310.24 171.84L3308.53 171.599L3312.94 166.302L3315.88 165.477Z" fill="#FFC856"/>
<path d="M3306.24 177.203L3308.53 171.599L3311.16 171.962L3308.36 174.578L3308.85 175.106L3307.32 177.247L3306.24 177.203Z" fill="#FFC856"/>
<path d="M3305.42 182.58L3305.04 178.704L3304.52 179.371L3302.45 176.367L3302.15 177.344L3297.43 174.416L3291.03 177.406L3297.28 178.246L3296.83 178.758L3299.66 178.872L3299.64 179.406L3301.54 179.867L3301.26 180.136L3305.42 182.58Z" fill="#FFC856"/>
<path d="M3305.42 182.581L3302.11 179.323L3301.26 180.136L3305.42 182.581Z" fill="#FFC856"/>
<path d="M3291.03 177.406L3297.28 178.246L3298.11 177.293L3293.08 176.45L3291.03 177.406Z" fill="#FFC856"/>
<path d="M3302.11 179.323L3298.11 177.294L3296.83 178.758L3299.66 178.872L3299.64 179.406L3301.54 179.867L3302.11 179.323Z" fill="#FFC856"/>
<path d="M3307.95 184.387C3307.3 184.698 3306.51 184.418 3306.2 183.761C3305.89 183.104 3306.17 182.319 3306.82 182.008C3307.48 181.697 3308.26 181.977 3308.57 182.634C3308.88 183.29 3308.61 184.075 3307.95 184.387Z" fill="#FFC856"/>
<path d="M3306.32 185.959C3305.66 186.27 3304.88 185.99 3304.57 185.333C3304.26 184.677 3304.53 183.892 3305.19 183.58C3305.84 183.269 3306.63 183.549 3306.94 184.206C3307.25 184.863 3306.97 185.648 3306.32 185.959Z" fill="#FFC856"/>
<path d="M3305.91 183.765C3305.26 184.076 3304.47 183.796 3304.16 183.139C3303.85 182.482 3304.13 181.697 3304.78 181.386C3305.44 181.075 3306.22 181.355 3306.53 182.012C3306.84 182.668 3306.57 183.453 3305.91 183.765Z" fill="#FFC856"/>
</g>
<g clip-path="url(#clip2)">
<path d="M3333.45 200.418L3333.54 203.583L3333.83 204.146L3333.97 200.811L3333.45 200.418Z" fill="#FFC856"/>
<path d="M3333.83 204.146L3335.1 204.201L3335.66 200.884L3333.97 200.812L3333.83 204.146Z" fill="#FFC856"/>
<path d="M3333.45 200.418L3333.97 200.811L3335.66 200.884L3335.16 200.492L3333.45 200.418Z" fill="#FFC856"/>
<path d="M3333.69 196.983L3333.78 200.149L3334.06 200.711L3334.21 197.379L3333.69 196.983Z" fill="#FFC856"/>
<path d="M3334.06 200.711L3335.33 200.766L3335.9 197.452L3334.21 197.379L3334.06 200.711Z" fill="#FFC856"/>
<path d="M3333.69 196.983L3334.21 197.379L3335.9 197.452L3335.4 197.057L3333.69 196.983Z" fill="#FFC856"/>
<path d="M3333.92 193.549L3334.02 196.714L3334.3 197.277L3334.44 193.945L3333.92 193.549Z" fill="#FFC856"/>
<path d="M3334.3 197.276L3335.57 197.331L3336.13 194.017L3334.44 193.944L3334.3 197.276Z" fill="#FFC856"/>
<path d="M3333.92 193.549L3334.44 193.945L3336.13 194.018L3335.63 193.623L3333.92 193.549Z" fill="#FFC856"/>
<path d="M3334.71 190.025L3334.34 193.17L3334.54 193.768L3335.17 190.494L3334.71 190.025Z" fill="#FFC856"/>
<path d="M3334.54 193.769L3335.78 194.011L3336.83 190.816L3335.17 190.495L3334.54 193.769Z" fill="#FFC856"/>
<path d="M3334.71 190.025L3335.17 190.494L3336.83 190.816L3336.39 190.351L3334.71 190.025Z" fill="#FFC856"/>
<path d="M3336.15 186.698L3335.4 189.777L3335.53 190.394L3336.55 187.218L3336.15 186.698Z" fill="#FFC856"/>
<path d="M3335.53 190.395L3336.74 190.784L3338.16 187.737L3336.55 187.219L3335.53 190.395Z" fill="#FFC856"/>
<path d="M3336.15 186.698L3336.55 187.218L3338.16 187.737L3337.78 187.223L3336.15 186.698Z" fill="#FFC856"/>
<path d="M3337.41 187.39L3339.53 186.687L3339.3 187.112L3341.36 187.506L3340.92 187.889L3343.55 189.701L3343.46 193.768L3341.57 190.671L3341.41 191.029L3340.69 189.561L3340.42 189.695L3339.74 188.804L3339.66 189.017L3337.41 187.39Z" fill="#FFC856"/>
<path d="M3337.41 187.391L3339.89 188.373L3339.66 189.018L3337.41 187.391Z" fill="#FFC856"/>
<path d="M3343.46 193.768L3341.57 190.672L3341.88 190.011L3343.49 192.47L3343.46 193.768Z" fill="#FFC856"/>
<path d="M3339.89 188.373L3341.88 190.011L3341.41 191.03L3340.69 189.562L3340.42 189.696L3339.74 188.804L3339.89 188.373Z" fill="#FFC856"/>
<path d="M3337.23 187.202L3339.48 185.446L3339.39 186.06L3342.03 185.654L3341.66 186.304L3345.6 187.358L3347.23 192.293L3343.64 189.376L3343.59 189.874L3342.1 188.412L3341.83 188.692L3340.63 187.91L3340.63 188.196L3337.23 187.202Z" fill="#FFC856"/>
<path d="M3337.23 187.202L3340.63 187.326L3340.63 188.196L3337.23 187.202Z" fill="#FFC856"/>
<path d="M3347.23 192.294L3343.64 189.377L3343.72 188.445L3346.71 190.716L3347.23 192.294Z" fill="#FFC856"/>
<path d="M3340.63 187.326L3343.72 188.445L3343.59 189.874L3342.1 188.412L3341.83 188.692L3340.63 187.91L3340.63 187.326Z" fill="#FFC856"/>
<path d="M3337.1 187.335L3335.79 185.577L3335.73 186.055L3333.86 185.241L3334 185.803L3330.87 185.837L3328.64 189.239L3331.9 187.734L3331.84 188.119L3333.24 187.303L3333.38 187.568L3334.43 187.212L3334.37 187.428L3337.1 187.335Z" fill="#FFC856"/>
<path d="M3337.1 187.334L3334.56 186.77L3334.37 187.428L3337.1 187.334Z" fill="#FFC856"/>
<path d="M3328.64 189.239L3331.9 187.734L3332.03 187.015L3329.36 188.153L3328.64 189.239Z" fill="#FFC856"/>
<path d="M3334.56 186.77L3332.03 187.015L3331.83 188.118L3333.24 187.303L3333.38 187.567L3334.43 187.211L3334.56 186.77Z" fill="#FFC856"/>
<path d="M3337.35 187.283L3336.53 184.583L3336.26 185.139L3334.37 183.339L3334.3 184.083L3330.54 182.765L3326.45 185.932L3330.98 185.518L3330.74 185.954L3332.75 185.575L3332.82 185.956L3334.22 185.978L3334.06 186.215L3337.35 187.283Z" fill="#FFC856"/>
<path d="M3337.35 187.284L3334.55 185.498L3334.06 186.216L3337.35 187.284Z" fill="#FFC856"/>
<path d="M3326.45 185.933L3330.98 185.518L3331.44 184.701L3327.76 184.919L3326.45 185.933Z" fill="#FFC856"/>
<path d="M3334.55 185.498L3331.44 184.702L3330.74 185.955L3332.75 185.575L3332.82 185.957L3334.22 185.978L3334.55 185.498Z" fill="#FFC856"/>
<path d="M3337.22 187.486L3338.07 184.569L3338.37 185.155L3340.4 183.159L3340.48 183.951L3344.52 182.407L3348.98 185.642L3344.08 185.367L3344.35 185.825L3342.16 185.492L3342.1 185.902L3340.58 185.977L3340.76 186.224L3337.22 187.486Z" fill="#FFC856"/>
<path d="M3337.22 187.486L3340.22 185.473L3340.76 186.224L3337.22 187.486Z" fill="#FFC856"/>
<path d="M3348.98 185.642L3344.08 185.367L3343.58 184.508L3347.55 184.606L3348.98 185.642Z" fill="#FFC856"/>
<path d="M3340.22 185.472L3343.58 184.508L3344.35 185.824L3342.16 185.491L3342.1 185.901L3340.58 185.976L3340.22 185.472Z" fill="#FFC856"/>
<path d="M3337.45 187.395L3338.11 184.436L3337.57 184.806L3336.76 182.089L3336.31 182.744L3333.52 179.454L3328.06 180.151L3332.48 182.256L3332.02 182.525L3334.09 183.283L3333.95 183.673L3335.24 184.464L3334.96 184.595L3337.45 187.395Z" fill="#FFC856"/>
<path d="M3337.45 187.394L3335.8 184.198L3334.96 184.595L3337.45 187.394Z" fill="#FFC856"/>
<path d="M3328.06 180.151L3332.48 182.255L3333.33 181.745L3329.8 179.928L3328.06 180.151Z" fill="#FFC856"/>
<path d="M3335.8 184.199L3333.33 181.745L3332.02 182.526L3334.09 183.283L3333.95 183.673L3335.24 184.464L3335.8 184.199Z" fill="#FFC856"/>
<path d="M3337.44 186.861L3336.77 184.724L3337.2 184.961L3337.62 182.904L3338 183.356L3339.84 180.745L3343.9 180.895L3340.78 182.74L3341.13 182.91L3339.66 183.607L3339.79 183.885L3338.89 184.554L3339.1 184.633L3337.44 186.861Z" fill="#FFC856"/>
<path d="M3337.44 186.861L3338.46 184.395L3339.1 184.633L3337.44 186.861Z" fill="#FFC856"/>
<path d="M3343.9 180.895L3340.78 182.74L3340.12 182.422L3342.6 180.847L3343.9 180.895Z" fill="#FFC856"/>
<path d="M3338.46 184.395L3340.12 182.422L3341.13 182.909L3339.66 183.607L3339.79 183.885L3338.89 184.553L3338.46 184.395Z" fill="#FFC856"/>
<path d="M3336.5 188.387C3336.92 188.405 3337.27 188.08 3337.29 187.662C3337.31 187.245 3336.99 186.891 3336.57 186.873C3336.15 186.855 3335.8 187.18 3335.78 187.597C3335.76 188.015 3336.09 188.369 3336.5 188.387Z" fill="#FFC856"/>
<path d="M3337.72 188.852C3338.14 188.87 3338.49 188.546 3338.51 188.128C3338.53 187.71 3338.2 187.357 3337.79 187.339C3337.37 187.321 3337.02 187.645 3337 188.063C3336.98 188.481 3337.3 188.835 3337.72 188.852Z" fill="#FFC856"/>
<path d="M3337.45 187.599C3337.86 187.616 3338.21 187.292 3338.23 186.874C3338.25 186.456 3337.93 186.103 3337.51 186.085C3337.09 186.067 3336.74 186.392 3336.72 186.809C3336.71 187.227 3337.03 187.581 3337.45 187.599Z" fill="#FFC856"/>
</g>
<g clip-path="url(#clip3)">
<path d="M2113.63 74.9658L2113.16 84.7162L2113.9 86.5144L2115.15 76.3013L2113.63 74.9658Z" fill="#001E20"/>
<path d="M2113.9 86.5148L2117.83 86.9939L2120.39 76.9413L2115.15 76.3018L2113.9 86.5148Z" fill="#001E20"/>
<path d="M2113.63 74.9658L2115.15 76.3013L2120.39 76.9408L2118.92 75.6116L2113.63 74.9658Z" fill="#001E20"/>
<path d="M2115.18 64.4678L2114.71 74.2181L2115.47 76.0174L2116.71 65.8129L2115.18 64.4678Z" fill="#001E20"/>
<path d="M2115.47 76.018L2119.39 76.4971L2121.94 66.4519L2116.71 65.8135L2115.47 76.018Z" fill="#001E20"/>
<path d="M2115.18 64.4678L2116.71 65.8129L2121.94 66.4513L2120.47 65.1136L2115.18 64.4678Z" fill="#001E20"/>
<path d="M2116.74 53.9697L2116.27 63.7211L2117.02 65.5194L2118.27 55.3149L2116.74 53.9697Z" fill="#001E20"/>
<path d="M2117.02 65.5199L2120.94 65.999L2123.49 55.9539L2118.27 55.3154L2117.02 65.5199Z" fill="#001E20"/>
<path d="M2116.74 53.9697L2118.27 55.3148L2123.49 55.9533L2122.03 54.6166L2116.74 53.9697Z" fill="#001E20"/>
<path d="M2120.04 43.3367L2118.13 52.9119L2118.6 54.7986L2121.35 44.8903L2120.04 43.3367Z" fill="#001E20"/>
<path d="M2118.6 54.799L2122.41 55.8478L2126.43 46.2867L2121.35 44.8907L2118.6 54.799Z" fill="#001E20"/>
<path d="M2120.04 43.3369L2121.35 44.8906L2126.43 46.2865L2125.18 44.7488L2120.04 43.3369Z" fill="#001E20"/>
<path d="M2125.29 33.4654L2122.25 42.7447L2122.49 44.6726L2126.41 35.161L2125.29 33.4654Z" fill="#001E20"/>
<path d="M2122.49 44.6731L2126.15 46.1652L2131.29 37.151L2126.41 35.1615L2122.49 44.6731Z" fill="#001E20"/>
<path d="M2125.29 33.4658L2126.41 35.1614L2131.29 37.1509L2130.23 35.4798L2125.29 33.4658Z" fill="#001E20"/>
<path d="M2129.06 35.9025L2135.81 34.2619L2134.99 35.512L2141.28 37.2294L2139.81 38.2953L2147.53 44.5081L2146.28 56.9853L2141.16 47.0059L2140.58 48.0667L2138.71 43.3792L2137.82 43.7231L2135.92 40.8171L2135.64 41.4537L2129.06 35.9025Z" fill="#001E20"/>
<path d="M2129.06 35.9023L2136.5 39.5288L2135.64 41.4535L2129.06 35.9023Z" fill="#001E20"/>
<path d="M2146.28 56.9855L2141.16 47.0061L2142.29 45.0529L2146.67 53.0013L2146.28 56.9855Z" fill="#001E20"/>
<path d="M2136.5 39.5282L2142.29 45.052L2140.58 48.066L2138.71 43.3785L2137.82 43.7224L2135.92 40.8164L2136.5 39.5282Z" fill="#001E20"/>
<path d="M2128.53 35.2796L2135.95 30.4373L2135.5 32.299L2143.81 31.7022L2142.49 33.6054L2154.47 37.8116L2158.32 53.3772L2147.88 43.5317L2147.62 45.0499L2143.36 40.1923L2142.44 40.9856L2138.91 38.2899L2138.84 39.1695L2128.53 35.2796Z" fill="#001E20"/>
<path d="M2128.53 35.2806L2139.04 36.4951L2138.84 39.1705L2128.53 35.2806Z" fill="#001E20"/>
<path d="M2158.32 53.3772L2147.88 43.5318L2148.38 40.6918L2157.08 48.401L2158.32 53.3772Z" fill="#001E20"/>
<path d="M2139.04 36.4951L2148.38 40.6926L2147.62 45.0508L2143.36 40.1932L2142.44 40.9866L2138.91 38.2908L2139.04 36.4951Z" fill="#001E20"/>
<path d="M2128.09 35.6531L2124.46 29.9319L2124.17 31.3857L2118.55 28.426L2118.85 30.1876L2109.12 29.5217L2101.4 39.4324L2111.89 35.6082L2111.58 36.7725L2116.13 34.6108L2116.51 35.4585L2119.85 34.6216L2119.62 35.2721L2128.09 35.6531Z" fill="#001E20"/>
<path d="M2128.09 35.6533L2120.34 33.2963L2119.62 35.2723L2128.09 35.6533Z" fill="#001E20"/>
<path d="M2101.4 39.432L2111.89 35.6079L2112.45 33.4295L2103.88 36.2674L2101.4 39.432Z" fill="#001E20"/>
<path d="M2120.34 33.2965L2112.45 33.4303L2111.58 36.773L2116.13 34.6113L2116.51 35.4589L2119.85 34.6221L2120.34 33.2965Z" fill="#001E20"/>
<path d="M2128.89 35.5595L2126.99 27.0613L2126.02 28.7031L2120.58 22.7078L2120.19 24.977L2108.85 20.0037L2095.4 28.7353L2109.55 28.573L2108.69 29.8521L2115.04 29.182L2115.14 30.3701L2119.49 30.7797L2118.93 31.4694L2128.89 35.5595Z" fill="#001E20"/>
<path d="M2128.89 35.5592L2120.63 29.386L2118.93 31.4691L2128.89 35.5592Z" fill="#001E20"/>
<path d="M2095.4 28.7354L2109.55 28.573L2111.16 26.1738L2099.71 25.9425L2095.4 28.7354Z" fill="#001E20"/>
<path d="M2120.63 29.3861L2111.16 26.1735L2108.69 29.8519L2115.04 29.1817L2115.14 30.3699L2119.49 30.7795L2120.63 29.3861Z" fill="#001E20"/>
<path d="M2128.42 36.147L2131.78 27.3937L2132.56 29.2659L2139.33 23.629L2139.39 26.085L2152.31 22.3321L2165.36 33.3672L2150.23 31.3188L2150.95 32.7921L2144.25 31.2332L2143.96 32.479L2139.24 32.3372L2139.72 33.1374L2128.42 36.147Z" fill="#001E20"/>
<path d="M2128.42 36.147L2138.22 30.6982L2139.72 33.1374L2128.42 36.147Z" fill="#001E20"/>
<path d="M2165.36 33.3666L2150.23 31.3183L2148.88 28.5581L2161.19 29.8345L2165.36 33.3666Z" fill="#001E20"/>
<path d="M2138.22 30.6977L2148.88 28.5581L2150.95 32.7916L2144.25 31.2326L2143.96 32.4784L2139.24 32.3366L2138.22 30.6977Z" fill="#001E20"/>
<path d="M2129.18 35.9264L2131.93 26.9942L2130.16 27.9973L2128.3 19.4518L2126.74 21.3512L2118.87 10.5568L2101.79 11.3621L2114.98 18.9132L2113.49 19.6294L2119.73 22.4645L2119.2 23.6272L2123.01 26.3749L2122.13 26.7113L2129.18 35.9264Z" fill="#001E20"/>
<path d="M2129.18 35.9265L2124.81 25.6978L2122.13 26.7113L2129.18 35.9265Z" fill="#001E20"/>
<path d="M2101.79 11.3619L2114.98 18.913L2117.74 17.5518L2107.25 11.1054L2101.79 11.3619Z" fill="#001E20"/>
<path d="M2124.81 25.6982L2117.74 17.5524L2113.49 19.6298L2119.73 22.465L2119.2 23.6276L2123.01 26.3753L2124.81 25.6982Z" fill="#001E20"/>
<path d="M2129.27 34.2826L2127.71 27.5501L2128.97 28.3831L2130.78 22.1673L2131.83 23.6464L2138.19 16.0777L2150.73 17.5316L2140.62 22.4373L2141.68 23.0454L2136.92 24.8257L2137.26 25.712L2134.31 27.5466L2134.94 27.8413L2129.27 34.2826Z" fill="#001E20"/>
<path d="M2129.27 34.2821L2133.03 26.9534L2134.94 27.8408L2129.27 34.2821Z" fill="#001E20"/>
<path d="M2150.73 17.531L2140.62 22.4366L2138.66 21.3004L2146.72 17.0671L2150.73 17.531Z" fill="#001E20"/>
<path d="M2133.03 26.9531L2138.66 21.3003L2141.68 23.0446L2136.92 24.8249L2137.26 25.7112L2134.31 27.5458L2133.03 26.9531Z" fill="#001E20"/>
<path d="M2124.8 38.3003C2126.09 38.4577 2127.26 37.5477 2127.42 36.268C2127.57 34.9882 2126.65 33.8231 2125.37 33.6658C2124.08 33.5084 2122.91 34.4183 2122.75 35.6981C2122.59 36.9779 2123.51 38.1429 2124.8 38.3003Z" fill="#001E20"/>
<path d="M2129.4 41.3706C2130.69 41.528 2131.86 40.6181 2132.01 39.3383C2132.17 38.0585 2131.25 36.8935 2129.96 36.7361C2128.67 36.5787 2127.5 37.4886 2127.35 38.7684C2127.19 40.0482 2128.11 41.2132 2129.4 41.3706Z" fill="#001E20"/>
<path d="M2128.22 37.8286C2129.5 37.986 2130.68 37.0761 2130.83 35.7963C2130.99 34.5165 2130.07 33.3515 2128.78 33.1941C2127.49 33.0367 2126.32 33.9467 2126.17 35.2264C2126.01 36.5062 2126.93 37.6713 2128.22 37.8286Z" fill="#001E20"/>
</g>
<g clip-path="url(#clip4)">
<path d="M2103.47 79.7021L2102.17 86.2549L2101.38 87.3262L2102.23 80.3383L2103.47 79.7021Z" fill="#001E20"/>
<path d="M2101.38 87.3258L2098.69 86.9973L2098.64 79.8994L2102.23 80.3379L2101.38 87.3258Z" fill="#001E20"/>
<path d="M2103.47 79.7021L2102.23 80.3383L2098.64 79.8998L2099.84 79.2593L2103.47 79.7021Z" fill="#001E20"/>
<path d="M2104.16 72.4746L2102.87 79.0274L2102.07 80.098L2102.92 73.116L2104.16 72.4746Z" fill="#001E20"/>
<path d="M2102.07 80.0982L2099.38 79.7697L2099.34 72.6784L2102.92 73.1162L2102.07 80.0982Z" fill="#001E20"/>
<path d="M2104.16 72.4746L2102.92 73.116L2099.34 72.6782L2100.54 72.0318L2104.16 72.4746Z" fill="#001E20"/>
<path d="M2104.86 65.2471L2103.56 71.7991L2102.77 72.8704L2103.62 65.8884L2104.86 65.2471Z" fill="#001E20"/>
<path d="M2102.77 72.8707L2100.08 72.5422L2100.03 65.4509L2103.62 65.8887L2102.77 72.8707Z" fill="#001E20"/>
<path d="M2104.86 65.2471L2103.62 65.8884L2100.03 65.4506L2101.23 64.8035L2104.86 65.2471Z" fill="#001E20"/>
<path d="M2104.42 57.6423L2104.11 64.3152L2103.48 65.4905L2103.29 58.4582L2104.42 57.6423Z" fill="#001E20"/>
<path d="M2103.48 65.4897L2100.77 65.5582L2099.67 58.5465L2103.29 58.4574L2103.48 65.4897Z" fill="#001E20"/>
<path d="M2104.42 57.6416L2103.29 58.4574L2099.67 58.5466L2100.76 57.7316L2104.42 57.6416Z" fill="#001E20"/>
<path d="M2102.54 50.2202L2103.04 56.8843L2102.56 58.1254L2101.52 51.162L2102.54 50.2202Z" fill="#001E20"/>
<path d="M2102.56 58.125L2099.88 58.5128L2097.94 51.6787L2101.52 51.1617L2102.56 58.125Z" fill="#001E20"/>
<path d="M2102.54 50.2197L2101.52 51.1616L2097.94 51.6785L2098.93 50.7434L2102.54 50.2197Z" fill="#001E20"/>
<path d="M2099.64 51.2175L2095.41 49.0151L2095.75 49.9803L2091.28 50.0842L2092.09 51.0346L2085.92 53.8875L2084.7 62.3798L2089.75 56.5955L2089.96 57.3965L2091.98 54.5911L2092.52 54.9667L2094.26 53.3499L2094.34 53.8187L2099.64 51.2175Z" fill="#001E20"/>
<path d="M2099.64 51.2178L2094.09 52.3994L2094.34 53.819L2099.64 51.2178Z" fill="#001E20"/>
<path d="M2084.7 62.3801L2089.75 56.5958L2089.32 55.1134L2085.09 59.6685L2084.7 62.3801Z" fill="#001E20"/>
<path d="M2094.09 52.3998L2089.32 55.1138L2089.96 57.3973L2091.98 54.5919L2092.52 54.9674L2094.26 53.3506L2094.09 52.3998Z" fill="#001E20"/>
<path d="M2100.09 50.8922L2095.95 46.4529L2095.94 47.7629L2090.51 45.997L2091.07 47.4785L2082.41 48.2978L2077.28 57.9996L2085.85 53.1816L2085.77 54.2334L2089.41 51.7092L2089.89 52.3879L2092.68 51.1795L2092.59 51.7756L2100.09 50.8922Z" fill="#001E20"/>
<path d="M2100.09 50.8917L2092.89 49.9648L2092.59 51.7751L2100.09 50.8917Z" fill="#001E20"/>
<path d="M2077.28 57.999L2085.85 53.181L2085.99 51.2133L2078.92 54.8978L2077.28 57.999Z" fill="#001E20"/>
<path d="M2092.89 49.9648L2085.99 51.2134L2085.77 54.2329L2089.41 51.7087L2089.89 52.3874L2092.68 51.179L2092.89 49.9648Z" fill="#001E20"/>
<path d="M2100.32 51.2125L2103.68 48.0107L2103.63 49.0242L2107.86 47.9851L2107.37 49.1051L2113.96 50.2672L2117.46 58.1208L2111.11 53.8534L2111.13 54.6775L2108.45 52.4915L2108.06 52.9919L2105.97 51.8845L2106.02 52.3555L2100.32 51.2125Z" fill="#001E20"/>
<path d="M2100.32 51.2125L2105.87 50.9241L2106.02 52.3556L2100.32 51.2125Z" fill="#001E20"/>
<path d="M2117.46 58.1202L2111.11 53.8527L2111.1 52.3131L2116.34 55.6108L2117.46 58.1202Z" fill="#001E20"/>
<path d="M2105.87 50.9241L2111.1 52.3138L2111.13 54.6776L2108.45 52.4916L2108.06 52.9921L2105.97 51.8846L2105.87 50.9241Z" fill="#001E20"/>
<path d="M2099.81 51.0178L2102.47 45.6876L2102.84 46.9367L2107.45 43.8523L2107.34 45.4237L2115.7 43.99L2123.22 52.0055L2113.83 49.5655L2114.19 50.5578L2110.08 49.0656L2109.81 49.8381L2106.85 49.3926L2107.11 49.9426L2099.81 51.0178Z" fill="#001E20"/>
<path d="M2099.81 51.0181L2106.32 48.279L2107.11 49.9428L2099.81 51.0181Z" fill="#001E20"/>
<path d="M2123.22 52.0056L2113.83 49.5656L2113.15 47.7072L2120.81 49.4412L2123.22 52.0056Z" fill="#001E20"/>
<path d="M2106.32 48.2786L2113.15 47.7069L2114.19 50.5576L2110.07 49.0654L2109.81 49.8379L2106.85 49.3925L2106.32 48.2786Z" fill="#001E20"/>
<path d="M2100.02 51.4846L2099.23 45.1182L2098.4 46.2329L2094.83 41.3742L2094.37 42.9939L2086.39 38.3719L2075.89 43.5499L2086.3 44.6841L2085.58 45.5432L2090.3 45.6128L2090.28 46.4869L2093.45 47.172L2092.99 47.6226L2100.02 51.4846Z" fill="#001E20"/>
<path d="M2100.02 51.4854L2094.39 46.2509L2092.99 47.6234L2100.02 51.4854Z" fill="#001E20"/>
<path d="M2075.89 43.5504L2086.3 44.6846L2087.65 43.0736L2079.25 41.8926L2075.89 43.5504Z" fill="#001E20"/>
<path d="M2094.39 46.2502L2087.65 43.0732L2085.58 45.5433L2090.3 45.6129L2090.28 46.487L2093.45 47.1721L2094.39 46.2502Z" fill="#001E20"/>
<path d="M2099.55 51.213L2099.19 44.8282L2100.2 45.7863L2102.85 40.4179L2103.58 41.9372L2110.59 36.0652L2121.83 39.4164L2111.81 42.2569L2112.68 42.9768L2108.06 43.8309L2108.22 44.6915L2105.23 45.8877L2105.76 46.2567L2099.55 51.213Z" fill="#001E20"/>
<path d="M2099.55 51.2131L2104.14 45.1412L2105.76 46.2569L2099.55 51.2131Z" fill="#001E20"/>
<path d="M2121.83 39.4164L2111.81 42.2569L2110.19 40.8977L2118.24 38.346L2121.83 39.4164Z" fill="#001E20"/>
<path d="M2104.14 45.1407L2110.19 40.8973L2112.68 42.9765L2108.06 43.8306L2108.22 44.6912L2105.23 45.8874L2104.14 45.1407Z" fill="#001E20"/>
<path d="M2099.76 50.1061L2101.91 45.8929L2100.94 46.2388L2100.76 41.8124L2099.81 42.6205L2096.83 36.5471L2088.24 35.4443L2094.16 40.3693L2093.36 40.5989L2096.23 42.5644L2095.85 43.0971L2097.52 44.8019L2097.05 44.8937L2099.76 50.1061Z" fill="#001E20"/>
<path d="M2099.76 50.1062L2098.47 44.6205L2097.05 44.8938L2099.76 50.1062Z" fill="#001E20"/>
<path d="M2088.24 35.4443L2094.16 40.3693L2095.65 39.9374L2090.98 35.7976L2088.24 35.4443Z" fill="#001E20"/>
<path d="M2098.47 44.6207L2095.65 39.9376L2093.36 40.5991L2096.23 42.5646L2095.85 43.0973L2097.52 44.8021L2098.47 44.6207Z" fill="#001E20"/>
<path d="M2102.07 53.5117C2101.19 53.4038 2100.56 52.6065 2100.67 51.7309C2100.78 50.8552 2101.58 50.2329 2102.46 50.3408C2103.35 50.4487 2103.98 51.246 2103.87 52.1216C2103.76 52.9973 2102.96 53.6196 2102.07 53.5117Z" fill="#001E20"/>
<path d="M2098.51 54.793C2097.63 54.6851 2097 53.8878 2097.1 53.0121C2097.21 52.1365 2098.01 51.5141 2098.9 51.622C2099.78 51.7299 2100.41 52.5272 2100.3 53.4029C2100.2 54.2785 2099.39 54.9009 2098.51 54.793Z" fill="#001E20"/>
<path d="M2099.88 52.6358C2099 52.5279 2098.37 51.7305 2098.47 50.8549C2098.58 49.9793 2099.38 49.3569 2100.27 49.4648C2101.15 49.5727 2101.78 50.37 2101.67 51.2456C2101.57 52.1213 2100.76 52.7437 2099.88 52.6358Z" fill="#001E20"/>
</g>
<path d="M1980.72 67H0V252H3460L1980.72 67Z" fill="#007550"/>
<path d="M0 251L3440 251L5000 448.5V773H0V251Z" fill="#007550"/>
<g clip-path="url(#clip5)">
<path d="M1940.28 253.325L1940.55 224.362L1941.59 252.705L1941.3 254.162L1940.28 253.325Z" fill="white"/>
<path d="M1940.29 251.46L1933.68 245.707L1932.41 240.264L1940.31 249.705L1940.29 251.46Z" fill="white"/>
<path d="M1932.42 239.212L1932.66 234.098L1940.36 245.051L1940.33 247.29L1932.42 239.212Z" fill="white"/>
<path d="M1932.95 231.967L1940.37 243.267L1940.4 240.072L1934.09 227.452L1932.95 231.967Z" fill="white"/>
<path d="M1934.88 226.562L1936.25 222.051L1940.46 233.124L1940.44 236.605L1934.88 226.562Z" fill="white"/>
<path d="M1940.49 229.91L1937.45 220.713L1938.6 218.266L1940.53 226.901L1940.49 229.91Z" fill="white"/>
<path d="M1940.51 226.917L1940 218.275L1941.73 218.834L1940.51 226.917Z" fill="white"/>
<path d="M1942.59 219.292L1940.7 227.217C1940.7 227.217 1940.8 231.109 1940.79 230.928C1940.79 230.747 1943.82 221.87 1943.83 221.649C1943.85 221.418 1942.59 219.292 1942.59 219.292Z" fill="white"/>
<path d="M1940.89 233.663L1945.01 223.175L1946.42 227.497L1941.03 237.318L1940.89 233.663Z" fill="white"/>
<path d="M1941.15 240.52L1947.17 229.097L1948.37 233.069L1941.25 243.318L1941.15 240.52Z" fill="white"/>
<path d="M1941.31 245.033L1948.69 235.027L1948.9 239.966L1941.4 247.473L1941.31 245.033Z" fill="white"/>
<path d="M1941.49 249.989L1949.14 241.467L1947.99 246.385L1941.56 251.733L1941.49 249.989Z" fill="white"/>
</g>
<g clip-path="url(#clip6)">
<path d="M2802.31 288.128L2802.93 221.557L2805.33 286.702L2804.66 290.05L2802.31 288.128Z" fill="#001E20"/>
<path d="M2802.34 283.842L2787.15 270.617L2784.22 258.107L2802.39 279.807L2802.34 283.842Z" fill="#001E20"/>
<path d="M2784.25 255.689L2784.81 243.935L2802.49 269.111L2802.44 274.256L2784.25 255.689Z" fill="#001E20"/>
<path d="M2785.47 239.038L2802.52 265.011L2802.6 257.668L2788.08 228.659L2785.47 239.038Z" fill="#001E20"/>
<path d="M2789.91 226.613L2793.06 216.246L2802.74 241.696L2802.67 249.698L2789.91 226.613Z" fill="#001E20"/>
<path d="M2802.81 234.309L2795.82 213.17L2798.44 207.546L2802.88 227.394L2802.81 234.309Z" fill="#001E20"/>
<path d="M2802.85 227.429L2801.66 207.565L2805.65 208.851L2802.85 227.429Z" fill="#001E20"/>
<path d="M2807.62 209.903L2803.28 228.12C2803.28 228.12 2803.51 237.066 2803.49 236.649C2803.48 236.233 2810.45 215.83 2810.47 215.322C2810.52 214.791 2807.62 209.903 2807.62 209.903Z" fill="#001E20"/>
<path d="M2803.73 242.936L2813.18 218.831L2816.44 228.765L2804.03 251.336L2803.73 242.936Z" fill="#001E20"/>
<path d="M2804.31 258.696L2818.15 232.44L2820.91 241.569L2804.54 265.126L2804.31 258.696Z" fill="#001E20"/>
<path d="M2804.69 269.068L2821.63 246.07L2822.12 257.422L2804.89 274.677L2804.69 269.068Z" fill="#001E20"/>
<path d="M2805.1 280.459L2822.67 260.871L2820.03 272.176L2805.25 284.468L2805.1 280.459Z" fill="#001E20"/>
</g>
<g clip-path="url(#clip7)">
<path d="M2781.31 303.257L2781.93 236.686L2784.33 301.831L2783.66 305.179L2781.31 303.257Z" fill="white"/>
<path d="M2781.34 298.971L2766.15 285.746L2763.22 273.236L2781.39 294.936L2781.34 298.971Z" fill="white"/>
<path d="M2763.25 270.818L2763.81 259.064L2781.49 284.24L2781.44 289.385L2763.25 270.818Z" fill="white"/>
<path d="M2764.47 254.167L2781.52 280.14L2781.6 272.797L2767.08 243.788L2764.47 254.167Z" fill="white"/>
<path d="M2768.91 241.742L2772.06 231.375L2781.74 256.825L2781.67 264.827L2768.91 241.742Z" fill="white"/>
<path d="M2781.81 249.438L2774.82 228.299L2777.44 222.675L2781.88 242.523L2781.81 249.438Z" fill="white"/>
<path d="M2781.85 242.558L2780.66 222.694L2784.65 223.98L2781.85 242.558Z" fill="white"/>
<path d="M2786.62 225.032L2782.28 243.249C2782.28 243.249 2782.51 252.195 2782.49 251.778C2782.48 251.362 2789.45 230.958 2789.47 230.451C2789.52 229.92 2786.62 225.032 2786.62 225.032Z" fill="white"/>
<path d="M2782.73 258.065L2792.18 233.96L2795.44 243.894L2783.03 266.465L2782.73 258.065Z" fill="white"/>
<path d="M2783.31 273.825L2797.15 247.569L2799.91 256.697L2783.54 280.255L2783.31 273.825Z" fill="white"/>
<path d="M2783.69 284.197L2800.63 261.199L2801.12 272.551L2783.89 289.806L2783.69 284.197Z" fill="white"/>
<path d="M2784.1 295.588L2801.67 276L2799.03 287.305L2784.25 299.596L2784.1 295.588Z" fill="white"/>
</g>
<defs>
<clipPath id="clip0">
<rect width="155" height="169" fill="white" transform="matrix(-1 0 0 1 2458 0)"/>
</clipPath>
<clipPath id="clip1">
<rect width="39.1095" height="42.8701" fill="white" transform="matrix(-0.903168 0.429287 0.429287 0.903168 3317.32 163)"/>
</clipPath>
<clipPath id="clip2">
<rect width="22.4936" height="24.6564" fill="white" transform="translate(3326.74 179.162) rotate(2.46482)"/>
</clipPath>
<clipPath id="clip3">
<rect width="70" height="76" fill="white" transform="translate(2097.94 8) rotate(6.96257)"/>
</clipPath>
<clipPath id="clip4">
<rect width="48" height="52" fill="white" transform="matrix(-0.992626 -0.121221 -0.121221 0.992626 2124.95 37.8184)"/>
</clipPath>
<clipPath id="clip5">
<rect width="28.0532" height="26.021" fill="white" transform="matrix(0.667702 -0.744429 0.780171 0.625566 1921 237.884)"/>
</clipPath>
<clipPath id="clip6">
<rect width="64.4792" height="59.8084" fill="white" transform="matrix(0.667702 -0.744429 0.780171 0.625566 2758 252.637)"/>
</clipPath>
<clipPath id="clip7">
<rect width="64.4792" height="59.8084" fill="white" transform="matrix(0.667702 -0.744429 0.780171 0.625566 2737 267.766)"/>
</clipPath>
</defs>
</svg>
