<svg width="5000" height="887" viewBox="0 0 5000 887" fill="none" xmlns="http://www.w3.org/2000/svg">
<path d="M3075.79 185.5H5000V887H-3.5V557L2311.64 278.25L3075.79 185.5Z" fill="#FFC856"/>
<g clip-path="url(#clip0)">
<path d="M3058.63 326.009L3020.24 343.841L3040.11 343.362L3082.39 342.359L3097.93 318.883L3102.64 321.041L3102.63 322.453L3107.7 323.608L3102.2 337.099L3108.04 336.201L3101.54 367.268L3144.38 344.43L3127.81 315.536L3136.52 316.337L3140.3 321.658L3142.62 319.703L3163.51 343.145L3167.91 317.265L3136.75 300.612L3142.58 299.014L3127.58 295.144L3153.21 294.947L3145.4 290.83L3187.9 278.835L3182.7 242.405L3153.88 267.038L3150.8 263.614L3140.15 275.587L3135.41 273.957L3132.38 275.919L3130.1 275.477L3148.76 253.652L3112.12 221.495L3114.39 251.429L3109.15 249.069L3109.25 249.49L3082.83 236.176L3069.79 229.593L3086.37 253.349L3081.66 252.199L3090.87 262.738L3087.5 263.194L3091.25 270.603L3088.61 269.824L3088.39 276.503C3088.01 276.421 3087.63 276.338 3087.22 276.267C3083.51 275.638 3080.13 276.2 3078.31 277.561L3058.83 272.179L3053.84 271.973L3056.16 267.248L3017.44 259.129L3012.39 259.261L3013.03 255.755L2973.77 250.608L2970.08 251.029L2970.64 248.003L2931.37 242.857L2927.69 243.277L2928.24 240.251L2888.98 235.105L2881.84 235.91L2880.36 243.991L2921.15 253.655L2924.36 252.108L2963.54 261.442L2966.75 259.895L3005.92 269.229L3008.82 267.831L3045.13 279.56L3046.12 279.232L3065.58 286.999C3065.43 287.284 3065.3 287.592 3065.24 287.913C3064.75 290.565 3068.55 293.43 3073.71 294.307C3075.2 294.56 3076.62 294.617 3077.92 294.509L3065.66 301.069L3068.24 301.949L3056.78 304.717L3058.27 306.732L3039.63 308.668L3043.93 310.371L3004.43 316.892L3020.53 319.444L3053.18 324.623L3052.6 324.837L3058.63 326.009ZM3121 304.579L3121.35 304.198L3124.6 307.136L3121 304.579ZM3130.16 311.108L3132.59 310.879L3135.43 314.867L3130.16 311.108ZM3112.57 262.773L3109.57 262.593L3110.25 253.588L3112.57 262.773ZM3069.48 316.456L3071.54 317.888L3058.77 322.527L3069.48 316.456Z" fill="#001E20" fill-opacity="0.1"/>
<g clip-path="url(#clip1)">
<path d="M2882.79 261.295L2945.7 267.653L2884.3 259.837L2881.1 259.856L2882.79 261.295Z" fill="#001E20" fill-opacity="0.1"/>
<path d="M2886.84 261.71L2898.51 271.113L2910.17 273.921L2890.65 262.093L2886.84 261.71Z" fill="#001E20" fill-opacity="0.1"/>
<path d="M2912.46 274.149L2923.59 275.033L2900.76 263.113L2895.9 262.623L2912.46 274.149Z" fill="#001E20" fill-opacity="0.1"/>
<path d="M2928.25 275.172L2904.63 263.506L2911.57 264.205L2938.19 274.832L2928.25 275.172Z" fill="#001E20" fill-opacity="0.1"/>
<path d="M2940.22 274.062L2950.18 273.43L2926.66 265.733L2919.1 264.964L2940.22 274.062Z" fill="#001E20" fill-opacity="0.1"/>
<path d="M2933.65 266.438L2953.24 272.273L2958.69 271.444L2940.18 267.093L2933.65 266.438Z" fill="#001E20" fill-opacity="0.1"/>
<path d="M2940.15 267.107L2958.84 269.733L2957.84 267.485L2940.15 267.107Z" fill="#001E20" fill-opacity="0.1"/>
<path d="M2956.96 266.332L2939.52 266.809C2939.52 266.809 2931.08 265.791 2931.47 265.839C2931.86 265.887 2951.51 264.236 2951.99 264.272C2952.49 264.3 2956.96 266.332 2956.96 266.332Z" fill="#001E20" fill-opacity="0.1"/>
<path d="M2925.55 265.085L2948.82 262.484L2939.61 259.755L2917.63 264.078L2925.55 265.085Z" fill="#001E20" fill-opacity="0.1"/>
<path d="M2910.69 263.191L2936.23 258.473L2927.76 256.089L2904.63 262.422L2910.69 263.191Z" fill="#001E20" fill-opacity="0.1"/>
<path d="M2900.92 261.947L2923.55 255.255L2912.85 253.856L2895.63 261.278L2900.92 261.947Z" fill="#001E20" fill-opacity="0.1"/>
<path d="M2890.18 260.585L2909.62 253.218L2898.81 253.485L2886.4 260.1L2890.18 260.585Z" fill="#001E20" fill-opacity="0.1"/>
</g>
<g clip-path="url(#clip2)">
<path d="M2876.7 261.64L2906.46 288.089L2878.19 261.464L2876.51 260.291L2876.7 261.64Z" fill="#001E20" fill-opacity="0.1"/>
<path d="M2878.61 263.346L2880.18 272.392L2884.91 278.114L2880.42 264.948L2878.61 263.346Z" fill="#001E20" fill-opacity="0.1"/>
<path d="M2885.99 279.074L2891.38 283.632L2885.2 269.197L2882.9 267.154L2885.99 279.074Z" fill="#001E20" fill-opacity="0.1"/>
<path d="M2893.74 285.425L2887.03 270.827L2890.32 273.743L2899.09 288.928L2893.74 285.425Z" fill="#001E20" fill-opacity="0.1"/>
<path d="M2900.52 289.291L2906.03 292.654L2897.46 280.089L2893.88 276.908L2900.52 289.291Z" fill="#001E20" fill-opacity="0.1"/>
<path d="M2900.76 283.025L2908.18 293.201L2911.42 294.799L2903.86 285.77L2900.76 283.025Z" fill="#001E20" fill-opacity="0.1"/>
<path d="M2903.83 285.763L2912.32 293.995L2912.88 292.494L2903.83 285.763Z" fill="#001E20" fill-opacity="0.1"/>
<path d="M2912.97 291.585L2903.65 285.38C2903.65 285.38 2899.73 281.75 2899.91 281.919C2900.1 282.088 2911.14 288.517 2911.37 288.714C2911.62 288.914 2912.97 291.585 2912.97 291.585Z" fill="#001E20" fill-opacity="0.1"/>
<path d="M2897.19 279.35L2910.58 286.643L2907.09 281.867L2893.54 275.917L2897.19 279.35Z" fill="#001E20" fill-opacity="0.1"/>
<path d="M2890.35 272.908L2905.94 279.973L2902.67 275.642L2887.55 270.281L2890.35 272.908Z" fill="#001E20" fill-opacity="0.1"/>
<path d="M2885.84 268.669L2900.87 273.666L2895.96 269.009L2883.41 266.379L2885.84 268.669Z" fill="#001E20" fill-opacity="0.1"/>
<path d="M2880.9 264.016L2894.59 267.495L2888.81 263.631L2879.16 262.376L2880.9 264.016Z" fill="#001E20" fill-opacity="0.1"/>
</g>
</g>
<g clip-path="url(#clip3)">
<path d="M2865.03 202.205L2867.34 232.693L2870.43 238V205.779L2865.03 202.205Z" fill="#FFC856"/>
<path d="M2870.43 238H2883.19L2887.47 205.779H2870.43V238Z" fill="#FF513F"/>
<path d="M2865.03 202.205L2870.43 205.779H2887.47L2882.24 202.205H2865.03Z" fill="#001E20"/>
<path d="M2865.9 168.982L2868.21 199.47L2871.33 204.777V172.584L2865.9 168.982Z" fill="#FFC856"/>
<path d="M2871.33 204.778H2884.09L2888.34 172.584H2871.33V204.778Z" fill="#FF513F"/>
<path d="M2865.9 168.982L2871.33 172.584H2888.34L2883.11 168.982H2865.9Z" fill="#001E20"/>
<path d="M2866.77 135.76L2869.11 166.248L2872.2 171.555V139.361L2866.77 135.76Z" fill="#FFC856"/>
<path d="M2872.2 171.555H2884.97L2889.21 139.361H2872.2V171.555Z" fill="#FF513F"/>
<path d="M2866.77 135.76L2872.2 139.361H2889.21L2884.01 135.76H2866.77Z" fill="#001E20"/>
<path d="M2873.18 101.455L2870.82 131.943L2873.07 137.629L2877.99 105.787L2873.18 101.455Z" fill="#FFC856"/>
<path d="M2873.07 137.629L2885.7 139.443L2894.84 108.197L2877.99 105.787L2873.07 137.629Z" fill="#FF513F"/>
<path d="M2873.18 101.455L2877.99 105.787L2894.84 108.197L2890.22 103.892L2873.18 101.455Z" fill="#001E20"/>
<path d="M2886.18 68.7734L2880.05 98.7739L2881.56 104.677L2890.42 73.6201L2886.18 68.7734Z" fill="#FFC856"/>
<path d="M2881.56 104.677L2893.88 107.926L2906.84 77.9523L2890.42 73.6201L2881.56 104.677Z" fill="#FF513F"/>
<path d="M2886.18 68.7734L2890.42 73.6201L2906.84 77.9523L2902.79 73.1598L2886.18 68.7734Z" fill="#FFB300"/>
<path d="M2899.19 74.9204L2920.2 67.2578L2918.06 71.4546L2938.9 74.4059L2934.6 78.2778L2961.79 94.659L2962.66 133.919L2942.36 104.84L2940.89 108.36L2933.08 94.4965L2930.35 95.9045L2923.12 87.5921L2922.48 89.6769L2899.19 74.9204Z" fill="#007550"/>
<path d="M2899.19 74.9199L2924.47 83.3677L2922.48 89.6765L2899.19 74.9199Z" fill="#001E20"/>
<path d="M2962.66 133.919L2942.36 104.839L2945.2 98.3408L2962.38 121.383L2962.66 133.919Z" fill="#001E20"/>
<path d="M2924.47 83.3682L2945.2 98.3413L2940.89 108.36L2933.08 94.4965L2930.35 95.9045L2923.12 87.5921L2924.47 83.3682Z" fill="#001E20"/>
<path d="M2897.25 73.1867L2919.16 55.3164L2918.46 61.2732L2944.86 56.2641L2941.37 62.6811L2981.41 71.2102L2999.86 118.133L2962.55 91.4902L2962.29 96.3098L2946.74 82.8259L2944.1 85.6418L2931.73 78.602L2931.84 81.3637L2897.25 73.1867Z" fill="#007550"/>
<path d="M2897.25 73.1873L2931.45 72.9707L2931.84 81.3643L2897.25 73.1873Z" fill="#001E20"/>
<path d="M2999.86 118.134L2962.55 91.491L2963.02 82.4746L2993.96 103.134L2999.86 118.134Z" fill="#001E20"/>
<path d="M2931.45 72.9707L2963.02 82.4745L2962.29 96.3104L2946.74 82.8265L2944.1 85.6424L2931.73 78.6026L2931.45 72.9707Z" fill="#001E20"/>
<path d="M2895.99 74.514L2882.13 58.1058L2881.76 62.7358L2862.58 55.6689L2864.24 61.03L2832.78 62.6546L2811.91 96.3916L2844.02 80.5249L2843.49 84.2614L2857.24 75.8136L2858.79 78.3047L2869.19 74.4328L2868.69 76.5447L2895.99 74.514Z" fill="#007550"/>
<path d="M2895.99 74.5133L2870.23 70.127L2868.69 76.544L2895.99 74.5133Z" fill="#001E20"/>
<path d="M2811.91 96.3914L2844.02 80.5247L2844.98 73.5391L2818.6 85.6151L2811.91 96.3914Z" fill="#001E20"/>
<path d="M2870.23 70.127L2844.98 73.5386L2843.49 84.2607L2857.24 75.813L2858.79 78.304L2869.19 74.4321L2870.23 70.127Z" fill="#001E20"/>
<path d="M2898.52 73.9177L2889.1 48.2223L2886.65 53.6917L2866.86 37.1211L2866.49 44.3234L2828.19 33.168L2788.49 65.4157L2833.79 59.5402L2831.51 63.8453L2851.62 59.3507L2852.4 63.006L2866.52 62.6269L2865 64.9825L2898.52 73.9177Z" fill="#007550"/>
<path d="M2898.52 73.9185L2869.64 57.8623L2865 64.9833L2898.52 73.9185Z" fill="#001E20"/>
<path d="M2788.49 65.4159L2833.79 59.5404L2838.01 51.4717L2801.2 55.0999L2788.49 65.4159Z" fill="#001E20"/>
<path d="M2869.64 57.8617L2838.01 51.4717L2831.51 63.8455L2851.62 59.3509L2852.4 63.0062L2866.52 62.6271L2869.64 57.8617Z" fill="#001E20"/>
<path d="M2897.25 75.9216L2904.59 47.4375L2907.83 52.961L2927.31 32.8704L2928.49 40.4789L2968.45 23.9082L3014.59 53.2588L2965.27 52.6361L2968.17 56.9412L2946.07 54.6397L2945.65 58.6199L2930.43 59.9737L2932.32 62.2752L2897.25 75.9216Z" fill="#007550"/>
<path d="M2897.25 75.9218L2926.55 55.2627L2932.32 62.2754L2897.25 75.9218Z" fill="#001E20"/>
<path d="M3014.6 53.2587L2965.27 52.636L2959.88 44.5673L2999.83 43.8633L3014.6 53.2587Z" fill="#001E20"/>
<path d="M2926.55 55.2625L2959.88 44.5674L2968.17 56.9412L2946.07 54.6397L2945.65 58.6199L2930.43 59.9738L2926.55 55.2625Z" fill="#001E20"/>
<path d="M2899.62 74.947L2904.93 46.1379L2899.64 49.9286L2890.34 24.0708L2886.06 30.5691L2856.62 0L2802.16 8.98931L2847.4 27.4553L2842.93 30.2441L2864.05 36.6883L2862.78 40.506L2876.08 47.6L2873.38 48.9809L2899.62 74.947Z" fill="#007550"/>
<path d="M2899.62 74.9474L2881.59 44.8115L2873.38 48.9813L2899.62 74.9474Z" fill="#001E20"/>
<path d="M2802.16 8.98922L2847.4 27.4552L2855.72 22.1753L2819.56 6.11914L2802.16 8.98922Z" fill="#001E20"/>
<path d="M2881.59 44.8115L2855.72 22.1758L2842.93 30.2445L2864.05 36.6886L2862.78 40.5064L2876.08 47.6004L2881.59 44.8115Z" fill="#001E20"/>
<path d="M2899.25 69.8025L2891.6 49.4682L2895.96 51.5802L2899.33 31.5709L2903.3 35.7677L2920.71 9.82865L2961.51 9.58496L2931 28.6737L2934.62 30.1629L2920.09 37.5005L2921.52 40.1269L2912.78 46.9501L2914.91 47.6271L2899.25 69.8025Z" fill="#007550"/>
<path d="M2899.25 69.8028L2908.42 45.5967L2914.91 47.6274L2899.25 69.8028Z" fill="#001E20"/>
<path d="M2961.51 9.58496L2931 28.6737L2924.28 25.8848L2948.46 9.66619L2961.51 9.58496Z" fill="#001E20"/>
<path d="M2908.42 45.5963L2924.28 25.8848L2934.62 30.1628L2920.09 37.5005L2921.52 40.1269L2912.78 46.9501L2908.42 45.5963Z" fill="#001E20"/>
<path d="M2890.5 84.9034C2894.69 84.9034 2898.09 81.6303 2898.09 77.5928C2898.09 73.5553 2894.69 70.2822 2890.5 70.2822C2886.31 70.2822 2882.91 73.5553 2882.91 77.5928C2882.91 81.6303 2886.31 84.9034 2890.5 84.9034Z" fill="black"/>
<path d="M2902.92 88.8965C2907.12 88.8965 2910.51 85.6235 2910.51 81.586C2910.51 77.5484 2907.12 74.2754 2902.92 74.2754C2898.73 74.2754 2895.33 77.5484 2895.33 81.586C2895.33 85.6235 2898.73 88.8965 2902.92 88.8965Z" fill="black"/>
<path d="M2899.61 76.9161C2903.8 76.9161 2907.2 73.643 2907.2 69.6055C2907.2 65.568 2903.8 62.2949 2899.61 62.2949C2895.42 62.2949 2892.02 65.568 2892.02 69.6055C2892.02 73.643 2895.42 76.9161 2899.61 76.9161Z" fill="black"/>
</g>
<g clip-path="url(#clip4)">
<path d="M2877.05 257.488L2907.71 208.298L2880.02 257.607L2877.99 259.832L2877.05 257.488Z" fill="#007550"/>
<path d="M2879.02 254.317L2873.31 238.556L2876.73 228.126L2880.88 251.337L2879.02 254.317Z" fill="#007550"/>
<path d="M2877.85 226.341L2883.61 217.831L2885.81 243.435L2883.44 247.235L2877.85 226.341Z" fill="#007550"/>
<path d="M2886.34 214.454L2887.69 240.404L2891.08 234.98L2893.05 207.765L2886.34 214.454Z" fill="#007550"/>
<path d="M2895.39 206.964L2902.52 200.497L2898.43 223.176L2894.75 229.093L2895.39 206.964Z" fill="#007550"/>
<path d="M2901.84 217.718L2906.04 199.291L2910.61 196.141L2905.03 212.612L2901.84 217.718Z" fill="#007550"/>
<path d="M2904.99 212.626L2913.08 197.412L2915.57 199.926L2904.99 212.626Z" fill="#007550"/>
<path d="M2916.61 201.478L2905.01 213.308C2905.01 213.308 2901.12 220.038 2901.3 219.724C2901.48 219.41 2916.1 206.983 2916.35 206.616C2916.63 206.241 2916.61 201.478 2916.61 201.478Z" fill="#007550"/>
<path d="M2898.63 224.483L2916.84 210.278L2914.85 218.929L2895.06 230.84L2898.63 224.483Z" fill="#007550"/>
<path d="M2891.93 236.413L2914.5 222.329L2912.49 230.186L2889.2 241.278L2891.93 236.413Z" fill="#007550"/>
<path d="M2887.52 244.263L2911 233.809L2906.23 242.429L2885.13 248.505L2887.52 244.263Z" fill="#007550"/>
<path d="M2882.67 252.882L2905.09 245.205L2897.93 252.566L2880.98 255.919L2882.67 252.882Z" fill="#007550"/>
</g>
<g clip-path="url(#clip5)">
<path d="M2878.07 258.063L2857.93 225.761L2876.12 258.141L2877.45 259.603L2878.07 258.063Z" fill="#001E20"/>
<path d="M2876.78 255.981L2880.52 245.631L2878.28 238.781L2875.55 254.024L2876.78 255.981Z" fill="#001E20"/>
<path d="M2877.54 237.609L2873.76 232.021L2872.32 248.834L2873.87 251.33L2877.54 237.609Z" fill="#001E20"/>
<path d="M2871.97 229.804L2871.08 246.844L2868.85 243.282L2867.56 225.411L2871.97 229.804Z" fill="#001E20"/>
<path d="M2866.02 224.885L2861.34 220.638L2864.03 235.531L2866.44 239.417L2866.02 224.885Z" fill="#001E20"/>
<path d="M2861.79 231.947L2859.03 219.846L2856.03 217.777L2859.69 228.594L2861.79 231.947Z" fill="#001E20"/>
<path d="M2859.72 228.603L2854.41 218.612L2852.77 220.263L2859.72 228.603Z" fill="#001E20"/>
<path d="M2852.09 221.282L2859.71 229.051C2859.71 229.051 2862.26 233.471 2862.14 233.264C2862.02 233.058 2852.42 224.898 2852.26 224.657C2852.08 224.41 2852.09 221.282 2852.09 221.282Z" fill="#001E20"/>
<path d="M2863.9 236.389L2851.94 227.061L2853.25 232.742L2866.24 240.564L2863.9 236.389Z" fill="#001E20"/>
<path d="M2868.29 244.224L2853.47 234.974L2854.8 240.134L2870.09 247.418L2868.29 244.224Z" fill="#001E20"/>
<path d="M2871.19 249.379L2855.77 242.514L2858.91 248.174L2872.76 252.164L2871.19 249.379Z" fill="#001E20"/>
<path d="M2874.37 255.039L2859.66 249.997L2864.36 254.831L2875.49 257.033L2874.37 255.039Z" fill="#001E20"/>
</g>
<g clip-path="url(#clip6)">
<path d="M3293.22 299.524L3293.94 224.954L3296.72 297.926L3295.95 301.677L3293.22 299.524Z" fill="#007550"/>
<path d="M3293.26 294.722L3275.6 279.908L3272.21 265.896L3293.31 290.203L3293.26 294.722Z" fill="#007550"/>
<path d="M3272.24 263.187L3272.89 250.021L3293.42 278.222L3293.36 283.985L3272.24 263.187Z" fill="#007550"/>
<path d="M3273.66 244.535L3293.46 273.629L3293.55 265.404L3276.68 232.91L3273.66 244.535Z" fill="#007550"/>
<path d="M3278.81 230.617L3282.47 219.004L3293.71 247.512L3293.64 256.476L3278.81 230.617Z" fill="#007550"/>
<path d="M3293.79 239.238L3285.68 215.559L3288.73 209.259L3293.88 231.491L3293.79 239.238Z" fill="#007550"/>
<path d="M3293.84 231.531L3292.46 209.28L3297.1 210.721L3293.84 231.531Z" fill="#007550"/>
<path d="M3299.39 211.899L3294.34 232.305C3294.34 232.305 3294.61 242.325 3294.59 241.859C3294.58 241.392 3302.67 218.538 3302.7 217.969C3302.76 217.374 3299.39 211.899 3299.39 211.899Z" fill="#007550"/>
<path d="M3294.86 248.901L3305.84 221.9L3309.63 233.028L3295.22 258.311L3294.86 248.901Z" fill="#007550"/>
<path d="M3295.54 266.555L3311.62 237.144L3314.83 247.369L3295.81 273.757L3295.54 266.555Z" fill="#007550"/>
<path d="M3295.98 278.173L3315.67 252.412L3316.23 265.128L3296.21 284.455L3295.98 278.173Z" fill="#007550"/>
<path d="M3296.46 290.933L3316.87 268.992L3313.8 281.654L3296.64 295.423L3296.46 290.933Z" fill="#007550"/>
</g>
<g clip-path="url(#clip7)">
<path d="M3296.13 300.066L3381.57 313.571L3298.31 298.328L3293.94 298.079L3296.13 300.066Z" fill="#001E20" fill-opacity="0.1"/>
<path d="M3301.63 300.942L3316.79 313.973L3332.48 318.562L3306.81 301.758L3301.63 300.942Z" fill="#001E20" fill-opacity="0.1"/>
<path d="M3335.59 319.05L3350.72 321.131L3320.53 303.926L3313.93 302.885L3335.59 319.05Z" fill="#001E20" fill-opacity="0.1"/>
<path d="M3357.08 321.706L3325.8 304.76L3335.22 306.246L3370.7 322.119L3357.08 321.706Z" fill="#001E20" fill-opacity="0.1"/>
<path d="M3373.54 321.307L3387.21 321.348L3355.72 309.49L3345.45 307.86L3373.54 321.307Z" fill="#001E20" fill-opacity="0.1"/>
<path d="M3365.2 310.989L3391.48 320.128L3399 319.533L3374.08 312.384L3365.2 310.989Z" fill="#001E20" fill-opacity="0.1"/>
<path d="M3374.03 312.399L3399.36 317.355L3398.18 314.392L3374.03 312.399Z" fill="#001E20" fill-opacity="0.1"/>
<path d="M3397.07 312.841L3373.19 311.963C3373.19 311.963 3361.75 309.94 3362.28 310.036C3362.81 310.131 3389.8 309.693 3390.46 309.781C3391.14 309.86 3397.07 312.841 3397.07 312.841Z" fill="#001E20" fill-opacity="0.1"/>
<path d="M3354.25 308.564L3386.28 307.222L3373.93 302.943L3343.51 306.6L3354.25 308.564Z" fill="#001E20" fill-opacity="0.1"/>
<path d="M3334.11 304.874L3369.42 301.014L3358.04 297.24L3325.89 303.372L3334.11 304.874Z" fill="#001E20" fill-opacity="0.1"/>
<path d="M3320.85 302.447L3352.35 295.813L3337.85 293.109L3313.68 301.141L3320.85 302.447Z" fill="#001E20" fill-opacity="0.1"/>
<path d="M3306.29 299.788L3333.49 292.018L3318.68 291.437L3301.17 298.846L3306.29 299.788Z" fill="#001E20" fill-opacity="0.1"/>
</g>
<defs>
<clipPath id="clip0">
<rect width="145.496" height="308.742" fill="white" transform="matrix(-0.179765 0.98371 -0.985876 -0.167475 3195.78 235.707)"/>
</clipPath>
<clipPath id="clip1">
<rect width="51.0382" height="43.3926" fill="white" transform="matrix(0.933578 -0.353704 -0.756605 -0.65787 2913.93 288.402)"/>
</clipPath>
<clipPath id="clip2">
<rect width="33.0454" height="28.4706" fill="white" transform="matrix(1.01519 0.257999 -0.119365 -0.930739 2879.91 286.79)"/>
</clipPath>
<clipPath id="clip3">
<rect width="226.106" height="238" fill="white" transform="translate(2788.49)"/>
</clipPath>
<clipPath id="clip4">
<rect width="58.056" height="49.7746" fill="white" transform="matrix(0.946037 -0.324059 0.381091 0.924537 2859.02 213.813)"/>
</clipPath>
<clipPath id="clip5">
<rect width="38.125" height="32.6866" fill="white" transform="matrix(-0.946037 -0.324059 -0.381092 0.924537 2889.91 229.383)"/>
</clipPath>
<clipPath id="clip6">
<rect width="73.436" height="68.5215" fill="white" transform="matrix(0.681124 -0.732168 0.791148 0.611625 3241.74 259.768)"/>
</clipPath>
<clipPath id="clip7">
<rect width="69.0004" height="58.1967" fill="white" transform="matrix(0.965992 -0.275948 -0.729395 -0.675983 3336.39 337.419)"/>
</clipPath>
</defs>
</svg>
