<svg width="5000" height="773" viewBox="0 0 5000 773" fill="none" xmlns="http://www.w3.org/2000/svg">
<g clip-path="url(#clip0)">
<path d="M2405.53 143.583L2403.95 165.232L2401.83 169V146.121L2405.53 143.583Z" fill="#FFC856"/>
<path d="M2401.83 169H2393.08L2390.15 146.12H2401.83V169Z" fill="#FF513F"/>
<path d="M2405.53 143.583L2401.83 146.121H2390.15L2393.73 143.583H2405.53Z" fill="#001E20"/>
<path d="M2404.93 119.992L2403.35 141.641L2401.21 145.409V122.549L2404.93 119.992Z" fill="#FFC856"/>
<path d="M2401.21 145.409H2392.46L2389.55 122.549H2401.21V145.409Z" fill="#FF513F"/>
<path d="M2404.93 119.992L2401.21 122.549H2389.55L2393.14 119.992H2404.93Z" fill="#001E20"/>
<path d="M2404.33 96.4014L2402.74 118.05L2400.61 121.819V98.9585L2404.33 96.4014Z" fill="#FFC856"/>
<path d="M2400.61 121.818H2391.86L2388.95 98.958H2400.61V121.818Z" fill="#FF513F"/>
<path d="M2404.33 96.4014L2400.61 98.9584H2388.95L2392.52 96.4014H2404.33Z" fill="#001E20"/>
<path d="M2399.94 72.041L2401.56 93.6899L2400.02 97.7275L2396.64 75.1172L2399.94 72.041Z" fill="#FFC856"/>
<path d="M2400.02 97.7274L2391.36 99.0156L2385.1 76.8283L2396.64 75.1172L2400.02 97.7274Z" fill="#FF513F"/>
<path d="M2399.94 72.041L2396.64 75.1172L2385.1 76.8284L2388.26 73.7714L2399.94 72.041Z" fill="#001E20"/>
<path d="M2391.03 48.835L2395.24 70.1378L2394.2 74.3292L2388.12 52.2765L2391.03 48.835Z" fill="#FFC856"/>
<path d="M2394.2 74.329L2385.75 76.6362L2376.87 55.3526L2388.12 52.2764L2394.2 74.329Z" fill="#FF513F"/>
<path d="M2391.03 48.835L2388.12 52.2765L2376.87 55.3527L2379.64 51.9496L2391.03 48.835Z" fill="#FFB300"/>
<path d="M2382.11 53.1989L2367.71 47.7578L2369.18 50.7379L2354.89 52.8336L2357.84 55.583L2339.2 67.2149L2338.6 95.0932L2352.52 74.4441L2353.52 76.9435L2358.88 67.0996L2360.75 68.0993L2365.71 62.1968L2366.15 63.6773L2382.11 53.1989Z" fill="#007550"/>
<path d="M2382.11 53.1992L2364.78 59.1978L2366.15 63.6776L2382.11 53.1992Z" fill="#001E20"/>
<path d="M2338.6 95.0935L2352.52 74.4444L2350.57 69.8301L2338.8 86.1917L2338.6 95.0935Z" fill="#001E20"/>
<path d="M2364.78 59.1982L2350.57 69.8304L2353.52 76.9442L2358.88 67.1003L2360.75 68.1001L2365.71 62.1976L2364.78 59.1982Z" fill="#001E20"/>
<path d="M2383.44 51.9687L2368.42 39.2793L2368.91 43.5091L2350.81 39.9522L2353.2 44.5089L2325.75 50.5652L2313.1 83.8846L2338.68 64.9658L2338.85 68.3881L2349.51 58.8133L2351.33 60.8129L2359.81 55.814L2359.73 57.7751L2383.44 51.9687Z" fill="#007550"/>
<path d="M2383.44 51.9692L2360 51.8154L2359.73 57.7756L2383.44 51.9692Z" fill="#001E20"/>
<path d="M2313.1 83.8846L2338.68 64.9659L2338.35 58.5635L2317.15 73.2332L2313.1 83.8846Z" fill="#001E20"/>
<path d="M2360 51.8154L2338.35 58.5639L2338.85 68.3886L2349.51 58.8138L2351.33 60.8134L2359.81 55.8145L2360 51.8154Z" fill="#001E20"/>
<path d="M2384.31 52.9109L2393.81 41.2597L2394.06 44.5474L2407.21 39.5293L2406.07 43.3361L2427.64 44.4897L2441.94 68.4458L2419.93 57.1791L2420.3 59.8324L2410.87 53.8337L2409.81 55.6026L2402.68 52.8532L2403.02 54.3528L2384.31 52.9109Z" fill="#007550"/>
<path d="M2384.31 52.9106L2401.96 49.7959L2403.02 54.3526L2384.31 52.9106Z" fill="#001E20"/>
<path d="M2441.94 68.4458L2419.93 57.1792L2419.27 52.2188L2437.36 60.7937L2441.94 68.4458Z" fill="#001E20"/>
<path d="M2401.96 49.7959L2419.27 52.2184L2420.3 59.8321L2410.87 53.8334L2409.81 55.6023L2402.68 52.8529L2401.96 49.7959Z" fill="#001E20"/>
<path d="M2382.57 52.4885L2389.03 34.2426L2390.71 38.1263L2404.28 26.3598L2404.53 31.474L2430.78 23.5527L2458 46.4514L2426.95 42.2792L2428.51 45.3362L2414.72 42.1447L2414.19 44.7402L2404.51 44.471L2405.55 46.1437L2382.57 52.4885Z" fill="#007550"/>
<path d="M2382.57 52.4882L2402.37 41.0869L2405.55 46.1435L2382.57 52.4882Z" fill="#001E20"/>
<path d="M2458 46.4514L2426.95 42.2793L2424.05 36.5498L2449.29 39.1261L2458 46.4514Z" fill="#001E20"/>
<path d="M2402.37 41.0872L2424.05 36.5498L2428.51 45.3363L2414.73 42.1447L2414.19 44.7403L2404.51 44.4711L2402.37 41.0872Z" fill="#001E20"/>
<path d="M2383.44 53.9105L2378.41 33.6843L2376.19 37.6065L2362.83 23.3405L2362.02 28.7431L2334.63 16.9766L2303 37.818L2336.81 37.3758L2334.83 40.4328L2349.98 38.7985L2350.27 41.6248L2360.69 42.5861L2359.4 44.2204L2383.44 53.9105Z" fill="#007550"/>
<path d="M2383.44 53.9109L2363.35 39.2412L2359.4 44.2208L2383.44 53.9109Z" fill="#001E20"/>
<path d="M2303 37.818L2336.81 37.3758L2340.51 31.6464L2313.12 31.1465L2303 37.818Z" fill="#001E20"/>
<path d="M2363.35 39.2409L2340.51 31.6465L2334.82 40.4329L2349.98 38.7987L2350.27 41.625L2360.69 42.5863L2363.35 39.2409Z" fill="#001E20"/>
<path d="M2381.82 53.2187L2378.18 32.7618L2381.8 35.4535L2388.18 17.0923L2391.11 21.7066L2411.29 0L2448.63 6.38316L2417.62 19.4956L2420.68 21.4759L2406.2 26.0518L2407.07 28.7627L2397.95 33.8L2399.81 34.7805L2381.82 53.2187Z" fill="#007550"/>
<path d="M2381.82 53.2183L2394.18 31.8193L2399.81 34.7802L2381.82 53.2183Z" fill="#001E20"/>
<path d="M2448.63 6.3837L2417.62 19.4961L2411.91 15.747L2436.7 4.3457L2448.63 6.3837Z" fill="#001E20"/>
<path d="M2394.18 31.8194L2411.91 15.7461L2420.68 21.4756L2406.2 26.0514L2407.07 28.7624L2397.95 33.7997L2394.18 31.8194Z" fill="#001E20"/>
<path d="M2382.07 49.5661L2387.31 35.1271L2384.33 36.6268L2382.01 22.4185L2379.3 25.3986L2367.36 6.97968L2339.39 6.80664L2360.31 20.3612L2357.82 21.4187L2367.79 26.6291L2366.8 28.494L2372.8 33.3391L2371.33 33.8197L2382.07 49.5661Z" fill="#007550"/>
<path d="M2382.07 49.5653L2375.79 32.377L2371.33 33.8189L2382.07 49.5653Z" fill="#001E20"/>
<path d="M2339.39 6.80664L2360.31 20.3612L2364.92 18.3809L2348.34 6.86432L2339.39 6.80664Z" fill="#001E20"/>
<path d="M2375.79 32.3777L2364.92 18.3809L2357.82 21.4186L2367.79 26.629L2366.8 28.4939L2372.8 33.339L2375.79 32.3777Z" fill="#001E20"/>
<path d="M2390.82 59.6401C2387.95 59.6401 2385.62 57.3159 2385.62 54.4489C2385.62 51.582 2387.95 49.2578 2390.82 49.2578C2393.7 49.2578 2396.03 51.582 2396.03 54.4489C2396.03 57.3159 2393.7 59.6401 2390.82 59.6401Z" fill="black"/>
<path d="M2379.89 65.1772C2377.02 65.1772 2374.69 62.853 2374.69 59.9861C2374.69 57.1191 2377.02 54.7949 2379.89 54.7949C2382.77 54.7949 2385.1 57.1191 2385.1 59.9861C2385.1 62.853 2382.77 65.1772 2379.89 65.1772Z" fill="black"/>
<path d="M2383.44 57.6791C2380.57 57.6791 2378.23 55.355 2378.23 52.488C2378.23 49.621 2380.57 47.2969 2383.44 47.2969C2386.31 47.2969 2388.64 49.621 2388.64 52.488C2388.64 55.355 2386.31 57.6791 2383.44 57.6791Z" fill="black"/>
</g>
<g clip-path="url(#clip1)">
<path d="M2113.63 74.9658L2113.16 84.7162L2113.9 86.5144L2115.15 76.3013L2113.63 74.9658Z" fill="#001E20"/>
<path d="M2113.9 86.5148L2117.83 86.9939L2120.39 76.9413L2115.15 76.3018L2113.9 86.5148Z" fill="#001E20"/>
<path d="M2113.63 74.9658L2115.15 76.3013L2120.39 76.9408L2118.92 75.6116L2113.63 74.9658Z" fill="#001E20"/>
<path d="M2115.18 64.4678L2114.71 74.2181L2115.47 76.0174L2116.71 65.8129L2115.18 64.4678Z" fill="#001E20"/>
<path d="M2115.47 76.018L2119.39 76.4971L2121.94 66.4519L2116.71 65.8135L2115.47 76.018Z" fill="#001E20"/>
<path d="M2115.18 64.4678L2116.71 65.8129L2121.94 66.4513L2120.47 65.1136L2115.18 64.4678Z" fill="#001E20"/>
<path d="M2116.74 53.9697L2116.27 63.7211L2117.02 65.5194L2118.27 55.3149L2116.74 53.9697Z" fill="#001E20"/>
<path d="M2117.02 65.5199L2120.94 65.999L2123.49 55.9539L2118.27 55.3154L2117.02 65.5199Z" fill="#001E20"/>
<path d="M2116.74 53.9697L2118.27 55.3148L2123.49 55.9533L2122.03 54.6166L2116.74 53.9697Z" fill="#001E20"/>
<path d="M2120.04 43.3367L2118.13 52.9119L2118.6 54.7986L2121.35 44.8903L2120.04 43.3367Z" fill="#001E20"/>
<path d="M2118.6 54.799L2122.41 55.8478L2126.43 46.2867L2121.35 44.8907L2118.6 54.799Z" fill="#001E20"/>
<path d="M2120.04 43.3369L2121.35 44.8906L2126.43 46.2865L2125.18 44.7488L2120.04 43.3369Z" fill="#001E20"/>
<path d="M2125.29 33.4654L2122.25 42.7447L2122.49 44.6726L2126.41 35.161L2125.29 33.4654Z" fill="#001E20"/>
<path d="M2122.49 44.6731L2126.15 46.1652L2131.29 37.151L2126.41 35.1615L2122.49 44.6731Z" fill="#001E20"/>
<path d="M2125.29 33.4658L2126.41 35.1614L2131.29 37.1509L2130.23 35.4798L2125.29 33.4658Z" fill="#001E20"/>
<path d="M2129.06 35.9025L2135.81 34.2619L2134.99 35.512L2141.28 37.2294L2139.81 38.2953L2147.53 44.5081L2146.28 56.9853L2141.16 47.0059L2140.58 48.0667L2138.71 43.3792L2137.82 43.7231L2135.92 40.8171L2135.64 41.4537L2129.06 35.9025Z" fill="#001E20"/>
<path d="M2129.06 35.9023L2136.5 39.5288L2135.64 41.4535L2129.06 35.9023Z" fill="#001E20"/>
<path d="M2146.28 56.9855L2141.16 47.0061L2142.29 45.0529L2146.67 53.0013L2146.28 56.9855Z" fill="#001E20"/>
<path d="M2136.5 39.5282L2142.29 45.052L2140.58 48.066L2138.71 43.3785L2137.82 43.7224L2135.92 40.8164L2136.5 39.5282Z" fill="#001E20"/>
<path d="M2128.53 35.2796L2135.95 30.4373L2135.5 32.299L2143.81 31.7022L2142.49 33.6054L2154.47 37.8116L2158.32 53.3772L2147.88 43.5317L2147.62 45.0499L2143.36 40.1923L2142.44 40.9856L2138.91 38.2899L2138.84 39.1695L2128.53 35.2796Z" fill="#001E20"/>
<path d="M2128.53 35.2806L2139.04 36.4951L2138.84 39.1705L2128.53 35.2806Z" fill="#001E20"/>
<path d="M2158.32 53.3772L2147.88 43.5318L2148.38 40.6918L2157.08 48.401L2158.32 53.3772Z" fill="#001E20"/>
<path d="M2139.04 36.4951L2148.38 40.6926L2147.62 45.0508L2143.36 40.1932L2142.44 40.9866L2138.91 38.2908L2139.04 36.4951Z" fill="#001E20"/>
<path d="M2128.09 35.6531L2124.46 29.9319L2124.17 31.3857L2118.55 28.426L2118.85 30.1876L2109.12 29.5217L2101.4 39.4324L2111.89 35.6082L2111.58 36.7725L2116.13 34.6108L2116.51 35.4585L2119.85 34.6216L2119.62 35.2721L2128.09 35.6531Z" fill="#001E20"/>
<path d="M2128.09 35.6533L2120.34 33.2963L2119.62 35.2723L2128.09 35.6533Z" fill="#001E20"/>
<path d="M2101.4 39.432L2111.89 35.6079L2112.45 33.4295L2103.88 36.2674L2101.4 39.432Z" fill="#001E20"/>
<path d="M2120.34 33.2965L2112.45 33.4303L2111.58 36.773L2116.13 34.6113L2116.51 35.4589L2119.85 34.6221L2120.34 33.2965Z" fill="#001E20"/>
<path d="M2128.89 35.5595L2126.99 27.0613L2126.02 28.7031L2120.58 22.7078L2120.19 24.977L2108.85 20.0037L2095.4 28.7353L2109.55 28.573L2108.69 29.8521L2115.04 29.182L2115.14 30.3701L2119.49 30.7797L2118.93 31.4694L2128.89 35.5595Z" fill="#001E20"/>
<path d="M2128.89 35.5592L2120.63 29.386L2118.93 31.4691L2128.89 35.5592Z" fill="#001E20"/>
<path d="M2095.4 28.7354L2109.55 28.573L2111.16 26.1738L2099.71 25.9425L2095.4 28.7354Z" fill="#001E20"/>
<path d="M2120.63 29.3861L2111.16 26.1735L2108.69 29.8519L2115.04 29.1817L2115.14 30.3699L2119.49 30.7795L2120.63 29.3861Z" fill="#001E20"/>
<path d="M2128.42 36.147L2131.78 27.3937L2132.56 29.2659L2139.33 23.629L2139.39 26.085L2152.31 22.3321L2165.36 33.3672L2150.23 31.3188L2150.95 32.7921L2144.25 31.2332L2143.96 32.479L2139.24 32.3372L2139.72 33.1374L2128.42 36.147Z" fill="#001E20"/>
<path d="M2128.42 36.147L2138.22 30.6982L2139.72 33.1374L2128.42 36.147Z" fill="#001E20"/>
<path d="M2165.36 33.3666L2150.23 31.3183L2148.88 28.5581L2161.19 29.8345L2165.36 33.3666Z" fill="#001E20"/>
<path d="M2138.22 30.6977L2148.88 28.5581L2150.95 32.7916L2144.25 31.2326L2143.96 32.4784L2139.24 32.3366L2138.22 30.6977Z" fill="#001E20"/>
<path d="M2129.18 35.9264L2131.93 26.9942L2130.16 27.9973L2128.3 19.4518L2126.74 21.3512L2118.87 10.5568L2101.79 11.3621L2114.98 18.9132L2113.49 19.6294L2119.73 22.4645L2119.2 23.6272L2123.01 26.3749L2122.13 26.7113L2129.18 35.9264Z" fill="#001E20"/>
<path d="M2129.18 35.9265L2124.81 25.6978L2122.13 26.7113L2129.18 35.9265Z" fill="#001E20"/>
<path d="M2101.79 11.3619L2114.98 18.913L2117.74 17.5518L2107.25 11.1054L2101.79 11.3619Z" fill="#001E20"/>
<path d="M2124.81 25.6982L2117.74 17.5524L2113.49 19.6298L2119.73 22.465L2119.2 23.6276L2123.01 26.3753L2124.81 25.6982Z" fill="#001E20"/>
<path d="M2129.27 34.2826L2127.71 27.5501L2128.97 28.3831L2130.78 22.1673L2131.83 23.6464L2138.19 16.0777L2150.73 17.5316L2140.62 22.4373L2141.68 23.0454L2136.92 24.8257L2137.26 25.712L2134.31 27.5466L2134.94 27.8413L2129.27 34.2826Z" fill="#001E20"/>
<path d="M2129.27 34.2821L2133.03 26.9534L2134.94 27.8408L2129.27 34.2821Z" fill="#001E20"/>
<path d="M2150.73 17.531L2140.62 22.4366L2138.66 21.3004L2146.72 17.0671L2150.73 17.531Z" fill="#001E20"/>
<path d="M2133.03 26.9531L2138.66 21.3003L2141.68 23.0446L2136.92 24.8249L2137.26 25.7112L2134.31 27.5458L2133.03 26.9531Z" fill="#001E20"/>
<path d="M2124.8 38.3003C2126.09 38.4577 2127.26 37.5477 2127.42 36.268C2127.57 34.9882 2126.65 33.8231 2125.37 33.6658C2124.08 33.5084 2122.91 34.4183 2122.75 35.6981C2122.59 36.9779 2123.51 38.1429 2124.8 38.3003Z" fill="#001E20"/>
<path d="M2129.4 41.3706C2130.69 41.528 2131.86 40.6181 2132.01 39.3383C2132.17 38.0585 2131.25 36.8935 2129.96 36.7361C2128.67 36.5787 2127.5 37.4886 2127.35 38.7684C2127.19 40.0482 2128.11 41.2132 2129.4 41.3706Z" fill="#001E20"/>
<path d="M2128.22 37.8286C2129.5 37.986 2130.68 37.0761 2130.83 35.7963C2130.99 34.5165 2130.07 33.3515 2128.78 33.1941C2127.49 33.0367 2126.32 33.9467 2126.17 35.2264C2126.01 36.5062 2126.93 37.6713 2128.22 37.8286Z" fill="#001E20"/>
</g>
<g clip-path="url(#clip2)">
<path d="M2103.47 79.7021L2102.17 86.2549L2101.38 87.3262L2102.23 80.3383L2103.47 79.7021Z" fill="#001E20"/>
<path d="M2101.38 87.3258L2098.69 86.9973L2098.64 79.8994L2102.23 80.3379L2101.38 87.3258Z" fill="#001E20"/>
<path d="M2103.47 79.7021L2102.23 80.3383L2098.64 79.8998L2099.84 79.2593L2103.47 79.7021Z" fill="#001E20"/>
<path d="M2104.16 72.4746L2102.87 79.0274L2102.07 80.098L2102.92 73.116L2104.16 72.4746Z" fill="#001E20"/>
<path d="M2102.07 80.0982L2099.38 79.7697L2099.34 72.6784L2102.92 73.1162L2102.07 80.0982Z" fill="#001E20"/>
<path d="M2104.16 72.4746L2102.92 73.116L2099.34 72.6782L2100.54 72.0318L2104.16 72.4746Z" fill="#001E20"/>
<path d="M2104.86 65.2471L2103.56 71.7991L2102.77 72.8704L2103.62 65.8884L2104.86 65.2471Z" fill="#001E20"/>
<path d="M2102.77 72.8707L2100.08 72.5422L2100.03 65.4509L2103.62 65.8887L2102.77 72.8707Z" fill="#001E20"/>
<path d="M2104.86 65.2471L2103.62 65.8884L2100.03 65.4506L2101.23 64.8035L2104.86 65.2471Z" fill="#001E20"/>
<path d="M2104.42 57.6423L2104.11 64.3152L2103.48 65.4905L2103.29 58.4582L2104.42 57.6423Z" fill="#001E20"/>
<path d="M2103.48 65.4897L2100.77 65.5582L2099.67 58.5465L2103.29 58.4574L2103.48 65.4897Z" fill="#001E20"/>
<path d="M2104.42 57.6416L2103.29 58.4574L2099.67 58.5466L2100.76 57.7316L2104.42 57.6416Z" fill="#001E20"/>
<path d="M2102.54 50.2202L2103.04 56.8843L2102.56 58.1254L2101.52 51.162L2102.54 50.2202Z" fill="#001E20"/>
<path d="M2102.56 58.125L2099.88 58.5128L2097.94 51.6787L2101.52 51.1617L2102.56 58.125Z" fill="#001E20"/>
<path d="M2102.54 50.2197L2101.52 51.1616L2097.94 51.6785L2098.93 50.7434L2102.54 50.2197Z" fill="#001E20"/>
<path d="M2099.64 51.2175L2095.41 49.0151L2095.75 49.9803L2091.28 50.0842L2092.09 51.0346L2085.92 53.8875L2084.7 62.3798L2089.75 56.5955L2089.96 57.3965L2091.98 54.5911L2092.52 54.9667L2094.26 53.3499L2094.34 53.8187L2099.64 51.2175Z" fill="#001E20"/>
<path d="M2099.64 51.2178L2094.09 52.3994L2094.34 53.819L2099.64 51.2178Z" fill="#001E20"/>
<path d="M2084.7 62.3801L2089.75 56.5958L2089.32 55.1134L2085.09 59.6685L2084.7 62.3801Z" fill="#001E20"/>
<path d="M2094.09 52.3998L2089.32 55.1138L2089.96 57.3973L2091.98 54.5919L2092.52 54.9674L2094.26 53.3506L2094.09 52.3998Z" fill="#001E20"/>
<path d="M2100.09 50.8922L2095.95 46.4529L2095.94 47.7629L2090.51 45.997L2091.07 47.4785L2082.41 48.2978L2077.28 57.9996L2085.85 53.1816L2085.77 54.2334L2089.41 51.7092L2089.89 52.3879L2092.68 51.1795L2092.59 51.7756L2100.09 50.8922Z" fill="#001E20"/>
<path d="M2100.09 50.8917L2092.89 49.9648L2092.59 51.7751L2100.09 50.8917Z" fill="#001E20"/>
<path d="M2077.28 57.999L2085.85 53.181L2085.99 51.2133L2078.92 54.8978L2077.28 57.999Z" fill="#001E20"/>
<path d="M2092.89 49.9648L2085.99 51.2134L2085.77 54.2329L2089.41 51.7087L2089.89 52.3874L2092.68 51.179L2092.89 49.9648Z" fill="#001E20"/>
<path d="M2100.32 51.2125L2103.68 48.0107L2103.63 49.0242L2107.86 47.9851L2107.37 49.1051L2113.96 50.2672L2117.46 58.1208L2111.11 53.8534L2111.13 54.6775L2108.45 52.4915L2108.06 52.9919L2105.97 51.8845L2106.02 52.3555L2100.32 51.2125Z" fill="#001E20"/>
<path d="M2100.32 51.2125L2105.87 50.9241L2106.02 52.3556L2100.32 51.2125Z" fill="#001E20"/>
<path d="M2117.46 58.1202L2111.11 53.8527L2111.1 52.3131L2116.34 55.6108L2117.46 58.1202Z" fill="#001E20"/>
<path d="M2105.87 50.9241L2111.1 52.3138L2111.13 54.6776L2108.45 52.4916L2108.06 52.9921L2105.97 51.8846L2105.87 50.9241Z" fill="#001E20"/>
<path d="M2099.81 51.0178L2102.47 45.6876L2102.84 46.9367L2107.45 43.8523L2107.34 45.4237L2115.7 43.99L2123.22 52.0055L2113.83 49.5655L2114.19 50.5578L2110.08 49.0656L2109.81 49.8381L2106.85 49.3926L2107.11 49.9426L2099.81 51.0178Z" fill="#001E20"/>
<path d="M2099.81 51.0181L2106.32 48.279L2107.11 49.9428L2099.81 51.0181Z" fill="#001E20"/>
<path d="M2123.22 52.0056L2113.83 49.5656L2113.15 47.7072L2120.81 49.4412L2123.22 52.0056Z" fill="#001E20"/>
<path d="M2106.32 48.2786L2113.15 47.7069L2114.19 50.5576L2110.07 49.0654L2109.81 49.8379L2106.85 49.3925L2106.32 48.2786Z" fill="#001E20"/>
<path d="M2100.02 51.4846L2099.23 45.1182L2098.4 46.2329L2094.83 41.3742L2094.37 42.9939L2086.39 38.3719L2075.89 43.5499L2086.3 44.6841L2085.58 45.5432L2090.3 45.6128L2090.28 46.4869L2093.45 47.172L2092.99 47.6226L2100.02 51.4846Z" fill="#001E20"/>
<path d="M2100.02 51.4854L2094.39 46.2509L2092.99 47.6234L2100.02 51.4854Z" fill="#001E20"/>
<path d="M2075.89 43.5504L2086.3 44.6846L2087.65 43.0736L2079.25 41.8926L2075.89 43.5504Z" fill="#001E20"/>
<path d="M2094.39 46.2502L2087.65 43.0732L2085.58 45.5433L2090.3 45.6129L2090.28 46.487L2093.45 47.1721L2094.39 46.2502Z" fill="#001E20"/>
<path d="M2099.55 51.213L2099.19 44.8282L2100.2 45.7863L2102.85 40.4179L2103.58 41.9372L2110.59 36.0652L2121.83 39.4164L2111.81 42.2569L2112.68 42.9768L2108.06 43.8309L2108.22 44.6915L2105.23 45.8877L2105.76 46.2567L2099.55 51.213Z" fill="#001E20"/>
<path d="M2099.55 51.2131L2104.14 45.1412L2105.76 46.2569L2099.55 51.2131Z" fill="#001E20"/>
<path d="M2121.83 39.4164L2111.81 42.2569L2110.19 40.8977L2118.24 38.346L2121.83 39.4164Z" fill="#001E20"/>
<path d="M2104.14 45.1407L2110.19 40.8973L2112.68 42.9765L2108.06 43.8306L2108.22 44.6912L2105.23 45.8874L2104.14 45.1407Z" fill="#001E20"/>
<path d="M2099.76 50.1061L2101.91 45.8929L2100.94 46.2388L2100.76 41.8124L2099.81 42.6205L2096.83 36.5471L2088.24 35.4443L2094.16 40.3693L2093.36 40.5989L2096.23 42.5644L2095.85 43.0971L2097.52 44.8019L2097.05 44.8937L2099.76 50.1061Z" fill="#001E20"/>
<path d="M2099.76 50.1062L2098.47 44.6205L2097.05 44.8938L2099.76 50.1062Z" fill="#001E20"/>
<path d="M2088.24 35.4443L2094.16 40.3693L2095.65 39.9374L2090.98 35.7976L2088.24 35.4443Z" fill="#001E20"/>
<path d="M2098.47 44.6207L2095.65 39.9376L2093.36 40.5991L2096.23 42.5646L2095.85 43.0973L2097.52 44.8021L2098.47 44.6207Z" fill="#001E20"/>
<path d="M2102.07 53.5117C2101.19 53.4038 2100.56 52.6065 2100.67 51.7309C2100.78 50.8552 2101.58 50.2329 2102.46 50.3408C2103.35 50.4487 2103.98 51.246 2103.87 52.1216C2103.76 52.9973 2102.96 53.6196 2102.07 53.5117Z" fill="#001E20"/>
<path d="M2098.51 54.793C2097.63 54.6851 2097 53.8878 2097.1 53.0121C2097.21 52.1365 2098.01 51.5141 2098.9 51.622C2099.78 51.7299 2100.41 52.5272 2100.3 53.4029C2100.2 54.2785 2099.39 54.9009 2098.51 54.793Z" fill="#001E20"/>
<path d="M2099.88 52.6358C2099 52.5279 2098.37 51.7305 2098.47 50.8549C2098.58 49.9793 2099.38 49.3569 2100.27 49.4648C2101.15 49.5727 2101.78 50.37 2101.67 51.2456C2101.57 52.1213 2100.76 52.7437 2099.88 52.6358Z" fill="#001E20"/>
</g>
<path d="M1969.84 67H-4.55379e-05V251H3441L1969.84 67Z" fill="#007550"/>
<path d="M2183 205.5L2669.99 179L2796 195.5L2681.63 253L2380 268L2183 205.5Z" fill="#001E20" fill-opacity="0.1"/>
<path d="M2183 193.59L2608.03 179L2718 188.084L2618.18 219.742L2354.93 228L2183 193.59Z" fill="#001E20" fill-opacity="0.1"/>
<g clip-path="url(#clip3)">
<path d="M2507.86 14.3809L2510.7 35.9999L2520.12 35.9999L2522.96 14.3809L2507.86 14.3809Z" fill="#FFC856"/>
<path d="M2508.24 17.4384L2501.69 14.8098L2501 14.4099L2502.85 10.5908L2506.96 8.66699L2511.86 11.1622L2508.24 17.4384Z" fill="#FF513F"/>
<path d="M2503.36 11.1144L2506.91 9.35254L2511.5 11.7049L2508.24 17.4383L2501.71 14.7811L2503.36 11.1144Z" fill="#FFC856"/>
<path d="M2507.86 14.3809L2508.5 19.2761L2522.31 19.2761L2522.96 14.3809L2507.86 14.3809Z" fill="#EFECDE"/>
<path d="M2522.6 10.333L2515.41 35.3806L2516.73 35.7616L2523.82 10.714L2522.6 10.333Z" fill="#001E20"/>
<path d="M2522.6 10.3331L2524.33 8.14258L2525.34 8.80924L2523.82 10.714L2522.6 10.3331Z" fill="#001E20"/>
<path d="M2524.33 8.14286L2529.7 7L2530 7.85714L2525.34 8.80952L2524.33 8.14286Z" fill="#001E20"/>
<path d="M2508.24 17.438L2503.35 11.0951L2506.9 9.38086L2508.24 17.438Z" fill="#FFC856"/>
</g>
<g clip-path="url(#clip4)">
<path d="M2705 118.47L2651.56 84.8438L2620 118.47L2607.13 180.92H2700.2L2705 118.47Z" fill="#FF513F"/>
<path d="M2530.5 35L2582.5 54.5L2651.56 84.8442L2502.05 94.4518L2530.5 35Z" fill="#001E20"/>
<path d="M2607.13 180.92H2523.67L2512.86 137.686L2502.05 94.4514L2651.56 84.8438L2619 124.5L2613.06 152.71L2607.13 180.92Z" fill="#E34737"/>
<path d="M2436 102.258L2502.05 94.4521L2523.67 180.921L2417.39 195.933L2436 102.258Z" fill="#FF513F"/>
<path d="M2530.5 35L2399 37L2337.77 81.8419L2502.29 94.4518L2530.5 35Z" fill="#001E20"/>
<path d="M2530.5 35L2399 37L2337.77 81.8419L2502.29 94.4518L2530.5 35Z" fill="url(#paint0_linear)" fill-opacity="0.25"/>
<path d="M2530.5 35L2502.05 94.452L2486.44 93.2511L2523.5 35H2530.5Z" fill="#FF513F"/>
<path d="M2399 37H2406L2346.05 82.4424L2337.53 81.8419L2399 37Z" fill="#FF513F"/>
<path d="M2685.32 74.6174L2679.35 88.3822L2657.65 89.9766L2624.4 73.1301L2685.32 74.6174Z" fill="#FF513F"/>
<path d="M2536.16 77.3426L2532.84 91.7967L2509.76 99.662L2470 93.9298L2536.16 77.3426Z" fill="#FF513F"/>
<path d="M2330.07 86.8652L2333.39 72.4112L2356.46 64.5459L2362.5 69.4998L2330.07 86.8652Z" fill="#FF513F"/>
<path d="M2700.5 180.92L2692.5 185.5L2491.84 199.535V180.92H2700.5Z" fill="#001E20"/>
<path d="M2436 102.258L2417.39 195.932L2291.89 210.944L2167 195.932V145.252L2178.41 153.899L2366 156L2436 102.258Z" fill="#E34737"/>
<path d="M2435.4 89.2877L2337.53 81.8418L2215.04 94.4518L2399.37 102.258L2435.4 89.2877Z" fill="#FF513F"/>
<path d="M2296.7 155.581L2399.37 102.258L2215.04 94.4521L2178.41 153.899L2296.7 155.581Z" fill="#FF513F"/>
<path d="M2167 145.252L2178.41 153.899L2215.04 94.4521L2167 145.252Z" fill="#FF513F"/>
<path d="M2365.75 156.661L2353.74 192.93L2291 200.5L2296 167.5L2365.75 156.661Z" fill="#001E20"/>
<path d="M2618.51 124.573L2611.66 157.882L2597 158L2601.43 130.784L2618.51 124.573Z" fill="#001E20"/>
<path d="M2594 166.421L2597 161L2611.5 160.5L2610.3 166.513L2594 166.421Z" fill="#001E20"/>
<path d="M2178.41 153.899V184.523L2167 180.92V145.252L2178.41 153.899Z" fill="#001E20"/>
<path d="M2264.27 175.756L2278.68 199.535L2185.61 190.287L2188.14 170.592L2264.27 175.756Z" fill="#001E20"/>
<path d="M2502.05 94.4522L2436 102.258L2365.75 156.661L2296.7 155.581L2399.37 102.258L2435.4 89.2881L2502.05 94.4522Z" fill="#FF513F"/>
<path d="M2423.99 210.945L2292.49 219.351L2291.89 210.945L2417.39 195.933L2423.99 210.945Z" fill="#001E20"/>
<path d="M2167 195.933L2291.89 210.945L2292.49 219.351L2167 203.739V195.933Z" fill="#001E20"/>
<path d="M2349.98 140.09C2344.67 132.883 2351.83 118.585 2365.97 108.153C2380.12 97.7217 2395.89 95.107 2401.21 102.313C2406.52 109.519 2399.36 123.818 2385.22 134.25C2371.07 144.681 2355.3 147.296 2349.98 140.09Z" fill="white"/>
<path d="M2190.96 126.959C2187.01 122.663 2192.2 111.464 2202.54 101.945C2212.89 92.4252 2224.48 88.1902 2228.43 92.4854C2232.38 96.7807 2227.2 107.98 2216.85 117.499C2206.5 127.019 2194.91 131.254 2190.96 126.959Z" fill="white"/>
<path d="M2455 231C2432.36 231 2414 205.704 2414 174.5C2414 143.296 2432.36 118 2455 118C2477.64 118 2496 143.296 2496 174.5C2496 205.704 2477.64 231 2455 231Z" fill="#001E20"/>
<path d="M2436.07 232.409C2413.39 232.409 2403.5 214.5 2401.5 202C2401.5 198.5 2405.32 202 2428 202C2450.68 202 2477.14 145.164 2477.14 176.205C2477.14 207.246 2458.75 232.409 2436.07 232.409Z" fill="#001E20"/>
<path d="M2636.04 206.88C2619.61 203.99 2614.44 191.386 2614.39 183.213C2614.78 180.997 2617.15 183.7 2633.58 186.59C2650.01 189.48 2675.51 156.849 2672.05 176.512C2668.59 196.174 2652 206.88 2636.04 206.88Z" fill="#001E20"/>
<path d="M2647.12 206.346C2631.04 205.201 2619.33 185.632 2620.96 162.637C2622.6 139.641 2636.96 121.928 2653.04 123.073C2669.13 124.218 2680.84 143.787 2679.2 166.782C2677.56 189.777 2663.2 207.491 2647.12 206.346Z" fill="#001E20"/>
<path d="M2465 231C2442.36 231 2424 205.704 2424 174.5C2424 143.296 2442.36 118 2465 118C2487.64 118 2506 143.296 2506 174.5C2506 205.704 2487.64 231 2465 231Z" fill="#001E20"/>
<path d="M2467 216C2449.88 216 2436 197.42 2436 174.5C2436 151.58 2449.88 133 2467 133C2484.12 133 2498 151.58 2498 174.5C2498 197.42 2484.12 216 2467 216Z" fill="white"/>
<path d="M2440.5 174.5C2440.5 184.483 2443.49 193.501 2448.31 200.012C2453.13 206.523 2459.74 210.5 2467 210.5C2474.26 210.5 2480.87 206.523 2485.69 200.012C2490.51 193.501 2493.5 184.483 2493.5 174.5C2493.5 164.517 2490.51 155.499 2485.69 148.988C2480.87 142.477 2474.26 138.5 2467 138.5C2459.74 138.5 2453.13 142.477 2448.31 148.988C2443.49 155.499 2440.5 164.517 2440.5 174.5Z" fill="white" stroke="black"/>
<path d="M2653 207C2633.7 205.626 2619.15 184.804 2620.79 161.809C2622.43 138.814 2636.5 120.5 2658.7 122.661C2678.01 124.035 2692.33 143.79 2690.69 166.785C2689.05 189.78 2672.3 208.374 2653 207Z" fill="#001E20"/>
<path d="M2663 196C2651.4 196 2642 182.121 2642 165C2642 147.879 2651.4 134 2663 134C2674.6 134 2684 147.879 2684 165C2684 182.121 2674.6 196 2663 196Z" fill="#C4C4C4"/>
<path d="M2645.5 165C2645.5 172.648 2647.55 179.549 2650.84 184.523C2654.12 189.502 2658.61 192.5 2663.5 192.5C2668.39 192.5 2672.88 189.502 2676.16 184.523C2679.45 179.549 2681.5 172.648 2681.5 165C2681.5 157.352 2679.45 150.451 2676.16 145.477C2672.88 140.498 2668.39 137.5 2663.5 137.5C2658.61 137.5 2654.12 140.498 2650.84 145.477C2647.55 150.451 2645.5 157.352 2645.5 165Z" stroke="black"/>
<rect x="2429" y="221" width="40" height="10" fill="#001E20"/>
<rect x="2637" y="198" width="20" height="9" fill="#001E20"/>
<g filter="url(#filter0_d)">
<path d="M2244.96 131.495L2248 131.413L2251.4 132.39L2246.97 138.842L2244 138.429L2244.96 131.495Z" fill="#FFC856"/>
</g>
<rect x="2454" y="118" width="12" height="9" fill="#001E20"/>
<path d="M2186 185L2274.5 192.5L2279 199.5L2185.5 190.5L2186 185Z" fill="#AA3528"/>
<path d="M2607 158L2612 127L2618.5 124.5L2612 158L2607 158Z" fill="#6A1F17"/>
<path d="M2594 166.5L2606 163.5L2606.5 160.5L2611.5 160.5L2610.5 166.5L2594 166.5Z" fill="#6A1F17"/>
<path d="M2167 173L2178.5 178.5V184.5L2167 181V173Z" fill="#AA3528"/>
<path d="M2291 201V197L2347.5 187L2361.5 157L2366 156L2354.5 193L2291 201Z" fill="#AA3528"/>
</g>
<g clip-path="url(#clip5)">
<path d="M2457.3 84.7697L2454.02 84.5213L2459.19 78.298L2462.47 78.5461L2457.3 84.7697Z" fill="white"/>
<path d="M2459.88 81.6577L2456.6 81.4096L2462.47 78.5461L2465.75 78.7983L2459.88 81.6577Z" fill="white"/>
<path d="M2459.88 81.6583L2456.6 81.4102L2457.3 84.7702L2460.59 85.0183L2459.88 81.6583Z" fill="white"/>
<path d="M2466.45 82.1583L2463.17 81.9102L2463.87 85.2702L2467.15 85.5183L2466.45 82.1583Z" fill="white"/>
<path d="M2469.03 79.0461L2463.17 81.9096L2466.45 82.1577L2472.32 79.2944L2469.03 79.0461Z" fill="white"/>
<path d="M2473.02 82.6582L2469.74 82.4062L2470.44 85.7701L2473.72 86.0183L2473.02 82.6582Z" fill="white"/>
<path d="M2475.6 79.547L2469.74 82.4067L2473.02 82.6587L2478.89 79.7954L2475.6 79.547Z" fill="white"/>
<path d="M2475.36 86.1446L2472.08 85.8924L2477.24 79.6691L2480.53 79.9213L2475.36 86.1446Z" fill="white"/>
<path d="M2479.94 84.8348L2482.87 83.4069L2482.17 80.043L2478.89 79.7949L2479.51 82.7857L2479.94 84.8348Z" fill="white"/>
<path d="M2479.59 83.1557L2482.87 83.4077L2477.01 86.2673L2473.72 86.019L2479.59 83.1557Z" fill="white"/>
</g>
<path d="M2189.49 129.09L2196.73 128.302L2204.42 125.807L2210.84 122.445L2215.99 118.644L2221.57 113.565L2226.74 107.199L2229.36 100.382L2229.4 95.6791L2228.14 93.1023L2226.03 90.9452L2223.07 89.6354L2023.41 82.2486L1494.62 67.9995L1493 244.992L2189.49 129.09Z" fill="url(#paint1_radial)" fill-opacity="0.5"/>
<path d="M2356.5 145L2365 144L2374 141L2381.5 137L2387.5 132.5L2394 126.5L2400 119L2403 111L2403 105.5L2401.5 102.5L2399 100L2395.5 98.5L2161 92L1540 81L1540 288L2356.5 145Z" fill="url(#paint2_radial)" fill-opacity="0.5"/>
<path d="M0 251L3440 251L5000 448.5V773H0V251Z" fill="#007550"/>
<g clip-path="url(#clip6)">
<path d="M1940.28 253.325L1940.55 224.362L1941.59 252.705L1941.3 254.162L1940.28 253.325Z" fill="white"/>
<path d="M1940.29 251.46L1933.68 245.707L1932.41 240.264L1940.31 249.705L1940.29 251.46Z" fill="white"/>
<path d="M1932.42 239.212L1932.66 234.098L1940.36 245.051L1940.33 247.29L1932.42 239.212Z" fill="white"/>
<path d="M1932.95 231.967L1940.37 243.267L1940.4 240.072L1934.09 227.452L1932.95 231.967Z" fill="white"/>
<path d="M1934.88 226.562L1936.25 222.051L1940.46 233.124L1940.44 236.605L1934.88 226.562Z" fill="white"/>
<path d="M1940.49 229.91L1937.45 220.713L1938.6 218.266L1940.53 226.901L1940.49 229.91Z" fill="white"/>
<path d="M1940.51 226.917L1940 218.275L1941.73 218.834L1940.51 226.917Z" fill="white"/>
<path d="M1942.59 219.292L1940.7 227.217C1940.7 227.217 1940.8 231.109 1940.79 230.928C1940.79 230.747 1943.82 221.87 1943.83 221.649C1943.85 221.418 1942.59 219.292 1942.59 219.292Z" fill="white"/>
<path d="M1940.89 233.663L1945.01 223.175L1946.42 227.497L1941.03 237.318L1940.89 233.663Z" fill="white"/>
<path d="M1941.15 240.52L1947.17 229.097L1948.37 233.069L1941.25 243.318L1941.15 240.52Z" fill="white"/>
<path d="M1941.31 245.033L1948.69 235.027L1948.9 239.966L1941.4 247.473L1941.31 245.033Z" fill="white"/>
<path d="M1941.49 249.989L1949.14 241.467L1947.99 246.385L1941.56 251.733L1941.49 249.989Z" fill="white"/>
</g>
<g clip-path="url(#clip7)">
<path d="M2802.31 288.128L2802.93 221.557L2805.33 286.702L2804.66 290.05L2802.31 288.128Z" fill="#001E20"/>
<path d="M2802.34 283.842L2787.15 270.617L2784.22 258.107L2802.39 279.807L2802.34 283.842Z" fill="#001E20"/>
<path d="M2784.25 255.689L2784.81 243.935L2802.49 269.111L2802.44 274.256L2784.25 255.689Z" fill="#001E20"/>
<path d="M2785.47 239.038L2802.52 265.011L2802.6 257.668L2788.08 228.659L2785.47 239.038Z" fill="#001E20"/>
<path d="M2789.91 226.613L2793.06 216.246L2802.74 241.696L2802.67 249.698L2789.91 226.613Z" fill="#001E20"/>
<path d="M2802.81 234.309L2795.82 213.17L2798.44 207.546L2802.88 227.394L2802.81 234.309Z" fill="#001E20"/>
<path d="M2802.85 227.429L2801.66 207.565L2805.65 208.851L2802.85 227.429Z" fill="#001E20"/>
<path d="M2807.62 209.903L2803.28 228.12C2803.28 228.12 2803.51 237.066 2803.49 236.649C2803.48 236.233 2810.45 215.83 2810.47 215.322C2810.52 214.791 2807.62 209.903 2807.62 209.903Z" fill="#001E20"/>
<path d="M2803.73 242.936L2813.18 218.831L2816.44 228.765L2804.03 251.336L2803.73 242.936Z" fill="#001E20"/>
<path d="M2804.31 258.696L2818.15 232.44L2820.91 241.569L2804.54 265.126L2804.31 258.696Z" fill="#001E20"/>
<path d="M2804.69 269.068L2821.63 246.07L2822.12 257.422L2804.89 274.677L2804.69 269.068Z" fill="#001E20"/>
<path d="M2805.1 280.459L2822.67 260.871L2820.03 272.176L2805.25 284.468L2805.1 280.459Z" fill="#001E20"/>
</g>
<g clip-path="url(#clip8)">
<path d="M2781.31 303.257L2781.93 236.686L2784.33 301.831L2783.66 305.179L2781.31 303.257Z" fill="white"/>
<path d="M2781.34 298.971L2766.15 285.746L2763.22 273.236L2781.39 294.936L2781.34 298.971Z" fill="white"/>
<path d="M2763.25 270.818L2763.81 259.064L2781.49 284.24L2781.44 289.385L2763.25 270.818Z" fill="white"/>
<path d="M2764.47 254.167L2781.52 280.14L2781.6 272.797L2767.08 243.788L2764.47 254.167Z" fill="white"/>
<path d="M2768.91 241.742L2772.06 231.375L2781.74 256.825L2781.67 264.827L2768.91 241.742Z" fill="white"/>
<path d="M2781.81 249.438L2774.82 228.299L2777.44 222.675L2781.88 242.523L2781.81 249.438Z" fill="white"/>
<path d="M2781.85 242.558L2780.66 222.694L2784.65 223.98L2781.85 242.558Z" fill="white"/>
<path d="M2786.62 225.032L2782.28 243.249C2782.28 243.249 2782.51 252.195 2782.49 251.778C2782.48 251.362 2789.45 230.958 2789.47 230.451C2789.52 229.92 2786.62 225.032 2786.62 225.032Z" fill="white"/>
<path d="M2782.73 258.065L2792.18 233.96L2795.44 243.894L2783.03 266.465L2782.73 258.065Z" fill="white"/>
<path d="M2783.31 273.825L2797.15 247.569L2799.91 256.697L2783.54 280.255L2783.31 273.825Z" fill="white"/>
<path d="M2783.69 284.197L2800.63 261.199L2801.12 272.551L2783.89 289.806L2783.69 284.197Z" fill="white"/>
<path d="M2784.1 295.588L2801.67 276L2799.03 287.305L2784.25 299.596L2784.1 295.588Z" fill="white"/>
</g>
<path d="M2939.17 305L3001.44 332.732L2939.17 358.519V305Z" fill="#FF513F"/>
<ellipse cx="2910.95" cy="578.917" rx="28.2189" ry="15.0825" fill="#001E20"/>
<line x1="2939.67" y1="305" x2="2939.67" y2="579.404" stroke="white"/>
<path d="M3223 670.396L3168.98 714.764L3167.22 652.571L3223 670.396Z" fill="black" fill-opacity="0.1"/>
<line y1="-1" x2="300.249" y2="-1" transform="matrix(-0.952544 -0.3044 0.424287 -0.905528 3223 670.396)" stroke="black" stroke-opacity="0.1" stroke-width="2"/>
<ellipse cx="2885.87" cy="568.686" rx="14.9139" ry="5.5" transform="rotate(17.3003 2885.87 568.686)" fill="#001E20" fill-opacity="0.1"/>
<circle cx="2878.24" cy="558.244" r="9.24411" fill="white"/>
<defs>
<filter id="filter0_d" x="2244" y="131.413" width="7.40191" height="8.42857" filterUnits="userSpaceOnUse" color-interpolation-filters="sRGB">
<feFlood flood-opacity="0" result="BackgroundImageFix"/>
<feColorMatrix in="SourceAlpha" type="matrix" values="0 0 0 0 0 0 0 0 0 0 0 0 0 0 0 0 0 0 127 0"/>
<feOffset dy="1"/>
<feColorMatrix type="matrix" values="0 0 0 0 0 0 0 0 0 0.117647 0 0 0 0 0.12549 0 0 0 1 0"/>
<feBlend mode="normal" in2="BackgroundImageFix" result="effect1_dropShadow"/>
<feBlend mode="normal" in="SourceGraphic" in2="effect1_dropShadow" result="shape"/>
</filter>
<linearGradient id="paint0_linear" x1="2404.5" y1="36.5" x2="2490.5" y2="91" gradientUnits="userSpaceOnUse">
<stop stop-color="white"/>
<stop offset="1" stop-color="white" stop-opacity="0"/>
</linearGradient>
<radialGradient id="paint1_radial" cx="0" cy="0" r="1" gradientUnits="userSpaceOnUse" gradientTransform="translate(2210.7 86.8081) rotate(173.165) scale(558.849 280.574)">
<stop stop-color="#FFD45D"/>
<stop offset="1" stop-color="#C4C4C4" stop-opacity="0"/>
</radialGradient>
<radialGradient id="paint2_radial" cx="0" cy="0" r="1" gradientUnits="userSpaceOnUse" gradientTransform="translate(2380.95 95.3261) rotate(172.669) scale(656.13 328.15)">
<stop stop-color="#FFD45D"/>
<stop offset="1" stop-color="#C4C4C4" stop-opacity="0"/>
</radialGradient>
<clipPath id="clip0">
<rect width="155" height="169" fill="white" transform="matrix(-1 0 0 1 2458 0)"/>
</clipPath>
<clipPath id="clip1">
<rect width="70" height="76" fill="white" transform="translate(2097.94 8) rotate(6.96257)"/>
</clipPath>
<clipPath id="clip2">
<rect width="48" height="52" fill="white" transform="matrix(-0.992626 -0.121221 -0.121221 0.992626 2124.95 37.8184)"/>
</clipPath>
<clipPath id="clip3">
<rect width="29" height="29" fill="white" transform="translate(2501 7)"/>
</clipPath>
<clipPath id="clip4">
<rect width="538" height="202" fill="white" transform="matrix(-1 0 0 1 2705 29)"/>
</clipPath>
<clipPath id="clip5">
<rect width="28.726" height="6.83951" fill="white" transform="translate(2454.43 78) rotate(3.58326)"/>
</clipPath>
<clipPath id="clip6">
<rect width="28.0532" height="26.021" fill="white" transform="matrix(0.667702 -0.744429 0.780171 0.625566 1921 237.884)"/>
</clipPath>
<clipPath id="clip7">
<rect width="64.4792" height="59.8084" fill="white" transform="matrix(0.667702 -0.744429 0.780171 0.625566 2758 252.637)"/>
</clipPath>
<clipPath id="clip8">
<rect width="64.4792" height="59.8084" fill="white" transform="matrix(0.667702 -0.744429 0.780171 0.625566 2737 267.766)"/>
</clipPath>
</defs>
</svg>
