<svg width="1920" height="773" viewBox="0 0 1920 773" fill="none" xmlns="http://www.w3.org/2000/svg">
<g clip-path="url(#clip0)">
<path d="M865.53 143.583L863.95 165.232L861.829 169V146.121L865.53 143.583Z" fill="#FFC856"/>
<path d="M861.829 169H853.078L850.148 146.12H861.829V169Z" fill="#FF513F"/>
<path d="M865.53 143.583L861.829 146.121H850.148L853.733 143.583H865.53Z" fill="#001E20"/>
<path d="M864.932 119.992L863.352 141.641L861.212 145.409V122.549L864.932 119.992Z" fill="#FFC856"/>
<path d="M861.212 145.409H852.461L849.55 122.549H861.212V145.409Z" fill="#FF513F"/>
<path d="M864.932 119.992L861.212 122.549H849.55L853.135 119.992H864.932Z" fill="#001E20"/>
<path d="M864.335 96.4011L862.735 118.05L860.615 121.818V98.9582L864.335 96.4011Z" fill="#FFC856"/>
<path d="M860.615 121.818H851.863L848.953 98.9583H860.615V121.818Z" fill="#FF513F"/>
<path d="M864.335 96.4011L860.615 98.9582H848.953L852.519 96.4011H864.335Z" fill="#001E20"/>
<path d="M859.94 72.0413L861.559 93.6902L860.017 97.7277L856.644 75.1175L859.94 72.0413Z" fill="#FFC856"/>
<path d="M860.017 97.7279L851.362 99.0161L845.097 76.8288L856.644 75.1177L860.017 97.7279Z" fill="#FF513F"/>
<path d="M859.94 72.0413L856.644 75.1175L845.097 76.8286L848.259 73.7716L859.94 72.0413Z" fill="#001E20"/>
<path d="M851.034 48.8352L855.237 70.138L854.196 74.3294L848.124 52.2767L851.034 48.8352Z" fill="#FFC856"/>
<path d="M854.196 74.3293L845.753 76.6364L836.867 55.3528L848.124 52.2766L854.196 74.3293Z" fill="#FF513F"/>
<path d="M851.034 48.8352L848.123 52.2767L836.866 55.353L839.642 51.9499L851.034 48.8352Z" fill="#FFB300"/>
<path d="M842.109 53.1994L827.71 47.7583L829.175 50.7384L814.891 52.8341L817.841 55.5834L799.201 67.2154L798.603 95.0937L812.52 74.4445L813.523 76.944L818.882 67.1001L820.751 68.0998L825.705 62.1973L826.149 63.6778L842.109 53.1994Z" fill="#007550"/>
<path d="M842.109 53.1995L824.78 59.1981L826.149 63.6778L842.109 53.1995Z" fill="#001E20"/>
<path d="M798.603 95.0935L812.521 74.4444L810.574 69.8301L798.796 86.1917L798.603 95.0935Z" fill="#001E20"/>
<path d="M824.78 59.198L810.574 69.8302L813.523 76.9439L818.882 67.1L820.752 68.0998L825.706 62.1973L824.78 59.198Z" fill="#001E20"/>
<path d="M843.44 51.9687L828.424 39.2793L828.905 43.5091L810.805 39.9522L813.195 44.5089L785.746 50.5652L773.101 83.8846L798.68 64.9658L798.854 68.3881L809.514 58.8133L811.326 60.8129L819.807 55.814L819.73 57.7751L843.44 51.9687Z" fill="#007550"/>
<path d="M843.44 51.969L820 51.8152L819.73 57.7754L843.44 51.969Z" fill="#001E20"/>
<path d="M773.101 83.8849L798.68 64.9661L798.353 58.5637L777.149 73.2335L773.101 83.8849Z" fill="#001E20"/>
<path d="M820 51.8152L798.352 58.5637L798.854 68.3883L809.513 58.8136L811.325 60.8131L819.807 55.8143L820 51.8152Z" fill="#001E20"/>
<path d="M844.307 52.9111L853.81 41.2599L854.061 44.5476L867.207 39.5295L866.07 43.3364L887.64 44.4899L901.943 68.446L879.93 57.1794L880.296 59.8326L870.87 53.834L869.81 55.6028L862.677 52.8534L863.024 54.3531L844.307 52.9111Z" fill="#007550"/>
<path d="M844.307 52.9111L861.964 49.7964L863.024 54.353L844.307 52.9111Z" fill="#001E20"/>
<path d="M901.943 68.4461L879.93 57.1794L879.274 52.219L897.355 60.794L901.943 68.4461Z" fill="#001E20"/>
<path d="M861.964 49.7964L879.274 52.2189L880.296 59.8326L870.87 53.8339L869.809 55.6028L862.677 52.8534L861.964 49.7964Z" fill="#001E20"/>
<path d="M842.572 52.488L849.03 34.2421L850.707 38.1259L864.277 26.3593L864.528 31.4735L890.782 23.5522L918 46.4509L886.946 42.2787L888.507 45.3357L874.725 42.1442L874.185 44.7397L864.509 44.4706L865.549 46.1433L842.572 52.488Z" fill="#007550"/>
<path d="M842.572 52.4879L862.369 41.0867L865.55 46.1432L842.572 52.4879Z" fill="#001E20"/>
<path d="M918 46.4512L886.946 42.279L884.055 36.5496L909.287 39.1259L918 46.4512Z" fill="#001E20"/>
<path d="M862.369 41.087L884.055 36.5496L888.508 45.336L874.725 42.1444L874.185 44.74L864.509 44.4708L862.369 41.087Z" fill="#001E20"/>
<path d="M843.44 53.9107L838.409 33.6846L836.192 37.6067L822.833 23.3407L822.024 28.7434L794.632 16.9768L763 37.8182L796.811 37.376L794.825 40.433L809.976 38.7988L810.265 41.6251L820.694 42.5864L819.402 44.2206L843.44 53.9107Z" fill="#007550"/>
<path d="M843.44 53.9105L823.354 39.2407L819.402 44.2204L843.44 53.9105Z" fill="#001E20"/>
<path d="M763 37.8183L796.81 37.3761L800.511 31.6466L773.12 31.1467L763 37.8183Z" fill="#001E20"/>
<path d="M823.354 39.2412L800.511 31.6467L794.825 40.4332L809.976 38.7989L810.265 41.6252L820.694 42.5865L823.354 39.2412Z" fill="#001E20"/>
<path d="M841.82 53.2187L838.177 32.7618L841.801 35.4535L848.182 17.0923L851.112 21.7066L871.294 0L908.632 6.38316L877.616 19.4956L880.681 21.4759L866.205 26.0518L867.072 28.7627L857.955 33.8L859.805 34.7805L841.82 53.2187Z" fill="#007550"/>
<path d="M841.82 53.2185L854.177 31.8196L859.805 34.7804L841.82 53.2185Z" fill="#001E20"/>
<path d="M908.632 6.38321L877.616 19.4956L871.911 15.7465L896.7 4.34521L908.632 6.38321Z" fill="#001E20"/>
<path d="M854.177 31.8199L871.911 15.7466L880.681 21.476L866.205 26.0519L867.072 28.7629L857.955 33.8002L854.177 31.8199Z" fill="#001E20"/>
<path d="M842.071 49.5657L847.314 35.1266L844.326 36.6263L842.013 22.418L839.295 25.3981L827.363 6.97919L799.394 6.80615L820.308 20.3608L817.822 21.4182L827.787 26.6286L826.804 28.4935L832.799 33.3386L831.334 33.8192L842.071 49.5657Z" fill="#007550"/>
<path d="M842.071 49.5658L835.787 32.3774L831.334 33.8194L842.071 49.5658Z" fill="#001E20"/>
<path d="M799.393 6.80615L820.308 20.3608L824.915 18.3804L808.337 6.86383L799.393 6.80615Z" fill="#001E20"/>
<path d="M835.787 32.3774L824.915 18.3806L817.822 21.4184L827.787 26.6287L826.804 28.4937L832.799 33.3387L835.787 32.3774Z" fill="#001E20"/>
<path d="M850.823 59.6403C847.948 59.6403 845.618 57.3162 845.618 54.4492C845.618 51.5822 847.948 49.2581 850.823 49.2581C853.697 49.2581 856.027 51.5822 856.027 54.4492C856.027 57.3162 853.697 59.6403 850.823 59.6403Z" fill="black"/>
<path d="M839.893 65.1774C837.018 65.1774 834.688 62.8533 834.688 59.9863C834.688 57.1193 837.018 54.7952 839.893 54.7952C842.767 54.7952 845.097 57.1193 845.097 59.9863C845.097 62.8533 842.767 65.1774 839.893 65.1774Z" fill="black"/>
<path d="M843.439 57.6791C840.565 57.6791 838.235 55.355 838.235 52.488C838.235 49.621 840.565 47.2969 843.439 47.2969C846.314 47.2969 848.644 49.621 848.644 52.488C848.644 55.355 846.314 57.6791 843.439 57.6791Z" fill="black"/>
</g>
<rect y="251" width="1920" height="522" fill="#007550"/>
<g clip-path="url(#clip1)">
<path d="M1781 201.579L1783 206.71L1782.93 207.803L1780.43 202.561L1781 201.579Z" fill="#FFC856"/>
<path d="M1782.93 207.803L1780.93 208.751L1777.77 203.827L1780.43 202.561L1782.93 207.803Z" fill="#FFC856"/>
<path d="M1781 201.579L1780.43 202.561L1777.77 203.826L1778.31 202.857L1781 201.579Z" fill="#FFC856"/>
<path d="M1778.3 196.239L1780.29 201.37L1780.22 202.465L1777.73 197.228L1778.3 196.239Z" fill="#FFC856"/>
<path d="M1780.22 202.465L1778.22 203.413L1775.07 198.491L1777.73 197.228L1780.22 202.465Z" fill="#FFC856"/>
<path d="M1778.3 196.239L1777.73 197.228L1775.07 198.491L1775.61 197.517L1778.3 196.239Z" fill="#FFC856"/>
<path d="M1775.59 190.899L1777.58 196.032L1777.51 197.125L1775.02 191.888L1775.59 190.899Z" fill="#FFC856"/>
<path d="M1777.51 197.125L1775.52 198.073L1772.36 193.151L1775.02 191.888L1777.51 197.125Z" fill="#FFC856"/>
<path d="M1775.59 190.899L1775.02 191.888L1772.36 193.151L1772.9 192.179L1775.59 190.899Z" fill="#FFC856"/>
<path d="M1771.94 185.794L1774.66 190.579L1774.75 191.671L1771.52 186.856L1771.94 185.794Z" fill="#FFC856"/>
<path d="M1774.75 191.671L1772.92 192.903L1769.08 188.499L1771.52 186.856L1774.75 191.671Z" fill="#FFC856"/>
<path d="M1771.94 185.794L1771.52 186.856L1769.08 188.498L1769.46 187.456L1771.94 185.794Z" fill="#FFC856"/>
<path d="M1767.38 181.442L1770.66 185.867L1770.88 186.94L1767.09 182.546L1767.38 181.442Z" fill="#FFC856"/>
<path d="M1770.88 186.94L1769.2 188.383L1764.86 184.47L1767.09 182.546L1770.88 186.94Z" fill="#FFC856"/>
<path d="M1767.38 181.442L1767.09 182.546L1764.86 184.47L1765.12 183.389L1767.38 181.442Z" fill="#FFC856"/>
<path d="M1765.82 183.408L1761.95 183.722L1762.61 184.246L1759.58 186.273L1760.55 186.583L1757.57 191.267L1760.47 197.719L1761.39 191.481L1761.89 191.945L1762.04 189.109L1762.58 189.136L1763.06 187.247L1763.33 187.538L1765.82 183.408Z" fill="#FFC856"/>
<path d="M1765.82 183.408L1762.53 186.66L1763.33 187.538L1765.82 183.408Z" fill="#FFC856"/>
<path d="M1760.47 197.719L1761.39 191.481L1760.45 190.635L1759.54 195.659L1760.47 197.719Z" fill="#FFC856"/>
<path d="M1762.53 186.66L1760.45 190.635L1761.89 191.945L1762.04 189.109L1762.58 189.136L1763.06 187.247L1762.53 186.66Z" fill="#FFC856"/>
<path d="M1765.99 182.983L1761.19 181.702L1761.76 182.619L1757.24 183.765L1758.29 184.55L1752.69 188.91L1753.44 197.914L1757.21 190.809L1757.62 191.574L1759 188.226L1759.64 188.487L1761.02 186.423L1761.22 186.881L1765.99 182.983Z" fill="#FFC856"/>
<path d="M1765.99 182.983L1760.63 185.486L1761.22 186.881L1765.99 182.983Z" fill="#FFC856"/>
<path d="M1753.44 197.914L1757.21 190.809L1756.43 189.377L1753.2 195.035L1753.44 197.914Z" fill="#FFC856"/>
<path d="M1760.63 185.486L1756.43 189.377L1757.62 191.574L1759 188.226L1759.64 188.487L1761.02 186.423L1760.63 185.486Z" fill="#FFC856"/>
<path d="M1766.29 183.104L1767.19 179.406L1767.6 180.132L1770.05 177.558L1770.21 178.553L1775.25 176.481L1781.12 180.421L1774.87 180.224L1775.25 180.792L1772.44 180.439L1772.4 180.959L1770.47 181.101L1770.71 181.407L1766.29 183.104Z" fill="#FFC856"/>
<path d="M1766.29 183.105L1769.98 180.478L1770.71 181.407L1766.29 183.105Z" fill="#FFC856"/>
<path d="M1781.12 180.421L1774.87 180.224L1774.18 179.158L1779.24 179.164L1781.12 180.421Z" fill="#FFC856"/>
<path d="M1769.98 180.478L1774.18 179.158L1775.25 180.792L1772.44 180.439L1772.4 180.959L1770.47 181.101L1769.98 180.478Z" fill="#FFC856"/>
<path d="M1765.85 183.195L1765.33 178.316L1766.14 179.024L1767.95 174.858L1768.56 176.003L1773.68 171.344L1782.38 173.642L1774.85 176.05L1775.54 176.581L1772.05 177.343L1772.21 177.996L1769.98 178.983L1770.39 179.253L1765.85 183.195Z" fill="#FFC856"/>
<path d="M1765.85 183.195L1769.12 178.439L1770.39 179.253L1765.85 183.195Z" fill="#FFC856"/>
<path d="M1782.38 173.642L1774.85 176.05L1773.57 175.051L1779.6 172.908L1782.38 173.642Z" fill="#FFC856"/>
<path d="M1769.12 178.439L1773.57 175.05L1775.54 176.581L1772.05 177.343L1772.21 177.996L1769.98 178.982L1769.12 178.439Z" fill="#FFC856"/>
<path d="M1766.2 183.428L1762.85 179.339L1762.77 180.477L1758.18 178.656L1758.58 179.981L1751.06 180.253L1746.12 188.454L1753.78 184.69L1753.66 185.606L1756.93 183.59L1757.3 184.206L1759.79 183.297L1759.67 183.811L1766.2 183.428Z" fill="#FFC856"/>
<path d="M1766.2 183.428L1760.03 182.242L1759.67 183.811L1766.2 183.428Z" fill="#FFC856"/>
<path d="M1746.12 188.453L1753.78 184.69L1753.99 182.976L1747.7 185.829L1746.12 188.453Z" fill="#FFC856"/>
<path d="M1760.03 182.242L1753.99 182.976L1753.66 185.605L1756.93 183.59L1757.3 184.206L1759.79 183.297L1760.03 182.242Z" fill="#FFC856"/>
<path d="M1765.76 183.444L1762.7 179.152L1763.82 179.376L1763.27 174.478L1764.44 175.218L1766.68 168.059L1775.88 165.477L1770.24 171.841L1771.16 171.962L1768.36 174.579L1768.85 175.106L1767.32 177.248L1767.85 177.272L1765.76 183.444Z" fill="#FFC856"/>
<path d="M1765.76 183.444L1766.24 177.203L1767.85 177.272L1765.76 183.444Z" fill="#FFC856"/>
<path d="M1775.88 165.477L1770.24 171.841L1768.53 171.6L1772.94 166.303L1775.88 165.477Z" fill="#FFC856"/>
<path d="M1766.24 177.203L1768.53 171.6L1771.16 171.963L1768.36 174.579L1768.85 175.106L1767.32 177.248L1766.24 177.203Z" fill="#FFC856"/>
<path d="M1765.42 182.58L1765.04 178.704L1764.52 179.371L1762.45 176.367L1762.15 177.344L1757.43 174.416L1751.03 177.406L1757.28 178.246L1756.83 178.758L1759.66 178.872L1759.64 179.406L1761.54 179.867L1761.26 180.136L1765.42 182.58Z" fill="#FFC856"/>
<path d="M1765.42 182.58L1762.11 179.323L1761.26 180.136L1765.42 182.58Z" fill="#FFC856"/>
<path d="M1751.03 177.407L1757.28 178.247L1758.11 177.294L1753.08 176.451L1751.03 177.407Z" fill="#FFC856"/>
<path d="M1762.11 179.323L1758.11 177.294L1756.83 178.758L1759.66 178.872L1759.64 179.406L1761.54 179.867L1762.11 179.323Z" fill="#FFC856"/>
<path d="M1767.95 184.387C1767.3 184.698 1766.51 184.418 1766.2 183.761C1765.89 183.105 1766.17 182.32 1766.82 182.008C1767.48 181.697 1768.26 181.977 1768.57 182.634C1768.88 183.291 1768.61 184.076 1767.95 184.387Z" fill="#FFC856"/>
<path d="M1766.32 185.959C1765.66 186.271 1764.88 185.99 1764.57 185.334C1764.26 184.677 1764.53 183.892 1765.19 183.581C1765.84 183.269 1766.63 183.549 1766.94 184.206C1767.25 184.863 1766.97 185.648 1766.32 185.959Z" fill="#FFC856"/>
<path d="M1765.91 183.764C1765.26 184.076 1764.47 183.795 1764.16 183.139C1763.85 182.482 1764.13 181.697 1764.78 181.386C1765.44 181.074 1766.22 181.354 1766.53 182.011C1766.84 182.668 1766.57 183.453 1765.91 183.764Z" fill="#FFC856"/>
</g>
<g clip-path="url(#clip2)">
<path d="M1793.45 200.418L1793.54 203.584L1793.83 204.146L1793.97 200.811L1793.45 200.418Z" fill="#FFC856"/>
<path d="M1793.83 204.146L1795.1 204.201L1795.66 200.884L1793.97 200.811L1793.83 204.146Z" fill="#FFC856"/>
<path d="M1793.45 200.418L1793.97 200.811L1795.66 200.884L1795.16 200.492L1793.45 200.418Z" fill="#FFC856"/>
<path d="M1793.69 196.983L1793.78 200.149L1794.06 200.711L1794.21 197.379L1793.69 196.983Z" fill="#FFC856"/>
<path d="M1794.06 200.712L1795.33 200.766L1795.9 197.452L1794.21 197.379L1794.06 200.712Z" fill="#FFC856"/>
<path d="M1793.69 196.983L1794.21 197.379L1795.9 197.452L1795.4 197.057L1793.69 196.983Z" fill="#FFC856"/>
<path d="M1793.92 193.549L1794.02 196.714L1794.3 197.277L1794.44 193.945L1793.92 193.549Z" fill="#FFC856"/>
<path d="M1794.3 197.276L1795.57 197.331L1796.13 194.017L1794.44 193.944L1794.3 197.276Z" fill="#FFC856"/>
<path d="M1793.92 193.549L1794.44 193.945L1796.13 194.017L1795.63 193.622L1793.92 193.549Z" fill="#FFC856"/>
<path d="M1794.71 190.025L1794.34 193.171L1794.54 193.769L1795.17 190.494L1794.71 190.025Z" fill="#FFC856"/>
<path d="M1794.54 193.769L1795.78 194.011L1796.83 190.816L1795.17 190.494L1794.54 193.769Z" fill="#FFC856"/>
<path d="M1794.71 190.025L1795.17 190.494L1796.83 190.816L1796.39 190.351L1794.71 190.025Z" fill="#FFC856"/>
<path d="M1796.15 186.698L1795.4 189.777L1795.53 190.395L1796.55 187.218L1796.15 186.698Z" fill="#FFC856"/>
<path d="M1795.53 190.395L1796.74 190.784L1798.16 187.737L1796.55 187.218L1795.53 190.395Z" fill="#FFC856"/>
<path d="M1796.15 186.698L1796.55 187.218L1798.16 187.737L1797.78 187.223L1796.15 186.698Z" fill="#FFC856"/>
<path d="M1797.41 187.39L1799.53 186.687L1799.3 187.112L1801.36 187.507L1800.92 187.889L1803.55 189.701L1803.46 193.768L1801.57 190.671L1801.41 191.029L1800.69 189.561L1800.42 189.695L1799.74 188.804L1799.66 189.017L1797.41 187.39Z" fill="#FFC856"/>
<path d="M1797.41 187.39L1799.89 188.373L1799.66 189.017L1797.41 187.39Z" fill="#FFC856"/>
<path d="M1803.46 193.768L1801.57 190.672L1801.88 190.011L1803.49 192.47L1803.46 193.768Z" fill="#FFC856"/>
<path d="M1799.89 188.373L1801.88 190.011L1801.41 191.03L1800.69 189.561L1800.42 189.695L1799.74 188.804L1799.89 188.373Z" fill="#FFC856"/>
<path d="M1797.23 187.202L1799.48 185.446L1799.39 186.06L1802.03 185.655L1801.66 186.304L1805.6 187.358L1807.23 192.293L1803.64 189.376L1803.59 189.874L1802.1 188.412L1801.83 188.692L1800.63 187.91L1800.63 188.197L1797.23 187.202Z" fill="#FFC856"/>
<path d="M1797.23 187.202L1800.63 187.326L1800.63 188.197L1797.23 187.202Z" fill="#FFC856"/>
<path d="M1807.23 192.294L1803.64 189.376L1803.72 188.445L1806.71 190.716L1807.23 192.294Z" fill="#FFC856"/>
<path d="M1800.63 187.326L1803.72 188.445L1803.59 189.874L1802.1 188.412L1801.83 188.692L1800.63 187.911L1800.63 187.326Z" fill="#FFC856"/>
<path d="M1797.1 187.334L1795.79 185.577L1795.73 186.054L1793.86 185.241L1794 185.803L1790.87 185.836L1788.64 189.239L1791.9 187.734L1791.84 188.119L1793.24 187.303L1793.38 187.568L1794.43 187.211L1794.37 187.428L1797.1 187.334Z" fill="#FFC856"/>
<path d="M1797.1 187.334L1794.56 186.77L1794.37 187.428L1797.1 187.334Z" fill="#FFC856"/>
<path d="M1788.64 189.239L1791.9 187.734L1792.03 187.015L1789.36 188.152L1788.64 189.239Z" fill="#FFC856"/>
<path d="M1794.56 186.77L1792.03 187.015L1791.83 188.119L1793.24 187.303L1793.38 187.568L1794.43 187.211L1794.56 186.77Z" fill="#FFC856"/>
<path d="M1797.35 187.284L1796.53 184.584L1796.26 185.139L1794.37 183.34L1794.3 184.084L1790.54 182.765L1786.45 185.933L1790.98 185.519L1790.74 185.954L1792.75 185.575L1792.82 185.957L1794.22 185.978L1794.06 186.215L1797.35 187.284Z" fill="#FFC856"/>
<path d="M1797.35 187.284L1794.55 185.498L1794.06 186.215L1797.35 187.284Z" fill="#FFC856"/>
<path d="M1786.45 185.933L1790.98 185.518L1791.44 184.701L1787.76 184.919L1786.45 185.933Z" fill="#FFC856"/>
<path d="M1794.55 185.498L1791.44 184.701L1790.74 185.954L1792.75 185.575L1792.82 185.957L1794.22 185.978L1794.55 185.498Z" fill="#FFC856"/>
<path d="M1797.22 187.486L1798.07 184.569L1798.37 185.154L1800.4 183.158L1800.48 183.951L1804.52 182.407L1808.98 185.642L1804.08 185.366L1804.35 185.824L1802.16 185.492L1802.1 185.902L1800.58 185.977L1800.76 186.223L1797.22 187.486Z" fill="#FFC856"/>
<path d="M1797.22 187.486L1800.22 185.473L1800.76 186.223L1797.22 187.486Z" fill="#FFC856"/>
<path d="M1808.98 185.642L1804.08 185.366L1803.58 184.508L1807.55 184.606L1808.98 185.642Z" fill="#FFC856"/>
<path d="M1800.22 185.473L1803.58 184.508L1804.35 185.824L1802.16 185.492L1802.1 185.902L1800.58 185.977L1800.22 185.473Z" fill="#FFC856"/>
<path d="M1797.45 187.395L1798.11 184.436L1797.57 184.805L1796.76 182.089L1796.31 182.743L1793.52 179.453L1788.06 180.151L1792.48 182.256L1792.02 182.525L1794.09 183.283L1793.95 183.672L1795.24 184.463L1794.96 184.595L1797.45 187.395Z" fill="#FFC856"/>
<path d="M1797.45 187.395L1795.8 184.198L1794.96 184.595L1797.45 187.395Z" fill="#FFC856"/>
<path d="M1788.06 180.151L1792.48 182.256L1793.33 181.745L1789.8 179.928L1788.06 180.151Z" fill="#FFC856"/>
<path d="M1795.8 184.198L1793.33 181.745L1792.02 182.525L1794.09 183.283L1793.95 183.672L1795.24 184.464L1795.8 184.198Z" fill="#FFC856"/>
<path d="M1797.44 186.861L1796.77 184.723L1797.2 184.961L1797.62 182.904L1798 183.355L1799.84 180.745L1803.9 180.895L1800.78 182.74L1801.13 182.909L1799.66 183.607L1799.79 183.885L1798.89 184.553L1799.1 184.633L1797.44 186.861Z" fill="#FFC856"/>
<path d="M1797.44 186.861L1798.46 184.395L1799.1 184.633L1797.44 186.861Z" fill="#FFC856"/>
<path d="M1803.9 180.894L1800.78 182.74L1800.12 182.422L1802.6 180.847L1803.9 180.894Z" fill="#FFC856"/>
<path d="M1798.46 184.394L1800.12 182.422L1801.13 182.909L1799.66 183.606L1799.79 183.884L1798.89 184.553L1798.46 184.394Z" fill="#FFC856"/>
<path d="M1796.5 188.386C1796.92 188.404 1797.27 188.08 1797.29 187.662C1797.31 187.244 1796.99 186.891 1796.57 186.873C1796.15 186.855 1795.8 187.179 1795.78 187.597C1795.76 188.015 1796.09 188.368 1796.5 188.386Z" fill="#FFC856"/>
<path d="M1797.72 188.853C1798.14 188.871 1798.49 188.546 1798.51 188.129C1798.53 187.711 1798.2 187.357 1797.79 187.339C1797.37 187.321 1797.02 187.646 1797 188.064C1796.98 188.481 1797.3 188.835 1797.72 188.853Z" fill="#FFC856"/>
<path d="M1797.45 187.599C1797.86 187.616 1798.21 187.292 1798.23 186.874C1798.25 186.456 1797.93 186.103 1797.51 186.085C1797.09 186.067 1796.74 186.392 1796.72 186.809C1796.71 187.227 1797.03 187.581 1797.45 187.599Z" fill="#FFC856"/>
</g>
<g clip-path="url(#clip3)">
<path d="M400.28 253.325L400.548 224.362L401.592 252.704L401.301 254.161L400.28 253.325Z" fill="white"/>
<path d="M400.293 251.46L393.68 245.706L392.41 240.264L400.311 249.705L400.293 251.46Z" fill="white"/>
<path d="M392.421 239.211L392.664 234.098L400.355 245.051L400.333 247.29L392.421 239.211Z" fill="white"/>
<path d="M392.953 231.967L400.37 243.267L400.402 240.072L394.085 227.452L392.953 231.967Z" fill="white"/>
<path d="M394.884 226.562L396.254 222.051L400.464 233.124L400.436 236.605L394.884 226.562Z" fill="white"/>
<path d="M400.494 229.91L397.454 220.713L398.596 218.266L400.527 226.901L400.494 229.91Z" fill="white"/>
<path d="M400.513 226.916L399.996 218.274L401.731 218.834L400.513 226.916Z" fill="white"/>
<path d="M402.589 219.291L400.7 227.217C400.7 227.217 400.798 231.109 400.793 230.928C400.788 230.747 403.818 221.87 403.83 221.649C403.851 221.418 402.589 219.291 402.589 219.291Z" fill="white"/>
<path d="M400.894 233.663L405.006 223.176L406.424 227.498L401.028 237.318L400.894 233.663Z" fill="white"/>
<path d="M401.148 240.52L407.171 229.097L408.372 233.068L401.249 243.317L401.148 240.52Z" fill="white"/>
<path d="M401.314 245.032L408.685 235.026L408.897 239.965L401.4 247.472L401.314 245.032Z" fill="white"/>
<path d="M401.492 249.988L409.136 241.466L407.987 246.385L401.559 251.732L401.492 249.988Z" fill="white"/>
</g>
<g clip-path="url(#clip4)">
<path d="M573.63 74.9661L573.158 84.7164L573.903 86.5146L575.151 76.3016L573.63 74.9661Z" fill="#001E20"/>
<path d="M573.903 86.5146L577.826 86.9937L580.387 76.941L575.151 76.3015L573.903 86.5146Z" fill="#001E20"/>
<path d="M573.63 74.9661L575.151 76.3016L580.387 76.9411L578.918 75.6119L573.63 74.9661Z" fill="#001E20"/>
<path d="M575.184 64.468L574.712 74.2184L575.466 76.0176L576.712 65.8132L575.184 64.468Z" fill="#001E20"/>
<path d="M575.466 76.0177L579.389 76.4968L581.94 66.4517L576.712 65.8132L575.466 76.0177Z" fill="#001E20"/>
<path d="M575.184 64.468L576.712 65.8131L581.94 66.4516L580.472 65.1138L575.184 64.468Z" fill="#001E20"/>
<path d="M576.738 53.9702L576.275 63.7216L577.02 65.5198L578.266 55.3153L576.738 53.9702Z" fill="#001E20"/>
<path d="M577.02 65.5199L580.943 65.999L583.494 55.9539L578.266 55.3154L577.02 65.5199Z" fill="#001E20"/>
<path d="M576.738 53.9702L578.266 55.3153L583.494 55.9538L582.035 54.6171L576.738 53.9702Z" fill="#001E20"/>
<path d="M580.036 43.3369L578.13 52.9121L578.601 54.7988L581.346 44.8906L580.036 43.3369Z" fill="#001E20"/>
<path d="M578.601 54.7987L582.411 55.8476L586.428 46.2864L581.346 44.8905L578.601 54.7987Z" fill="#001E20"/>
<path d="M580.036 43.3369L581.346 44.8906L586.429 46.2865L585.178 44.7488L580.036 43.3369Z" fill="#001E20"/>
<path d="M585.293 33.4654L582.248 42.7447L582.486 44.6726L586.41 35.161L585.293 33.4654Z" fill="#001E20"/>
<path d="M582.486 44.6727L586.145 46.1648L591.289 37.1505L586.41 35.161L582.486 44.6727Z" fill="#001E20"/>
<path d="M585.293 33.4653L586.41 35.1609L591.289 37.1504L590.23 35.4794L585.293 33.4653Z" fill="#001E20"/>
<path d="M589.056 35.9022L595.808 34.2617L594.989 35.5118L601.277 37.2292L599.805 38.295L607.527 44.5079L606.276 56.9851L601.162 47.0056L600.577 48.0665L598.711 43.3789L597.818 43.7228L595.919 40.8168L595.64 41.4534L589.056 35.9022Z" fill="#001E20"/>
<path d="M589.056 35.9023L596.498 39.5288L595.64 41.4535L589.056 35.9023Z" fill="#001E20"/>
<path d="M606.275 56.985L601.162 47.0056L602.286 45.0524L606.674 53.0008L606.275 56.985Z" fill="#001E20"/>
<path d="M596.498 39.5287L602.287 45.0525L600.577 48.0665L598.711 43.379L597.818 43.7229L595.919 40.8169L596.498 39.5287Z" fill="#001E20"/>
<path d="M588.527 35.2801L595.95 30.4378L595.504 32.2995L603.812 31.7027L602.492 33.6059L614.467 37.812L618.319 53.3777L607.883 43.5322L607.619 45.0504L603.362 40.1928L602.441 40.9861L598.911 38.2904L598.839 39.17L588.527 35.2801Z" fill="#001E20"/>
<path d="M588.527 35.2801L599.043 36.4946L598.839 39.17L588.527 35.2801Z" fill="#001E20"/>
<path d="M618.319 53.3777L607.883 43.5323L608.379 40.6923L617.085 48.4014L618.319 53.3777Z" fill="#001E20"/>
<path d="M599.043 36.4946L608.379 40.6921L607.619 45.0503L603.362 40.1927L602.441 40.9861L598.911 38.2903L599.043 36.4946Z" fill="#001E20"/>
<path d="M588.087 35.6531L584.462 29.9319L584.17 31.3857L578.55 28.426L578.853 30.1876L569.12 29.5217L561.403 39.4324L571.885 35.6082L571.576 36.7725L576.129 34.6108L576.508 35.4585L579.855 34.6216L579.617 35.2721L588.087 35.6531Z" fill="#001E20"/>
<path d="M588.087 35.6531L580.341 33.2961L579.618 35.2721L588.087 35.6531Z" fill="#001E20"/>
<path d="M561.403 39.4325L571.885 35.6084L572.449 33.43L563.877 36.2679L561.403 39.4325Z" fill="#001E20"/>
<path d="M580.341 33.296L572.449 33.4298L571.576 36.7725L576.129 34.6108L576.508 35.4584L579.855 34.6216L580.341 33.296Z" fill="#001E20"/>
<path d="M588.887 35.5593L586.987 27.061L586.024 28.7029L580.582 22.7075L580.191 24.9767L568.853 20.0035L555.404 28.7351L569.552 28.5728L568.685 29.8519L575.038 29.1817L575.138 30.3699L579.491 30.7795L578.933 31.4692L588.887 35.5593Z" fill="#001E20"/>
<path d="M588.888 35.5594L580.635 29.3863L578.933 31.4693L588.888 35.5594Z" fill="#001E20"/>
<path d="M555.404 28.7351L569.552 28.5728L571.16 26.1735L559.709 25.9422L555.404 28.7351Z" fill="#001E20"/>
<path d="M580.634 29.3861L571.16 26.1735L568.685 29.8519L575.038 29.1817L575.138 30.3699L579.491 30.7795L580.634 29.3861Z" fill="#001E20"/>
<path d="M588.421 36.147L591.779 27.3937L592.559 29.2659L599.325 23.629L599.393 26.085L612.314 22.3321L625.358 33.3672L610.226 31.3188L610.949 32.7921L604.246 31.2332L603.962 32.479L599.235 32.3372L599.725 33.1374L588.421 36.147Z" fill="#001E20"/>
<path d="M588.421 36.1468L598.225 30.698L599.725 33.1372L588.421 36.1468Z" fill="#001E20"/>
<path d="M625.358 33.3671L610.226 31.3188L608.879 28.5586L621.185 29.835L625.358 33.3671Z" fill="#001E20"/>
<path d="M598.225 30.6982L608.879 28.5586L610.949 32.7921L604.246 31.2331L603.962 32.4789L599.235 32.3371L598.225 30.6982Z" fill="#001E20"/>
<path d="M589.185 35.9267L591.933 26.9944L590.162 27.9976L588.302 19.4521L586.737 21.3514L578.873 10.557L561.788 11.3623L574.976 18.9135L573.494 19.6297L579.735 22.4648L579.198 23.6274L583.011 26.3752L582.128 26.7116L589.185 35.9267Z" fill="#001E20"/>
<path d="M589.185 35.9265L584.812 25.6978L582.128 26.7113L589.185 35.9265Z" fill="#001E20"/>
<path d="M561.787 11.3624L574.976 18.9135L577.738 17.5523L567.247 11.1059L561.787 11.3624Z" fill="#001E20"/>
<path d="M584.812 25.6979L577.738 17.5522L573.494 19.6296L579.734 22.4647L579.198 23.6274L583.01 26.3751L584.812 25.6979Z" fill="#001E20"/>
<path d="M589.271 34.2823L587.708 27.5499L588.966 28.3829L590.777 22.1671L591.833 23.6462L598.186 16.0774L610.734 17.5314L600.619 22.437L601.676 23.0452L596.925 24.8254L597.264 25.7118L594.312 27.5463L594.943 27.8411L589.271 34.2823Z" fill="#001E20"/>
<path d="M589.271 34.2823L593.026 26.9536L594.943 27.8411L589.271 34.2823Z" fill="#001E20"/>
<path d="M610.734 17.5312L600.619 22.4369L598.662 21.3007L606.721 17.0673L610.734 17.5312Z" fill="#001E20"/>
<path d="M593.025 26.9536L598.662 21.3007L601.676 23.0451L596.925 24.8254L597.264 25.7117L594.312 27.5463L593.025 26.9536Z" fill="#001E20"/>
<path d="M584.799 38.3003C586.088 38.4577 587.259 37.5477 587.415 36.268C587.572 34.9882 586.654 33.8231 585.365 33.6658C584.077 33.5084 582.905 34.4183 582.749 35.6981C582.593 36.9779 583.511 38.1429 584.799 38.3003Z" fill="#001E20"/>
<path d="M589.397 41.3704C590.685 41.5277 591.857 40.6178 592.013 39.338C592.169 38.0582 591.251 36.8932 589.963 36.7359C588.674 36.5785 587.503 37.4884 587.347 38.7682C587.19 40.048 588.108 41.213 589.397 41.3704Z" fill="#001E20"/>
<path d="M588.216 37.8291C589.504 37.9865 590.675 37.0766 590.832 35.7968C590.988 34.517 590.07 33.352 588.782 33.1946C587.493 33.0372 586.322 33.9471 586.165 35.2269C586.009 36.5067 586.927 37.6717 588.216 37.8291Z" fill="#001E20"/>
</g>
<g clip-path="url(#clip5)">
<path d="M563.465 79.7024L562.172 86.2551L561.379 87.3265L562.233 80.3386L563.465 79.7024Z" fill="#001E20"/>
<path d="M561.379 87.3265L558.689 86.998L558.642 79.9001L562.233 80.3386L561.379 87.3265Z" fill="#001E20"/>
<path d="M563.465 79.7024L562.233 80.3386L558.642 79.9001L559.839 79.2595L563.465 79.7024Z" fill="#001E20"/>
<path d="M564.161 72.4749L562.868 79.0276L562.07 80.0982L562.922 73.1162L564.161 72.4749Z" fill="#001E20"/>
<path d="M562.07 80.0982L559.38 79.7697L559.338 72.6784L562.922 73.1162L562.07 80.0982Z" fill="#001E20"/>
<path d="M564.161 72.4749L562.922 73.1162L559.338 72.6784L560.535 72.032L564.161 72.4749Z" fill="#001E20"/>
<path d="M564.857 65.2471L563.558 71.7991L562.766 72.8704L563.618 65.8884L564.857 65.2471Z" fill="#001E20"/>
<path d="M562.766 72.8707L560.076 72.5422L560.034 65.4509L563.619 65.8887L562.766 72.8707Z" fill="#001E20"/>
<path d="M564.857 65.2471L563.618 65.8884L560.034 65.4506L561.225 64.8035L564.857 65.2471Z" fill="#001E20"/>
<path d="M564.415 57.6421L564.105 64.315L563.481 65.4902L563.287 58.4579L564.415 57.6421Z" fill="#001E20"/>
<path d="M563.481 65.4902L560.772 65.5587L559.674 58.547L563.287 58.4578L563.481 65.4902Z" fill="#001E20"/>
<path d="M564.415 57.6421L563.287 58.4579L559.674 58.5471L560.76 57.7321L564.415 57.6421Z" fill="#001E20"/>
<path d="M562.543 50.2202L563.04 56.8843L562.564 58.1254L561.52 51.162L562.543 50.2202Z" fill="#001E20"/>
<path d="M562.564 58.1253L559.883 58.513L557.945 51.6789L561.52 51.162L562.564 58.1253Z" fill="#001E20"/>
<path d="M562.543 50.2202L561.52 51.1621L557.945 51.679L558.925 50.7439L562.543 50.2202Z" fill="#001E20"/>
<path d="M559.637 51.2182L555.414 49.0159L555.753 49.981L551.284 50.0849L552.088 51.0353L545.924 53.8883L544.701 62.3805L549.749 56.5962L549.964 57.3973L551.978 54.5919L552.516 54.9674L554.259 53.3506L554.34 53.8194L559.637 51.2182Z" fill="#001E20"/>
<path d="M559.637 51.218L554.086 52.3996L554.34 53.8192L559.637 51.218Z" fill="#001E20"/>
<path d="M544.701 62.3804L549.749 56.5961L549.323 55.1137L545.092 59.6688L544.701 62.3804Z" fill="#001E20"/>
<path d="M554.086 52.3996L549.323 55.1136L549.964 57.397L551.978 54.5916L552.516 54.9672L554.259 53.3504L554.086 52.3996Z" fill="#001E20"/>
<path d="M560.092 50.8922L555.949 46.4529L555.939 47.7629L550.508 45.997L551.073 47.4785L542.409 48.2978L537.279 57.9996L545.848 53.1816L545.774 54.2334L549.408 51.7092L549.89 52.3879L552.684 51.1795L552.587 51.7756L560.092 50.8922Z" fill="#001E20"/>
<path d="M560.092 50.8922L552.892 49.9653L552.587 51.7756L560.092 50.8922Z" fill="#001E20"/>
<path d="M537.279 57.9995L545.848 53.1815L545.986 51.2138L538.921 54.8983L537.279 57.9995Z" fill="#001E20"/>
<path d="M552.892 49.9653L545.986 51.2138L545.774 54.2334L549.408 51.7092L549.89 52.3879L552.684 51.1795L552.892 49.9653Z" fill="#001E20"/>
<path d="M560.323 51.2125L563.679 48.0107L563.633 49.0242L567.862 47.9851L567.37 49.1051L573.958 50.2672L577.461 58.1208L571.114 53.8534L571.128 54.6775L568.454 52.4915L568.062 52.9919L565.972 51.8845L566.023 52.3555L560.323 51.2125Z" fill="#001E20"/>
<path d="M560.323 51.2125L565.867 50.9241L566.023 52.3556L560.323 51.2125Z" fill="#001E20"/>
<path d="M577.461 58.1207L571.114 53.8532L571.098 52.3136L576.336 55.6113L577.461 58.1207Z" fill="#001E20"/>
<path d="M565.867 50.9241L571.098 52.3138L571.128 54.6776L568.454 52.4916L568.062 52.9921L565.972 51.8846L565.867 50.9241Z" fill="#001E20"/>
<path d="M559.806 51.0181L562.471 45.6878L562.842 46.9369L567.452 43.8526L567.339 45.424L575.704 43.9902L583.217 52.0057L573.827 49.5657L574.193 50.558L570.075 49.0658L569.812 49.8383L566.848 49.3929L567.105 49.9428L559.806 51.0181Z" fill="#001E20"/>
<path d="M559.806 51.0181L566.316 48.279L567.105 49.9428L559.806 51.0181Z" fill="#001E20"/>
<path d="M583.217 52.0059L573.827 49.5659L573.152 47.7074L580.812 49.4415L583.217 52.0059Z" fill="#001E20"/>
<path d="M566.316 48.2791L573.151 47.7074L574.193 50.5581L570.075 49.0659L569.812 49.8384L566.848 49.393L566.316 48.2791Z" fill="#001E20"/>
<path d="M560.019 51.4853L559.227 45.1189L558.399 46.2336L554.825 41.375L554.375 42.9947L546.394 38.3726L535.893 43.5506L546.302 44.6848L545.578 45.5439L550.296 45.6136L550.28 46.4876L553.45 47.1727L552.992 47.6234L560.019 51.4853Z" fill="#001E20"/>
<path d="M560.019 51.4854L554.392 46.2509L552.992 47.6234L560.019 51.4854Z" fill="#001E20"/>
<path d="M535.893 43.5506L546.303 44.6848L547.654 43.0738L539.253 41.8929L535.893 43.5506Z" fill="#001E20"/>
<path d="M554.392 46.2507L547.654 43.0737L545.578 45.5438L550.297 45.6134L550.28 46.4875L553.45 47.1726L554.392 46.2507Z" fill="#001E20"/>
<path d="M559.547 51.2132L559.19 44.8284L560.204 45.7866L562.85 40.4182L563.579 41.9375L570.592 36.0654L581.831 39.4166L571.808 42.2571L572.677 42.977L568.056 43.8312L568.222 44.6917L565.231 45.888L565.763 46.2569L559.547 51.2132Z" fill="#001E20"/>
<path d="M559.547 51.2131L564.144 45.1412L565.763 46.2569L559.547 51.2131Z" fill="#001E20"/>
<path d="M581.832 39.4164L571.809 42.2569L570.195 40.8977L578.24 38.346L581.832 39.4164Z" fill="#001E20"/>
<path d="M564.144 45.1412L570.195 40.8978L572.677 42.977L568.056 43.8311L568.222 44.6916L565.231 45.8879L564.144 45.1412Z" fill="#001E20"/>
<path d="M559.76 50.1068L561.911 45.8936L560.936 46.2395L560.755 41.8131L559.809 42.6213L556.828 36.5478L548.237 35.445L554.16 40.37L553.356 40.5996L556.225 42.5651L555.854 43.0978L557.516 44.8026L557.047 44.8944L559.76 50.1068Z" fill="#001E20"/>
<path d="M559.761 50.1067L558.47 44.621L557.048 44.8943L559.761 50.1067Z" fill="#001E20"/>
<path d="M548.237 35.445L554.16 40.37L555.65 39.9381L550.984 35.7984L548.237 35.445Z" fill="#001E20"/>
<path d="M558.47 44.6211L555.65 39.9381L553.356 40.5996L556.226 42.5651L555.854 43.0978L557.516 44.8026L558.47 44.6211Z" fill="#001E20"/>
<path d="M562.075 53.5122C561.191 53.4043 560.562 52.607 560.669 51.7314C560.776 50.8557 561.579 50.2333 562.462 50.3412C563.346 50.4491 563.975 51.2465 563.868 52.1221C563.761 52.9978 562.958 53.6201 562.075 53.5122Z" fill="#001E20"/>
<path d="M558.509 54.7932C557.625 54.6853 556.996 53.888 557.103 53.0124C557.209 52.1367 558.012 51.5143 558.896 51.6223C559.78 51.7302 560.409 52.5275 560.302 53.4031C560.195 54.2788 559.392 54.9011 558.509 54.7932Z" fill="#001E20"/>
<path d="M559.879 52.6363C558.995 52.5283 558.366 51.731 558.473 50.8554C558.58 49.9797 559.383 49.3574 560.266 49.4653C561.15 49.5732 561.779 50.3705 561.672 51.2461C561.565 52.1218 560.762 52.7442 559.879 52.6363Z" fill="#001E20"/>
</g>
<path d="M1407.17 290L1469.44 317.732L1407.17 343.519V290Z" fill="#FF513F"/>
<ellipse cx="1378.95" cy="563.917" rx="28.2189" ry="15.0825" fill="#001E20"/>
<line x1="1407.67" y1="290" x2="1407.67" y2="564.404" stroke="white"/>
<path d="M1691 655.396L1636.98 699.763L1635.22 637.571L1691 655.396Z" fill="black" fill-opacity="0.1"/>
<line y1="-1" x2="300.249" y2="-1" transform="matrix(-0.952544 -0.3044 0.424287 -0.905528 1691 655.396)" stroke="black" stroke-opacity="0.1" stroke-width="2"/>
<ellipse cx="1353.87" cy="553.686" rx="14.9139" ry="5.5" transform="rotate(17.3003 1353.87 553.686)" fill="#001E20" fill-opacity="0.1"/>
<circle cx="1346.24" cy="543.244" r="9.24411" fill="white"/>
<path d="M440.721 67H-0.00012207V252H1920L440.721 67Z" fill="#007550"/>
<path d="M643 205.5L1129.99 179L1256 195.5L1141.63 253L840 268L643 205.5Z" fill="#001E20" fill-opacity="0.1"/>
<path d="M643 193.59L1068.03 179L1178 188.084L1078.18 219.742L814.933 228L643 193.59Z" fill="#001E20" fill-opacity="0.1"/>
<g clip-path="url(#clip6)">
<path d="M967.86 14.3811L970.697 36.0002L980.121 36.0002L982.958 14.3811L967.86 14.3811Z" fill="#FFC856"/>
<path d="M968.245 17.4382L961.689 14.8096L961 14.4096L962.854 10.5906L966.958 8.66675L971.862 11.162L968.245 17.4382Z" fill="#FF513F"/>
<path d="M963.361 11.1142L966.907 9.35229L971.497 11.7047L968.245 17.438L961.709 14.7809L963.361 11.1142Z" fill="#FFC856"/>
<path d="M967.86 14.3811L968.498 19.2763L982.309 19.2763L982.958 14.3811L967.86 14.3811Z" fill="#EFECDE"/>
<path d="M982.603 10.3335L975.409 35.3811L976.726 35.7621L983.819 10.7144L982.603 10.3335Z" fill="#001E20"/>
<path d="M982.603 10.3333L984.326 8.14282L985.339 8.80949L983.819 10.7143L982.603 10.3333Z" fill="#001E20"/>
<path d="M984.326 8.14286L989.696 7L990 7.85714L985.339 8.80952L984.326 8.14286Z" fill="#001E20"/>
<path d="M968.245 17.4382L963.351 11.0954L966.897 9.3811L968.245 17.4382Z" fill="#FFC856"/>
</g>
<g clip-path="url(#clip7)">
<path d="M1165 118.471L1111.56 84.8442L1080 118.471L1067.13 180.92H1160.2L1165 118.471Z" fill="#FF513F"/>
<path d="M990.5 35L1042.5 54.5L1111.56 84.8442L962.049 94.4518L990.5 35Z" fill="#001E20"/>
<path d="M1067.13 180.92H983.665L972.857 137.686L962.049 94.4518L1111.56 84.8442L1079 124.5L1073.06 152.71L1067.13 180.92Z" fill="#E34737"/>
<path d="M896 102.258L962.049 94.4519L983.665 180.92L877.386 195.932L896 102.258Z" fill="#FF513F"/>
<path d="M990.5 35L859 37L797.767 81.8419L962.289 94.4518L990.5 35Z" fill="#001E20"/>
<path d="M990.5 35L859 37L797.767 81.8419L962.289 94.4518L990.5 35Z" fill="url(#paint0_linear)" fill-opacity="0.25"/>
<path d="M990.5 34.9998L962.049 94.4518L946.438 93.2509L983.5 34.9998H990.5Z" fill="#FF513F"/>
<path d="M859 37H866L806.053 82.4424L797.527 81.8419L859 37Z" fill="#FF513F"/>
<path d="M1145.32 74.6177L1139.35 88.3824L1117.65 89.9769L1084.4 73.1304L1145.32 74.6177Z" fill="#FF513F"/>
<path d="M996.157 77.3426L992.837 91.7967L969.762 99.662L930 93.9298L996.157 77.3426Z" fill="#FF513F"/>
<path d="M790.068 86.8655L793.388 72.4114L816.463 64.5461L822.5 69.5L790.068 86.8655Z" fill="#FF513F"/>
<path d="M1160.5 180.92L1152.5 185.5L951.842 199.535V180.92H1160.5Z" fill="#001E20"/>
<path d="M896 102.258L877.386 195.932L751.893 210.944L627 195.932V145.252L638.409 153.899L825.748 156.661L896 102.258Z" fill="#E34737"/>
<path d="M895.399 89.2877L797.527 81.8418L675.036 94.4518L859.373 102.258L895.399 89.2877Z" fill="#FF513F"/>
<path d="M756.696 155.58L859.373 102.258L675.036 94.4519L638.409 153.899L756.696 155.58Z" fill="#FF513F"/>
<path d="M627 145.252L638.408 153.899L675.036 94.4519L627 145.252Z" fill="#FF513F"/>
<path d="M825.748 156.661L813.739 192.93L751 200.5L756 167.5L825.748 156.661Z" fill="#001E20"/>
<path d="M1078.51 124.573L1071.66 157.882L1057 158L1061.43 130.784L1078.51 124.573Z" fill="#001E20"/>
<path d="M1054 166.421L1057 161L1071.5 160.5L1070.3 166.514L1054 166.421Z" fill="#001E20"/>
<path d="M638.408 153.899V184.523L627 180.92V145.252L638.408 153.899Z" fill="#001E20"/>
<path d="M724.272 175.756L738.683 199.535L645.614 190.288L648.136 170.592L724.272 175.756Z" fill="#001E20"/>
<path d="M962.049 94.4519L896 102.258L825.748 156.661L756.696 155.58L859.373 102.258L895.4 89.2878L962.049 94.4519Z" fill="#FF513F"/>
<path d="M883.991 210.944L752.493 219.351L751.893 210.944L877.386 195.932L883.991 210.944Z" fill="#001E20"/>
<path d="M627 195.932L751.893 210.944L752.493 219.351L627 203.738V195.932Z" fill="#001E20"/>
<path d="M809.983 140.09C804.669 132.883 811.828 118.585 825.973 108.153C840.118 97.7217 855.892 95.107 861.206 102.313C866.52 109.519 859.361 123.818 845.216 134.25C831.071 144.681 815.297 147.296 809.983 140.09Z" fill="white"/>
<path d="M650.962 126.959C647.011 122.663 652.196 111.464 662.543 101.945C672.89 92.4255 684.481 88.1904 688.432 92.4857C692.384 96.781 687.199 107.98 676.852 117.499C666.505 127.019 654.913 131.254 650.962 126.959Z" fill="white"/>
<path d="M915 231C892.356 231 874 205.704 874 174.5C874 143.296 892.356 118 915 118C937.644 118 956 143.296 956 174.5C956 205.704 937.644 231 915 231Z" fill="#001E20"/>
<path d="M896.071 232.409C873.388 232.409 863.5 214.5 861.5 202C861.5 198.5 865.317 202 888 202C910.683 202 937.141 145.163 937.141 176.204C937.141 207.245 918.753 232.409 896.071 232.409Z" fill="#001E20"/>
<path d="M1096.04 206.88C1079.61 203.99 1074.44 191.386 1074.39 183.213C1074.78 180.997 1077.15 183.7 1093.58 186.59C1110.01 189.48 1135.51 156.849 1132.05 176.512C1128.59 196.174 1112 206.88 1096.04 206.88Z" fill="#001E20"/>
<path d="M1107.12 206.346C1091.04 205.201 1079.33 185.632 1080.96 162.637C1082.6 139.641 1096.96 121.928 1113.04 123.073C1129.13 124.218 1140.84 143.787 1139.2 166.782C1137.56 189.777 1123.2 207.491 1107.12 206.346Z" fill="#001E20"/>
<path d="M925 231C902.356 231 884 205.704 884 174.5C884 143.296 902.356 118 925 118C947.644 118 966 143.296 966 174.5C966 205.704 947.644 231 925 231Z" fill="#001E20"/>
<path d="M927 216C909.879 216 896 197.42 896 174.5C896 151.58 909.879 133 927 133C944.121 133 958 151.58 958 174.5C958 197.42 944.121 216 927 216Z" fill="white"/>
<path d="M900.5 174.5C900.5 184.483 903.494 193.501 908.31 200.012C913.126 206.523 919.74 210.5 927 210.5C934.26 210.5 940.874 206.523 945.69 200.012C950.506 193.501 953.5 184.483 953.5 174.5C953.5 164.517 950.506 155.499 945.69 148.988C940.874 142.477 934.26 138.5 927 138.5C919.74 138.5 913.126 142.477 908.31 148.988C903.494 155.499 900.5 164.517 900.5 174.5Z" fill="white" stroke="black"/>
<path d="M1113 207C1093.7 205.626 1079.15 184.805 1080.79 161.809C1082.43 138.814 1096.5 120.5 1118.7 122.661C1138.01 124.035 1152.33 143.79 1150.69 166.785C1149.05 189.78 1132.3 208.374 1113 207Z" fill="#001E20"/>
<path d="M1123 196C1111.4 196 1102 182.121 1102 165C1102 147.879 1111.4 134 1123 134C1134.6 134 1144 147.879 1144 165C1144 182.121 1134.6 196 1123 196Z" fill="#C4C4C4"/>
<path d="M1105.5 165C1105.5 172.648 1107.55 179.549 1110.84 184.523C1114.12 189.502 1118.61 192.5 1123.5 192.5C1128.39 192.5 1132.88 189.502 1136.16 184.523C1139.45 179.549 1141.5 172.648 1141.5 165C1141.5 157.352 1139.45 150.451 1136.16 145.477C1132.88 140.498 1128.39 137.5 1123.5 137.5C1118.61 137.5 1114.12 140.498 1110.84 145.477C1107.55 150.451 1105.5 157.352 1105.5 165Z" stroke="black"/>
<rect x="889" y="221" width="40" height="10" fill="#001E20"/>
<rect x="1097" y="198" width="20" height="9" fill="#001E20"/>
<g filter="url(#filter0_d)">
<path d="M704.964 131.495L708.004 131.413L711.402 132.39L706.971 138.842L704 138.429L704.964 131.495Z" fill="#FFC856"/>
</g>
<rect x="914" y="118" width="12" height="9" fill="#001E20"/>
<path d="M646 185L734.5 192.5L739 199.5L645.5 190.5L646 185Z" fill="#AA3528"/>
<path d="M1067 158L1072 127L1078.5 124.5L1072 158L1067 158Z" fill="#6A1F17"/>
<path d="M1054 166.5L1066 163.5L1066.5 160.5L1071.5 160.5L1070.5 166.5L1054 166.5Z" fill="#6A1F17"/>
<path d="M627 173L638.5 178.5V184.5L627 181V173Z" fill="#AA3528"/>
<path d="M751 201V197L807.5 187L821.5 157L826 156L814.5 193L751 201Z" fill="#AA3528"/>
</g>
<g clip-path="url(#clip8)">
<path d="M917.305 84.7697L914.019 84.5213L919.186 78.298L922.467 78.5461L917.305 84.7697Z" fill="white"/>
<path d="M919.884 81.6577L916.602 81.4096L922.467 78.5461L925.753 78.7983L919.884 81.6577Z" fill="white"/>
<path d="M919.884 81.6578L916.602 81.4097L917.305 84.7697L920.586 85.0178L919.884 81.6578Z" fill="white"/>
<path d="M926.451 82.158L923.17 81.9099L923.872 85.2699L927.154 85.5181L926.451 82.158Z" fill="white"/>
<path d="M929.034 79.0465L923.17 81.9101L926.451 82.1582L932.32 79.2949L929.034 79.0465Z" fill="white"/>
<path d="M933.018 82.6585L929.737 82.4065L930.439 85.7704L933.721 86.0185L933.018 82.6585Z" fill="white"/>
<path d="M935.602 79.5468L929.737 82.4065L933.018 82.6585L938.887 79.7952L935.602 79.5468Z" fill="white"/>
<path d="M935.363 86.1446L932.078 85.8924L937.245 79.6691L940.53 79.9213L935.363 86.1446Z" fill="white"/>
<path d="M939.939 84.8351L942.871 83.4072L942.169 80.0433L938.887 79.7952L939.509 82.786L939.939 84.8351Z" fill="white"/>
<path d="M939.59 83.1554L942.871 83.4074L937.006 86.2671L933.721 86.0187L939.59 83.1554Z" fill="white"/>
</g>
<path d="M649.487 129.091L656.734 128.302L664.423 125.807L670.841 122.446L675.986 118.645L681.569 113.565L686.738 107.199L689.355 100.382L689.398 95.6796L688.144 93.1028L686.035 90.9457L683.066 89.6359L483.406 82.2491L-45.379 68L-46.9999 244.993L649.487 129.091Z" fill="url(#paint1_radial)" fill-opacity="0.5"/>
<path d="M816.5 145L825 144L834 141L841.5 137L847.5 132.5L854 126.5L860 119L863 111L863 105.5L861.5 102.5L859 100L855.5 98.5L621 92L1.32293e-05 81L6.84541e-05 288L816.5 145Z" fill="url(#paint2_radial)" fill-opacity="0.5"/>
<g clip-path="url(#clip9)">
<path d="M1262.31 288.129L1262.93 221.558L1265.33 286.703L1264.66 290.051L1262.31 288.129Z" fill="#001E20"/>
<path d="M1262.34 283.843L1247.15 270.618L1244.22 258.108L1262.39 279.808L1262.34 283.843Z" fill="#001E20"/>
<path d="M1244.25 255.69L1244.81 243.936L1262.49 269.112L1262.44 274.257L1244.25 255.69Z" fill="#001E20"/>
<path d="M1245.47 239.039L1262.52 265.012L1262.6 257.669L1248.08 228.66L1245.47 239.039Z" fill="#001E20"/>
<path d="M1249.91 226.614L1253.06 216.247L1262.74 241.697L1262.67 249.699L1249.91 226.614Z" fill="#001E20"/>
<path d="M1262.81 234.31L1255.82 213.171L1258.44 207.547L1262.88 227.394L1262.81 234.31Z" fill="#001E20"/>
<path d="M1262.85 227.43L1261.66 207.566L1265.65 208.852L1262.85 227.43Z" fill="#001E20"/>
<path d="M1267.62 209.904L1263.28 228.121C1263.28 228.121 1263.51 237.066 1263.49 236.65C1263.48 236.233 1270.45 215.83 1270.47 215.323C1270.52 214.792 1267.62 209.904 1267.62 209.904Z" fill="#001E20"/>
<path d="M1263.73 242.936L1273.18 218.832L1276.44 228.766L1264.03 251.337L1263.73 242.936Z" fill="#001E20"/>
<path d="M1264.31 258.697L1278.15 232.441L1280.91 241.569L1264.54 265.126L1264.31 258.697Z" fill="#001E20"/>
<path d="M1264.69 269.069L1281.63 246.07L1282.12 257.423L1264.89 274.677L1264.69 269.069Z" fill="#001E20"/>
<path d="M1265.1 280.46L1282.67 260.872L1280.03 272.176L1265.25 284.468L1265.1 280.46Z" fill="#001E20"/>
</g>
<g clip-path="url(#clip10)">
<path d="M1241.31 303.257L1241.93 236.686L1244.33 301.831L1243.66 305.18L1241.31 303.257Z" fill="white"/>
<path d="M1241.34 298.971L1226.15 285.746L1223.22 273.237L1241.39 294.936L1241.34 298.971Z" fill="white"/>
<path d="M1223.25 270.818L1223.81 259.064L1241.49 284.24L1241.44 289.385L1223.25 270.818Z" fill="white"/>
<path d="M1224.47 254.167L1241.52 280.14L1241.6 272.797L1227.08 243.788L1224.47 254.167Z" fill="white"/>
<path d="M1228.91 241.742L1232.06 231.375L1241.74 256.825L1241.67 264.827L1228.91 241.742Z" fill="white"/>
<path d="M1241.81 249.438L1234.82 228.299L1237.44 222.675L1241.88 242.523L1241.81 249.438Z" fill="white"/>
<path d="M1241.85 242.558L1240.66 222.694L1244.65 223.98L1241.85 242.558Z" fill="white"/>
<path d="M1246.62 225.032L1242.28 243.249C1242.28 243.249 1242.51 252.195 1242.49 251.778C1242.48 251.362 1249.45 230.958 1249.47 230.451C1249.52 229.92 1246.62 225.032 1246.62 225.032Z" fill="white"/>
<path d="M1242.73 258.065L1252.18 233.96L1255.44 243.894L1243.03 266.465L1242.73 258.065Z" fill="white"/>
<path d="M1243.31 273.825L1257.15 247.569L1259.91 256.697L1243.54 280.254L1243.31 273.825Z" fill="white"/>
<path d="M1243.69 284.197L1260.63 261.199L1261.12 272.551L1243.89 289.805L1243.69 284.197Z" fill="white"/>
<path d="M1244.1 295.588L1261.67 276L1259.03 287.305L1244.25 299.596L1244.1 295.588Z" fill="white"/>
</g>
<defs>
<filter id="filter0_d" x="704" y="131.413" width="7.40191" height="8.42857" filterUnits="userSpaceOnUse" color-interpolation-filters="sRGB">
<feFlood flood-opacity="0" result="BackgroundImageFix"/>
<feColorMatrix in="SourceAlpha" type="matrix" values="0 0 0 0 0 0 0 0 0 0 0 0 0 0 0 0 0 0 127 0"/>
<feOffset dy="1"/>
<feColorMatrix type="matrix" values="0 0 0 0 0 0 0 0 0 0.117647 0 0 0 0 0.12549 0 0 0 1 0"/>
<feBlend mode="normal" in2="BackgroundImageFix" result="effect1_dropShadow"/>
<feBlend mode="normal" in="SourceGraphic" in2="effect1_dropShadow" result="shape"/>
</filter>
<linearGradient id="paint0_linear" x1="864.5" y1="36.5" x2="950.5" y2="91" gradientUnits="userSpaceOnUse">
<stop stop-color="white"/>
<stop offset="1" stop-color="white" stop-opacity="0"/>
</linearGradient>
<radialGradient id="paint1_radial" cx="0" cy="0" r="1" gradientUnits="userSpaceOnUse" gradientTransform="translate(670.699 86.8086) rotate(173.165) scale(558.849 280.574)">
<stop stop-color="#FFD45D"/>
<stop offset="1" stop-color="#C4C4C4" stop-opacity="0"/>
</radialGradient>
<radialGradient id="paint2_radial" cx="0" cy="0" r="1" gradientUnits="userSpaceOnUse" gradientTransform="translate(840.949 95.3261) rotate(172.669) scale(656.13 328.15)">
<stop stop-color="#FFD45D"/>
<stop offset="1" stop-color="#C4C4C4" stop-opacity="0"/>
</radialGradient>
<clipPath id="clip0">
<rect width="155" height="169" fill="white" transform="matrix(-1 0 0 1 918 0)"/>
</clipPath>
<clipPath id="clip1">
<rect width="39.1095" height="42.8701" fill="white" transform="matrix(-0.903168 0.429287 0.429287 0.903168 1777.32 163)"/>
</clipPath>
<clipPath id="clip2">
<rect width="22.4936" height="24.6564" fill="white" transform="translate(1786.74 179.162) rotate(2.46482)"/>
</clipPath>
<clipPath id="clip3">
<rect width="28.0532" height="26.021" fill="white" transform="matrix(0.667702 -0.744429 0.780171 0.625566 381 237.884)"/>
</clipPath>
<clipPath id="clip4">
<rect width="70" height="76" fill="white" transform="translate(557.936 8) rotate(6.96257)"/>
</clipPath>
<clipPath id="clip5">
<rect width="48" height="52" fill="white" transform="matrix(-0.992626 -0.121221 -0.121221 0.992626 584.949 37.8186)"/>
</clipPath>
<clipPath id="clip6">
<rect width="29" height="29" fill="white" transform="translate(961 7)"/>
</clipPath>
<clipPath id="clip7">
<rect width="538" height="202" fill="white" transform="matrix(-1 0 0 1 1165 29)"/>
</clipPath>
<clipPath id="clip8">
<rect width="28.726" height="6.83951" fill="white" transform="translate(914.427 78) rotate(3.58326)"/>
</clipPath>
<clipPath id="clip9">
<rect width="64.4792" height="59.8084" fill="white" transform="matrix(0.667702 -0.744429 0.780171 0.625566 1218 252.637)"/>
</clipPath>
<clipPath id="clip10">
<rect width="64.4792" height="59.8084" fill="white" transform="matrix(0.667702 -0.744429 0.780171 0.625566 1197 267.766)"/>
</clipPath>
</defs>
</svg>
