<svg width="1913" height="379" viewBox="0 0 1913 379" fill="none" xmlns="http://www.w3.org/2000/svg">
<path d="M1474 185.5H1913V371H0.5L1474 185.5Z" fill="#FFC856"/>
<g clip-path="url(#clip0)">
<path d="M1457.46 326.009L1420.45 343.84L1439.6 343.361L1480.36 342.358L1495.34 318.882L1499.88 321.041L1499.88 322.452L1504.77 323.608L1499.47 337.098L1505.1 336.2L1498.83 367.267L1540.14 344.429L1524.16 315.536L1532.56 316.336L1536.2 321.657L1538.43 319.703L1558.57 343.144L1562.82 317.264L1532.78 300.611L1538.4 299.013L1523.93 295.143L1548.65 294.947L1541.11 290.83L1582.09 278.835L1577.08 242.404L1549.3 267.038L1546.32 263.613L1536.05 275.587L1531.49 273.956L1528.56 275.918L1526.36 275.476L1544.36 253.651L1509.02 221.495L1511.22 251.428L1506.16 249.069L1506.26 249.49L1480.79 236.175L1468.22 229.592L1484.2 253.348L1479.66 252.198L1488.54 262.738L1485.29 263.193L1488.91 270.602L1486.36 269.823L1486.15 276.503C1485.78 276.42 1485.42 276.338 1485.02 276.267C1481.45 275.638 1478.18 276.2 1476.43 277.561L1457.65 272.179L1452.83 271.972L1455.08 267.248L1417.75 259.129L1412.87 259.261L1413.49 255.754L1375.63 250.608L1372.08 251.028L1372.62 248.002L1334.76 242.856L1331.21 243.276L1331.75 240.251L1293.89 235.104L1287 235.909L1285.58 243.99L1324.91 253.654L1328 252.107L1365.77 261.442L1368.87 259.895L1406.64 269.229L1409.43 267.831L1444.44 279.559L1445.39 279.232L1464.16 286.998C1464.01 287.283 1463.89 287.592 1463.83 287.912C1463.36 290.564 1467.02 293.43 1472 294.306C1473.43 294.559 1474.8 294.617 1476.06 294.508L1464.23 301.068L1466.73 301.948L1455.67 304.717L1457.1 306.731L1439.14 308.668L1443.28 310.37L1405.19 316.892L1420.72 319.443L1452.2 324.622L1451.64 324.837L1457.46 326.009ZM1517.59 304.578L1517.93 304.198L1521.06 307.135L1517.59 304.578ZM1526.42 311.108L1528.77 310.879L1531.51 314.867L1526.42 311.108ZM1509.46 262.772L1506.57 262.592L1507.23 253.587L1509.46 262.772ZM1467.92 316.455L1469.91 317.888L1457.59 322.527L1467.92 316.455Z" fill="#001E20" fill-opacity="0.1"/>
<g clip-path="url(#clip1)">
<path d="M1287.92 261.295L1348.57 267.652L1289.37 259.836L1286.29 259.855L1287.92 261.295Z" fill="#001E20" fill-opacity="0.1"/>
<path d="M1291.82 261.709L1303.08 271.112L1314.32 273.92L1295.5 262.093L1291.82 261.709Z" fill="#001E20" fill-opacity="0.1"/>
<path d="M1316.52 274.148L1327.25 275.032L1305.24 263.112L1300.56 262.623L1316.52 274.148Z" fill="#001E20" fill-opacity="0.1"/>
<path d="M1331.75 275.171L1308.98 263.506L1315.67 264.204L1341.33 274.831L1331.75 275.171Z" fill="#001E20" fill-opacity="0.1"/>
<path d="M1343.29 274.061L1352.9 273.429L1330.22 265.733L1322.93 264.963L1343.29 274.061Z" fill="#001E20" fill-opacity="0.1"/>
<path d="M1336.95 266.438L1355.84 272.272L1361.1 271.444L1343.25 267.092L1336.95 266.438Z" fill="#001E20" fill-opacity="0.1"/>
<path d="M1343.22 267.106L1361.25 269.732L1360.28 267.484L1343.22 267.106Z" fill="#001E20" fill-opacity="0.1"/>
<path d="M1359.43 266.331L1342.61 266.808C1342.61 266.808 1334.48 265.79 1334.86 265.838C1335.24 265.886 1354.18 264.234 1354.64 264.271C1355.13 264.299 1359.43 266.331 1359.43 266.331Z" fill="#001E20" fill-opacity="0.1"/>
<path d="M1329.14 265.083L1351.58 262.483L1342.71 259.754L1321.51 264.077L1329.14 265.083Z" fill="#001E20" fill-opacity="0.1"/>
<path d="M1314.82 263.191L1339.45 258.472L1331.28 256.089L1308.98 262.421L1314.82 263.191Z" fill="#001E20" fill-opacity="0.1"/>
<path d="M1305.4 261.946L1327.22 255.255L1316.91 253.855L1300.3 261.278L1305.4 261.946Z" fill="#001E20" fill-opacity="0.1"/>
<path d="M1295.05 260.585L1313.79 253.218L1303.36 253.485L1291.4 260.1L1295.05 260.585Z" fill="#001E20" fill-opacity="0.1"/>
</g>
<g clip-path="url(#clip2)">
<path d="M1282.05 261.64L1310.75 288.089L1283.48 261.464L1281.86 260.291L1282.05 261.64Z" fill="#001E20" fill-opacity="0.1"/>
<path d="M1283.89 263.345L1285.4 272.391L1289.97 278.113L1285.63 264.947L1283.89 263.345Z" fill="#001E20" fill-opacity="0.1"/>
<path d="M1291.01 279.073L1296.2 283.631L1290.24 269.196L1288.02 267.153L1291.01 279.073Z" fill="#001E20" fill-opacity="0.1"/>
<path d="M1298.48 285.424L1292.01 270.825L1295.18 273.742L1303.64 288.927L1298.48 285.424Z" fill="#001E20" fill-opacity="0.1"/>
<path d="M1305.02 289.29L1310.32 292.654L1302.06 280.089L1298.61 276.907L1305.02 289.29Z" fill="#001E20" fill-opacity="0.1"/>
<path d="M1305.25 283.024L1312.4 293.2L1315.52 294.798L1308.23 285.769L1305.25 283.024Z" fill="#001E20" fill-opacity="0.1"/>
<path d="M1308.21 285.762L1316.4 293.994L1316.93 292.493L1308.21 285.762Z" fill="#001E20" fill-opacity="0.1"/>
<path d="M1317.02 291.585L1308.03 285.38C1308.03 285.38 1304.26 281.749 1304.43 281.919C1304.61 282.088 1315.26 288.517 1315.48 288.713C1315.72 288.914 1317.02 291.585 1317.02 291.585Z" fill="#001E20" fill-opacity="0.1"/>
<path d="M1301.8 279.349L1314.72 286.643L1311.35 281.866L1298.28 275.916L1301.8 279.349Z" fill="#001E20" fill-opacity="0.1"/>
<path d="M1295.21 272.907L1310.24 279.973L1307.09 275.642L1292.51 270.28L1295.21 272.907Z" fill="#001E20" fill-opacity="0.1"/>
<path d="M1290.86 268.668L1305.35 273.665L1300.62 269.008L1288.51 266.378L1290.86 268.668Z" fill="#001E20" fill-opacity="0.1"/>
<path d="M1286.09 264.015L1299.29 267.494L1293.73 263.63L1284.42 262.375L1286.09 264.015Z" fill="#001E20" fill-opacity="0.1"/>
</g>
</g>
<path d="M1270.8 202.205L1273.02 232.693L1276 238V205.779L1270.8 202.205Z" fill="#FFC856"/>
<path d="M1276 238H1288.31L1292.43 205.779H1276V238Z" fill="#FF513F"/>
<path d="M1270.8 202.205L1276 205.779H1292.43L1287.39 202.205H1270.8Z" fill="#001E20"/>
<path d="M1271.64 168.983L1273.86 199.47L1276.87 204.777V172.584L1271.64 168.983Z" fill="#FFC856"/>
<path d="M1276.87 204.778H1289.18L1293.27 172.584H1276.87V204.778Z" fill="#FF513F"/>
<path d="M1271.64 168.983L1276.87 172.584H1293.27L1288.23 168.983H1271.64Z" fill="#001E20"/>
<path d="M1272.48 135.76L1274.73 166.248L1277.71 171.555V139.361L1272.48 135.76Z" fill="#FFC856"/>
<path d="M1277.71 171.555H1290.02L1294.11 139.361H1277.71V171.555Z" fill="#FF513F"/>
<path d="M1272.48 135.76L1277.71 139.361H1294.11L1289.1 135.76H1272.48Z" fill="#001E20"/>
<path d="M1278.66 101.455L1276.38 131.942L1278.55 137.628L1283.29 105.787L1278.66 101.455Z" fill="#FFC856"/>
<path d="M1278.55 137.628L1290.72 139.443L1299.53 108.197L1283.29 105.787L1278.55 137.628Z" fill="#FF513F"/>
<path d="M1278.66 101.455L1283.29 105.787L1299.53 108.197L1295.09 103.891L1278.66 101.455Z" fill="#001E20"/>
<path d="M1291.18 68.7737L1285.27 98.7741L1286.74 104.677L1295.28 73.6203L1291.18 68.7737Z" fill="#FFC856"/>
<path d="M1286.74 104.677L1298.61 107.926L1311.11 77.9526L1295.28 73.6204L1286.74 104.677Z" fill="#FF513F"/>
<path d="M1291.18 68.7737L1295.28 73.6203L1311.11 77.9525L1307.21 73.16L1291.18 68.7737Z" fill="#FFB300"/>
<path d="M1303.74 74.9199L1323.99 67.2573L1321.93 71.4541L1342.02 74.4054L1337.87 78.2774L1364.09 94.6585L1364.93 133.919L1345.35 104.839L1343.94 108.359L1336.41 94.496L1333.78 95.904L1326.81 87.5916L1326.18 89.6764L1303.74 74.9199Z" fill="#007550"/>
<path d="M1303.74 74.9199L1328.11 83.3677L1326.18 89.6765L1303.74 74.9199Z" fill="#001E20"/>
<path d="M1364.93 133.919L1345.35 104.839L1348.09 98.3408L1364.65 121.383L1364.93 133.919Z" fill="#001E20"/>
<path d="M1328.11 83.3677L1348.09 98.3408L1343.94 108.359L1336.4 94.496L1333.78 95.904L1326.81 87.5916L1328.11 83.3677Z" fill="#001E20"/>
<path d="M1301.87 73.187L1322.99 55.3167L1322.31 61.2734L1347.76 56.2643L1344.4 62.6814L1383.01 71.2104L1400.79 118.133L1364.82 91.4905L1364.57 96.3101L1349.58 82.8261L1347.03 85.642L1335.1 78.6022L1335.21 81.364L1301.87 73.187Z" fill="#007550"/>
<path d="M1301.87 73.1871L1334.83 72.9705L1335.21 81.3641L1301.87 73.1871Z" fill="#001E20"/>
<path d="M1400.79 118.133L1364.82 91.4905L1365.28 82.4741L1395.1 103.133L1400.79 118.133Z" fill="#001E20"/>
<path d="M1334.83 72.9705L1365.28 82.4742L1364.57 96.3102L1349.58 82.8262L1347.03 85.6421L1335.1 78.6023L1334.83 72.9705Z" fill="#001E20"/>
<path d="M1300.65 74.5137L1287.28 58.1056L1286.93 62.7356L1268.44 55.6687L1270.04 61.0298L1239.7 62.6544L1219.58 96.3913L1250.54 80.5247L1250.03 84.2612L1263.29 75.8134L1264.78 78.3044L1274.81 74.4325L1274.32 76.5445L1300.65 74.5137Z" fill="#007550"/>
<path d="M1300.65 74.5138L1275.81 70.1274L1274.32 76.5445L1300.65 74.5138Z" fill="#001E20"/>
<path d="M1219.58 96.3914L1250.54 80.5247L1251.47 73.5391L1226.04 85.6151L1219.58 96.3914Z" fill="#001E20"/>
<path d="M1275.81 70.1274L1251.47 73.539L1250.03 84.2612L1263.29 75.8134L1264.78 78.3045L1274.81 74.4326L1275.81 70.1274Z" fill="#001E20"/>
<path d="M1303.09 73.9182L1294 48.2228L1291.64 53.6922L1272.56 37.1216L1272.21 44.3239L1235.28 33.1685L1197 65.4162L1240.68 59.5407L1238.48 63.8458L1257.86 59.3512L1258.62 63.0064L1272.23 62.6274L1270.77 64.983L1303.09 73.9182Z" fill="#007550"/>
<path d="M1303.09 73.918L1275.24 57.8618L1270.77 64.9829L1303.09 73.918Z" fill="#001E20"/>
<path d="M1197 65.4162L1240.68 59.5406L1244.74 51.4719L1209.25 55.1001L1197 65.4162Z" fill="#001E20"/>
<path d="M1275.24 57.8619L1244.74 51.4719L1238.48 63.8458L1257.86 59.3511L1258.62 63.0064L1272.23 62.6273L1275.24 57.8619Z" fill="#001E20"/>
<path d="M1301.87 75.9216L1308.94 47.4375L1312.06 52.961L1330.85 32.8704L1331.99 40.4789L1370.51 23.9082L1415 53.2588L1367.45 52.6361L1370.24 56.9412L1348.93 54.6397L1348.52 58.6199L1333.86 59.9737L1335.67 62.2752L1301.87 75.9216Z" fill="#007550"/>
<path d="M1301.87 75.9216L1330.12 55.2625L1335.67 62.2752L1301.87 75.9216Z" fill="#001E20"/>
<path d="M1415 53.259L1367.45 52.6362L1362.24 44.5675L1400.77 43.8635L1415 53.259Z" fill="#001E20"/>
<path d="M1330.12 55.2625L1362.24 44.5674L1370.24 56.9412L1348.93 54.6397L1348.52 58.6199L1333.86 59.9738L1330.12 55.2625Z" fill="#001E20"/>
<path d="M1304.14 74.947L1309.27 46.1379L1304.17 49.9286L1295.2 24.0708L1291.08 30.5691L1262.69 0L1210.18 8.98931L1253.8 27.4553L1249.49 30.2441L1269.85 36.6883L1268.63 40.506L1281.45 47.6L1278.85 48.9809L1304.14 74.947Z" fill="#007550"/>
<path d="M1304.14 74.9469L1286.76 44.811L1278.85 48.9808L1304.14 74.9469Z" fill="#001E20"/>
<path d="M1210.18 8.98922L1253.8 27.4552L1261.82 22.1753L1226.96 6.11914L1210.18 8.98922Z" fill="#001E20"/>
<path d="M1286.76 44.8113L1261.82 22.1755L1249.49 30.2443L1269.85 36.6884L1268.63 40.5061L1281.45 47.6001L1286.76 44.8113Z" fill="#001E20"/>
<path d="M1303.79 69.8025L1296.42 49.4682L1300.62 51.5802L1303.87 31.5709L1307.69 35.7677L1324.48 9.82865L1363.81 9.58496L1334.4 28.6737L1337.9 30.1629L1323.88 37.5005L1325.26 40.1269L1316.83 46.9501L1318.89 47.6271L1303.79 69.8025Z" fill="#007550"/>
<path d="M1303.79 69.8026L1312.63 45.5964L1318.89 47.6272L1303.79 69.8026Z" fill="#001E20"/>
<path d="M1363.81 9.58496L1334.4 28.6737L1327.92 25.8848L1351.23 9.66619L1363.81 9.58496Z" fill="#001E20"/>
<path d="M1312.63 45.5963L1327.92 25.8848L1337.9 30.1628L1323.88 37.5005L1325.26 40.1269L1316.83 46.9501L1312.63 45.5963Z" fill="#001E20"/>
<path d="M1295.35 84.9032C1299.4 84.9032 1302.67 81.6301 1302.67 77.5926C1302.67 73.555 1299.4 70.282 1295.35 70.282C1291.31 70.282 1288.03 73.555 1288.03 77.5926C1288.03 81.6301 1291.31 84.9032 1295.35 84.9032Z" fill="black"/>
<path d="M1307.33 88.8963C1311.37 88.8963 1314.65 85.6232 1314.65 81.5857C1314.65 77.5482 1311.37 74.2751 1307.33 74.2751C1303.29 74.2751 1300.01 77.5482 1300.01 81.5857C1300.01 85.6232 1303.29 88.8963 1307.33 88.8963Z" fill="black"/>
<path d="M1304.14 76.9166C1308.18 76.9166 1311.46 73.6435 1311.46 69.606C1311.46 65.5685 1308.18 62.2954 1304.14 62.2954C1300.09 62.2954 1296.82 65.5685 1296.82 69.606C1296.82 73.6435 1300.09 76.9166 1304.14 76.9166Z" fill="black"/>
<g clip-path="url(#clip3)">
<path d="M1282.39 257.487L1311.95 208.298L1285.25 257.607L1283.29 259.832L1282.39 257.487Z" fill="#007550"/>
<path d="M1284.28 254.316L1278.78 238.556L1282.08 228.126L1286.08 251.337L1284.28 254.316Z" fill="#007550"/>
<path d="M1283.16 226.341L1288.71 217.831L1290.83 243.435L1288.54 247.235L1283.16 226.341Z" fill="#007550"/>
<path d="M1291.35 214.455L1292.65 240.404L1295.91 234.98L1297.82 207.765L1291.35 214.455Z" fill="#007550"/>
<path d="M1300.07 206.963L1306.94 200.497L1303 223.176L1299.46 229.092L1300.07 206.963Z" fill="#007550"/>
<path d="M1306.28 217.718L1310.34 199.291L1314.74 196.141L1309.36 212.612L1306.28 217.718Z" fill="#007550"/>
<path d="M1309.32 212.626L1317.13 197.412L1319.52 199.926L1309.32 212.626Z" fill="#007550"/>
<path d="M1320.53 201.478L1309.34 213.308C1309.34 213.308 1305.6 220.038 1305.77 219.724C1305.94 219.41 1320.04 206.983 1320.28 206.616C1320.54 206.241 1320.53 201.478 1320.53 201.478Z" fill="#007550"/>
<path d="M1303.19 224.482L1320.75 210.278L1318.83 218.928L1299.75 230.84L1303.19 224.482Z" fill="#007550"/>
<path d="M1296.74 236.413L1318.49 222.328L1316.55 230.185L1294.1 241.278L1296.74 236.413Z" fill="#007550"/>
<path d="M1292.48 244.263L1315.12 233.809L1310.52 242.429L1290.18 248.505L1292.48 244.263Z" fill="#007550"/>
<path d="M1287.81 252.882L1309.42 245.204L1302.52 252.566L1286.17 255.918L1287.81 252.882Z" fill="#007550"/>
</g>
<g clip-path="url(#clip4)">
<path d="M1283.37 258.062L1263.95 225.76L1281.49 258.141L1282.77 259.602L1283.37 258.062Z" fill="#001E20"/>
<path d="M1282.12 255.98L1285.74 245.631L1283.57 238.781L1280.94 254.024L1282.12 255.98Z" fill="#001E20"/>
<path d="M1282.86 237.609L1279.21 232.021L1277.82 248.834L1279.32 251.33L1282.86 237.609Z" fill="#001E20"/>
<path d="M1277.48 229.803L1276.63 246.844L1274.48 243.282L1273.24 225.411L1277.48 229.803Z" fill="#001E20"/>
<path d="M1271.75 224.884L1267.24 220.637L1269.83 235.53L1272.16 239.416L1271.75 224.884Z" fill="#001E20"/>
<path d="M1267.67 231.946L1265.01 219.846L1262.12 217.777L1265.65 228.594L1267.67 231.946Z" fill="#001E20"/>
<path d="M1265.68 228.603L1260.55 218.612L1258.98 220.263L1265.68 228.603Z" fill="#001E20"/>
<path d="M1258.32 221.282L1265.67 229.05C1265.67 229.05 1268.13 233.47 1268.01 233.264C1267.9 233.058 1258.64 224.897 1258.48 224.656C1258.31 224.41 1258.32 221.282 1258.32 221.282Z" fill="#001E20"/>
<path d="M1269.7 236.388L1258.17 227.06L1259.44 232.741L1271.97 240.564L1269.7 236.388Z" fill="#001E20"/>
<path d="M1273.94 244.223L1259.65 234.974L1260.93 240.134L1275.68 247.418L1273.94 244.223Z" fill="#001E20"/>
<path d="M1276.74 249.379L1261.87 242.513L1264.89 248.174L1278.25 252.164L1276.74 249.379Z" fill="#001E20"/>
<path d="M1279.81 255.038L1265.62 249.996L1270.15 254.831L1280.88 257.032L1279.81 255.038Z" fill="#001E20"/>
</g>
<g clip-path="url(#clip5)">
<path d="M1683.64 299.524L1684.33 224.954L1687.02 297.926L1686.27 301.677L1683.64 299.524Z" fill="#007550"/>
<path d="M1683.67 294.722L1666.65 279.909L1663.38 265.896L1683.72 290.203L1683.67 294.722Z" fill="#007550"/>
<path d="M1663.41 263.187L1664.03 250.021L1683.83 278.222L1683.78 283.985L1663.41 263.187Z" fill="#007550"/>
<path d="M1664.77 244.535L1683.87 273.629L1683.95 265.403L1667.69 232.909L1664.77 244.535Z" fill="#007550"/>
<path d="M1669.75 230.618L1673.27 219.005L1684.11 247.513L1684.04 256.476L1669.75 230.618Z" fill="#007550"/>
<path d="M1684.19 239.238L1676.36 215.56L1679.3 209.26L1684.27 231.492L1684.19 239.238Z" fill="#007550"/>
<path d="M1684.24 231.531L1682.91 209.28L1687.38 210.721L1684.24 231.531Z" fill="#007550"/>
<path d="M1689.58 211.9L1684.72 232.306C1684.72 232.306 1684.97 242.326 1684.96 241.859C1684.95 241.393 1692.75 218.538 1692.78 217.97C1692.83 217.375 1689.58 211.9 1689.58 211.9Z" fill="#007550"/>
<path d="M1685.22 248.901L1695.81 221.9L1699.46 233.028L1685.56 258.311L1685.22 248.901Z" fill="#007550"/>
<path d="M1685.87 266.555L1701.38 237.145L1704.47 247.369L1686.13 273.757L1685.87 266.555Z" fill="#007550"/>
<path d="M1686.3 278.173L1705.28 252.412L1705.83 265.128L1686.52 284.455L1686.3 278.173Z" fill="#007550"/>
<path d="M1686.76 290.933L1706.44 268.992L1703.48 281.654L1686.93 295.423L1686.76 290.933Z" fill="#007550"/>
</g>
<g clip-path="url(#clip6)">
<path d="M1686.44 300.066L1768.82 313.571L1688.55 298.328L1684.33 298.079L1686.44 300.066Z" fill="#001E20" fill-opacity="0.1"/>
<path d="M1691.74 300.942L1706.36 313.973L1721.49 318.562L1696.74 301.758L1691.74 300.942Z" fill="#001E20" fill-opacity="0.1"/>
<path d="M1724.48 319.05L1739.08 321.131L1709.97 303.926L1703.6 302.884L1724.48 319.05Z" fill="#001E20" fill-opacity="0.1"/>
<path d="M1745.21 321.707L1715.04 304.76L1724.13 306.246L1758.34 322.119L1745.21 321.707Z" fill="#001E20" fill-opacity="0.1"/>
<path d="M1761.08 321.308L1774.25 321.348L1743.89 309.491L1733.99 307.86L1761.08 321.308Z" fill="#001E20" fill-opacity="0.1"/>
<path d="M1753.04 310.989L1778.37 320.128L1785.63 319.533L1761.59 312.384L1753.04 310.989Z" fill="#001E20" fill-opacity="0.1"/>
<path d="M1761.55 312.399L1785.97 317.355L1784.84 314.392L1761.55 312.399Z" fill="#001E20" fill-opacity="0.1"/>
<path d="M1783.76 312.841L1760.74 311.963C1760.74 311.963 1749.71 309.94 1750.22 310.035C1750.73 310.131 1776.76 309.693 1777.39 309.781C1778.05 309.86 1783.76 312.841 1783.76 312.841Z" fill="#001E20" fill-opacity="0.1"/>
<path d="M1742.48 308.564L1773.36 307.222L1761.45 302.943L1732.12 306.6L1742.48 308.564Z" fill="#001E20" fill-opacity="0.1"/>
<path d="M1723.06 304.874L1757.1 301.014L1746.13 297.24L1715.13 303.372L1723.06 304.874Z" fill="#001E20" fill-opacity="0.1"/>
<path d="M1710.28 302.447L1740.65 295.813L1726.67 293.109L1703.37 301.141L1710.28 302.447Z" fill="#001E20" fill-opacity="0.1"/>
<path d="M1696.24 299.788L1722.47 292.018L1708.19 291.437L1691.3 298.845L1696.24 299.788Z" fill="#001E20" fill-opacity="0.1"/>
</g>
<g clip-path="url(#clip7)">
<path d="M1193.91 211.211L1186.36 211.695L1180.98 221.188L1187.86 213.942L1193.38 214.238L1193.91 211.211Z" fill="#FF513F"/>
<path d="M1194.31 214.779L1188.96 217.081L1186.37 227.67L1191.03 218.803L1198.07 216.13L1194.31 214.779Z" fill="#FF513F"/>
<path d="M1216.28 207.708L1222.34 203.162L1232.62 206.843L1222.66 205.854L1218.64 209.675L1216.28 207.708Z" fill="#FF513F"/>
<path d="M1217.16 211.018L1222.97 210.574L1230.15 218.808L1221.95 213.076L1214.43 213.952L1217.16 211.018Z" fill="#FF513F"/>
<path d="M1191.52 206.497L1197.19 205.399L1197.15 206.976L1190.39 208.233L1191.52 206.497Z" fill="#FF513F"/>
<path d="M1191.52 206.497L1190.38 201.157L1189.09 201.41L1190.39 208.233L1191.52 206.497Z" fill="#FF513F"/>
<path d="M1220.38 202.532L1216.24 197.044L1215.23 197.85L1218.42 202.199L1220.38 202.532Z" fill="#FF513F"/>
<path d="M1220.38 202.532L1215.21 206.774L1214.03 205.755L1218.39 202.194L1220.38 202.532Z" fill="#FF513F"/>
<path d="M1188.96 217.081L1191.03 218.803L1198.07 216.13L1194.31 214.779L1188.96 217.081Z" fill="#FF513F"/>
<path d="M1214.43 213.952L1217.16 211.018L1222.97 210.574L1221.95 213.076L1214.43 213.952Z" fill="#FF513F"/>
<path d="M1216.28 207.708L1218.64 209.675L1222.66 205.854L1222.34 203.162L1216.28 207.708Z" fill="#FF513F"/>
<path d="M1193.91 211.211L1193.38 214.238L1187.86 213.942L1186.36 211.695L1193.91 211.211Z" fill="#FF513F"/>
<path d="M1211 203.196L1196.67 204.253L1189.98 211.753L1197.7 218.203L1212.03 217.146L1218.68 209.642L1211 203.196Z" fill="#FF513F"/>
<path d="M1189.19 201.877L1180.27 198.046L1183.48 186.627L1188.33 197.461L1187.36 189.354L1193.55 195.563L1190.48 201.624L1189.19 201.877Z" fill="#FF513F"/>
<path d="M1216.18 197.626L1218.42 190.615L1210.29 186.774L1214.08 194.953L1209.92 190.347L1210.42 196.969L1215.41 198.239L1216.18 197.626Z" fill="#FF513F"/>
<path d="M1198.72 185.825L1198.26 187.665L1213.73 191.515L1214.19 189.675L1198.72 185.825Z" fill="#001E20"/>
<path d="M1202.24 182.153L1200.94 187.367L1211.47 189.988L1212.77 184.774L1202.24 182.153Z" fill="#001E20"/>
<path d="M1189.98 211.753L1218.64 209.675L1212.03 217.146L1197.7 218.203L1189.98 211.753Z" fill="#AA3528"/>
<path d="M1207.26 205.482L1208.5 199.33L1207.18 196.295L1205.85 199.151L1207.26 205.482Z" fill="#001E20"/>
<path d="M1200.59 206.084L1201.58 199.706L1200.17 196.975L1198.9 200.092L1200.59 206.084Z" fill="#001E20"/>
</g>
<defs>
<clipPath id="clip0">
<rect width="145.33" height="297.99" fill="white" transform="translate(1589.69 235.707) rotate(99.9924)"/>
</clipPath>
<clipPath id="clip1">
<rect width="49.6182" height="42.3706" fill="white" transform="matrix(0.925869 -0.363826 -0.747076 -0.673738 1317.94 288.402)"/>
</clipPath>
<clipPath id="clip2">
<rect width="32.2993" height="27.8711" fill="white" transform="matrix(1.0014 0.263958 -0.117561 -0.95076 1285.14 286.789)"/>
</clipPath>
<clipPath id="clip3">
<rect width="56.1969" height="49.5195" fill="white" transform="matrix(0.942296 -0.33478 0.369323 0.929301 1265 213.813)"/>
</clipPath>
<clipPath id="clip4">
<rect width="36.9041" height="32.5191" fill="white" transform="matrix(-0.942296 -0.33478 -0.369323 0.929301 1294.78 229.382)"/>
</clipPath>
<clipPath id="clip5">
<rect width="72.2266" height="66.9945" fill="white" transform="matrix(0.667702 -0.744429 0.780171 0.625566 1634 259.768)"/>
</clipPath>
<clipPath id="clip6">
<rect width="67.0257" height="56.7681" fill="white" transform="matrix(0.958801 -0.284078 -0.720944 -0.692994 1725.26 337.419)"/>
</clipPath>
<clipPath id="clip7">
<rect width="56" height="56" fill="white" transform="translate(1180.35 171) rotate(6.50975)"/>
</clipPath>
</defs>
</svg>
