<svg width="114" height="36" viewBox="0 0 114 36" fill="none" xmlns="http://www.w3.org/2000/svg">
<path d="M27.7436 35.31H0.5V0.5H27.7436L14.0038 17.5917L13.752 17.905L14.0038 18.2183L27.7436 35.31Z" stroke="black"/>
<path d="M41.6426 17.5917L41.3908 17.905L41.6426 18.2183L55.3824 35.31H42.2719L28.2803 17.905L42.2719 0.5H55.3824L41.6426 17.5917Z" stroke="black"/>
<path d="M70.4298 17.5917L70.1786 17.9041L70.4289 18.2172L77.6051 27.1952L78.4957 28.3093V26.883V8.978V7.55798L77.606 8.66473L70.4298 17.5917ZM91.9302 26.832V28.2583L92.8208 27.1442L99.9971 18.1662L100.247 17.8531L99.9962 17.5407L92.8199 8.61372L91.9302 7.50697V8.92699V26.832ZM92.4302 0.5H99.3669L113.359 17.905L99.3669 35.31H92.4302H85.254H78.0777H71.141L57.1495 17.905L71.141 0.5H78.0777H85.254H92.4302Z" stroke="black"/>
</svg>
