<svg width="420" height="420" viewBox="0 0 420 420" fill="none" xmlns="http://www.w3.org/2000/svg">
<g clip-path="url(#clip0)">
<path d="M113.766 171.847H77.5547V257.698H113.766V171.847Z" fill="white"/>
<path d="M113.766 214.772H77.5547L113.766 171.847H149.977L113.766 214.772Z" fill="#FF513F"/>
<path d="M113.766 214.772H77.5547L113.766 257.698H149.977L113.766 214.772Z" fill="#FFD45D"/>
<path d="M186.14 214.772H149.977L186.14 257.698H222.351L186.14 214.772Z" fill="white"/>
<path d="M186.14 171.847L149.977 214.772H186.14L222.351 171.847H186.14Z" fill="white"/>
<path d="M258.562 214.772H222.351L258.562 257.698H294.725L258.562 214.772Z" fill="#FF513F"/>
<path d="M258.562 171.847L222.351 214.772H258.562L294.725 171.847H258.562Z" fill="#FFC856"/>
<path d="M312.853 171.847H276.642V257.698H312.853V171.847Z" fill="white"/>
<path d="M349.016 236.211L367.146 214.772L330.935 171.847H294.724L326.954 210.024L349.016 236.211Z" fill="#FF513F"/>
<path d="M330.935 214.772H367.146L330.935 257.698H294.724L330.935 214.772Z" fill="#FFC856"/>
<path d="M381.438 137.602C391.126 160.528 396.066 184.892 396.066 210.024C396.066 211.223 396.066 212.47 396.018 213.669H419.999C419.999 212.47 420.047 211.223 420.047 210.024C420.047 152.95 397.265 101.199 360.335 63.3574L343.356 80.3358C359.567 96.9785 372.373 116.259 381.438 137.602Z" fill="#FFC856"/>
<path d="M137.603 381.439C116.26 372.422 96.9791 359.616 80.2885 343.357L63.3101 360.336C101.152 397.266 152.902 420.048 209.977 420.048V396.067C184.893 396.019 160.528 391.127 137.603 381.439Z" fill="white"/>
<path d="M419.999 213.669H396.018C395.587 237.506 390.695 260.623 381.438 282.446C372.085 304.604 358.656 324.508 341.582 341.583C340.958 342.206 340.335 342.782 339.759 343.405L356.738 360.384C394.963 322.973 418.992 271.127 419.999 213.669Z" fill="white"/>
<path d="M282.399 381.439C259.473 391.127 235.108 396.067 209.977 396.067V420.048C267.051 420.048 318.802 397.266 356.643 360.336L339.665 343.357C323.022 359.568 303.79 372.374 282.399 381.439Z" fill="#FF513F"/>
<path d="M78.4646 341.535C61.3903 324.46 47.961 304.556 38.6085 282.398C29.3519 260.575 24.4598 237.506 24.0282 213.669H0.0473633C1.0066 271.127 25.0833 322.973 63.3567 360.336L80.3351 343.357C79.7116 342.734 79.0881 342.158 78.4646 341.535Z" fill="#FFD45D"/>
<path d="M210.023 23.9808C235.155 23.9808 259.52 28.8729 282.446 38.6091C304.556 47.9616 324.46 61.3909 341.534 78.4652C342.158 79.0887 342.733 79.7122 343.357 80.2878L360.335 63.3093C322.158 24.2686 268.92 0 210.023 0V23.9808Z" fill="white"/>
<path d="M78.4659 78.4652C95.5402 61.3909 115.444 47.9616 137.603 38.6091C160.528 28.9209 184.893 23.9808 210.025 23.9808V0C151.08 0 97.8424 24.2686 59.7129 63.3573L76.6913 80.3357C77.2668 79.7122 77.8424 79.0887 78.4659 78.4652Z" fill="#FF513F"/>
<path d="M23.9808 210.024C23.9808 184.892 28.8729 160.528 38.6091 137.602C47.6259 116.259 60.4316 96.9786 76.6906 80.288L59.7122 63.3096C22.7818 101.199 0 152.95 0 210.024C0 211.223 0 212.47 0.0479616 213.669H24.0288C23.9808 212.422 23.9808 211.223 23.9808 210.024Z" fill="#FFD45D"/>
</g>
<defs>
<clipPath id="clip0">
<rect width="420" height="420" fill="white"/>
</clipPath>
</defs>
</svg>
