<svg width="275" height="54" viewBox="0 0 275 54" fill="none" xmlns="http://www.w3.org/2000/svg">
<path d="M44.8406 52.2773H0V2H44.8406L22.4203 27.1387L44.8406 52.2773Z" fill="white"/>
<path d="M87.8924 2H65.4721L43.0518 27.1387L65.4721 52.2773H87.8924L65.4721 27.1387L87.8924 2Z" fill="white"/>
<path d="M155.154 2H143.976H132.797H121.619H110.441L88.0205 27.1387L110.441 52.2773H121.619H132.797H143.976H155.154L177.574 27.1387L155.154 2ZM110.313 27.1387L121.491 14.6051V39.7438L110.313 27.1387ZM143.976 39.6722V14.5335L155.154 27.0671L143.976 39.6722Z" fill="white"/>
<rect x="203" y="17.9785" width="25.4263" height="50.8526" transform="rotate(-45 203 17.9785)" fill="#FF513F"/>
<rect x="238.942" y="53.9375" width="25.4263" height="50.8526" transform="rotate(-135 238.942 53.9375)" fill="#FF513F"/>
</svg>
