<svg width="287" height="287" viewBox="0 0 287 287" fill="none" xmlns="http://www.w3.org/2000/svg">
<g clip-path="url(#clip0)">
<path d="M77.7393 117.429H52.9951V176.094H77.7393V117.429Z" fill="#FF513F"/>
<path d="M77.7393 146.761H52.9951L77.7393 117.429H102.483L77.7393 146.761Z" fill="#FF513F"/>
<path d="M77.7393 146.761H52.9951L77.7393 176.094H102.483L77.7393 146.761Z" fill="#FF513F"/>
<path d="M127.196 146.761H102.484L127.196 176.094H151.94L127.196 146.761Z" fill="#FF513F"/>
<path d="M127.196 117.429L102.484 146.761H127.196L151.94 117.429H127.196Z" fill="#FF513F"/>
<path d="M176.684 146.761H151.939L176.684 176.094H201.395L176.684 146.761Z" fill="#FF513F"/>
<path d="M176.684 117.429L151.939 146.761H176.684L201.395 117.429H176.684Z" fill="#FF513F"/>
<path d="M213.783 117.429H189.039V176.094H213.783V117.429Z" fill="#FF513F"/>
<path d="M238.494 161.411L250.883 146.761L226.139 117.429H201.395L223.419 143.516L238.494 161.411Z" fill="#FF513F"/>
<path d="M226.139 146.761H250.883L226.139 176.094H201.395L226.139 146.761Z" fill="#FF513F"/>
<path d="M260.649 94.028C267.27 109.694 270.645 126.343 270.645 143.516C270.645 144.336 270.645 145.188 270.613 146.007H286.999C286.999 145.188 287.032 144.336 287.032 143.516C287.032 104.516 271.465 69.1527 246.229 43.2942L234.627 54.8961C245.704 66.2686 254.455 79.4437 260.649 94.028Z" fill="#FF513F"/>
<path d="M94.0283 260.65C79.444 254.488 66.2689 245.738 54.8636 234.628L43.2617 246.229C69.1202 271.465 104.483 287.033 143.484 287.033V270.646C126.343 270.613 109.694 267.27 94.0283 260.65Z" fill="#FF513F"/>
<path d="M287 146.007H270.613C270.318 162.296 266.975 178.093 260.649 193.005C254.258 208.146 245.082 221.748 233.414 233.415C232.988 233.841 232.562 234.234 232.169 234.66L243.771 246.262C269.892 220.699 286.311 185.27 287 146.007Z" fill="#FF513F"/>
<path d="M192.973 260.65C177.307 267.27 160.658 270.646 143.484 270.646V287.033C182.485 287.033 217.848 271.465 243.707 246.229L232.105 234.628C220.732 245.705 207.59 254.456 192.973 260.65Z" fill="#FF513F"/>
<path d="M53.6174 233.382C41.9499 221.715 32.7732 208.114 26.3823 192.972C20.057 178.06 16.7141 162.296 16.4191 146.007H0.0322266C0.687702 185.27 17.1401 220.699 43.2936 246.23L54.8955 234.628C54.4695 234.202 54.0434 233.808 53.6174 233.382Z" fill="#FF513F"/>
<path d="M143.516 16.3869C160.689 16.3869 177.338 19.7298 193.004 26.3829C208.113 32.7738 221.714 41.9504 233.381 53.6179C233.807 54.044 234.201 54.47 234.627 54.8633L246.229 43.2614C220.141 16.5835 183.762 0 143.516 0V16.3869Z" fill="#FF513F"/>
<path d="M53.6183 53.6179C65.2857 41.9504 78.8868 32.7738 94.0283 26.3829C109.694 19.7626 126.343 16.3869 143.517 16.3869V0C103.238 0 66.8589 16.5835 40.8037 43.2942L52.4056 54.8961C52.7989 54.47 53.1922 54.044 53.6183 53.6179Z" fill="#FF513F"/>
<path d="M16.3869 143.516C16.3869 126.343 19.7298 109.694 26.3829 94.0278C32.5444 79.4435 41.295 66.2684 52.4053 54.8631L40.8034 43.2612C15.5675 69.1525 0 104.515 0 143.516C0 144.336 0 145.188 0.0327738 146.007H16.4197C16.3869 145.155 16.3869 144.336 16.3869 143.516Z" fill="#FF513F"/>
</g>
<defs>
<clipPath id="clip0">
<rect width="287" height="287" fill="white"/>
</clipPath>
</defs>
</svg>
