<svg width="113" height="36" viewBox="0 0 113 36" fill="none" xmlns="http://www.w3.org/2000/svg">
<path d="M14.5 0H0V36H14.5V0Z" fill="#001E20"/>
<path d="M14.5 18H0L14.5 0H29L14.5 18Z" fill="#FF513F"/>
<path d="M14.5 18H0L14.5 36H29L14.5 18Z" fill="#FFD45D"/>
<path d="M41.9907 18H28L41.9907 36H56L41.9907 18Z" fill="#007550"/>
<path d="M41.9907 0L28 18H41.9907L56 0H41.9907Z" fill="#001E20"/>
<path d="M70.0093 18H56L70.0093 36H84L70.0093 18Z" fill="#FF513F"/>
<path d="M70.0093 0L56 18H70.0093L84 0H70.0093Z" fill="#FFC856"/>
<path d="M92 0H77V36H92V0Z" fill="#001E20"/>
<path d="M105.74 27.5294L113 18.3598L98.5 0H84L96.906 16.3289L105.74 27.5294Z" fill="#FF513F"/>
<path d="M98.5 18H113L98.5 36H84L98.5 18Z" fill="#007550"/>
</svg>
