<svg width="56" height="185" viewBox="0 0 56 185" fill="none" xmlns="http://www.w3.org/2000/svg">
<path d="M1 160.4L1 183L54.6296 183L54.6296 160.4L1 160.4Z" fill="#001E20" stroke="#FF513F"/>
<path d="M27.8148 160.4L27.8148 183L1 160.4L1 137.733L27.8148 160.4Z" fill="#001E20" stroke="#FF513F"/>
<path d="M27.8145 160.4L27.8145 183L54.6292 160.4L54.6292 137.733L27.8145 160.4Z" fill="#001E20" stroke="#FF513F"/>
<path d="M27.8145 115.133L27.8145 137.733L54.6292 115.133L54.6292 92.534L27.8145 115.133Z" fill="#001E20" stroke="#FF513F"/>
<path d="M1 115.133L27.8148 137.733L27.8148 115.133L1 92.534L1 115.133Z" fill="#001E20" stroke="#FF513F"/>
<path d="M27.8145 69.8665L27.8145 92.5339L54.6292 69.8665L54.6292 47.2669L27.8145 69.8665Z" fill="#001E20" stroke="#FF513F"/>
<path d="M1 69.8665L27.8148 92.5339L27.8148 69.8665L1 47.2669L1 69.8665Z" fill="#001E20" stroke="#FF513F"/>
<path d="M1 36.0011L1 58.6006L54.6296 58.6006L54.6296 36.0011L1 36.0011Z" fill="#001E20" stroke="#FF513F"/>
<path d="M41.2561 13.3337L27.8148 2L1 24.6674L1 47.2669L24.8957 27.1106L41.2561 13.3337Z" fill="#001E20" stroke="#FF513F"/>
<path d="M27.8145 24.6674L27.8145 2.00003L54.6292 24.6674L54.6292 47.267L27.8145 24.6674Z" fill="#001E20" stroke="#FF513F"/>
</svg>
