<svg width="144" height="144" viewBox="0 0 144 144" fill="none" xmlns="http://www.w3.org/2000/svg">
<rect width="144" height="144" fill="white"/>
<rect x="51.4177" y="37.9791" width="25.4263" height="50.8526" transform="rotate(-45 51.4177 37.9791)" fill="#FF513F"/>
<rect x="87.3604" y="73.9373" width="25.4263" height="50.8526" transform="rotate(-135 87.3604 73.9373)" fill="#FF513F"/>
<path d="M32.9191 93.5185H20V124.148H32.9191V93.5185Z" fill="#001E20"/>
<path d="M32.9191 108.833H20L32.9191 93.5185H45.8382L32.9191 108.833Z" fill="#001E20"/>
<path d="M32.9191 108.833H20L32.9191 124.148H45.8382L32.9191 108.833Z" fill="#001E20"/>
<path d="M58.7401 108.833H45.8381L58.7401 124.148H71.6592L58.7401 108.833Z" fill="#001E20"/>
<path d="M58.7401 93.5185L45.8381 108.833H58.7401L71.6592 93.5185H58.7401Z" fill="#001E20"/>
<path d="M84.5786 108.833H71.6595L84.5786 124.148H97.4806L84.5786 108.833Z" fill="#001E20"/>
<path d="M84.5786 93.5185L71.6595 108.833H84.5786L97.4806 93.5185H84.5786Z" fill="#001E20"/>
<path d="M103.949 93.5185H91.0295V124.148H103.949V93.5185Z" fill="#001E20"/>
<path d="M116.851 116.482L123.319 108.833L110.4 93.5185H97.4804L108.979 107.139L116.851 116.482Z" fill="#001E20"/>
<path d="M110.4 108.833H123.319L110.4 124.148H97.4804L110.4 108.833Z" fill="#001E20"/>
<path d="M33.1592 20H20.1592V74H33.1592V20Z" fill="#001E20"/>
</svg>
