<svg width="144" height="134" viewBox="0 0 144 134" fill="none" xmlns="http://www.w3.org/2000/svg">
<path d="M35.8605 30.4881L35.8605 0L72 30.4881V60.9762L35.8605 30.4881Z" fill="white"/>
<path d="M36.1395 30.4881V1.5798e-06L1.3326e-06 30.4881L0 60.9762L36.1395 30.4881Z" fill="white"/>
<path d="M107.861 30.4881V0L144 30.4881V60.9762L107.861 30.4881Z" fill="white"/>
<path d="M107.861 30.4881V0L71.7211 30.4881V60.9762L107.861 30.4881Z" fill="white"/>
<path d="M108.139 73.4875L108.139 103.976L72 73.4875L72 42.9994L108.139 73.4875Z" fill="white"/>
<path d="M107.861 73.4875L107.861 103.976L144 73.4875V42.9994L107.861 73.4875Z" fill="white"/>
<path d="M71.7211 103.512V73.0238L107.861 103.512L107.861 134L71.7211 103.512Z" fill="white"/>
<path d="M72 103.512V73.0238L35.8605 103.512L35.8605 134L72 103.512Z" fill="white"/>
<path d="M36.1395 73.4874L36.1395 103.976L6.99854e-06 73.4874L1.09963e-05 42.9993L36.1395 73.4874Z" fill="white"/>
<path d="M36.1395 73.4874L36.1395 103.976L72.2789 73.4874L72.2789 42.9993L36.1395 73.4874Z" fill="white"/>
<path d="M71.3923 64L81.7846 92L71.3923 83L61 92L71.3923 64Z" fill="#001E20"/>
<rect x="100" y="52" width="11.3138" height="11.3138" transform="rotate(-45 100 52)" fill="#FF513F"/>
</svg>
