<svg width="144" height="134" fill="none" xmlns="http://www.w3.org/2000/svg">
<path d="M35.86 30.488V0L72 30.488v30.488L35.86 30.488z" fill="#fff"/>
<path d="M36.14 30.488V0L0 30.488v30.488l36.14-30.488zM107.861 30.488V0L144 30.488v30.488l-36.139-30.488z" fill="#fff"/>
<path d="M107.861 30.488V0l-36.14 30.488v30.488l36.14-30.488z" fill="#fff"/>
<path d="M108.139 73.487v30.489L72 73.487V43l36.139 30.488z" fill="#fff"/>
<path d="M107.861 73.487v30.489L144 73.487V43l-36.139 30.488z" fill="#fff"/>
<path d="M71.721 103.512V73.024l36.14 30.488V134l-36.14-30.488z" fill="#fff"/>
<path d="M72 103.512V73.024l-36.14 30.488V134L72 103.512z" fill="#fff"/>
<path d="M36.14 73.487v30.489L0 73.487V43l36.14 30.488z" fill="#fff"/>
<path d="M36.14 73.487v30.489l36.139-30.489V43l-36.14 30.488z" fill="#fff"/>
<path d="M71.392 64l10.393 28-10.393-9L61 92l10.392-28z" fill="#001E20"/>
<path fill="#FF513F" d="M100 52l8-8 8 8-8 8z"/>
</svg>