<svg width="340" height="614" viewBox="0 0 340 614" fill="none" xmlns="http://www.w3.org/2000/svg">
<ellipse cx="149" cy="149.5" rx="149" ry="149.5" fill="#FFC856"/>
<path d="M80.8682 167.045L84.7214 173.655L84.3086 202.988L90.6389 223.095L99.584 226.675L98.0702 170.35L89.8132 166.77L80.8682 167.045Z" fill="#CCB6AD"/>
<path d="M144.172 111.133L96.0057 124.904L89.813 166.769L95.4553 169.248L90.6387 196.378L93.1158 200.509L98.4828 200.096L99.4461 224.196L120.914 222.13L170.869 167.045L144.172 111.133Z" fill="#B39285"/>
<path d="M86.3726 119.396L96.0058 124.905L144.172 111.133L158.621 168.973L170.869 167.045L181.19 156.716L193.163 157.405L150.502 83.728L93.6663 93.9189L84.7212 108.379L86.3726 119.396Z" fill="#333333"/>
<path d="M204.172 212.353L193.163 187.427V157.405L150.502 83.728L196.604 106.313L204.172 212.353Z" fill="black"/>
<path d="M98.4826 200.097L88.5742 214.144L102.198 207.12L132.887 209.048L109.767 200.097H98.4826Z" fill="black"/>
<path d="M86.3728 119.396L80.8682 167.045L89.8132 166.77L96.006 124.905L86.3728 119.396Z" fill="#996E5C"/>
<path d="M117.612 263.032L151.741 279.42L162.062 244.716L117.612 263.032Z" fill="#996E5C"/>
<path d="M188.209 190.87L195.09 276.528L175.136 290.712L151.741 279.42L174.86 200.51L188.209 190.87Z" fill="#B39285"/>
<path d="M100.547 254.769L48.1152 267.714L87.4736 375.407L277.66 381.191L295.55 269.504L225.641 254.356L175.135 290.712L100.547 254.769Z" fill="black"/>
<path d="M195.09 276.528L186.558 174.619L193.163 187.427L204.173 212.353L207.888 248.985L225.641 254.356L195.09 276.528Z" fill="#996E5C"/>
<path d="M15.0872 304.897L48.1152 267.714L87.4735 373.891L10.4082 393.171L15.0872 304.897Z" fill="#333333"/>
<path d="M295.55 269.504L282.889 348.001L340 373.616L318.945 290.712L295.55 269.504Z" fill="#333333"/>
<path d="M68.8951 450.598L59.6748 632.105L279.173 646.84L276.421 416.858L68.8951 450.598Z" fill="black"/>
<path d="M53.8951 454.867L32.7021 634.446L59.675 632.105L68.8953 450.598L54.7208 451.7" fill="#333333"/>
<path d="M311.513 650.972L279.173 646.841L276.559 428.702L297.889 426.499L311.513 650.972Z" fill="#666666"/>
<path d="M89.6753 219.79L89.9505 249.536L101.923 269.505L179.264 237.555L170.869 167.045L120.914 222.131L97.1066 224.472L89.6753 219.79Z" fill="#1A1A1A"/>
<path d="M111.969 167.733L110.868 170.763L133.85 167.733H111.969Z" fill="black"/>
<path d="M84.3081 172.141L94.3541 169.249V172.141H84.3081Z" fill="black"/>
<path d="M100.547 159.471L106.327 165.53L128.07 162.5L129.171 159.471H100.547Z" fill="black"/>
<path d="M90.5013 161.812L89.8132 166.77L80.8682 167.045L81.0058 165.117L90.5013 161.812Z" fill="black"/>
<path d="M95.4553 169.249L90.6387 196.378L93.1158 200.51L110.043 199.546L101.51 169.249H95.4553Z" fill="#996E5C"/>
<path d="M96.2808 212.216L99.4459 215.796L121.465 210.563L96.2808 212.216Z" fill="#996E5C"/>
<path d="M99.0332 219.79L99.446 215.796L121.465 210.563L99.0332 219.79Z" fill="#663B29"/>
<path d="M170.869 167.045L181.19 156.717L193.163 157.405V187.427L174.86 200.51L170.869 167.045Z" fill="#CCB6AD"/>
<path d="M172.108 177.098L183.255 164.429L182.842 186.05L173.622 190.87L172.108 177.098Z" fill="#804933"/>
<path d="M131.098 168.146L130.272 170.763L111.831 173.93L110.868 170.763L131.098 168.146Z" fill="white"/>
<path d="M84.3081 172.141L84.9962 174.344L92.978 175.033L94.3541 172.141H84.3081Z" fill="white"/>
<path d="M110.868 170.763L111.831 173.931L119.263 172.691V169.662L110.868 170.763Z" fill="#20120D"/>
<path d="M84.3081 172.141L84.9962 174.344L88.5742 174.619V172.141H84.3081Z" fill="#20120D"/>
<path d="M20.3166 390.693L10.4082 405.841L37.5187 452.802L150.502 444.814L228.668 428.702L87.4735 373.892L20.3166 390.693Z" fill="#CCB6AD"/>
<path d="M137.291 352.546L293.623 348.001L340 373.616L317.018 424.57L238.577 432.42L112.933 384.633L137.291 352.546Z" fill="#CCB6AD"/>
<path d="M137.291 352.546L87.4736 373.892L112.933 384.633L137.291 352.546Z" fill="#996E5C"/>
<path d="M27.6104 435.725L37.5188 452.802L150.502 444.814L228.668 428.702L192.475 414.93L27.6104 435.725Z" fill="#996E5C"/>
<path d="M121.052 373.892L317.018 424.57L238.577 432.42L112.933 384.633L121.052 373.892Z" fill="#B39285"/>
<path d="M10.4082 393.171L20.3166 390.692L43.0233 433.659L27.6103 435.725L10.4082 405.841V393.171Z" fill="#B39285"/>
<path d="M330.918 368.658L302.844 420.99L317.018 424.57L340 373.616L330.918 368.658Z" fill="#996E5C"/>
<path d="M241.329 349.516L263.898 320.596L259.357 348.965L241.329 349.516Z" fill="#996E5C"/>
<path d="M284.953 322.386L245.182 349.378L279.173 348.414L289.495 337.259L284.953 322.386Z" fill="#B39285"/>
<path d="M287.568 348.139L284.128 343.043L279.173 348.414L287.568 348.139Z" fill="#996E5C"/>
<path d="M108.253 372.101L110.868 383.807L124.492 389.04L123.391 370.862L137.291 352.546L112.382 362.186L108.253 372.101Z" fill="#605639"/>
<path d="M131.335 353.854L120.85 352.027L109.196 363.257L118.896 370.511L131.335 353.854Z" fill="#FFC856"/>
</svg>
