<svg width="65" height="62" viewBox="0 0 65 62" fill="none" xmlns="http://www.w3.org/2000/svg">
<g clip-path="url(#clip0)">
<path d="M21.287 40.211L13.4563 40.6945L7.87331 50.1875L15.0091 42.9419L20.7375 43.2375L21.287 40.211Z" fill="#FF513F"/>
<path d="M21.7046 43.779L16.1542 46.0813L13.4669 56.67L18.2993 47.803L25.5958 45.1306L21.7046 43.779Z" fill="#FF513F"/>
<path d="M44.4891 36.7087L50.7698 32.1617L61.4363 35.8436L51.102 34.8542L46.9363 38.6748L44.4891 36.7087Z" fill="#FF513F"/>
<path d="M45.3989 40.0179L51.4237 39.5741L58.8717 47.8078L50.3619 42.0763L42.5633 42.952L45.3989 40.0179Z" fill="#FF513F"/>
<path d="M18.8026 35.4969L24.6913 34.3994L24.6492 35.9756L17.6329 37.2333L18.8026 35.4969Z" fill="#FF513F"/>
<path d="M18.8024 35.4967L17.6275 30.1569L16.2896 30.41L17.6327 37.2331L18.8024 35.4967Z" fill="#FF513F"/>
<path d="M48.7387 31.5319L44.4497 26.0434L43.3971 26.8498L46.7109 31.1981L48.7387 31.5319Z" fill="#FF513F"/>
<path d="M48.7387 31.5318L43.3746 35.7739L42.1553 34.7544L46.6731 31.1939L48.7387 31.5318Z" fill="#FF513F"/>
<path d="M16.1538 46.0807L18.2989 47.8024L25.5954 45.13L21.7043 43.7784L16.1538 46.0807Z" fill="#FF513F"/>
<path d="M42.5633 42.952L45.3989 40.0179L51.4237 39.5741L50.3619 42.0763L42.5633 42.952Z" fill="#FF513F"/>
<path d="M44.4891 36.7087L46.9363 38.6748L51.102 34.8542L50.7698 32.1617L44.4891 36.7087Z" fill="#FF513F"/>
<path d="M21.287 40.2118L20.7376 43.2382L15.0091 42.9427L13.4563 40.6953L21.287 40.2118Z" fill="#FF513F"/>
<path d="M39.0128 32.1961L24.1484 33.2535L17.212 40.7531L25.2156 47.2036L40.0799 46.1462L46.9785 38.6424L39.0128 32.1961Z" fill="#FF513F"/>
<path d="M16.3877 30.8774L7.13284 27.0465L10.4631 15.6266L15.4932 26.4608L14.4895 18.3544L20.9125 24.5633L17.7255 30.6242L16.3877 30.8774Z" fill="#FF513F"/>
<path d="M44.3807 26.6268L46.7036 19.6156L38.2764 15.7744L42.2087 23.9533L37.8918 19.347L38.4097 25.9699L43.5808 27.2397L44.3807 26.6268Z" fill="#FF513F"/>
<path d="M26.2623 14.8246L25.8018 16.624L41.8485 20.5168L42.309 18.7174L26.2623 14.8246Z" fill="#001E20"/>
<path d="M29.8974 11.1503L28.5825 16.3203L39.5266 18.9923L40.8414 13.8223L29.8974 11.1503Z" fill="#001E20"/>
<path d="M17.2118 40.7525L46.9362 38.6741L40.0797 46.1456L25.2153 47.203L17.2118 40.7525Z" fill="#AA3528"/>
<path d="M35.1317 34.4825L36.4169 28.3304L35.0475 25.2952L33.6701 28.151L35.1317 34.4825Z" fill="#001E20"/>
<path d="M28.2086 35.0847L29.2379 28.7065L27.7756 25.976L26.4608 29.0926L28.2086 35.0847Z" fill="#001E20"/>
</g>
<defs>
<clipPath id="clip0">
<rect width="58.056" height="56.0273" fill="white" transform="matrix(0.994002 0.109357 -0.117531 0.993069 7.21924 0)"/>
</clipPath>
</defs>
</svg>
