<svg width="284" height="208" viewBox="0 0 284 208" fill="none" xmlns="http://www.w3.org/2000/svg">
<g clip-path="url(#clip0)">
<path d="M5.39836 158.789L30.3523 123.746L102.413 117.885L26.4951 186.726L5.39836 158.789Z" fill="#001E20"/>
<path d="M114.884 178.326L102.413 117.885L26.4954 186.726L114.884 178.326Z" fill="#FF513F"/>
<path d="M87.0794 10.5033L60.8552 29.4179L113.872 45.9617L121.275 24.542L87.0794 10.5033Z" fill="#FFC856"/>
<path d="M51.8147 46.9273L103.214 66.8958L116.252 54.585L63.1939 35.511L51.8147 46.9273Z" fill="#FFC856"/>
<path d="M51.8143 46.9274L20.7435 98.5642L46.057 87.4916L43.1277 81.0189L54.2127 75.0249L48.9831 65.6755L64.6777 51.9229L51.8143 46.9274Z" fill="#FFC856"/>
<path d="M72.0226 54.7678L64.1071 67.6394L66.9392 80.558L68.0809 95.3938L85.7799 130.826L103.214 66.8958L72.0226 54.7678Z" fill="#FFC856"/>
<path d="M48.9824 65.6753L64.5678 69.6465L66.9384 80.5579L54.212 75.0247L48.9824 65.6753Z" fill="#001E20"/>
<path d="M77.1324 40.5515L48.9827 65.6753L64.568 69.6465L80.2884 41.642L77.1324 40.5515Z" fill="white"/>
<path d="M43.1278 81.0188L67.6353 89.9548L66.9391 80.558L54.2128 75.0248L43.1278 81.0188Z" fill="white"/>
<path d="M46.0572 87.4915L68.081 95.3938L67.6355 89.9548L43.1279 81.0188L46.0572 87.4915Z" fill="#001E20"/>
<path d="M20.7439 98.5641L26.7443 121.509L49.0893 135.563L85.7802 130.826L68.0811 95.3938L46.0573 87.4915L20.7439 98.5641Z" fill="#FF513F"/>
<path d="M60.855 29.418L63.1941 35.5113L116.253 54.5853L113.871 45.9617L60.855 29.418Z" fill="#001E20"/>
<path d="M121.275 24.5419L128.797 35.449L102.413 117.885L85.7803 130.826L103.215 66.8959L116.252 54.5851L113.871 45.9616L121.275 24.5419Z" fill="#FF513F"/>
<path d="M119.731 49.9171L124.583 56.7078L117.876 72.9222L111.964 71.4159L119.731 49.9171Z" fill="#001E20"/>
<path d="M111.711 102.502L117.875 72.9219L111.963 71.4156L102.353 98.8009L111.711 102.502Z" fill="#001E20"/>
<path d="M80.2894 41.6423L66.9396 80.5582L64.569 69.6468L80.2894 41.6423Z" fill="#FF513F"/>
</g>
<g clip-path="url(#clip1)">
<path d="M127.672 170.018L144.647 146.179L193.667 142.192L142.024 189.022L127.672 170.018Z" fill="#001E20"/>
<path d="M202.151 183.308L193.667 142.192L142.024 189.022L202.151 183.308Z" fill="#FF513F"/>
<path d="M183.237 69.145L165.397 82.0118L201.462 93.2658L206.499 78.6949L183.237 69.145Z" fill="#FFC856"/>
<path d="M159.247 93.9228L194.212 107.506L203.082 99.132L166.988 86.1567L159.247 93.9228Z" fill="#FFC856"/>
<path d="M159.247 93.9228L138.111 129.049L155.331 121.517L153.338 117.114L160.879 113.036L157.321 106.676L167.998 97.3211L159.247 93.9228Z" fill="#FFC856"/>
<path d="M172.994 99.2563L167.609 108.012L169.536 116.8L170.313 126.893L182.353 150.995L194.212 107.506L172.994 99.2563Z" fill="#FFC856"/>
<path d="M157.321 106.676L167.923 109.378L169.535 116.8L160.878 113.036L157.321 106.676Z" fill="#001E20"/>
<path d="M176.47 89.5856L157.321 106.676L167.923 109.378L178.617 90.3274L176.47 89.5856Z" fill="white"/>
<path d="M153.338 117.114L170.01 123.193L169.536 116.8L160.879 113.036L153.338 117.114Z" fill="white"/>
<path d="M155.331 121.517L170.313 126.893L170.01 123.193L153.338 117.114L155.331 121.517Z" fill="#001E20"/>
<path d="M138.111 129.049L142.193 144.658L157.394 154.218L182.353 150.996L170.313 126.893L155.331 121.517L138.111 129.049Z" fill="#FF513F"/>
<path d="M165.397 82.0119L166.988 86.1569L203.082 99.1322L201.462 93.2659L165.397 82.0119Z" fill="#001E20"/>
<path d="M206.498 78.6949L211.615 86.1145L193.667 142.192L182.353 150.996L194.212 107.507L203.082 99.1321L201.462 93.2658L206.498 78.6949Z" fill="#FF513F"/>
<path d="M205.448 95.9567L208.749 100.576L204.186 111.606L200.165 110.581L205.448 95.9567Z" fill="#001E20"/>
<path d="M199.993 131.728L204.186 111.606L200.164 110.581L193.626 129.21L199.993 131.728Z" fill="#001E20"/>
<path d="M178.618 90.3275L169.536 116.8L167.924 109.378L178.618 90.3275Z" fill="#FF513F"/>
</g>
<g clip-path="url(#clip2)">
<path d="M215.492 181.305L227.012 165.127L260.279 162.421L225.231 194.202L215.492 181.305Z" fill="#001E20"/>
<path d="M266.036 190.324L260.279 162.421L225.232 194.202L266.036 190.324Z" fill="#FF513F"/>
<path d="M253.2 112.849L241.094 121.581L265.569 129.218L268.987 119.33L253.2 112.849Z" fill="#FFC856"/>
<path d="M236.92 129.664L260.649 138.882L266.668 133.199L242.173 124.394L236.92 129.664Z" fill="#FFC856"/>
<path d="M236.92 129.664L222.576 153.502L234.262 148.39L232.91 145.402L238.027 142.635L235.613 138.319L242.858 131.97L236.92 129.664Z" fill="#FFC856"/>
<path d="M246.249 133.283L242.595 139.226L243.902 145.189L244.429 152.038L252.6 168.396L260.649 138.882L246.249 133.283Z" fill="#FFC856"/>
<path d="M235.613 138.319L242.808 140.152L243.902 145.189L238.027 142.635L235.613 138.319Z" fill="#001E20"/>
<path d="M248.608 126.72L235.613 138.319L242.808 140.152L250.065 127.224L248.608 126.72Z" fill="white"/>
<path d="M232.91 145.402L244.224 149.528L243.902 145.189L238.027 142.635L232.91 145.402Z" fill="white"/>
<path d="M234.262 148.39L244.429 152.038L244.224 149.528L232.91 145.402L234.262 148.39Z" fill="#001E20"/>
<path d="M222.576 153.502L225.347 164.095L235.662 170.583L252.6 168.396L244.43 152.038L234.262 148.39L222.576 153.502Z" fill="#FF513F"/>
<path d="M241.094 121.581L242.174 124.394L266.668 133.199L265.569 129.218L241.094 121.581Z" fill="#001E20"/>
<path d="M268.986 119.33L272.459 124.365L260.278 162.421L252.6 168.396L260.649 138.882L266.668 133.199L265.568 129.218L268.986 119.33Z" fill="#FF513F"/>
<path d="M268.274 131.044L270.514 134.179L267.417 141.664L264.688 140.969L268.274 131.044Z" fill="#001E20"/>
<path d="M264.571 155.32L267.417 141.664L264.688 140.969L260.251 153.611L264.571 155.32Z" fill="#001E20"/>
<path d="M250.065 127.224L243.902 145.19L242.808 140.152L250.065 127.224Z" fill="#FF513F"/>
</g>
<defs>
<clipPath id="clip0">
<rect width="110.919" height="185.726" fill="white" transform="translate(45.8584) rotate(14.295)"/>
</clipPath>
<clipPath id="clip1">
<rect width="75.454" height="126.342" fill="white" transform="translate(155.196 62) rotate(14.295)"/>
</clipPath>
<clipPath id="clip2">
<rect width="51.2058" height="85.74" fill="white" transform="translate(234.17 108) rotate(14.295)"/>
</clipPath>
</defs>
</svg>
