<svg width="720" height="379" viewBox="0 0 720 379" fill="none" xmlns="http://www.w3.org/2000/svg">
<g clip-path="url(#clip0)">
<path d="M661.092 315.819L670.768 287.77L699.361 285.081L666.09 321.895L661.092 315.819Z" fill="#001E20"/>
<path d="M699.361 321.895L699.361 285.081L666.09 321.895L699.361 321.895Z" fill="#007550"/>
<path d="M685.606 238.603L675.089 244.453L701.427 249.878L699.288 241.776L685.606 238.603Z" fill="#FFC856"/>
<path d="M671.574 253.324L697.298 260.476L702.988 253.918L676.509 247.277L671.574 253.324Z" fill="#FFC856"/>
<path d="M671.574 253.324L664.331 281.127L670.748 273.144L669.026 270.166L674.079 266.746L671.11 262.492L678.012 255.113L671.574 253.324Z" fill="#FFC856"/>
<path d="M681.687 256.131L678.492 262.712L680.477 268.8L681.739 275.894L683.755 288.035L697.298 260.476L681.687 256.131Z" fill="#FFC856"/>
<path d="M671.11 262.492L678.81 263.657L680.476 268.8L674.079 266.746L671.11 262.492Z" fill="#001E20"/>
<path d="M683.466 249.036L671.11 262.492L678.81 263.657L685.039 249.409L683.466 249.036Z" fill="white"/>
<path d="M669.027 270.166L681.264 273.294L680.477 268.8L674.08 266.746L669.027 270.166Z" fill="white"/>
<path d="M670.749 273.144L681.739 275.894L681.263 273.294L669.026 270.166L670.749 273.144Z" fill="#001E20"/>
<path d="M664.331 281.127L663.653 287.154L676.028 291.975L683.755 288.035L681.74 275.894L670.749 273.144L664.331 281.127Z" fill="#007550"/>
<path d="M675.089 244.453L676.509 247.277L689.749 250.598L702.989 253.918L701.427 249.878L685.689 243.428L675.089 244.453Z" fill="#001E20"/>
<path d="M699.228 242.035L706.079 248.758L699.361 285.081L683.755 288.035L697.298 260.476L702.989 253.918L701.427 249.878L699.228 242.035Z" fill="#007550"/>
<path d="M704.44 251.502L707.104 254.541L704.651 262.675L701.731 262.233L704.44 251.502Z" fill="#001E20"/>
<path d="M703.102 277.223L704.651 262.675L701.73 262.233L698.415 275.889L703.102 277.223Z" fill="#001E20"/>
<path d="M685.04 249.41L680.477 268.801L678.811 263.657L685.04 249.41Z" fill="#007550"/>
</g>
<g clip-path="url(#clip1)">
<path d="M5.32292 310.407L44.5066 238.189L179.758 210.373L51.794 358.48L5.32292 310.407Z" fill="#001E20"/>
<path d="M217.413 322.065L179.759 210.373L51.7947 358.48L217.413 322.065Z" fill="#FF513F"/>
<path d="M125.797 10.3562L80.4662 52.2933L184.809 71.3664L193.879 29.0433L125.797 10.3562Z" fill="#FFC856"/>
<path d="M67.3858 87.583L169.457 113.523L191.32 87.1625L86.3118 63.3022L67.3858 87.583Z" fill="#FFC856"/>
<path d="M67.3857 87.5832L20.4527 192.678L65.8745 165.818L58.8207 154.227L78.4459 140.294L66.3645 123.782L92.9298 94.0716L67.3857 87.5832Z" fill="#FFC856"/>
<path d="M107.514 97.7623L95.4915 123.999L103.855 147.833L109.459 175.694L151.226 238.762L169.457 113.523L107.514 97.7623Z" fill="#FFC856"/>
<path d="M66.3628 123.782L96.8297 127.697L103.853 147.833L78.4442 140.294L66.3628 123.782Z" fill="#001E20"/>
<path d="M113.905 69.6267L66.3636 123.781L96.8305 127.697L120.141 70.9624L113.905 69.6267Z" fill="white"/>
<path d="M58.8209 154.227L107.353 165.486L103.855 147.833L78.4461 140.294L58.8209 154.227Z" fill="white"/>
<path d="M65.8745 165.818L109.459 175.694L107.353 165.486L58.8208 154.227L65.8745 165.818Z" fill="#001E20"/>
<path d="M20.4535 192.678L37.1481 234.786L82.7671 256.249L151.227 238.762L109.459 175.694L65.8753 165.818L20.4535 192.678Z" fill="#FF513F"/>
<path d="M80.4658 52.2935L86.3129 63.3027L191.321 87.163L184.808 71.3666L80.4658 52.2935Z" fill="#001E20"/>
<path d="M193.878 29.0432L210.667 47.9767L179.758 210.373L151.226 238.762L169.458 113.524L191.321 87.1627L184.807 71.3663L193.878 29.0432Z" fill="#FF513F"/>
<path d="M196.835 77.5067L207.606 89.2557L198.65 121.549L187.093 120.064L196.835 77.5067Z" fill="#001E20"/>
<path d="M193.82 179.056L198.648 121.549L187.091 120.064L175.22 174.208L193.82 179.056Z" fill="#001E20"/>
<path d="M120.142 70.9628L103.856 147.833L96.832 127.697L120.142 70.9628Z" fill="#FF513F"/>
</g>
<g clip-path="url(#clip2)">
<path d="M239.73 303.35L266.385 254.223L358.391 235.3L271.342 336.051L239.73 303.35Z" fill="#001E20"/>
<path d="M384.005 311.28L358.391 235.301L271.342 336.052L384.005 311.28Z" fill="#FF513F"/>
<path d="M321.683 99.237L290.847 127.765L361.827 140.74L367.997 111.949L321.683 99.237Z" fill="#FFC856"/>
<path d="M281.949 151.771L351.384 169.417L366.256 151.485L294.823 135.254L281.949 151.771Z" fill="#FFC856"/>
<path d="M281.949 151.771L250.022 223.263L280.921 204.992L276.122 197.106L289.473 187.628L281.254 176.396L299.325 156.185L281.949 151.771Z" fill="#FFC856"/>
<path d="M309.246 158.696L301.068 176.543L306.757 192.757L310.569 211.71L338.982 254.612L351.384 169.418L309.246 158.696Z" fill="#FFC856"/>
<path d="M281.252 176.396L301.978 179.059L306.756 192.757L289.471 187.628L281.252 176.396Z" fill="#001E20"/>
<path d="M313.594 139.556L281.253 176.396L301.979 179.059L317.836 140.465L313.594 139.556Z" fill="white"/>
<path d="M276.122 197.106L309.136 204.766L306.757 192.757L289.472 187.628L276.122 197.106Z" fill="white"/>
<path d="M280.92 204.992L310.569 211.71L309.137 204.766L276.122 197.106L280.92 204.992Z" fill="#001E20"/>
<path d="M250.022 223.263L261.379 251.908L292.412 266.508L338.982 254.612L310.57 211.71L280.921 204.992L250.022 223.263Z" fill="#FF513F"/>
<path d="M290.846 127.765L294.824 135.254L366.257 151.486L361.826 140.74L290.846 127.765Z" fill="#001E20"/>
<path d="M367.996 111.949L379.417 124.829L358.391 235.301L338.982 254.612L351.384 169.418L366.256 151.485L361.826 140.74L367.996 111.949Z" fill="#FF513F"/>
<path d="M370.007 144.917L377.334 152.909L371.242 174.877L363.381 173.867L370.007 144.917Z" fill="#001E20"/>
<path d="M367.957 213.997L371.241 174.877L363.379 173.867L355.304 210.699L367.957 213.997Z" fill="#001E20"/>
<path d="M317.837 140.465L306.757 192.757L301.98 179.059L317.837 140.465Z" fill="#FF513F"/>
</g>
<g clip-path="url(#clip3)">
<path d="M408.834 304.389L426.923 271.05L489.362 258.208L430.287 326.582L408.834 304.389Z" fill="#001E20"/>
<path d="M506.745 309.771L489.362 258.208L430.288 326.582L506.745 309.771Z" fill="#FF513F"/>
<path d="M464.451 165.871L443.524 185.231L491.693 194.036L495.881 174.498L464.451 165.871Z" fill="#FFC856"/>
<path d="M437.485 201.522L484.606 213.498L494.7 201.328L446.222 190.313L437.485 201.522Z" fill="#FFC856"/>
<path d="M437.485 201.522L415.819 250.039L436.788 237.64L433.531 232.288L442.591 225.856L437.014 218.233L449.278 204.518L437.485 201.522Z" fill="#FFC856"/>
<path d="M456.01 206.222L450.46 218.334L454.321 229.337L456.908 242.199L476.19 271.314L484.606 213.498L456.01 206.222Z" fill="#FFC856"/>
<path d="M437.013 218.233L451.078 220.041L454.321 229.337L442.591 225.856L437.013 218.233Z" fill="#001E20"/>
<path d="M458.961 193.233L437.013 218.233L451.078 220.041L461.84 193.849L458.961 193.233Z" fill="white"/>
<path d="M433.531 232.288L455.936 237.486L454.321 229.337L442.591 225.856L433.531 232.288Z" fill="white"/>
<path d="M436.787 237.64L456.908 242.199L455.936 237.486L433.531 232.288L436.787 237.64Z" fill="#001E20"/>
<path d="M415.819 250.039L423.526 269.478L444.586 279.387L476.19 271.314L456.908 242.199L436.788 237.64L415.819 250.039Z" fill="#FF513F"/>
<path d="M443.523 185.231L446.223 190.313L494.7 201.329L491.693 194.036L443.523 185.231Z" fill="#001E20"/>
<path d="M495.88 174.498L503.631 183.238L489.362 258.208L476.19 271.314L484.607 213.498L494.7 201.328L491.693 194.036L495.88 174.498Z" fill="#FF513F"/>
<path d="M497.245 196.871L502.218 202.295L498.083 217.203L492.748 216.517L497.245 196.871Z" fill="#001E20"/>
<path d="M495.853 243.751L498.082 217.203L492.747 216.517L487.267 241.513L495.853 243.751Z" fill="#001E20"/>
<path d="M461.84 193.85L454.321 229.337L451.079 220.041L461.84 193.85Z" fill="#FF513F"/>
</g>
<g clip-path="url(#clip4)">
<path d="M535.841 309.188L549.389 284.216L596.156 274.598L551.909 325.81L535.841 309.188Z" fill="#001E20"/>
<path d="M609.177 313.219L596.157 274.598L551.91 325.81L609.177 313.219Z" fill="#FF513F"/>
<path d="M577.498 205.437L561.824 219.938L597.903 226.533L601.039 211.898L577.498 205.437Z" fill="#FFC856"/>
<path d="M557.301 232.14L592.595 241.11L600.155 231.995L563.845 223.744L557.301 232.14Z" fill="#FFC856"/>
<path d="M557.3 232.14L541.072 268.48L556.778 259.192L554.339 255.184L561.125 250.366L556.947 244.657L566.133 234.384L557.3 232.14Z" fill="#FFC856"/>
<path d="M571.176 235.66L567.019 244.732L569.911 252.973L571.848 262.607L586.291 284.415L592.595 241.11L571.176 235.66Z" fill="#FFC856"/>
<path d="M556.947 244.657L567.482 246.011L569.911 252.973L561.125 250.366L556.947 244.657Z" fill="#001E20"/>
<path d="M573.386 225.931L556.947 244.657L567.482 246.011L575.542 226.393L573.386 225.931Z" fill="white"/>
<path d="M554.339 255.184L571.12 259.077L569.911 252.973L561.125 250.366L554.339 255.184Z" fill="white"/>
<path d="M556.778 259.192L571.848 262.607L571.12 259.077L554.339 255.184L556.778 259.192Z" fill="#001E20"/>
<path d="M541.073 268.48L546.845 283.04L562.619 290.461L586.291 284.415L571.849 262.607L556.778 259.192L541.073 268.48Z" fill="#FF513F"/>
<path d="M561.824 219.938L563.846 223.745L600.155 231.995L597.903 226.533L561.824 219.938Z" fill="#001E20"/>
<path d="M601.039 211.898L606.844 218.445L596.156 274.598L586.291 284.415L592.595 241.11L600.155 231.995L597.902 226.533L601.039 211.898Z" fill="#FF513F"/>
<path d="M602.061 228.656L605.786 232.719L602.689 243.885L598.693 243.371L602.061 228.656Z" fill="#001E20"/>
<path d="M601.019 263.77L602.688 243.885L598.692 243.371L594.587 262.093L601.019 263.77Z" fill="#001E20"/>
<path d="M575.543 226.393L569.911 252.974L567.483 246.011L575.543 226.393Z" fill="#FF513F"/>
</g>
<defs>
<clipPath id="clip0">
<rect width="53.706" height="89.9264" fill="white" transform="translate(666.451 231) rotate(8.60216)"/>
</clipPath>
<clipPath id="clip1">
<rect width="211.845" height="354.717" fill="white" transform="translate(45.2158) rotate(7.32345)"/>
</clipPath>
<clipPath id="clip2">
<rect width="144.11" height="241.3" fill="white" transform="translate(266.867 92.1921) rotate(7.32345)"/>
</clipPath>
<clipPath id="clip3">
<rect width="97.7979" height="163.755" fill="white" transform="translate(427.25 161.09) rotate(7.32345)"/>
</clipPath>
<clipPath id="clip4">
<rect width="73.2512" height="122.653" fill="white" transform="translate(549.635 201.856) rotate(7.32345)"/>
</clipPath>
</defs>
</svg>
