<svg width="594" height="454" viewBox="0 0 594 454" fill="none" xmlns="http://www.w3.org/2000/svg">
<path d="M-7.5987e-06 279.204L-7.5987e-06 170L299.613 342.945L299.613 453.042L-7.5987e-06 279.204Z" fill="#FF513F"/>
<path d="M-7.56809e-06 170.162L199.153 57.6227L199.153 168.719L395.419 284.144L300.172 343.3L-7.56809e-06 170.162Z" fill="#001E20"/>
<path d="M395.418 393.831L395.418 284.074L299.612 343.285L299.612 453.042L395.418 393.831Z" fill="#FFC856"/>
<path d="M594 173.977L594 284.074L294.387 110.236L294.387 0.138659L594 173.977Z" fill="#001E20"/>
<path d="M594 283.019L394.847 395.558L394.847 284.462L198.581 169.037L293.828 109.881L594 283.019Z" fill="#FF513F"/>
<path d="M198.581 57.9054L198.581 169.106L294.387 109.895L294.387 0.138672L198.581 57.9054Z" fill="#FFC856"/>
</svg>
