<svg width="1056" height="1115" viewBox="0 0 1056 1115" fill="none" xmlns="http://www.w3.org/2000/svg">
<path d="M310.594 820.543L384.208 889.721L392.573 733.244L318.96 664.065L310.594 820.543Z" fill="#001E20"/>
<path d="M145.894 994.655L219.507 1063.83L227.872 907.356L154.259 838.178L145.894 994.655Z" fill="#001E20"/>
<path d="M310.595 820.546L384.208 889.724L228.616 907.845L155.003 838.666L310.595 820.546Z" fill="white"/>
<path d="M967.343 120.344L1040.96 189.522L885.364 207.643L811.75 138.465L967.343 120.344Z" fill="white"/>
<path d="M474.758 645.727L548.371 714.905L556.737 558.427L483.123 489.249L474.758 645.727Z" fill="#001E20"/>
<path d="M474.758 645.724L548.371 714.902L392.779 733.023L319.165 663.844L474.758 645.724Z" fill="white"/>
<path d="M639.339 470.464L712.952 539.642L721.317 383.165L647.704 313.986L639.339 470.464Z" fill="#001E20"/>
<path d="M639.342 470.462L712.955 539.64L557.363 557.761L483.749 488.582L639.342 470.462Z" fill="white"/>
<path d="M803.924 295.195L877.537 364.373L885.903 207.896L812.289 138.717L803.924 295.195Z" fill="#001E20"/>
<path d="M803.925 295.195L877.539 364.373L721.946 382.494L648.333 313.315L803.925 295.195Z" fill="white"/>
</svg>
