<svg width="300" height="291" viewBox="0 0 300 291" fill="none" xmlns="http://www.w3.org/2000/svg">
<ellipse cx="150" cy="145.5" rx="150" ry="145.5" fill="url(#paint0_linear)"/>
<path d="M24.1449 132.362L36.811 128.251L35.7444 132.298L24.1449 132.362Z" fill="#001E20"/>
<path d="M36.792 128.223L42.3604 133.496L41.2666 137.647L35.742 132.208L36.792 128.223Z" fill="#001E20"/>
<path d="M54.3471 140.634L47.5714 131.168L46.5044 135.218L54.3471 140.634Z" fill="#001E20"/>
<path d="M47.5908 131.181L42.342 133.48L41.2472 137.634L46.5398 135.169L47.5908 131.181Z" fill="#001E20"/>
<path d="M48.9417 125.219L54.0101 121.017L53.2244 123.999L48.9417 125.219Z" fill="#001E20"/>
<path d="M53.9983 121.006L56.3267 124.202L55.579 127.039L53.2805 123.729L53.9983 121.006Z" fill="#001E20"/>
<path d="M62.9916 128.864L59.3341 122.464L58.5771 125.338L62.9916 128.864Z" fill="#001E20"/>
<path d="M59.3474 122.472L56.0075 124.208L55.2308 127.155L58.6017 125.301L59.3474 122.472Z" fill="#001E20"/>
<path d="M60.946 136.509L67.4299 135.901L67.094 137.175L60.946 136.509Z" fill="#001E20"/>
<path d="M67.4219 135.888L70.7526 138.263L70.3261 139.882L67.0125 137.442L67.4219 135.888Z" fill="#001E20"/>
<path d="M76.4117 140.744L73.3128 137.498L72.9766 138.773L76.4117 140.744Z" fill="#001E20"/>
<path d="M73.3193 137.504L70.7449 138.255L70.3179 139.876L72.9095 139.06L73.3193 137.504Z" fill="#001E20"/>
<path d="M26.6885 143.622L30.3481 142.435L30.0399 143.604L26.6885 143.622Z" fill="#001E20"/>
<path d="M30.3428 142.426L31.9516 143.949L31.6356 145.149L30.0394 143.577L30.3428 142.426Z" fill="#001E20"/>
<path d="M34.7918 145.842L33.3017 143.235L32.9933 144.405L34.7918 145.842Z" fill="#001E20"/>
<path d="M33.3071 143.238L31.9464 143.945L31.63 145.146L33.0033 144.39L33.3071 143.238Z" fill="#001E20"/>
<defs>
<linearGradient id="paint0_linear" x1="150" y1="0" x2="150" y2="291" gradientUnits="userSpaceOnUse">
<stop stop-color="#FFD45D"/>
<stop offset="1" stop-color="#FF0000" stop-opacity="0"/>
</linearGradient>
</defs>
</svg>
