<svg width="448" height="209" viewBox="0 0 448 209" fill="none" xmlns="http://www.w3.org/2000/svg">
<g clip-path="url(#clip0)">
<path d="M215.508 208.939C214.099 208.939 212.689 208.877 211.35 208.877C212.689 208.877 214.099 208.877 215.508 208.939Z" fill="#EB3F33"/>
<path d="M184.006 207.582C182.949 207.52 181.822 207.397 180.765 207.335C181.892 207.397 182.949 207.52 184.006 207.582Z" fill="#EB3F33"/>
<path d="M190.067 207.952C188.939 207.89 187.882 207.829 186.755 207.767C187.882 207.829 188.939 207.89 190.067 207.952Z" fill="#EB3F33"/>
<path d="M223.824 209C221.71 209 219.666 209 217.622 208.938C219.666 209 221.78 209 223.824 209Z" fill="#EB3F33"/>
<path d="M208.813 208.815C207.544 208.754 206.276 208.754 205.078 208.692C206.276 208.754 207.544 208.754 208.813 208.815Z" fill="#EB3F33"/>
<path d="M202.4 208.569C201.202 208.507 200.004 208.507 198.876 208.445C200.074 208.507 201.272 208.569 202.4 208.569Z" fill="#EB3F33"/>
<path d="M196.198 208.322C195.071 208.26 193.943 208.198 192.815 208.137C193.943 208.198 195.071 208.26 196.198 208.322Z" fill="#EB3F33"/>
<path d="M211.28 208.877C210.434 208.877 209.588 208.815 208.813 208.815C209.659 208.815 210.504 208.815 211.28 208.877Z" fill="#EB3F33"/>
<path d="M198.876 208.445C197.96 208.383 197.114 208.383 196.198 208.322C197.114 208.383 197.96 208.383 198.876 208.445Z" fill="#EB3F33"/>
<path d="M205.078 208.692C204.162 208.692 203.316 208.63 202.47 208.568C203.316 208.63 204.162 208.63 205.078 208.692Z" fill="#EB3F33"/>
<path d="M186.755 207.767C185.839 207.705 184.922 207.644 184.077 207.582C184.922 207.644 185.839 207.705 186.755 207.767Z" fill="#EB3F33"/>
<path d="M192.815 208.137C191.899 208.075 190.983 208.014 190.067 207.952C190.983 208.014 191.899 208.075 192.815 208.137Z" fill="#EB3F33"/>
<path d="M223.824 209C223.894 209 223.965 209 223.965 209C259.554 209 292.042 205.794 320.584 200.061C292.042 205.794 259.554 209 223.965 209C223.965 209 223.894 209 223.824 209Z" fill="#EB3F33"/>
<path d="M217.622 208.939C216.917 208.939 216.213 208.939 215.508 208.877C216.213 208.939 216.917 208.939 217.622 208.939Z" fill="#EB3F33"/>
<path d="M403.249 61.6519C401.135 62.8849 398.95 64.1796 396.695 65.351C398.95 64.1796 401.135 62.9465 403.249 61.6519Z" fill="#EB3F33"/>
<path d="M30.8674 52.2192C11.0643 36.9911 0.0704735 19.1121 0 0C0 0 0 0 0 104.5C0.0704735 85.3879 11.0643 67.5088 30.8674 52.2192Z" fill="white"/>
<path d="M448 108.63C448 117.508 445.674 126.14 441.164 134.401C445.674 126.14 448 117.508 448 108.63Z" fill="#EB3F33"/>
<path d="M417.133 52.2192C415.723 53.329 414.243 54.3771 412.763 55.4251C414.314 54.3771 415.723 53.329 417.133 52.2192Z" fill="#EB3F33"/>
<path d="M448 0C448 3.02094 447.718 6.04189 447.154 9.06283C446.943 10.2342 446.661 11.4673 446.379 12.6386C446.238 13.2552 446.027 13.81 445.886 14.4265C445.463 15.7829 445.04 17.0776 444.547 18.4339C442.785 23.0578 440.318 27.6201 437.218 31.9973C436.654 32.7988 436.09 33.5386 435.526 34.2785C433.764 36.5596 431.862 38.8407 429.747 41.0602C427.633 43.2796 425.378 45.4375 422.982 47.5953C421.361 49.0133 419.67 50.4313 417.908 51.7876C417.696 51.9726 417.485 52.0959 417.274 52.2808C415.864 53.3906 414.384 54.4386 412.904 55.4867C410.86 56.9664 408.676 58.3844 406.491 59.8024C405.434 60.4189 404.447 61.0971 403.39 61.7136C401.276 62.9466 399.091 64.2413 396.836 65.4127C393.453 67.2622 389.93 68.9885 386.265 70.7148C382.601 72.441 378.795 74.044 374.778 75.6469C366.815 78.7912 358.358 81.6888 349.337 84.3398C335.242 88.4089 319.95 91.7997 303.388 94.3891C295.777 95.5605 287.884 96.6086 279.85 97.41C278.511 97.5333 277.172 97.6566 275.763 97.8416C273.719 98.0266 271.675 98.2115 269.632 98.3965C265.474 98.7664 261.316 99.013 257.017 99.2596C254.339 99.4445 251.661 99.5678 248.983 99.6912C240.878 100.061 232.633 100.246 224.176 100.246C221.639 100.246 219.102 100.246 216.636 100.184C215.931 100.184 215.156 100.184 214.451 100.123C212.548 100.061 210.716 100.061 208.813 99.9994C128.826 97.9033 66.0337 79.2844 31.0083 52.3425C11.0643 67.5089 0.0704735 85.3879 0 104.5C0 105.856 0 107.213 0 108.631C0 156.534 68.0774 197.04 173.999 206.781C174.281 206.781 174.633 206.842 174.915 206.842C175.972 206.965 177.029 207.027 178.087 207.089C179.003 207.15 179.848 207.212 180.765 207.335C181.822 207.397 182.949 207.52 184.006 207.582C184.922 207.644 185.839 207.705 186.684 207.767C187.812 207.829 188.869 207.89 189.997 207.952C190.913 208.014 191.829 208.075 192.745 208.137C193.873 208.199 195 208.26 196.128 208.322C197.044 208.383 197.89 208.383 198.806 208.445C200.004 208.507 201.202 208.568 202.329 208.568C203.175 208.63 204.091 208.63 204.937 208.692C206.205 208.753 207.403 208.753 208.672 208.815C209.518 208.815 210.363 208.877 211.139 208.877C212.548 208.877 213.887 208.938 215.297 208.938C216.001 208.938 216.706 208.938 217.411 209C219.454 209 221.569 209.062 223.612 209.062C223.683 209.062 223.753 209.062 223.753 209.062C259.342 209.062 291.831 205.856 320.372 200.122C324.812 199.259 329.111 198.273 333.269 197.286C335.383 196.793 337.427 196.3 339.541 195.745C340.598 195.498 341.585 195.19 342.642 194.943C351.804 192.477 360.401 189.765 368.506 186.805C370.338 186.127 372.1 185.449 373.791 184.771C377.315 183.414 380.627 181.996 383.94 180.517C386.406 179.407 388.802 178.297 391.128 177.126C392.678 176.324 394.229 175.585 395.709 174.783C399.444 172.81 402.967 170.776 406.35 168.618C407.407 168.001 408.394 167.323 409.381 166.645C413.327 163.994 416.992 161.281 420.374 158.507C423.687 155.733 426.717 152.897 429.465 149.999C430.382 149.013 431.298 148.026 432.143 147.04C432.566 146.547 432.989 146.053 433.412 145.56C434.258 144.574 435.033 143.587 435.738 142.539C437.711 139.888 439.473 137.176 440.953 134.463C445.463 126.201 447.789 117.57 447.789 108.692C447.789 107.274 447.789 105.918 447.789 104.562C448 0 448 0 448 0Z" fill="#FF513F"/>
</g>
<defs>
<clipPath id="clip0">
<rect width="448" height="209" fill="white"/>
</clipPath>
</defs>
</svg>
