<svg width="448" height="675" viewBox="0 0 448 675" fill="none" xmlns="http://www.w3.org/2000/svg">
<g clip-path="url(#clip0)">
<path d="M224.035 550.668C90.1356 550.668 0.281886 499.063 -1.04325e-05 436.333C-1.04325e-05 436.333 -1.04325e-05 436.333 -5.01004e-06 560.384C-2.2619e-06 623.254 89.9946 675 224.035 675C358.076 675 448.07 623.254 448.07 560.384C448.07 436.333 448.07 436.333 448.07 436.333C447.718 499.063 357.864 550.668 224.035 550.668Z" fill="#FF513F"/>
<path d="M224.035 441.332C90.1356 441.332 0.281891 492.938 0 555.667C0 555.667 0 555.667 -5.42241e-06 431.617C-8.17055e-06 368.747 89.9946 317 224.035 317C358.076 317 448 368.747 448 431.617C448 555.667 448 555.667 448 555.667C447.718 492.938 357.864 441.332 224.035 441.332Z" fill="white"/>
<path d="M224.035 550.668C218.397 550.668 212.83 550.598 207.333 550.386L173.999 672.465C189.856 674.155 206.558 675 224.035 675C358.076 675 448.07 623.254 448.07 560.384C448.07 436.333 448.07 436.333 448.07 436.333C447.718 499.063 357.864 550.668 224.035 550.668Z" fill="#FF513F"/>
</g>
<g clip-path="url(#clip1)">
<path d="M224.027 311.494C120.614 311.494 51.2177 271.852 51 223.667C51 223.667 51 223.667 51 318.957C51 367.251 120.505 407 224.027 407C327.55 407 397.054 367.251 397.054 318.957C397.054 223.667 397.054 223.667 397.054 223.667C396.782 271.852 327.386 311.494 224.027 311.494Z" fill="#FF513F"/>
<path d="M224.027 227.507C120.614 227.507 51.2177 267.148 51 315.333C51 315.333 51 315.333 51 220.043C51 171.749 120.505 132 224.027 132C327.55 132 397 171.749 397 220.043C397 315.333 397 315.333 397 315.333C396.782 267.148 327.386 227.507 224.027 227.507Z" fill="white"/>
<path d="M224.027 311.494C219.673 311.494 215.373 311.44 211.128 311.277L185.383 405.053C197.629 406.351 210.529 407 224.027 407C327.549 407 397.054 367.251 397.054 318.957C397.054 223.667 397.054 223.667 397.054 223.667C396.782 271.852 327.386 311.494 224.027 311.494Z" fill="#FF513F"/>
</g>
<g clip-path="url(#clip2)">
<path d="M224.017 114.876C158.263 114.876 114.138 89.5056 114 58.6667C114 58.6667 114 58.6667 114 119.652C114 150.56 158.194 176 224.017 176C289.841 176 334.035 150.56 334.035 119.652C334.035 58.6667 334.035 58.6667 334.035 58.6667C333.862 89.5056 289.737 114.876 224.017 114.876Z" fill="#FF513F"/>
<path d="M224.017 61.1243C158.263 61.1243 114.138 86.4946 114 117.333C114 117.333 114 117.333 114 56.3479C114 25.4397 158.194 0.000196432 224.017 0.000193555C289.841 0.000190678 334 25.4397 334 56.3479C334 117.333 334 117.333 334 117.333C333.862 86.4946 289.737 61.1243 224.017 61.1243Z" fill="white"/>
<path d="M224.017 114.876C221.249 114.876 218.515 114.841 215.815 114.737L199.446 174.754C207.232 175.585 215.434 176 224.017 176C289.841 176 334.034 150.56 334.034 119.652C334.034 58.6667 334.034 58.6667 334.034 58.6667C333.861 89.5056 289.737 114.876 224.017 114.876Z" fill="#FF513F"/>
</g>
<defs>
<clipPath id="clip0">
<rect width="358" height="448" fill="white" transform="translate(0 675) rotate(-90)"/>
</clipPath>
<clipPath id="clip1">
<rect width="275" height="346" fill="white" transform="translate(51 407) rotate(-90)"/>
</clipPath>
<clipPath id="clip2">
<rect width="176" height="220" fill="white" transform="translate(114 176) rotate(-90)"/>
</clipPath>
</defs>
</svg>
