<svg width="220" height="176" viewBox="0 0 220 176" fill="none" xmlns="http://www.w3.org/2000/svg">
<g clip-path="url(#clip0)">
<path d="M110.017 114.876C44.263 114.876 0.138426 89.5056 -5.1288e-06 58.6667C-5.1288e-06 58.6667 -5.1288e-06 58.6667 -2.46304e-06 119.652C-1.112e-06 150.56 44.1938 176 110.017 176C175.841 176 220.035 150.56 220.035 119.652C220.035 58.6667 220.035 58.6667 220.035 58.6667C219.862 89.5056 175.737 114.876 110.017 114.876Z" fill="#FF513F"/>
<path d="M110.017 61.1243C44.263 61.1243 0.138429 86.4946 0 117.333C0 117.333 0 117.333 -2.66577e-06 56.3479C-4.0168e-06 25.4397 44.1938 0.000196432 110.017 0.000193555C175.841 0.000190678 220 25.4397 220 56.3479C220 117.333 220 117.333 220 117.333C219.862 86.4946 175.737 61.1243 110.017 61.1243Z" fill="white"/>
<path d="M110.017 114.876C107.249 114.876 104.515 114.841 101.815 114.737L85.4458 174.754C93.2325 175.585 101.434 176 110.017 176C175.841 176 220.034 150.56 220.034 119.652C220.034 58.6667 220.034 58.6667 220.034 58.6667C219.861 89.5056 175.737 114.876 110.017 114.876Z" fill="#FF513F"/>
</g>
<defs>
<clipPath id="clip0">
<rect width="176" height="220" fill="white" transform="translate(0 176) rotate(-90)"/>
</clipPath>
</defs>
</svg>
