<svg width="220" height="118" viewBox="0 0 220 118" fill="none" xmlns="http://www.w3.org/2000/svg">
<path d="M110.017 56.8759C44.263 56.8759 0.138426 31.5056 -5.1288e-06 0.666664C-5.1288e-06 0.666664 -5.1288e-06 0.666664 -2.46304e-06 61.6523C-1.112e-06 92.5605 44.1938 118 110.017 118C175.841 118 220.035 92.5605 220.035 61.6523C220.035 0.666655 220.035 0.666655 220.035 0.666655C219.862 31.5056 175.737 56.8759 110.017 56.8759Z" fill="#FF513F"/>
<path d="M110.017 56.8759C107.249 56.8759 104.515 56.8413 101.815 56.7375L85.4458 116.754C93.2325 117.585 101.434 118 110.017 118C175.841 118 220.034 92.5605 220.034 61.6523C220.034 0.666658 220.034 0.666658 220.034 0.666658C219.861 31.5056 175.737 56.8759 110.017 56.8759Z" fill="#FF513F"/>
</svg>
